<svg viewBox="0 0 146 146" fill="none" xmlns="http://www.w3.org/2000/svg"><g clip-path="url(#clip0)"><path d="M32.793 26.2344C25.56 26.2344 19.6758 20.3502 19.6758 13.1172C19.6758 5.8842 25.56 0 32.793 0C40.026 0 45.9102 5.8842 45.9102 13.1172C45.9102 20.3502 40.026 26.2344 32.793 26.2344Z" fill="currentColor"></path><path d="M140.139 79.6297C141.797 79.0825 143.32 78.0203 144.448 76.432C145.256 75.2948 145.77 73.9631 145.936 72.5778C146.257 69.903 145.359 67.3289 143.494 65.4646L111.053 33.0229C108.425 34.1573 105.531 34.7889 102.492 34.7889C97.0585 34.7889 92.0897 32.7743 88.282 29.4587C85.0515 31.0143 82.0664 33.1093 79.4444 35.7008C76.6813 38.4318 74.4636 41.5716 72.8451 44.9841L80.5192 47.0771C84.9283 48.2799 88.6051 51.1272 90.8726 55.0949C93.1402 59.0631 93.7265 63.6769 92.5237 68.0863C91.3218 72.494 88.4745 76.171 84.5068 78.4389C81.921 79.9166 78.9905 80.697 76.0314 80.697C74.5104 80.697 72.9902 80.4926 71.5137 80.0897L69.6992 79.5949V94.6717C69.6992 97.0339 71.6143 98.949 73.9766 98.949H112.577L117.687 75.9512L99.8987 58.1626C98.2702 56.534 98.1205 53.8812 99.6706 52.1777C101.326 50.359 104.144 50.3091 105.862 52.028L131.396 77.5632C131.434 77.6008 131.473 77.6359 131.511 77.673C125.216 78.4882 120.336 83.8802 120.336 90.3943V93.125C120.336 95.4282 122.106 97.41 124.406 97.5184C126.863 97.6342 128.891 95.6769 128.891 93.2459V90.5184C128.891 88.218 130.655 86.2356 132.952 86.1224C135.408 86.0012 137.445 87.9642 137.445 90.3943V141.602C137.445 143.905 139.215 145.887 141.516 145.995C143.972 146.111 146 144.153 146 141.722V90.3943C146 85.888 143.663 81.9198 140.139 79.6297V79.6297Z" fill="currentColor"></path><path d="M102.492 26.2344C109.737 26.2344 115.609 20.3616 115.609 13.1172C115.609 5.87277 109.737 0 102.492 0C95.2478 0 89.375 5.87277 89.375 13.1172C89.375 20.3616 95.2478 26.2344 102.492 26.2344Z" fill="currentColor"></path><path d="M78.2539 141.723C78.2539 144.085 80.169 146 82.5312 146H102.492C104.636 146 106.449 144.413 106.732 142.288L111.091 107.504H78.2539V141.723Z" fill="currentColor"></path><path d="M7.72298 107.504L0.294085 135.229C-0.928665 139.793 1.77946 144.484 6.3431 145.706C10.9067 146.929 15.5976 144.221 16.8203 139.657L20.6796 125.254L15.9238 107.504H7.72298Z" fill="currentColor"></path><path d="M42.4926 107.504H24.7798L33.3952 139.657C34.618 144.221 39.3088 146.929 43.8724 145.706C48.4361 144.484 51.1442 139.793 49.9214 135.229L42.4926 107.504Z" fill="currentColor"></path><path d="M33.6379 69.7603C29.4116 68.6077 25.86 65.7399 23.8431 61.8512L22.411 59.0906C21.3231 56.9939 22.1412 54.4121 24.2383 53.3242C26.3353 52.2363 28.9171 53.0544 30.005 55.1515L31.4371 57.9118C32.3481 59.6681 33.963 60.9749 35.8695 61.501L73.7662 71.8365C74.515 72.041 75.2756 72.1419 76.0315 72.1419C77.9218 72.1419 79.7824 71.5092 81.3511 70.2773C82.4618 69.405 83.3363 68.2535 83.8844 66.9518C84.9475 64.4267 84.7724 61.6616 83.4453 59.339C82.3115 57.3552 80.4731 55.9314 78.2686 55.33L47.0337 46.8118L39.5449 33.7063C37.4185 34.4055 35.1504 34.789 32.793 34.789C27.3653 34.789 22.4016 32.779 18.5953 29.4697C7.60284 34.7714 0 46.0282 0 59.0273V94.6718C0 97.0341 1.91511 98.9492 4.27734 98.9492H41.3477C43.7099 98.9492 45.625 97.0341 45.625 94.6718V73.0296L33.6379 69.7603Z" fill="currentColor"></path></g></svg>