<svg width="40" height="36" viewBox="0 0 40 36" fill="none" xmlns="http://www.w3.org/2000/svg">
<g clip-path="url(#clip0_60_22)">
<path d="M27.7914 18.0619V17.3098C27.7914 17.1018 27.757 16.9019 27.6953 16.7143L26.7692 10.6341L26.7013 10.1882C26.7728 10.323 26.8475 10.4605 26.9258 10.6006C27.0158 10.7614 27.1102 10.9249 27.211 11.091C28.2321 12.7734 29.8555 14.676 33.057 15.8045C33.1965 15.8538 33.3388 15.877 33.479 15.877C33.9959 15.877 34.4802 15.5592 34.6636 15.0499C34.8967 14.4026 34.5552 13.6908 33.901 13.4602C30.5888 12.2928 29.5353 10.2293 28.6058 8.40891C27.9196 7.06512 27.2102 5.67561 25.6078 5.38791C25.4145 5.35352 25.2242 5.36594 25.0471 5.4147C24.949 5.40515 24.8485 5.40591 24.7465 5.4211L24.1843 5.50496C24.1152 5.62113 24.04 5.73462 23.958 5.8446C23.3396 6.67356 22.432 7.21467 21.4022 7.36823C21.2084 7.39709 21.0115 7.41175 20.8168 7.41175C19.853 7.41175 18.9547 7.05168 18.2639 6.45518C17.6562 6.67905 17.2206 7.08649 16.885 7.58101C16.6661 7.90353 16.3023 9.84902 16.3023 9.84902C16.3023 9.84902 13.8531 12.9553 13.8531 13.0857C13.8531 13.2161 12.5301 14.0717 11.579 14.4404L12.3964 16.7941C16.2419 15.3408 17.4578 12.7146 18.1931 10.785L18.4414 12.4147L19.2884 17.9758V18.987V32.9191C19.2884 33.9815 20.1588 34.8421 21.2319 34.8421C22.3052 34.8421 23.1756 33.9815 23.1756 32.9191V19.2062V18.8445L23.9042 18.7358V19.0976V32.9191C23.9042 33.9815 24.7746 34.8421 25.8476 34.8421C26.921 34.8421 27.7914 33.9815 27.7914 32.9191L27.7914 18.0619Z" fill="#407BFF"/>
<path d="M21.5232 6.38532C23.2477 6.12542 24.4347 4.51695 24.1749 2.79257C23.915 1.06818 22.3066 -0.118983 20.5821 0.140925C18.8579 0.40079 17.6706 2.00927 17.9305 3.73368C18.1903 5.45806 19.799 6.64519 21.5232 6.38532ZM22.4122 4.16144C22.4122 4.16144 21.53 6.90684 19.3378 4.99361C19.3378 4.99361 21.3155 5.09186 22.4122 4.16144Z" fill="#407BFF"/>
<path d="M37.5415 22.6791C37.8667 22.6791 38.1327 22.4111 38.1327 22.0834C38.1327 21.7558 37.8667 21.4878 37.5415 21.4878H29.6877C29.3625 21.4878 29.0965 21.7558 29.0965 22.0834C29.0965 22.4111 29.3625 22.6791 29.6877 22.6791H30.0609L28.0528 35.3903L29.1092 35.5598L29.7124 31.7415H37.5168L38.12 35.5598L39.1764 35.3903L37.1683 22.6791H37.5415ZM37.3286 30.5502H29.9006L31.1441 22.6791H36.0852L37.3286 30.5502Z" fill="#407BFF"/>
<g clip-path="url(#clip1_60_22)">
<path d="M11.1713 8.10496C9.61457 8.10496 8.35256 6.76187 8.35256 5.10509C8.35256 3.44831 9.61457 2.10522 11.1713 2.10522C12.7281 2.10522 13.9901 3.44831 13.9901 5.10509C13.9901 6.76187 12.7281 8.10496 11.1713 8.10496Z" fill="#407BFF"/>
<path d="M0.971581 18.3861C0.992473 17.97 1.43964 16.9627 1.54011 16.7552C2.68662 14.3789 3.88636 12.0285 5.15374 9.72159C7.07222 6.2273 12.1736 9.4008 10.2466 12.9062C10.1904 13.0084 10.1362 13.1127 10.08 13.2164C11.2504 14.805 13.0127 15.3958 15.2087 15.1512C16.5577 15.0009 16.8775 16.6519 16.1956 17.5593V35H15.2082V18.1204C12.5426 18.4173 10.2994 17.6 8.65396 15.9002C7.98346 17.1961 7.32987 18.502 6.69419 19.8154L10.8649 24.0624C11.414 24.6214 11.6354 25.453 11.4459 26.2349C10.9355 28.3385 9.94322 32.4326 9.67363 33.5675C9.12798 35.8681 5.70934 35.2107 6.25698 32.899C6.76831 30.7397 7.50247 28.2528 8.01579 26.0946C8.02226 26.0687 8.03022 26.0464 8.03718 26.0216C8.01579 26.0946 4.24648 22.504 4.24648 22.504C4.07139 26.102 3.89979 29.9224 3.72669 33.252C3.60085 35.6315 0.132463 35.4462 0.257809 33.0604C0.495567 28.4757 0.733326 22.9682 0.971581 18.3861Z" fill="#407BFF"/>
</g>
</g>
<defs>
<clipPath id="clip0_60_22">
<rect width="40" height="35.7895" fill="white" transform="translate(0 0.105225)"/>
</clipPath>
<clipPath id="clip1_60_22">
<rect width="17" height="33" fill="white" transform="matrix(-1 0 0 1 17 2)"/>
</clipPath>
</defs>
</svg>
