<svg width="40" height="40" viewBox="0 0 40 40" fill="none" xmlns="http://www.w3.org/2000/svg">
<g clip-path="url(#clip0_52_27)">
<path fill-rule="evenodd" clip-rule="evenodd" d="M37.5407 16.0819H29.2569C27.9355 16.0819 26.8588 15.0054 26.8588 13.6837V13.4421C26.8588 12.1204 27.9355 11.0439 29.2569 11.0439H37.5407C38.8621 11.0439 39.9388 12.1204 39.9388 13.4421V13.6837C39.9388 15.0054 38.8621 16.0816 37.5407 16.0816V16.0819Z" fill="#407BFF"/>
<path fill-rule="evenodd" clip-rule="evenodd" d="M37.6019 38.319H29.1955C27.8739 38.319 26.7974 37.2425 26.7974 35.9209V32.8653H39.9998V35.9209C39.9998 37.2456 38.9233 38.3188 37.6016 38.3188L37.6019 38.319ZM26.7976 31.9369V25.1649H40V31.9369H26.7976ZM26.7976 24.2365V21.1777C26.7976 19.8563 27.8741 18.7798 29.1957 18.7798H37.6019C38.9235 18.7798 40 19.8563 40 21.1777V24.2365H26.7976Z" fill="#407BFF"/>
<path fill-rule="evenodd" clip-rule="evenodd" d="M29.5729 19.708C29.3181 19.708 29.1088 19.5018 29.1088 19.244V15.6177C29.1088 15.0067 30.0372 15.0067 30.0372 15.6177V19.247C30.0402 19.5018 29.8309 19.708 29.5731 19.708H29.5729Z" fill="#407BFF"/>
<path fill-rule="evenodd" clip-rule="evenodd" d="M37.2248 19.708C36.97 19.708 36.7605 19.5018 36.7605 19.244V15.6177C36.7605 15.0067 37.6888 15.0067 37.6888 15.6177V19.247C37.6888 19.5018 37.4793 19.708 37.2248 19.708Z" fill="#407BFF"/>
<path fill-rule="evenodd" clip-rule="evenodd" d="M26.3722 5.82553C25.5109 5.82553 25.1987 4.6785 25.9407 4.24162L30.0793 1.80482C31.0443 1.23669 31.9082 2.70224 30.9425 3.27084L26.8039 5.70764C26.6725 5.78499 26.5248 5.82553 26.3724 5.82553H26.3722Z" fill="#407BFF"/>
<path fill-rule="evenodd" clip-rule="evenodd" d="M24.1011 4.45552L25.112 3.85927C25.5793 3.58528 26.1821 3.73997 26.4592 4.20732C26.8257 4.82654 27.7794 6.00358 26.7364 6.61506C26.5881 6.70225 26.1779 6.95749 25.7328 7.22421L24.1011 4.45552Z" fill="#407BFF"/>
<path fill-rule="evenodd" clip-rule="evenodd" d="M8.32784 12.2L21.3373 4.53942C22.0496 4.12036 22.9747 4.35895 23.3938 5.07122L24.8443 7.53053C25.2634 8.2428 25.0248 9.16788 24.3125 9.58694L11.3021 17.2494L8.32808 12.2H8.32784ZM20.086 11.5709C19.928 11.5709 19.7734 11.4903 19.6864 11.3422L18.6549 9.59187C18.3446 9.061 19.1478 8.59694 19.4544 9.12124L20.4856 10.8716C20.6659 11.1798 20.4439 11.5709 20.0858 11.5709H20.086ZM17.6204 12.9891C17.4624 12.9891 17.3077 12.9085 17.2208 12.7604L16.1893 11.007C15.8799 10.4773 16.6808 10.0093 16.9887 10.5364L18.0202 12.2898C18.2037 12.6041 17.9752 12.9894 17.6204 12.9894V12.9891ZM15.1674 14.4397C15.0094 14.4397 14.8547 14.3591 14.7678 14.2109L13.7363 12.4606C13.4269 11.9316 14.2273 11.4624 14.5358 11.99L15.5672 13.7403C15.7531 14.0581 15.5171 14.4399 15.1674 14.4399V14.4397ZM12.7147 15.8837C12.5567 15.8837 12.402 15.8031 12.315 15.6547L11.2836 13.9013C10.9744 13.3719 11.7748 12.9034 12.083 13.4307L13.1145 15.181C13.302 15.5021 13.0578 15.8837 12.7147 15.8837Z" fill="#407BFF"/>
<path fill-rule="evenodd" clip-rule="evenodd" d="M2.9454 17.7838L6.19198 15.8711C7.15432 15.3041 8.02151 16.7678 7.05518 17.3369L3.80861 19.2496L5.16471 21.5519C5.49705 22.1163 5.08666 22.8344 4.43181 22.8344C4.13017 22.8344 3.85243 22.6755 3.69892 22.4151L0.124217 16.3459C-0.445082 15.3794 1.02141 14.5176 1.59 15.4827L2.94517 17.7838H2.9454Z" fill="#407BFF"/>
<path fill-rule="evenodd" clip-rule="evenodd" d="M9.16011 20.2494C8.58589 20.2494 8.05081 19.9494 7.75808 19.4535L4.68635 14.2384C3.95884 13.0056 5.09111 11.4814 6.48799 11.8466C6.90706 11.956 7.26167 12.2204 7.48081 12.5912L10.5525 17.8063C11.1884 18.8837 10.4039 20.2494 9.16011 20.2494Z" fill="#407BFF"/>
</g>
<defs>
<clipPath id="clip0_52_27">
<rect width="40" height="40" fill="white"/>
</clipPath>
</defs>
</svg>
