<svg viewBox="0 0 130 146" fill="none" xmlns="http://www.w3.org/2000/svg"><path d="M31.6328 55.8718C37.7146 55.8718 42.645 50.9415 42.645 44.8596C42.645 38.7777 37.7146 33.8474 31.6328 33.8474C25.5509 33.8474 20.6206 38.7777 20.6206 44.8596C20.6206 50.9415 25.5509 55.8718 31.6328 55.8718Z" fill="currentColor"></path><path d="M126.892 18.313H123.255V10.8936C123.255 9.14954 121.842 7.73599 120.098 7.73599H106.86V3.94697C106.86 1.76686 105.093 0 102.914 0C100.734 0 98.9666 1.76686 98.9666 3.94697V7.73599H85.7289C83.9849 7.73599 82.5713 9.14954 82.5713 10.8936V18.313H78.9967C77.7411 18.313 76.723 19.3311 76.723 20.5867V39.5359C76.723 40.2838 77.0906 40.9834 77.7062 41.4078L83.2304 45.2158L83.3611 65.0058L83.3636 65.0978C83.375 65.3509 84.3385 90.4409 70.6464 92.757C66.6043 93.4408 60.9847 93.1709 57.3066 90.373C57.2955 90.3647 57.2838 90.3578 57.273 90.3492C55.8462 89.2544 54.7615 87.812 54.0232 86.04L65.9522 83.1213C68.6287 82.4664 70.2674 79.7655 69.6125 77.089C68.9576 74.4126 66.2576 72.7736 63.5802 73.4285L46.8165 77.5305L34.9166 66.5707L44.2076 71.4735L44.2231 68.8539C44.2476 64.7455 40.9368 61.3951 36.8284 61.3706L23.5625 61.2917C19.4541 61.2672 16.1037 64.578 16.0793 68.6864C15.8443 108.229 15.9008 102.843 15.8164 103.946C15.6759 105.781 16.38 107.485 17.5991 108.679H9.47272V56.1874C9.47272 53.5715 7.35223 51.4511 4.73636 51.4511C2.12048 51.4511 0 53.5715 0 56.1874C0 60.9285 0 136.558 0 141.263C0 143.879 2.12048 146 4.73636 146C7.35192 146 9.47272 143.879 9.47272 141.263V133.475H34.2293V141.263C34.2293 143.879 36.3498 146 38.9657 146C41.5816 146 43.7021 143.879 43.7021 141.263C43.7021 110.913 43.7848 113.014 43.5051 112.069L49.2037 112.505L44.9444 139.064C44.4207 142.329 46.643 145.4 49.9078 145.923C53.1722 146.447 56.2439 144.225 56.7675 140.96L62.057 107.98C62.611 104.526 60.0928 101.329 56.6022 101.062L44.0379 100.101L44.0779 93.3863C41.8708 93.3491 39.8239 92.1944 38.6451 90.3524L28.1578 73.9109L42.025 86.6826C43.2647 87.8244 44.983 88.2528 46.591 87.8589L49.3772 87.1774C50.3784 89.9182 52.0165 92.2857 54.3907 94.1075C59.0668 97.6951 65.8295 98.3757 71.4371 97.4274C89.0546 94.4471 88.1726 66.6988 88.0977 64.9307L87.9674 45.1886L93.451 41.4084C94.0666 40.9841 94.4341 40.2841 94.4341 39.5366V20.5864C94.4341 19.3308 93.4161 18.3127 92.1605 18.3127H88.8874V14.0508H98.9675V138.106H90.1256C87.9458 138.106 86.1786 139.873 86.1786 142.053C86.1786 144.233 87.9458 146 90.1256 146H115.701C117.881 146 119.648 144.233 119.648 142.053C119.648 139.873 117.881 138.106 115.701 138.106H106.86V14.0508H116.94V18.3127H113.729C112.474 18.3127 111.456 19.3308 111.456 20.5864V39.5356C111.456 40.2835 111.823 40.9831 112.439 41.4075L119.02 45.9446C119.797 46.4803 120.824 46.4803 121.601 45.9446L128.183 41.4075C128.799 40.9831 129.166 40.2832 129.166 39.5356V20.5864C129.166 19.3308 128.148 18.313 126.892 18.313ZM34.2293 118.152V127.16H9.47272V118.152H34.2293Z" fill="currentColor"></path></svg>