<svg viewBox="0 0 146 146" fill="none" xmlns="http://www.w3.org/2000/svg"><g clip-path="url(#clip0)"><path d="M144.731 1.02755C143.362 -0.342517 141.138 -0.342517 139.769 1.02755L118.741 22.0552L116.267 19.5824C113.428 16.7447 109.654 15.1816 105.639 15.1816C101.622 15.1816 97.8462 16.7461 95.0078 19.5866L25.3505 89.2713L21.1525 85.0748C20.1229 84.0458 18.7549 83.4794 17.2992 83.4794C15.8428 83.4794 14.4742 84.0472 13.4508 85.0713L13.3575 85.1639C11.2343 87.2899 11.235 90.7474 13.3596 92.8706L21.4761 100.984L10.0039 112.461L9.69085 112.148C8.65418 111.112 7.27779 110.542 5.81297 110.542C4.34745 110.542 2.96896 111.112 1.92316 112.159L1.84595 112.238C-0.293377 114.376 -0.293377 117.857 1.84595 119.996L26.2538 144.394C27.2905 145.43 28.6669 146 30.1317 146C31.5979 146 32.9757 145.429 34.011 144.393L34.0987 144.305C36.238 142.166 36.238 138.686 34.0987 136.546L33.7702 136.219L45.2424 124.742L53.3407 132.837C54.3704 133.866 55.739 134.432 57.194 134.432C58.6504 134.432 60.0191 133.865 61.0473 132.836L61.1358 132.748C63.259 130.623 63.2583 127.165 61.1337 125.041L56.8641 120.773L126.521 51.0884C132.381 45.2263 132.38 35.6899 126.518 29.8292L123.704 27.0167L144.73 5.99054C146.102 4.62047 146.102 2.39832 144.731 1.02755ZM121.558 46.1268L85.1499 82.5494L81.4917 78.8926L112.011 48.3728C113.382 47.002 113.382 44.7799 112.011 43.4098C111.906 43.3045 111.788 43.2231 111.674 43.134C111.585 43.0189 111.502 42.9003 111.396 42.7943L104.332 35.7306C102.961 34.3598 100.739 34.3598 99.3686 35.7306C97.9985 37.1013 97.9985 39.3228 99.3693 40.6936L104.568 45.8917L101.112 49.3477L95.9118 44.1482C94.541 42.7774 92.3196 42.7774 90.9488 44.1482C89.5787 45.519 89.5787 47.7404 90.9495 49.1112L96.1483 54.3093L92.6923 57.7654L87.4935 52.5665C86.1241 51.1965 83.9005 51.1965 82.5312 52.5665C81.1604 53.9373 81.1604 56.1595 82.5312 57.5295L87.7293 62.7283L84.2732 66.1844L79.0744 60.9856C77.705 59.6155 75.4815 59.6155 74.1121 60.9856C72.7414 62.3564 72.7414 64.5785 74.1121 65.9486L79.3102 71.1467L76.5273 73.9289L63.5636 60.9701L99.9715 24.5475C101.485 23.0329 103.498 22.199 105.639 22.199C107.779 22.199 109.791 23.0322 111.304 24.5447L121.555 34.7915C124.68 37.9169 124.681 43.0013 121.558 46.1268Z" fill="currentColor"></path></g></svg>