<svg viewBox="0 0 146 146" fill="none" xmlns="http://www.w3.org/2000/svg"><path d="M141.589 144.15H4.41134C2.05371 144.15 0.142334 142.239 0.142334 139.881C0.142334 130.45 7.78755 122.805 17.2184 122.805H128.782C138.212 122.805 145.858 130.45 145.858 139.881C145.858 142.239 143.946 144.15 141.589 144.15Z" fill="currentColor"></path><path d="M15.7954 114.267C7.16428 114.267 0.142334 107.245 0.142334 98.6142C0.142334 89.9831 7.16428 82.9612 15.7954 82.9612C24.4264 82.9612 31.4484 89.9831 31.4484 98.6142C31.4484 107.245 24.4264 114.267 15.7954 114.267Z" fill="currentColor"></path><path d="M113.524 87.1274V88.6531H126.332V79.7329L113.524 87.1274Z" fill="currentColor"></path><path d="M137.32 97.191H104.985V82.1979L125.211 70.5205C129.24 68.1945 130.822 63.0691 128.607 58.978C126.31 54.7331 120.98 53.2458 116.827 55.6433L92.1798 69.8733C89.4433 71.4534 87.9489 74.3211 87.9463 77.269H87.9096V88.653H42.5477C41.0092 88.653 39.5341 88.9248 38.1675 89.4222C39.3369 92.258 39.9863 95.361 39.9863 98.614C39.9863 103.69 38.4114 108.404 35.729 112.299C37.7038 113.544 40.0407 114.267 42.5477 114.267H137.142C141.794 114.267 145.727 110.619 145.854 105.969C145.987 101.144 142.115 97.191 137.32 97.191V97.191Z" fill="currentColor"></path><path d="M112.49 40.669C109.782 38.9432 106.832 37.6779 103.749 36.9032C99.1015 41.6145 92.6476 44.5399 85.5226 44.5399C78.3086 44.5399 71.7824 41.5408 67.1226 36.7253C53.7735 39.7145 43.7974 51.6338 43.7974 65.8849V71.5769C43.7974 76.2925 47.6198 80.1149 52.3354 80.1149H55.1814H75.1028C77.4605 80.1149 79.3718 78.2036 79.3718 75.8459V75.8442C79.3718 73.4874 77.4613 71.5769 75.1045 71.5769H60.8734C58.5158 71.5769 56.6044 69.6655 56.6044 67.3079V58.8906C56.6044 56.5919 58.3709 54.6139 60.667 54.5057C63.1186 54.3902 65.1424 56.3437 65.1424 58.7699V63.0389H75.1028C78.3086 63.0389 81.2408 64.2257 83.4897 66.1792C84.7283 64.72 86.2139 63.4596 87.9113 62.4794L112.559 48.2494L117.948 45.1376C116.318 43.4482 114.49 41.9443 112.49 40.669V40.669Z" fill="currentColor"></path><path d="M85.5223 36.0019C76.1066 36.0019 68.4463 28.3416 68.4463 18.9259C68.4463 9.51016 76.1066 1.84985 85.5223 1.84985C94.938 1.84985 102.598 9.51016 102.598 18.9259C102.598 28.3416 94.938 36.0019 85.5223 36.0019Z" fill="currentColor"></path></svg>