<svg viewBox="0 0 146 146" fill="none" xmlns="http://www.w3.org/2000/svg"><path d="M73.2567 29.9845L95.2176 8.02355C100.391 2.84973 107.271 0 114.588 0C121.905 0 128.785 2.84973 133.959 8.02355L137.983 12.0476C148.663 22.7288 148.663 40.1074 137.983 50.7885L116.021 72.7495L73.2567 29.9845ZM29.1871 71.9451L71.9513 29.1809L50.7939 8.02355C45.6193 2.84973 38.7399 0 31.4231 0C24.1062 0 17.2276 2.84973 12.053 8.02355L8.02971 12.0476C2.8551 17.2214 0.00537109 24.1008 0.00537109 31.4177C0.00537109 38.7346 2.8551 45.6139 8.02892 50.7878L29.1871 71.9451ZM29.9906 73.2513L8.02971 95.2122C2.8551 100.386 0.00616511 107.265 0.00616511 114.582C0.00616511 121.899 2.85589 128.779 8.02971 133.952L12.053 137.976C17.2276 143.15 24.107 146 31.4239 146C38.7407 146 45.6201 143.15 50.7947 137.976L72.7556 116.016L29.9906 73.2513ZM116.824 74.0549L74.0602 116.819L95.2176 137.976C100.391 143.15 107.271 146 114.588 146C121.905 146 128.785 143.15 133.959 137.976L137.983 133.952C148.663 123.271 148.663 105.893 137.983 95.2122L116.824 74.0549ZM105.846 73.8039L73.8093 105.841L40.1652 72.1961L72.2022 40.159L105.846 73.8039ZM62.6732 69.7934C60.8835 68.0036 57.9814 68.0036 56.1908 69.7934C54.4011 71.5831 54.4011 74.4852 56.1908 76.2757C57.9806 78.0654 60.8827 78.0654 62.6732 76.2757C64.4637 74.4852 64.4637 71.5831 62.6732 69.7934ZM76.2128 83.3322C74.4231 81.5424 71.5209 81.5424 69.7304 83.3322C67.9407 85.1219 67.9407 88.024 69.7304 89.8145C71.5201 91.6042 74.4223 91.6042 76.2128 89.8145C78.0025 88.024 78.0025 85.1219 76.2128 83.3322ZM76.2811 56.1855C74.4914 54.3958 71.5892 54.3958 69.7987 56.1855C68.009 57.9752 68.009 60.8773 69.7987 62.6678C71.5884 64.4576 74.4906 64.4576 76.2811 62.6678C78.0708 60.8781 78.0708 57.976 76.2811 56.1855ZM89.8199 76.2074C91.6096 74.4177 91.6096 71.5156 89.8199 69.7251C88.0302 67.9354 85.128 67.9354 83.3375 69.7251C81.5478 71.5148 81.5478 74.4169 83.3375 76.2074C85.128 77.9971 88.0302 77.9971 89.8199 76.2074Z" fill="currentColor"></path></svg>