<svg width="65" height="65" viewBox="0 0 65 65" fill="none" xmlns="http://www.w3.org/2000/svg">
<rect x="0.5" y="0.5" width="64" height="64" rx="5" fill="#407BFF" fill-opacity="0.05"/>
<g clip-path="url(#clip0_55_83)">
<path d="M55.7424 29.2953L51.0833 24.6362V18.0226C51.0833 16.817 50.6044 15.6609 49.752 14.8084C48.8996 13.956 47.7434 13.4771 46.5379 13.4771H39.947L35.2879 8.93165C34.4362 8.08505 33.2842 7.60986 32.0833 7.60986C30.8825 7.60986 29.7304 8.08505 28.8788 8.93165L24.2197 13.4998H17.6061C16.4005 13.4998 15.2444 13.9787 14.3919 14.8312C13.5395 15.6836 13.0606 16.8398 13.0606 18.0453V24.6362L8.51515 29.2953C8.076 29.7079 7.72326 30.2036 7.47746 30.7538C7.23165 31.3039 7.09768 31.8974 7.08333 32.4998C7.08237 33.7002 7.55624 34.8521 8.40151 35.7044L13.0833 40.3635V46.9771C13.0833 48.1826 13.5622 49.3388 14.4147 50.1912C15.2671 51.0437 16.4233 51.5226 17.6288 51.5226H24.2197L28.8788 56.1816C29.731 57.0269 30.883 57.5008 32.0833 57.4998C33.2837 57.5008 34.4356 57.0269 35.2879 56.1816L39.947 51.4998H46.5606C47.7661 51.4998 48.9223 51.0209 49.7747 50.1685C50.6272 49.3161 51.1061 48.1599 51.1061 46.9544V40.3635L55.7652 35.7044C56.6117 34.8527 57.0869 33.7007 57.0869 32.4998C57.0869 31.299 56.6117 30.1469 55.7652 29.2953H55.7424ZM46.5379 38.4998V46.9544H38.0833L32.0833 52.9544L26.0833 46.9544H17.6288V38.4998L11.6288 32.4998L17.6288 26.4998V18.0453H26.0833L32.0833 12.0453L38.0833 18.0453H46.5379V26.4998L52.5379 32.4998L46.5379 38.4998Z" fill="#407BFF"/>
<path d="M29.8106 34.1592L24.6061 28.9546L21.3788 32.1592L29.8106 40.591L42.7879 27.6137L39.5606 24.4092L29.8106 34.1592Z" fill="#407BFF"/>
</g>
<defs>
<clipPath id="clip0_55_83">
<rect width="50.8333" height="50" fill="white" transform="translate(7.08333 7.5)"/>
</clipPath>
</defs>
</svg>
