<svg viewBox="0 0 146 146" fill="none" xmlns="http://www.w3.org/2000/svg"><g clip-path="url(#clip0)"><path d="M142.163 35.607L104.854 1.29237C102.88 -0.523045 99.813 -0.412554 97.9752 1.53993L96.8234 2.76373C94.9556 4.74838 95.0681 7.87712 97.0745 9.72191L97.8773 10.4597L8.05389 105.884C4.11675 110.066 2.06287 115.531 2.26987 121.271C2.47686 127.011 4.91887 132.314 9.14622 136.202L13.6771 140.37C17.6254 144.001 22.7514 146 28.1123 146C33.9712 146 39.6335 143.555 43.6469 139.29L133.808 43.5072L134.384 44.0366C136.357 45.852 139.424 45.7415 141.262 43.789L142.414 42.5652C144.282 40.5805 144.169 37.4518 142.163 35.607ZM88.7072 81.217L55.6842 65.4866L101.751 16.5465L127.388 40.1253L88.7072 81.217Z" fill="currentColor"></path></g></svg>