<svg width="40" height="38" viewBox="0 0 40 38" fill="none" xmlns="http://www.w3.org/2000/svg">
<g clip-path="url(#clip0_47_555)">
<path d="M20.0726 32.726L20.9906 36.2176C21.159 36.858 21.7369 37.2816 22.3693 37.2816C22.4894 37.2816 22.6114 37.2664 22.733 37.2344C23.4949 37.0341 23.9501 36.254 23.7498 35.492L21.6209 27.3954C21.4879 26.8895 21.0886 26.497 20.5804 26.3726L20.0658 26.2466C20.0682 26.2908 20.0726 26.3344 20.0726 26.3792L20.0726 32.726Z" fill="#407BFF"/>
<path d="M16.8972 9.86821C16.6821 9.63174 16.3944 9.45733 16.0576 9.38667C15.2062 9.20803 14.3713 9.75338 14.1926 10.6048C14.0706 11.1863 14.2868 11.7598 14.7071 12.1221C15.0051 11.0652 15.8226 10.204 16.8972 9.86821Z" fill="#407BFF"/>
<path d="M16.4328 12.1043C16.6549 11.8387 16.967 11.6757 17.3117 11.6451C17.3506 11.6417 17.3892 11.64 17.4275 11.64C17.9573 11.64 18.4114 11.953 18.612 12.4125L19.1287 12.3666C19.2567 11.8425 19.7053 11.4322 20.2718 11.3817C20.2859 11.3804 20.2996 11.3806 20.3135 11.3798C19.7172 10.4925 18.6577 9.96287 17.5238 10.1019C16.1307 10.2727 15.0878 11.3947 14.9626 12.7373L16.1681 12.63C16.2144 12.439 16.303 12.2594 16.4328 12.1043Z" fill="#407BFF"/>
<path d="M18.3873 17.1457C19.6175 16.995 20.487 15.3862 20.7394 13.9189C20.6623 13.9406 20.5829 13.9558 20.5015 13.963C20.4627 13.9664 20.4241 13.9681 20.3858 13.9681C19.7105 13.9681 19.156 13.4604 19.0961 12.7873C19.0949 12.7739 19.0954 12.7608 19.0946 12.7476L18.7118 12.7816C18.7134 12.7948 18.716 12.8076 18.7172 12.821C18.7805 13.5324 18.2531 14.163 17.5414 14.2264C17.5025 14.2298 17.464 14.2315 17.4257 14.2315C17.4256 14.2315 17.4258 14.2315 17.4257 14.2315C16.7504 14.2315 16.1958 13.7238 16.1359 13.0505C16.1347 13.0373 16.1351 13.0241 16.1343 13.0109L14.9524 13.1161C14.9555 13.1999 14.9601 13.2839 14.9705 13.3687C15.1675 14.9759 16.7802 17.3428 18.3873 17.1457Z" fill="#407BFF"/>
<path d="M24.908 21.0526C24.7906 20.6596 24.397 20.4083 23.9845 20.4846L18.3924 21.5196L17.1603 17.2542C16.143 16.7355 15.2872 15.5438 14.8666 14.4189C10.5492 16.0735 8.44749 20.0293 8.04375 23.698C8.23135 23.8172 8.45122 23.8882 8.68695 23.8882H13.4482C13.6639 22.4971 14.1935 20.805 15.9025 19.5048C16.4708 21.1006 17.0415 22.7031 17.0415 22.7031C17.1644 23.0856 17.5566 23.3294 17.9639 23.2536L22.6862 22.3796C22.6103 22.5929 22.5667 22.8216 22.5667 23.061C22.5667 23.3489 22.8001 23.5823 23.088 23.5823C23.3762 23.5823 23.6096 23.3489 23.6096 23.061C23.6105 22.5137 24.0535 22.071 24.6005 22.0698C25.1475 22.071 25.5905 22.5137 25.5915 23.061V36.6696C25.5915 36.9574 25.8249 37.1913 26.1131 37.1913C26.401 37.1913 26.6347 36.9574 26.6347 36.6696L26.6344 23.061C26.6341 22.0421 25.8853 21.2013 24.908 21.0526Z" fill="#407BFF"/>
<path d="M8.68695 24.5221C7.83982 24.5221 7.10274 23.9424 6.90322 23.1191L5.21825 16.1688C5.01873 15.3455 4.28165 14.7659 3.43436 14.7659H0V33.2437H1.35105L0.824258 36.9258C0.793732 37.1391 0.935319 37.3391 1.14663 37.3811C1.35796 37.4231 1.56526 37.2926 1.61869 37.0839L2.60157 33.2437H16.837L17.8199 37.0839C17.8733 37.2926 18.0806 37.4231 18.2919 37.3811C18.5033 37.3391 18.6448 37.1391 18.6143 36.9258L18.0875 33.2437H19.4386V26.3792C19.4386 25.3536 18.6072 24.5221 17.5816 24.5221L8.68695 24.5221Z" fill="#407BFF"/>
<path d="M20.3042 11.7449C19.792 11.7905 19.4136 12.2428 19.4592 12.755C19.5048 13.2673 19.9571 13.6456 20.4692 13.6C20.9814 13.5544 21.3598 13.1023 21.3142 12.5899C21.2687 12.0777 20.8164 11.6994 20.3042 11.7449Z" fill="#407BFF"/>
<path d="M17.344 12.0084C16.8319 12.0539 16.4535 12.5062 16.499 13.0184C16.5446 13.5307 16.9969 13.909 17.5091 13.8634C18.0213 13.8178 18.3997 13.3657 18.3541 12.8534C18.3085 12.3412 17.8562 11.9628 17.344 12.0084Z" fill="#407BFF"/>
<path d="M36.507 10.6759C35.8756 8.55041 34.1017 8.09721 32.7083 8.84621C32.5364 10.3998 31.8398 10.8474 31.3921 11.2604C30.8963 11.6708 30.4923 12.0531 30.4416 12.2449C30.2225 13.0757 30.5961 14.4884 31.7671 14.4604C31.878 14.8477 31.9737 15.2225 32.056 15.5847L32.0382 15.7961L28.4781 21.7689C28.1867 22.2577 28.3469 22.89 28.8355 23.1813C29.0008 23.2799 29.1826 23.3268 29.3621 23.3268C29.7131 23.3268 30.0552 23.1473 30.2479 22.8239L32.511 19.0271C32.5411 19.9261 32.4955 20.6749 32.4419 21.2652L31.0898 27.9467C31.0887 27.9521 31.0887 27.9577 31.0876 27.9632C31.0632 28.0899 31.055 28.2171 31.0615 28.3425C31.0618 28.3485 31.0611 28.3545 31.0615 28.3606L31.537 35.9157C31.5899 36.7556 32.2874 37.4014 33.1173 37.4012C33.1508 37.4012 33.1845 37.4003 33.2184 37.3981C34.092 37.3432 34.7557 36.5903 34.7008 35.7167L34.2474 28.5123L36.6278 22.4423C37.6708 21.9203 38.2924 20.918 37.5204 19.2344C35.0228 13.7872 37.128 12.7653 36.507 10.6759Z" fill="#407BFF"/>
<path d="M39.8148 8.73524C39.1517 9.01588 38.1644 8.93248 37.2968 6.41981C36.7207 4.75138 35.8651 4.05934 35.0037 3.8269C35.2316 4.5673 35.2187 5.33314 35.0044 6.03339C35.5409 7.15012 35.9921 8.74443 37.1313 9.29596C39.309 10.3503 40.4779 8.45459 39.8148 8.73524Z" fill="#407BFF"/>
<path d="M32.9311 7.97446C34.6116 7.12717 35.287 5.07801 34.4397 3.39754C33.5924 1.71707 31.5432 1.04164 29.8628 1.88894C28.1823 2.73623 27.5069 4.78539 28.3542 6.46586C29.2015 8.14633 31.2506 8.82175 32.9311 7.97446Z" fill="#407BFF"/>
</g>
<defs>
<clipPath id="clip0_47_555">
<rect width="40" height="37.29" fill="white" transform="translate(0 0.35498)"/>
</clipPath>
</defs>
</svg>
