<svg viewBox="0 0 146 146" fill="none" xmlns="http://www.w3.org/2000/svg"><path d="M92.2637 82.1102L76.8804 84.674C74.306 85.1032 71.6946 85.1032 69.1199 84.674L53.7366 82.1102C44.5611 80.5803 36.2148 87.6627 36.2148 96.9531C36.2148 106.239 44.5551 113.325 53.7366 111.796C70.5876 108.988 70.4473 108.91 73 108.91C75.5946 108.91 75.5427 109.009 92.2637 111.796C101.423 113.324 109.785 106.259 109.785 96.9531C109.785 87.6673 101.445 80.5803 92.2637 82.1102Z" fill="currentColor"></path><path d="M124.613 51.6133H21.3867C9.59408 51.6133 0 61.2074 0 73V120.906C0 132.699 9.59408 142.293 21.3867 142.293H124.613C136.406 142.293 146 132.699 146 120.906V73C146 61.2074 136.406 51.6133 124.613 51.6133ZM90.8573 120.234L75.474 117.671C73.8321 117.397 72.1676 117.397 70.5263 117.671L55.1427 120.234C48.2858 121.378 41.3109 119.456 36.0064 114.962C24.8927 105.547 24.8673 88.3799 36.0064 78.9438C41.3109 74.4503 48.2861 72.5284 55.1427 73.6715L70.526 76.2354C72.1676 76.5089 73.8318 76.5089 75.4737 76.2354L90.8571 73.6715C105.226 71.2782 118.34 82.3548 118.34 96.9531C118.34 111.577 105.2 122.626 90.8573 120.234V120.234Z" fill="currentColor"></path><path d="M13.6875 44.1992C21.0776 44.1992 27.0898 38.187 27.0898 30.7969C27.0898 23.4068 21.0776 17.3945 13.6875 17.3945C6.29197 17.3945 0 23.3714 0 30.7969C0 38.2221 6.29169 44.1992 13.6875 44.1992Z" fill="currentColor"></path><path d="M73 35.0742C81.6479 35.0742 88.6836 28.0386 88.6836 19.3906C88.6836 10.7427 81.6479 3.70703 73 3.70703C64.3521 3.70703 57.3164 10.7427 57.3164 19.3906C57.3164 28.0386 64.3521 35.0742 73 35.0742Z" fill="currentColor"></path><path d="M43.7116 38.4761C44.1875 40.7688 46.3564 42.2818 48.7418 41.8352C51.0709 41.3496 52.5409 39.1556 52.1009 36.8051C51.5748 34.2823 49.068 32.8317 46.663 33.5486C44.3743 34.2946 43.3258 36.4267 43.7116 38.4761V38.4761Z" fill="currentColor"></path><path d="M32.3052 17.9447C32.7854 20.2591 34.9715 21.7464 37.3354 21.3039C39.6603 20.8191 41.1354 18.6285 40.6945 16.2737C40.1593 13.7076 37.5992 12.3043 35.2595 13.0172C33.0535 13.7204 31.9066 15.8269 32.3052 17.9447V17.9447Z" fill="currentColor"></path></svg>