<svg viewBox="0 0 146 146" fill="none" xmlns="http://www.w3.org/2000/svg"><path d="M48.2377 44.8511L35.672 33.0251C33.9248 31.3752 31.2432 31.2585 29.3452 32.7282C25.3205 35.8672 19.7435 35.5801 16.0202 31.8668C14.3266 30.1684 13.4652 27.7009 13.4652 24.5377V4.86676C13.4652 2.1803 11.2849 0 8.5987 0C5.91252 0 3.73193 2.1803 3.73193 4.86676V24.5377C3.73193 30.295 5.60085 35.2054 9.14363 38.7533C13.0029 42.6029 17.8355 44.6324 23.1208 44.6324C26.1332 44.6324 29.0484 43.9608 31.7155 42.6614L41.5705 51.9324C42.5098 52.8181 43.7068 53.2561 44.9042 53.2561C46.1988 53.2561 47.4932 52.7402 48.4473 51.7279C50.2914 49.7715 50.1939 46.6909 48.2377 44.8511Z" fill="currentColor"></path><path d="M140.84 131.487L88.9813 79.6283C88.9131 76.5235 87.3313 74.4114 86.2266 73.3212L56.7395 43.8389C53.2988 40.4079 46.9187 40.7923 43.0058 44.671L41.0251 46.6614C39.234 48.4525 38.0954 50.7446 37.8131 53.1193C37.482 55.8885 38.358 58.5359 40.2076 60.3854L69.5778 89.7556C70.2884 90.505 72.8289 92.9337 76.216 93.0358L127.754 144.574C128.703 145.523 129.949 146 131.195 146C132.436 146 133.681 145.523 134.635 144.579L140.845 138.369C142.743 136.466 142.743 133.39 140.84 131.487ZM77.7635 82.8355C77.3646 82.8355 76.9653 82.8842 76.5664 82.9815L76.5616 82.9766L47.5706 53.9856C47.6387 53.8542 47.7457 53.6985 47.9113 53.5331L49.8823 51.5524C50.0526 51.387 50.2183 51.2798 50.3494 51.2116L79.2038 80.0757C78.9606 81.015 78.9897 82.1052 79.2865 83.0784C78.7903 82.9182 78.2793 82.8355 77.7635 82.8355Z" fill="currentColor"></path></svg>