<svg width="38" height="40" viewBox="0 0 38 40" fill="none" xmlns="http://www.w3.org/2000/svg">
<g clip-path="url(#clip0_64_13)">
<path d="M36.9144 19.8047L31.8315 15.606L30.7702 13.9478L30.9949 11.3465L30.9965 11.3276C31.1064 10.0552 30.157 8.9436 28.8891 8.83506L24.7777 8.48316C23.7388 8.3942 22.7857 9.00773 22.4211 9.94794L24.504 9.65385L18.4305 12.0093C17.9545 12.1939 17.5905 12.6051 17.4776 13.1193L16.1547 19.1499C15.9719 19.9829 16.502 20.8068 17.3398 20.9889C18.1797 21.1716 19.0054 20.638 19.1873 19.8091L20.3328 14.5879L25.8327 12.4548L21.8653 15.3144L21.3632 22.3658C21.3802 22.5102 21.2462 21.6479 22.4826 29.488L19.5146 37.3217C19.1516 38.2797 19.6375 39.3493 20.6001 39.7108C21.5629 40.0722 22.6371 39.5881 22.9998 38.6302L26.1414 30.3383C26.2552 30.038 26.2887 29.7134 26.2387 29.3965C26.1429 28.7887 25.3051 23.4764 25.1815 22.6924L26.1638 22.7765L29.1354 29.3225L31.2056 38.387C31.4335 39.3853 32.4314 40.0108 33.4345 39.7839C34.4376 39.5568 35.0656 38.5634 34.8377 37.5649L32.7259 28.3182C32.6984 28.197 32.6584 28.0789 32.6069 27.9656L30.047 22.3265C30.3143 19.2317 30.2808 19.6189 30.3845 18.4182L34.9361 22.178C35.5947 22.7221 36.5715 22.6313 37.1178 21.976C37.6639 21.321 37.573 20.3486 36.9144 19.8047Z" fill="#02CA74"/>
<path d="M27.5232 7.44502C29.3812 7.60477 31.0298 6.22926 31.1907 4.35819C31.3511 2.493 29.969 0.851036 28.1039 0.69064C26.2389 0.530244 24.5968 1.91242 24.4364 3.77747C24.2751 5.65481 25.6732 7.28606 27.5232 7.44502Z" fill="#02CA74"/>
<path d="M10.8065 8.4611C12.8039 8.63282 14.5761 7.15415 14.7491 5.14275C14.9215 3.13767 13.4357 1.37256 11.4308 1.20013C9.42586 1.02771 7.66063 2.51354 7.4882 4.51848C7.31479 6.53662 8.81775 8.29022 10.8065 8.4611Z" fill="#02CA74"/>
<path d="M4.85452 29.4993L0.797401 36.72C0.224214 37.7401 0.586536 39.0317 1.60662 39.6049C1.93476 39.7893 2.29104 39.8768 2.64252 39.8768C3.38338 39.8768 4.10272 39.4875 4.49145 38.7957L8.89998 30.9496C9.10333 30.5877 9.1945 30.1751 9.16554 29.7632L4.13223 24.4092L4.85452 29.4993Z" fill="#02CA74"/>
<path d="M13.8023 28.6853C13.7793 28.1798 13.576 27.6992 13.2294 27.3304L8.91054 22.7363C8.8901 22.469 8.84153 22.14 8.76721 21.7143C8.64339 20.7908 8.6421 19.8182 8.71215 18.8449C8.54334 18.6919 8.40361 18.5073 8.30492 18.2984L5.85373 13.1097C5.65461 12.6881 5.63144 12.2141 5.78885 11.7751C5.94609 11.3362 6.26505 10.9848 6.68663 10.7855C6.92215 10.6743 7.17276 10.618 7.43146 10.618C8.10397 10.618 8.72383 11.0107 9.01085 11.6184L9.66858 13.0108C10.147 11.3273 9.51049 9.31902 8.06805 8.95924C6.62109 8.59874 4.52363 9.3843 3.6702 11.8661C2.51687 15.2852 2.26892 17.5111 2.70722 21.2763C2.8681 22.1041 3.1528 22.7055 3.51405 23.1427C3.57463 23.2307 3.6401 23.3164 3.71558 23.3967L9.60492 29.6613L9.97783 37.8609C10.0295 38.997 10.9668 39.8834 12.0927 39.8833C12.1251 39.8833 12.1579 39.8826 12.1905 39.8811C13.3594 39.8279 14.2639 38.8373 14.2108 37.6684L13.8023 28.6853Z" fill="#02CA74"/>
<path d="M4.90582 3.86288H17.2363V3.29085H14.6788L14.4798 0.903729C14.4798 0.903729 13.2937 0 11.0711 0C8.84881 0 7.66237 0.903729 7.66237 0.903729L7.46364 3.29085H4.90582V3.86288Z" fill="#02CA74"/>
<path d="M16.7077 21.5175L31.3541 39.0029L31.7763 38.6492L17.0891 21.115C16.9837 21.2704 16.8542 21.4049 16.7077 21.5175Z" fill="#02CA74"/>
<path d="M13.4404 24.23C13.2944 24.3549 13.1014 24.3819 12.8515 24.3122C12.7276 24.0707 12.6078 22.2876 12.836 20.7904L12.6027 20.6858C12.4248 21.7786 12.4348 22.9835 12.4784 23.5752C12.5455 24.4856 12.6733 24.5243 12.7497 24.5474C12.8747 24.5852 12.9919 24.6041 13.1009 24.6041C13.2959 24.6041 13.4649 24.5437 13.6057 24.4232C14.1448 23.962 14.1432 22.6556 14.0108 21.3173L13.7425 21.197C13.8798 22.4996 13.9122 23.8264 13.4404 24.23Z" fill="#02CA74"/>
<path d="M8.65829 11.7849C8.33868 11.1078 7.53045 10.8182 6.85314 11.138C6.17601 11.4579 5.88635 12.2661 6.20629 12.9432L8.65746 18.132C8.79552 18.4244 9.03353 18.6577 9.32848 18.79L15.0912 21.3747C15.2714 21.4556 15.46 21.4938 15.6453 21.4938C16.1633 21.4938 16.6577 21.1955 16.8834 20.6925C17.1898 20.0092 16.8844 19.2069 16.2012 18.9004L10.8954 16.5206L8.65829 11.7849Z" fill="#02CA74"/>
</g>
<defs>
<clipPath id="clip0_64_13">
<rect width="36.9492" height="40" fill="white" transform="translate(0.525421)"/>
</clipPath>
</defs>
</svg>
