<?xml version="1.0" ?><svg viewBox="0 0 512 512" xmlns="http://www.w3.org/2000/svg"><defs><style>.cls-1{fill:#6e6e6e;}.cls-2{fill:#575757;}.cls-3{fill:#4a4a4a;}.cls-4{fill:#7db6d6;}.cls-5{fill:#0071af;}.cls-6{fill:#cbe2ef;}.cls-7{fill:#353535;}.cls-8{fill:#5ca4cc;}.cls-9{fill:#00659d;}.cls-10{fill:#006095;}.cls-11{fill:#adc0cb;}.cls-12{fill:#4e8cae;}.cls-13{fill:#2d2d2d;}</style></defs><g data-name="/ FLAT" id="_FLAT"><path class="cls-1" d="M112,232h96V472a16,16,0,0,1-16,16H40a16,16,0,0,1-16-16V440a32,32,0,0,1,32-32h56Z"/><path class="cls-2" d="M152,232h96V472a16,16,0,0,1-16,16H80a16,16,0,0,1-16-16V456a48,48,0,0,1,48-48h24a16,16,0,0,0,16-16Z"/><path class="cls-3" d="M76.38892,487.57568A16.00233,16.00233,0,0,0,80,488H232a16.00016,16.00016,0,0,0,16-16V304C248,401.45605,172.23047,481.20215,76.38892,487.57568Z"/><path class="cls-2" d="M24,456H208v16a16,16,0,0,1-16,16H40a16,16,0,0,1-16-16V456"/><rect class="cls-2" height="40" width="136" x="112" y="232"/><path class="cls-4" d="M273.13184,143.91992l-2.26368-15.83984L290.084,125.335A34.8425,34.8425,0,0,0,285.15723,56H240V40h45.15723a50.84292,50.84292,0,0,1,7.19043,101.1748Z"/><path class="cls-4" d="M78.86816,143.91992,59.65234,141.1748A50.84292,50.84292,0,0,1,66.84277,40H112V56H66.84277A34.8425,34.8425,0,0,0,61.916,125.335l19.21582,2.74512Z"/><path class="cls-5" d="M472,104a16.00016,16.00016,0,0,0-16,16V64a16,16,0,0,0-32,0V40a16,16,0,0,0-32,0V88a16,16,0,0,0-32,0V200l-35.40137-35.40161a17.81763,17.81763,0,0,0-25.19726,0v.00024a17.81722,17.81722,0,0,0-1.19092,23.88086l54.55615,66.67969A31.99963,31.99963,0,0,1,360,275.42285V328H488V120A16.00016,16.00016,0,0,0,472,104Z"/><path class="cls-6" d="M85.43618,53.65448l-.32326.87985a163.19578,163.19578,0,0,0,.77984,114.6388l0,.00006a16,16,0,0,0,7.28037,8.32473l6.21051,3.38756a160,160,0,0,0,153.23268,0l6.21051-3.38756a16,16,0,0,0,7.28037-8.32473l0-.00006a163.19578,163.19578,0,0,0,.77984-114.6388l-.32326-.87985a16,16,0,0,0-9.55057-9.51891l-32.48574-11.813a141.99988,141.99988,0,0,0-97.055,0l-32.48574,11.813A16,16,0,0,0,85.43618,53.65448Z"/><path class="cls-4" d="M176,114.56055a87.96051,87.96051,0,0,1-30.89941-5.6045L109.19141,95.49023l5.61718-14.98046,35.91016,13.46582a71.98958,71.98958,0,0,0,50.56152,0l35.91114-13.46582,5.61718,14.98046-35.91015,13.46582A87.97342,87.97342,0,0,1,176,114.56055Z"/><path class="cls-4" d="M176,155.64355a88.13194,88.13194,0,0,1-27.82812-4.48632l-22.70215-7.56739,5.06054-15.17968,22.70215,7.56738a72.4398,72.4398,0,0,0,45.53516,0l22.70215-7.56738,5.06054,15.17968-22.70215,7.56739A88.13194,88.13194,0,0,1,176,155.64355Z"/><path class="cls-7" d="M64,456H248v16a16,16,0,0,1-16,16H80a16,16,0,0,1-16-16V456"/><rect class="cls-7" height="40" width="96" x="152" y="232"/><path class="cls-8" d="M352,432v23.33422c0,17.43617,13.67044,32.17514,31.10005,32.65345A32.00077,32.00077,0,0,0,416,456V432a32,32,0,0,0-32-32H384A32,32,0,0,0,352,432Z"/><path class="cls-4" d="M344,496H320a40.04584,40.04584,0,0,1-40-40V392h16v64a24.0275,24.0275,0,0,0,24,24h24Z"/><rect class="cls-9" height="120" rx="7.99999" width="16" x="416" y="64"/><rect class="cls-9" height="96" rx="7.99999" width="16" x="384" y="88"/><rect class="cls-9" height="64" rx="7.99999" width="16" x="448" y="120"/><rect class="cls-9" height="22.62742" rx="7.99999" transform="translate(-39.29351 321.13708) rotate(-45)" width="16.00105" x="359.99947" y="196.68629"/><path class="cls-10" d="M360,314.63477V328H488V128.00024A200.06267,200.06267,0,0,1,360,314.63477Z"/><path class="cls-11" d="M140.00977,196.30688A160.00025,160.00025,0,0,0,164.60547,200h22.78906a159.86831,159.86831,0,0,0,65.22168-19.1145l6.21045-3.38745a16.002,16.002,0,0,0,7.28076-8.325h0a163.19447,163.19447,0,0,0,6.61865-94.98267A176.2702,176.2702,0,0,1,140.00977,196.30688Z"/><path class="cls-12" d="M370.92676,485.15234a31.10746,31.10746,0,0,0,12.17334,2.83545A32.001,32.001,0,0,0,416,456V432a32.40621,32.40621,0,0,0-.18213-3.40527A64.03172,64.03172,0,0,1,370.92676,485.15234Z"/><path class="cls-4" d="M448,496H424V480h24a24.0275,24.0275,0,0,0,24-24V392h16v64A40.04584,40.04584,0,0,1,448,496Z"/><path class="cls-6" d="M472,368H296a16,16,0,0,0-16,16v32a32,32,0,0,0,32,32h21.42968a32,32,0,0,0,27.78378-16.12355l8.89465-15.56564a16,16,0,0,1,27.78378,0l8.89465,15.56564A32,32,0,0,0,434.57032,448H456a32,32,0,0,0,32-32V384A16,16,0,0,0,472,368Z"/><path class="cls-4" d="M376,410.37061a16.17621,16.17621,0,0,1,16,0V392H376Z"/><path class="cls-11" d="M424.35547,446.3208A31.95993,31.95993,0,0,0,434.57031,448H456a32.00034,32.00034,0,0,0,32-32V384a15.96738,15.96738,0,0,0-.78076-4.92627A80.05236,80.05236,0,0,1,424.35547,446.3208Z"/><path class="cls-13" d="M76.3894,487.57568l.002.00049c.25732.05957.51758.11133.779.15918.33765.06006.67627.1167,1.021.15576.1438.01709.29.02637.4353.03955C79.08032,487.96924,79.53638,488,80,488H232a16.00016,16.00016,0,0,0,16-16V456H167.68506A182.987,182.987,0,0,1,76.3894,487.57568Z"/></g></svg>