<svg width="20" height="20" viewBox="0 0 20 20" fill="none" xmlns="http://www.w3.org/2000/svg">
<g clip-path="url(#clip0_15_1062)">
<path d="M4.75188 10.0218C4.49465 9.7646 4.49465 9.34753 4.75188 9.09032C5.00912 8.8331 5.42617 8.8331 5.6834 9.09032L8.32872 11.7356L13.8843 6.17998C14.1415 5.92275 14.5586 5.92275 14.8158 6.17998C15.0731 6.43721 15.0731 6.85427 14.8158 7.1115L8.83336 13.094C8.55443 13.3729 8.10215 13.3729 7.82322 13.094L4.75188 10.0218Z" fill="#02CA74"/>
<path fill-rule="evenodd" clip-rule="evenodd" d="M10 0.714355C4.87165 0.714355 0.714294 4.87171 0.714294 10.0001C0.714294 15.1284 4.87165 19.2858 10 19.2858C15.1284 19.2858 19.2857 15.1284 19.2857 10.0001C19.2857 4.87171 15.1284 0.714355 10 0.714355ZM2.14287 10.0001C2.14287 5.66069 5.66063 2.14293 10 2.14293C14.3394 2.14293 17.8572 5.66069 17.8572 10.0001C17.8572 14.3394 14.3394 17.8572 10 17.8572C5.66063 17.8572 2.14287 14.3394 2.14287 10.0001Z" fill="#02CA74"/>
</g>
<defs>
<clipPath id="clip0_15_1062">
<rect width="20" height="20" fill="white"/>
</clipPath>
</defs>
</svg>
