<svg width="40" height="38" viewBox="0 0 40 38" fill="none" xmlns="http://www.w3.org/2000/svg">
<path d="M35.0055 25.8781C35.818 25.3156 36.318 24.3781 36.318 23.3781C36.318 23.0656 36.0055 22.7531 35.693 22.7531H34.443C34.318 22.7531 34.1305 22.7531 34.0055 22.8156L34.3805 20.2531H35.693C36.7555 20.2531 37.568 19.4406 37.568 18.3781C37.568 17.3156 36.7555 16.5031 35.693 16.5031H31.818L32.318 15.3156C32.568 15.5031 32.8805 15.6281 33.1305 15.7531C33.318 15.8156 33.568 15.8156 33.7555 15.8156C34.8805 15.8156 35.8805 15.0656 36.193 13.9406C36.2555 13.6906 36.2555 13.4406 36.2555 13.1906C36.818 12.8781 37.2555 12.3156 37.443 11.6906C37.693 10.7531 37.3805 9.81559 36.693 9.19059C36.818 8.94059 36.943 8.62809 37.068 8.31559C37.6305 6.31559 36.443 4.25309 34.443 3.75309C34.3805 3.75309 34.318 3.69059 34.2555 3.69059C34.1305 2.12809 33.068 0.753088 31.5055 0.378088C29.8805 -0.0594116 28.193 0.628088 27.3805 2.00309C25.693 2.06559 24.2555 3.19059 23.818 4.81559C22.943 5.19059 22.193 5.94059 21.943 6.87809C21.7555 7.69059 21.8805 8.50309 22.193 9.12809C22.068 9.31559 21.943 9.44059 21.8805 9.69059L21.318 8.56559C20.8805 7.69059 20.1305 7.00309 19.193 6.69059C19.0055 6.62809 18.8805 6.62809 18.693 6.56559L18.5055 3.25309C18.5055 3.06559 18.3805 2.87809 18.2555 2.75309C18.1305 2.62809 17.8805 2.62809 17.693 2.69059L15.193 3.37809C14.8805 3.50309 14.693 3.81559 14.7555 4.12809V4.19059L14.693 4.12809C14.443 3.87809 14.068 3.87809 13.818 4.12809L11.943 5.94059C11.818 6.06559 11.7555 6.25309 11.7555 6.44059C11.7555 6.62809 11.8805 6.81559 12.0055 6.87809L14.818 8.75309C14.7555 8.94059 14.693 9.06559 14.6305 9.25309C14.568 9.62809 14.5055 9.9406 14.568 10.3156C13.6305 10.5031 12.818 10.8781 12.068 11.4406L10.318 9.69059C10.068 9.44059 9.69302 9.44059 9.44302 9.69059C9.19302 9.94059 9.19302 10.3156 9.44302 10.5656L11.318 12.4406C10.3805 12.5031 9.50552 13.1281 9.13052 14.0656L9.06802 14.2531L3.19302 12.2531C2.69302 12.0656 2.19302 12.1281 1.75552 12.3156C1.31802 12.5031 0.943024 12.9406 0.818024 13.3781C0.505524 14.3781 1.00552 15.4406 2.00552 15.7531L4.06802 16.5031H1.94302C0.880524 16.5031 0.0680237 17.3156 0.0680237 18.3781C0.0680237 19.4406 0.880524 20.2531 1.94302 20.2531H3.25552L5.19302 33.8781C5.44302 35.7531 7.06802 37.1281 8.88052 37.1281H26.943C27.5055 37.5031 28.068 37.7531 28.7555 37.7531C29.443 37.7531 30.0055 37.6281 30.6305 37.3781C31.2555 37.6281 31.8805 37.7531 32.5055 37.7531C35.443 37.7531 37.5055 32.8781 37.5055 30.2531C37.568 28.3781 36.568 26.7531 35.0055 25.8781ZM33.2555 13.1281C33.3805 13.0656 33.5055 13.0031 33.568 12.9406C34.318 12.5031 34.818 11.8781 35.0055 11.0656C35.0055 10.9406 35.068 10.8781 35.068 10.7531C35.3805 10.6281 35.6305 10.4406 35.8805 10.1906C36.193 10.5031 36.318 10.9406 36.193 11.3781C36.068 11.8156 35.7555 12.1281 35.3805 12.2531C35.068 12.3781 34.8805 12.6906 34.943 13.0031C35.0055 13.2531 35.0055 13.4406 34.943 13.6281C34.7555 14.3156 34.068 14.6906 33.443 14.5031C33.193 14.4406 32.943 14.3156 32.818 14.0656L33.2555 13.1281ZM34.443 24.0031H34.943C34.7555 24.5656 34.2555 25.0656 33.6305 25.1906C33.5055 25.2531 33.3805 25.2531 33.193 25.2531H32.693C32.8805 24.7531 33.318 24.3156 33.818 24.1281C34.0055 24.0656 34.193 24.0031 34.443 24.0031ZM30.5055 6.94059C30.818 6.75309 31.193 6.87809 31.3805 7.19059C31.568 7.50309 31.443 7.87809 31.1305 8.06559C30.3805 8.50309 30.0055 9.4406 30.318 10.2531C30.443 10.5656 30.2555 10.9406 29.943 11.0656C29.8805 11.0656 29.818 11.1281 29.7555 11.1281C29.5055 11.1281 29.2555 10.9406 29.193 10.6906C28.6305 9.1906 29.193 7.62809 30.5055 6.94059ZM29.318 11.6906C29.3805 11.8156 29.5055 11.9406 29.568 12.0656L29.0055 13.1906L28.693 11.7531C28.943 11.7531 29.1305 11.7531 29.318 11.6906ZM28.7555 15.8156C29.0055 15.8156 29.193 15.6906 29.318 15.4406L30.5055 12.9406C30.7555 13.0656 30.943 13.1906 31.193 13.2531C31.3805 13.3156 31.568 13.3156 31.7555 13.3156L30.3805 16.4406H26.443L26.568 15.9406C26.568 15.8781 26.568 15.7531 26.568 15.6281L25.568 10.6906C25.7555 10.6281 25.8805 10.6281 26.068 10.5656C26.3805 11.0031 26.818 11.3156 27.318 11.5031L28.068 15.2531C28.1305 15.5031 28.318 15.6906 28.6305 15.7531C28.7555 15.8156 28.7555 15.8156 28.7555 15.8156ZM27.193 2.87809C27.3805 2.56559 27.7555 2.44059 28.068 2.62809C28.3805 2.81559 28.5055 3.19059 28.318 3.50309C27.8805 4.25309 27.943 5.19059 28.3805 5.94059C28.568 6.25309 28.443 6.62809 28.1305 6.81559C28.0055 6.87809 27.943 6.87809 27.818 6.87809C27.6305 6.87809 27.3805 6.75309 27.2555 6.56559C26.568 5.37809 26.568 4.00308 27.193 2.87809ZM26.1305 7.37809C26.5055 7.37809 26.7555 7.69059 26.7555 8.00309C26.7555 8.31559 26.818 8.62809 26.943 8.87809C27.068 9.19059 26.943 9.56559 26.6305 9.69059C26.568 9.75309 26.443 9.75309 26.3805 9.75309C26.1305 9.75309 25.943 9.62809 25.818 9.37809C25.568 8.94059 25.5055 8.44059 25.5055 7.94059C25.443 7.62809 25.7555 7.37809 26.1305 7.37809ZM24.818 13.1281L25.3805 15.8156L25.193 16.5031H25.068L24.2555 14.7531L23.5055 13.1281C23.693 13.1906 23.943 13.1906 24.1305 13.1906C24.3805 13.1906 24.6305 13.1906 24.818 13.1281ZM23.693 16.5031H22.443C22.5055 16.5031 22.5055 16.5031 22.568 16.4406L23.443 15.9406L23.693 16.5031ZM22.943 10.3781C22.943 10.3156 23.0055 10.2531 23.068 10.1281C23.3805 10.3781 23.7555 10.5656 24.193 10.6906C24.2555 10.6906 24.318 10.6906 24.443 10.7531L24.693 11.8781C24.443 12.0031 24.193 12.0031 23.943 11.9406C23.193 11.7531 22.7555 11.0656 22.943 10.3781ZM17.318 4.12809L17.443 6.62809C17.2555 6.69059 17.068 6.75309 16.818 6.81559L16.1305 4.44059L17.318 4.12809ZM16.0055 9.56559C16.1305 8.94059 16.5055 8.44059 17.068 8.12809C17.6305 7.81559 18.2555 7.75309 18.8805 7.94059C19.068 8.00309 19.2555 8.12809 19.443 8.19059L18.818 8.56559C18.5055 8.75309 18.443 9.12809 18.568 9.44059C18.693 9.62809 18.8805 9.75309 19.1305 9.75309C19.2555 9.75309 19.318 9.75309 19.443 9.69059L20.318 9.19059L21.1305 10.8781L20.3805 11.3156C20.068 11.5031 20.0055 11.8781 20.1305 12.1906C20.2555 12.3781 20.443 12.5031 20.693 12.5031C20.818 12.5031 20.8805 12.5031 21.0055 12.4406L21.6305 12.0656L22.943 14.8781L21.943 15.3781C21.6305 15.5656 21.568 15.9406 21.693 16.2531C21.7555 16.3781 21.8805 16.5031 22.068 16.5031H19.8805L19.193 15.5031L20.7555 14.5656C21.068 14.3781 21.1305 14.0031 21.0055 13.6906C20.818 13.3781 20.443 13.3156 20.1305 13.4406L18.443 14.3781L17.3805 12.8156L18.6305 12.0656C18.943 11.8781 19.0055 11.5031 18.8805 11.1906C18.693 10.8781 18.318 10.8156 18.0055 10.9406L16.6305 11.6906L16.318 11.3156C15.943 10.8156 15.818 10.1906 16.0055 9.56559ZM12.068 13.8781L12.2555 13.3781L12.7555 13.8781C12.8805 14.0031 13.068 14.0656 13.193 14.0656C13.318 14.0656 13.5055 14.0031 13.6305 13.8781C13.8805 13.6281 13.8805 13.2531 13.6305 13.0031L13.068 12.4406C13.6305 12.0031 14.318 11.7531 15.0055 11.6281C15.068 11.8156 15.193 11.9406 15.2555 12.1281L18.318 16.5656H15.443L11.068 15.0656C11.568 14.7531 11.8805 14.3156 12.068 13.8781ZM1.94302 19.0031C1.56802 19.0031 1.31802 18.7531 1.31802 18.3781C1.31802 18.0031 1.56802 17.7531 1.94302 17.7531H7.69302L11.318 19.0031H1.94302ZM10.068 33.3781C10.068 34.0656 9.50552 34.6281 8.81802 34.6281C8.13052 34.6281 7.56802 34.0656 7.56802 33.3781V25.8781C7.56802 25.1906 8.13052 24.6281 8.81802 24.6281C9.13052 24.6281 9.44302 24.7531 9.69302 25.0031C9.94302 25.2531 10.068 25.5656 10.068 25.8781V33.3781ZM15.068 33.3781C15.068 34.0656 14.5055 34.6281 13.818 34.6281C13.1305 34.6281 12.568 34.0656 12.568 33.3781V25.8781C12.568 25.1906 13.1305 24.6281 13.818 24.6281C14.1305 24.6281 14.443 24.7531 14.693 25.0031C14.943 25.2531 15.068 25.5656 15.068 25.8781V33.3781ZM14.443 22.7531H6.94302C6.63052 22.7531 6.31802 22.4406 6.31802 22.1281C6.31802 21.8156 6.63052 21.5031 6.94302 21.5031H14.443C14.7555 21.5031 15.068 21.8156 15.068 22.1281C15.068 22.4406 14.7555 22.7531 14.443 22.7531ZM2.38052 14.6281C2.06802 14.5031 1.88052 14.1281 2.00552 13.8156C2.06802 13.6281 2.19302 13.5031 2.31802 13.4406C2.38052 13.3781 2.44302 13.3781 2.56802 13.3781C2.63052 13.3781 2.69302 13.3781 2.75552 13.4406L19.318 19.1281C19.568 19.1906 19.693 19.3781 19.7555 19.6281C19.7555 19.7531 19.7555 19.8156 19.7555 19.9406C19.693 20.1281 19.568 20.2531 19.443 20.3156C19.318 20.3781 19.1305 20.3781 18.943 20.3156L16.943 19.6281L2.38052 14.6281ZM20.068 33.3781C20.068 34.0656 19.5055 34.6281 18.818 34.6281C18.1305 34.6281 17.568 34.0656 17.568 33.3781V25.8781C17.568 25.1906 18.1305 24.6281 18.818 24.6281C19.1305 24.6281 19.443 24.7531 19.693 25.0031C19.943 25.2531 20.068 25.5656 20.068 25.8781V33.3781ZM19.693 17.9406L19.1305 17.7531H35.693C36.068 17.7531 36.318 18.0031 36.318 18.3781C36.318 18.7531 36.068 19.0031 35.693 19.0031H20.818C20.6305 18.5031 20.2555 18.1281 19.693 17.9406ZM30.318 22.9406C30.3805 22.8781 30.5055 22.7531 30.693 22.7531C30.8805 22.7531 31.0055 22.8781 31.068 22.9406C31.1305 23.0031 31.193 23.1281 31.193 23.3156L30.8805 25.5656L30.7555 26.4406C30.7555 26.5031 30.6305 26.5031 30.568 26.4406L30.443 25.5656L30.1305 23.3156C30.193 23.1281 30.2555 23.0031 30.318 22.9406ZM29.3805 22.0656C29.193 22.2531 29.068 22.5031 29.0055 22.7531H23.193C22.8805 22.7531 22.568 22.4406 22.568 22.1281C22.568 21.8156 22.8805 21.5031 23.193 21.5031H30.693C30.7555 21.5031 30.8805 21.5031 30.943 21.5656C30.3805 21.5031 29.7555 21.6906 29.3805 22.0656ZM23.818 34.6281C23.1305 34.6281 22.568 34.0656 22.568 33.3781V25.8781C22.568 25.1906 23.1305 24.6281 23.818 24.6281C24.1305 24.6281 24.443 24.7531 24.693 25.0031C24.943 25.2531 25.068 25.5656 25.068 25.8781V26.9406C24.318 27.8156 23.818 29.0031 23.818 30.2531C23.818 31.3156 24.193 32.8156 24.818 34.1906C24.568 34.4406 24.193 34.6281 23.818 34.6281ZM32.568 36.5031C32.068 36.5031 31.6305 36.3781 31.1305 36.1906C31.068 36.1906 31.0055 36.1281 30.943 36.1281C30.8805 36.0656 30.7555 36.0656 30.693 36.0656C30.6305 36.0656 30.5055 36.0656 30.443 36.1281C29.943 36.3781 29.3805 36.5031 28.818 36.5031C26.943 36.5031 25.068 32.5656 25.068 30.2531C25.068 28.1906 26.7555 26.5031 28.818 26.5031C28.943 26.5031 29.0055 26.5031 29.1305 26.5031C29.193 26.5031 29.2555 26.5031 29.318 26.5031V26.5656C29.3805 27.2531 29.943 27.7531 30.6305 27.7531C31.318 27.7531 31.8805 27.2531 31.943 26.5656V26.5031C32.0055 26.5031 32.068 26.5031 32.1305 26.5031C32.2555 26.5031 32.3805 26.5031 32.443 26.5031C32.7555 26.5031 33.068 26.5656 33.318 26.6281C34.943 27.0031 36.193 28.5031 36.193 30.2531C36.318 32.5656 34.443 36.5031 32.568 36.5031Z" fill="#02CA74"/>
<path d="M38.5178 17.7942C38.2053 17.6067 37.8303 17.7316 37.6428 18.0441C37.4553 18.3566 37.6428 18.7317 37.9553 18.9192C38.3303 19.1067 38.6428 19.4192 38.7678 19.8567C38.8303 20.1067 39.0803 20.2942 39.3303 20.2942C39.3928 20.2942 39.4553 20.2941 39.5178 20.2316C39.8303 20.1066 40.0178 19.7317 39.8928 19.4192C39.6428 18.7317 39.1428 18.1067 38.5178 17.7942Z" fill="#02CA74"/>
</svg>
