<svg width="65" height="65" viewBox="0 0 65 65" fill="none" xmlns="http://www.w3.org/2000/svg">
<rect x="0.5" y="0.5" width="64" height="64" rx="5" fill="#407BFF" fill-opacity="0.05"/>
<g clip-path="url(#clip0_55_197)">
<path d="M51.8665 31.8856L57.5 27.7141L52.6305 11.3027L27.5653 12.1061L25.1506 15.8559L16.5663 13.7911L7.5 32.5086L11.6298 36.0632L9.44932 39.4375C8.76064 40.5033 8.52822 41.7734 8.79492 43.0141C9.06152 44.2547 9.79541 45.3171 10.8611 46.0058C11.6388 46.5083 12.5254 46.7679 13.4299 46.7679C13.668 46.7679 13.9071 46.749 14.146 46.7127C14.4484 47.7882 15.1271 48.7623 16.137 49.4148C16.9321 49.9287 17.8247 50.174 18.7076 50.174C18.9461 50.174 19.1835 50.1539 19.4184 50.1187C19.7307 51.2358 20.4301 52.189 21.4128 52.824C22.208 53.3379 23.1005 53.5832 23.9834 53.5832C25.5433 53.5832 27.0731 52.8171 27.9809 51.4122L28.6287 50.4095L32.4229 52.9249L32.4388 52.9354C33.2164 53.4379 34.103 53.6976 35.0075 53.6976C35.3425 53.6976 35.6801 53.6619 36.0153 53.5899C37.256 53.3232 38.3184 52.5894 39.007 51.5237C39.4917 50.7736 39.7371 49.9369 39.7634 49.1033C40.0064 49.0891 40.2502 49.0566 40.4929 49.0045C41.7335 48.7378 42.7959 48.0039 43.4846 46.9383C43.9597 46.2031 44.2174 45.3705 44.244 44.5177C44.4861 44.5033 44.7287 44.471 44.9702 44.419C46.2109 44.1523 47.2733 43.4187 47.962 42.3528C48.4472 41.6021 48.6926 40.7643 48.7184 39.9299C50.1806 39.845 51.5854 39.0892 52.4393 37.7674C53.1279 36.7016 53.3604 35.4314 53.0938 34.1908C52.9041 33.3084 52.4783 32.5162 51.8665 31.8856ZM29.3573 15.2698L50.2506 14.6003L53.7721 26.4684L49.0886 29.9364L31.1789 18.2753L26.0951 25.9912L26.0873 26.0032C25.6289 26.7122 24.6795 26.9162 23.9705 26.4583C23.2615 26.0002 23.0574 25.0506 23.5169 24.3395L29.3573 15.2698ZM14.7252 42.8467C14.2668 43.5558 13.3172 43.7598 12.6085 43.3018C12.265 43.0798 12.0285 42.7374 11.9426 42.3376C11.8567 41.9378 11.9315 41.5285 12.1536 41.1851L15.3734 36.202C15.6661 35.7491 16.1589 35.5023 16.6617 35.5023C16.9462 35.5023 17.234 35.5814 17.4902 35.747C17.8337 35.9689 18.0701 36.3112 18.1561 36.711C18.242 37.1108 18.1671 37.5202 17.9452 37.8637L14.7252 42.8467ZM20.0011 46.2558C19.5427 46.9647 18.5932 47.1687 17.8843 46.7107C17.1753 46.2526 16.9712 45.303 17.4294 44.594L20.6493 39.6109C20.942 39.1581 21.4348 38.9113 21.9376 38.9113C22.2221 38.9113 22.5099 38.9904 22.7661 39.1561C23.4751 39.6142 23.6792 40.5638 23.2211 41.2728L20.0011 46.2558ZM28.4967 44.6817L25.2768 49.6648C24.8187 50.374 23.869 50.5778 23.1602 50.1198C22.8167 49.8979 22.5802 49.5555 22.4943 49.1557C22.4084 48.7559 22.4832 48.3466 22.7052 48.003L25.9251 43.0199C26.1471 42.6765 26.4894 42.44 26.8892 42.3541C26.9973 42.331 27.106 42.3194 27.2138 42.3194C27.5053 42.3194 27.791 42.4031 28.0416 42.5651C28.7507 43.0232 28.9548 43.9728 28.4967 44.6817ZM49.7352 36.0197C49.5132 36.3632 49.1709 36.5996 48.7711 36.6855C48.3713 36.7716 47.9619 36.6966 47.6186 36.4747L46.5503 35.7845L46.5502 35.7844L41.567 32.5645L39.8197 35.2686L40.8881 35.959L44.8029 38.4887C45.1464 38.7106 45.3828 39.0529 45.4687 39.4527C45.5547 39.8525 45.4798 40.2619 45.2579 40.6054C45.036 40.9488 44.6936 41.1854 44.2938 41.2713C43.8939 41.3571 43.4848 41.2823 43.1412 41.0604L38.1581 37.8405L36.4108 40.5446L40.3256 43.0741C41.0346 43.5322 41.2387 44.4817 40.7806 45.1908C40.5586 45.5343 40.2162 45.7708 39.8165 45.8567C39.4166 45.9426 39.0074 45.8678 38.664 45.6459L34.4103 42.8974L32.663 45.6015L35.8482 47.6597C36.5572 48.118 36.7614 49.0674 36.3032 49.7765C36.0813 50.1199 35.739 50.3564 35.3392 50.4424C34.9419 50.5277 34.5353 50.4543 34.1932 50.2356L30.3767 47.7055L31.2012 46.4293C32.6228 44.2292 31.9895 41.2826 29.7894 39.8611C28.7787 39.2081 27.6107 38.9898 26.5053 39.1566C26.2031 38.0802 25.5242 37.1051 24.5137 36.452C23.5037 35.7995 22.3367 35.5811 21.2319 35.7473C20.9195 34.6305 20.2202 33.6777 19.2378 33.043C17.4194 31.8678 15.0915 32.098 13.5355 33.4555L11.4773 31.684L18.3343 17.5279L23.3047 18.7233L20.8118 22.5943C19.3902 24.7944 20.0235 27.7409 22.2236 29.1625C24.4215 30.5828 27.3645 29.9519 28.7878 27.757L32.1061 22.7207L49.2809 33.9031C49.6242 34.1251 49.8607 34.4674 49.9467 34.8672C50.032 35.2669 49.9571 35.6762 49.7352 36.0197Z" fill="#407BFF"/>
</g>
<defs>
<clipPath id="clip0_55_197">
<rect width="50" height="42.5" fill="white" transform="translate(7.5 11.25)"/>
</clipPath>
</defs>
</svg>
