<svg width="306" height="306" viewBox="0 0 306 306" fill="none" xmlns="http://www.w3.org/2000/svg">
<g clip-path="url(#clip0_43_6)">
<path d="M285.267 172.005C285.267 172.005 278.389 167.266 269.577 183.763C260.766 200.26 257.352 209.816 257.352 209.816C257.352 209.816 255.043 213.265 252.684 210.935C250.325 208.605 247.173 202.067 243.072 203.143C238.822 204.27 237.334 208.959 238.007 215.893C238.68 222.828 239.594 238.128 239.672 239.509C239.75 240.89 238.963 242.845 237.072 241.521C235.181 240.196 224.62 227.914 219.095 233.29C213.57 238.666 218.62 257.727 219.137 259.817C219.654 261.907 219.222 262.792 218.223 263.288C217.225 263.784 214.051 259.321 210.892 255.957C207.733 252.592 203.483 249.235 200.558 252.606C197.632 255.978 196.442 270.18 209.525 293.534L216.297 303.96L228.77 303.507C255.418 300.922 266.397 291.834 267.495 287.506C268.593 283.178 263.415 281.605 258.846 280.932C254.278 280.26 248.802 280.224 248.639 279.098C248.476 277.972 248.958 277.143 250.97 276.371C252.981 275.599 271.511 268.87 272.772 261.262C274.033 253.655 257.897 251.962 255.772 251.197C253.647 250.432 254.78 248.625 255.942 247.917C257.104 247.209 270.187 239.219 276.278 235.797C282.37 232.376 285.373 228.487 283.872 224.351C282.42 220.37 275.251 221.517 271.993 220.901C268.735 220.285 270.25 216.432 270.25 216.432C270.25 216.432 276.144 208.187 284.658 191.527C293.172 174.867 285.147 171.892 285.147 171.892" fill="#F5F5F5"/>
<path d="M216.984 301.467C223.281 289.255 232.128 272.425 241.967 253.938C251.805 235.45 260.681 218.656 267.042 206.48L274.564 192.051L276.611 188.127L277.15 187.107C277.277 186.88 277.348 186.767 277.348 186.767C277.348 186.767 277.298 186.894 277.185 187.128C277.072 187.362 276.895 187.716 276.682 188.162C276.222 189.083 275.549 190.407 274.699 192.115C272.97 195.55 270.449 200.501 267.282 206.6C260.985 218.812 252.138 235.606 242.307 254.122C232.475 272.638 223.585 289.418 217.225 301.58" fill="#E0E0E0"/>
<path d="M247.123 212.5C247.254 212.772 247.353 213.057 247.421 213.35C247.591 213.903 247.81 214.71 248.08 215.709C248.604 217.706 249.255 220.483 249.921 223.564C250.587 226.645 251.154 229.344 251.6 231.448C251.805 232.397 251.983 233.19 252.124 233.835C252.208 234.124 252.26 234.42 252.28 234.72C252.145 234.45 252.043 234.165 251.975 233.87C251.805 233.318 251.586 232.51 251.331 231.512C250.828 229.507 250.212 226.723 249.546 223.642C248.88 220.561 248.271 217.869 247.81 215.772C247.598 214.823 247.421 214.03 247.279 213.385C247.191 213.098 247.138 212.8 247.123 212.5Z" fill="#E0E0E0"/>
<path d="M253.413 234.94C253.413 234.841 259.08 233.24 266.071 231.399C273.063 229.557 278.821 228.091 278.821 228.19C278.821 228.289 273.155 229.897 266.163 231.767C259.172 233.637 253.442 235.046 253.413 234.94Z" fill="#E0E0E0"/>
<path d="M237.037 262.7C237.34 262.663 237.647 262.663 237.95 262.7L240.451 262.757C242.576 262.799 245.459 262.849 248.675 262.757C251.89 262.664 254.788 262.551 256.891 262.424L259.377 262.275C259.684 262.241 259.992 262.241 260.298 262.275C260.003 262.364 259.699 262.419 259.392 262.438C258.811 262.509 257.975 262.608 256.913 262.707C254.788 262.898 251.897 263.097 248.682 263.153C245.466 263.21 242.54 263.118 240.437 263.004C239.381 262.941 238.531 262.884 237.943 262.827C237.637 262.82 237.333 262.777 237.037 262.7Z" fill="#E0E0E0"/>
<path d="M226.872 243.667C227.059 243.883 227.218 244.121 227.347 244.375L228.508 246.366C229.479 248.059 230.796 250.403 232.227 253.01C233.658 255.617 234.933 257.968 235.84 259.704C236.258 260.511 236.612 261.191 236.895 261.751C237.042 261.995 237.156 262.257 237.235 262.53C237.054 262.311 236.898 262.074 236.768 261.822L235.599 259.831C234.635 258.145 233.318 255.794 231.887 253.194C230.456 250.595 229.181 248.236 228.268 246.5C227.857 245.693 227.502 245.006 227.212 244.446C227.071 244.199 226.957 243.938 226.872 243.667Z" fill="#E0E0E0"/>
<path d="M209.298 266.333C209.523 266.617 209.723 266.921 209.893 267.24C210.283 267.906 210.793 268.756 211.395 269.783C212.649 271.943 214.356 274.94 216.226 278.283C218.096 281.626 219.767 284.623 220.95 286.783C221.517 287.831 221.985 288.71 222.367 289.383C222.553 289.696 222.71 290.025 222.835 290.367C222.609 290.083 222.41 289.78 222.24 289.461L220.717 286.875C219.463 284.75 217.756 281.726 215.886 278.375C214.016 275.025 212.344 272.043 211.161 269.875C210.595 268.827 210.127 267.949 209.745 267.269C209.568 266.971 209.418 266.658 209.298 266.333Z" fill="#E0E0E0"/>
<path d="M222.65 289.709C223.035 289.653 223.424 289.634 223.812 289.652L226.978 289.609C229.649 289.567 233.353 289.503 237.412 289.312C241.471 289.121 245.168 288.866 247.832 288.66L250.984 288.412C251.369 288.361 251.758 288.346 252.145 288.37C251.771 288.463 251.39 288.527 251.005 288.561C250.261 288.66 249.185 288.795 247.853 288.929C245.197 289.206 241.478 289.517 237.426 289.694C233.375 289.872 229.635 289.914 226.978 289.879C225.64 289.879 224.563 289.836 223.812 289.801C223.423 289.803 223.034 289.773 222.65 289.709Z" fill="#E0E0E0"/>
<path d="M243.773 134.102C243.868 133.699 243.999 133.306 244.163 132.926C244.467 132.126 244.871 131.063 245.367 129.774C246.394 127.125 247.846 123.463 249.461 119.432C250.275 117.421 251.055 115.508 251.763 113.766C252.319 112.167 253.199 110.701 254.348 109.459C255.163 108.639 256.217 108.101 257.359 107.922C257.667 107.885 257.978 107.885 258.287 107.922C258.395 107.933 258.502 107.957 258.605 107.993C258.196 107.986 257.786 108.009 257.38 108.063C256.299 108.295 255.312 108.846 254.547 109.643C253.454 110.883 252.619 112.328 252.089 113.893L249.822 119.56C248.2 123.597 246.713 127.238 245.622 129.866C245.09 131.134 244.644 132.182 244.311 132.976C244.158 133.363 243.978 133.739 243.773 134.102Z" fill="white"/>
<path d="M266.17 146.923C265.89 146.734 265.627 146.521 265.384 146.285C265.143 146.073 264.846 145.811 264.485 145.527C264.123 145.244 263.727 144.897 263.252 144.564C262.172 143.756 261.046 143.011 259.88 142.333C258.446 141.511 256.957 140.787 255.425 140.165C253.882 139.565 252.301 139.066 250.693 138.671C249.379 138.356 248.048 138.119 246.705 137.962C246.132 137.877 245.608 137.856 245.154 137.821C244.701 137.785 244.304 137.757 243.978 137.75C243.641 137.751 243.305 137.725 242.972 137.672C243.305 137.615 243.642 137.593 243.978 137.608C244.372 137.587 244.767 137.587 245.161 137.608C245.629 137.608 246.153 137.608 246.734 137.7C248.092 137.815 249.441 138.023 250.771 138.323C252.4 138.7 254.001 139.192 255.56 139.797C257.108 140.426 258.609 141.167 260.05 142.014C261.221 142.715 262.345 143.491 263.415 144.337C263.883 144.691 264.265 145.046 264.619 145.35C264.973 145.655 265.257 145.924 265.483 146.158C265.737 146.389 265.967 146.646 266.17 146.923Z" fill="white"/>
<path d="M50.4475 296.19C66.4063 288.101 72.3704 269.734 74.1908 252.719C74.4954 249.886 75.225 246.947 74.2333 244.276C73.2417 241.606 70.3446 239.467 67.6458 240.302C65.4075 241.011 64.1467 243.306 62.6875 245.154C60.7383 247.625 58.1305 249.493 55.165 250.545C53.2313 251.253 50.915 251.48 49.2858 250.247C47.0404 248.562 47.2317 245.154 47.6425 242.342C48.4217 237.087 49.1961 231.861 49.9658 226.667C50.3838 223.834 50.8017 221 50.2988 218.202C49.7958 215.404 48.2233 212.656 45.6592 211.53C43.095 210.404 39.5675 211.473 38.6113 214.151C38.2146 215.263 38.2783 216.481 38.0375 217.636C37.7967 218.79 37.0671 220.009 35.9125 220.172C34.7579 220.334 33.7308 219.385 33.0083 218.45C30.5079 215.199 29.0558 211.261 27.7313 207.365C26.4067 203.469 25.1458 199.495 22.9571 196.032C20.7683 192.568 17.4675 189.564 13.4583 188.764C9.44917 187.964 4.82375 189.841 3.25125 193.652C1.67875 197.462 3.40708 201.819 5.46833 205.382C8.5362 210.671 12.3536 215.488 16.8017 219.683C17.595 220.434 18.4592 221.255 18.6504 222.339C18.9975 224.301 16.9575 225.881 15.0167 226.263C12.8279 226.667 10.5825 226.129 8.35833 226.072C6.13417 226.015 3.61958 226.653 2.49333 228.608C0.935001 231.314 2.91125 234.671 4.99375 236.973C9.16757 241.593 14.1031 245.462 19.5854 248.413C21.5475 249.461 23.63 250.432 25.0892 252.117C26.5483 253.803 27.2142 256.481 25.9179 258.315C24.6217 260.15 21.9513 260.44 19.8404 259.732C17.7296 259.024 15.9588 257.607 14.0108 256.502C10.3488 254.497 5.32667 254.058 2.38 257.047C0.439167 259.009 -0.134582 262.048 0.318751 264.775C0.772084 267.502 2.11792 270.003 3.59834 272.326C8.755 280.472 15.8525 287.435 24.3738 291.812C32.895 296.19 41.0763 298.187 50.4475 296.211" fill="#F5F5F5"/>
<path d="M49.1017 304.924C49.4417 298.131 48.875 293.852 47.5787 284.956C46.0721 275.333 44.017 265.805 41.4233 256.417C40.7433 253.924 40.0775 251.458 39.4258 249.022C38.76 246.599 38.1083 244.191 37.3008 241.882C35.7776 237.442 34.0136 233.089 32.0167 228.841C30.1325 224.776 28.1987 220.993 26.35 217.458C24.5012 213.924 22.7233 210.68 20.9808 207.783C18.2441 203.196 15.1485 198.833 11.7229 194.735C10.5187 193.283 9.54124 192.192 8.88958 191.463L8.12458 190.634C8.0412 190.536 7.94871 190.446 7.84833 190.365C7.91636 190.473 7.99463 190.575 8.08208 190.669L8.79041 191.533C9.43499 192.284 10.3842 193.403 11.5671 194.87C14.9216 199.005 17.9618 203.385 20.6621 207.974C22.3833 210.878 24.14 214.136 25.9604 217.664C27.7808 221.191 29.6933 224.988 31.5562 229.054C33.5547 233.285 35.3165 237.625 36.8333 242.052C37.6125 244.354 38.25 246.741 38.9583 249.135C39.6667 251.529 40.2758 254.037 40.9487 256.53C43.5445 265.896 45.6114 275.4 47.1396 284.998C48.4571 293.859 49.0592 298.102 48.7687 304.874" fill="#E0E0E0"/>
<path d="M37.1733 241.846C37.3636 241.476 37.5132 241.087 37.6196 240.685C37.8746 239.927 38.2146 238.822 38.6113 237.448C39.4046 234.706 40.3679 230.881 41.4446 226.667C42.5213 222.452 43.5129 218.641 44.3488 215.921C44.7596 214.554 45.1067 213.456 45.3546 212.699C45.5112 212.314 45.6229 211.912 45.6875 211.501C45.4705 211.856 45.2947 212.234 45.1633 212.628C44.8588 213.336 44.455 214.455 44.0017 215.808C43.0738 218.507 41.99 222.311 40.9417 226.532L38.25 237.356C37.9242 238.652 37.6479 239.75 37.4213 240.628C37.2942 241.024 37.211 241.432 37.1733 241.846Z" fill="#E0E0E0"/>
<path d="M1.99042 229.975C2.45142 230.139 2.92528 230.264 3.40708 230.35C4.32792 230.563 5.6525 230.867 7.28167 231.292C10.54 232.114 15.0025 233.417 19.8617 235.068C24.7208 236.718 29.07 238.411 32.1512 239.721C33.7096 240.366 34.9846 240.918 35.8133 241.301C36.2495 241.523 36.7046 241.705 37.1733 241.846C36.7707 241.572 36.344 241.335 35.8983 241.138C35.0625 240.706 33.8371 240.097 32.3 239.403C29.2258 237.986 24.8979 236.258 20.0246 234.593C15.8726 233.147 11.6474 231.92 7.36667 230.917C5.72333 230.534 4.3775 230.286 3.44958 230.13C2.96892 230.034 2.48052 229.982 1.99042 229.975Z" fill="#E0E0E0"/>
<path d="M47.2246 284.233C47.2246 284.233 47.345 284.098 47.5362 283.822L48.3437 282.604C49.0521 281.541 49.9942 279.976 51.1771 278.035C53.5075 274.139 56.5604 268.664 59.84 262.572C63.1196 256.48 66.1229 250.977 68.34 247.038L71.0104 242.385L71.7187 241.117C71.8102 240.973 71.8839 240.818 71.9383 240.656C71.9383 240.656 71.8179 240.784 71.6267 241.06L70.8333 242.25C70.125 243.313 69.1758 244.878 68 246.826C65.6696 250.715 62.6167 256.197 59.3371 262.289C56.0575 268.38 53.0612 273.877 50.8371 277.815C49.7321 279.728 48.8325 281.3 48.1596 282.469C47.8762 282.979 47.6354 283.397 47.4512 283.737C47.3528 283.891 47.2765 284.058 47.2246 284.233Z" fill="#E0E0E0"/>
<path d="M1.41667 261.949C1.55245 262.062 1.7055 262.153 1.87 262.218L3.19459 262.884L8.10334 265.278C12.2471 267.297 17.935 270.158 24.2179 273.325C30.5008 276.491 36.2596 279.31 40.4104 281.244C42.5354 282.214 44.2 282.979 45.3688 283.489L46.75 284.042C46.905 284.119 47.0693 284.176 47.2388 284.212C47.1028 284.102 46.9527 284.012 46.7925 283.942L45.4608 283.284L40.5592 280.882C36.4154 278.864 30.7275 276.002 24.4446 272.836C18.1617 269.67 12.4242 266.879 8.23792 264.917C6.11292 263.946 4.44834 263.181 3.27959 262.671L1.91251 262.097C1.7543 262.027 1.58765 261.977 1.41667 261.949Z" fill="#E0E0E0"/>
<path d="M305.363 304.463C305.363 304.562 237.037 304.647 152.773 304.647C68.51 304.647 0.169998 304.583 0.169998 304.463C0.169998 304.343 68.4817 304.279 152.773 304.279C237.065 304.279 305.363 304.364 305.363 304.463Z" fill="#263238"/>
<path d="M111.669 213.52C111.669 213.52 91.5237 227.205 90.4187 259.151C90.0504 269.868 95.3133 303.988 95.3133 303.988L213.13 304.463L191.094 213.01L154.027 204.51L111.669 213.52Z" fill="#407BFF"/>
<path d="M156.676 237.235L140.625 304.194L180.745 304.463L156.676 237.235Z" fill="#263238"/>
<path d="M156.067 222.735C156.194 223.458 156.265 224.19 156.28 224.924C156.372 226.397 156.485 228.211 156.612 230.222C156.74 232.234 156.811 234.168 156.839 235.521C156.887 236.255 156.871 236.992 156.79 237.724C156.663 237.001 156.592 236.269 156.577 235.535C156.485 234.069 156.372 232.248 156.244 230.244C156.117 228.239 156.046 226.298 156.025 224.938C155.973 224.204 155.987 223.467 156.067 222.735Z" fill="#263238"/>
<path d="M163.335 230.116C163.335 230.151 163.073 230.208 162.626 230.456C162.041 230.807 161.575 231.325 161.288 231.943C161.065 232.388 160.961 232.882 160.986 233.379C161.011 233.875 161.163 234.357 161.429 234.777C161.733 235.303 162.19 235.724 162.739 235.986C163.288 236.247 163.903 236.335 164.503 236.239C165.103 236.143 165.66 235.867 166.101 235.448C166.541 235.029 166.843 234.486 166.968 233.891C167.094 233.415 167.094 232.915 166.97 232.439C166.846 231.962 166.602 231.526 166.26 231.171C165.795 230.672 165.19 230.324 164.525 230.173C164.057 230.066 163.816 230.095 163.774 230.059C163.731 230.024 163.845 230.059 163.972 230.017C164.165 229.989 164.36 229.989 164.553 230.017C165.271 230.121 165.934 230.457 166.444 230.973C166.804 231.328 167.08 231.759 167.252 232.234C167.442 232.791 167.469 233.39 167.33 233.962C167.192 234.625 166.856 235.231 166.365 235.698C165.875 236.165 165.255 236.472 164.586 236.578C163.917 236.684 163.232 236.584 162.621 236.292C162.01 235.999 161.503 235.527 161.167 234.94C160.858 234.44 160.699 233.862 160.707 233.275C160.727 232.781 160.855 232.298 161.082 231.858C161.407 231.208 161.934 230.681 162.584 230.357C162.755 230.267 162.939 230.203 163.129 230.165C163.264 230.109 163.328 230.102 163.335 230.116Z" fill="#263238"/>
<path d="M176.177 266.673C176.177 266.673 175.915 266.772 175.468 267.013C174.886 267.365 174.422 267.883 174.137 268.501C173.914 268.945 173.81 269.44 173.835 269.936C173.86 270.432 174.012 270.914 174.278 271.334C174.583 271.86 175.039 272.282 175.588 272.543C176.137 272.804 176.752 272.892 177.352 272.797C177.953 272.701 178.51 272.425 178.95 272.006C179.39 271.586 179.692 271.043 179.817 270.449C179.942 269.973 179.942 269.472 179.818 268.996C179.694 268.52 179.45 268.084 179.109 267.729C178.647 267.23 178.044 266.882 177.381 266.73C176.906 266.624 176.63 266.652 176.63 266.617C176.692 266.589 176.76 266.574 176.828 266.574C177.019 266.55 177.212 266.55 177.402 266.574C178.123 266.68 178.789 267.018 179.3 267.537C179.659 267.889 179.933 268.318 180.101 268.791C180.298 269.347 180.325 269.948 180.179 270.519C180.046 271.185 179.713 271.795 179.223 272.266C178.734 272.736 178.112 273.046 177.442 273.152C176.771 273.259 176.084 273.157 175.473 272.861C174.861 272.565 174.356 272.089 174.023 271.497C173.708 271 173.548 270.421 173.563 269.832C173.58 269.338 173.709 268.854 173.938 268.416C174.263 267.766 174.79 267.239 175.44 266.914C175.613 266.827 175.796 266.762 175.985 266.723C176.047 266.697 176.111 266.681 176.177 266.673Z" fill="#263238"/>
<path d="M134.52 240.125C134.446 240.238 134.36 240.342 134.265 240.437C134.095 240.635 133.84 240.925 133.493 241.287C132.499 242.301 131.439 243.247 130.319 244.12C126.591 246.978 122.29 249 117.711 250.049C115.197 250.652 112.604 250.862 110.025 250.672C107.899 250.518 105.855 249.783 104.118 248.547C102.958 247.7 102.025 246.578 101.405 245.282C101.249 244.929 101.121 244.564 101.022 244.191C100.983 244.062 100.961 243.929 100.959 243.794C100.994 243.794 101.1 244.332 101.54 245.211C102.19 246.45 103.128 247.517 104.274 248.32C105.986 249.497 107.981 250.195 110.054 250.339C112.598 250.501 115.153 250.281 117.633 249.688C122.165 248.649 126.432 246.681 130.163 243.907C131.287 243.064 132.363 242.158 133.386 241.195L134.215 240.394C134.406 240.203 134.505 240.125 134.52 240.125Z" fill="#263238"/>
<path d="M134.52 246.755C134.446 246.867 134.36 246.972 134.265 247.067C134.095 247.265 133.84 247.562 133.493 247.924C129.184 252.299 123.704 255.336 117.711 256.672C115.197 257.277 112.604 257.49 110.025 257.302C107.899 257.145 105.857 256.41 104.118 255.177C102.957 254.333 102.024 253.214 101.405 251.919C101.248 251.564 101.12 251.197 101.022 250.821C100.982 250.692 100.96 250.559 100.959 250.424C100.994 250.424 101.1 250.962 101.54 251.841C102.19 253.083 103.127 254.151 104.274 254.957C105.986 256.132 107.982 256.827 110.054 256.969C112.599 257.134 115.154 256.914 117.633 256.317C122.163 255.278 126.429 253.312 130.163 250.544C131.288 249.699 132.364 248.791 133.386 247.824L134.215 247.024C134.306 246.923 134.408 246.832 134.52 246.755Z" fill="#263238"/>
<path d="M135.561 244.75C135.586 244.843 135.603 244.938 135.61 245.034C135.61 245.239 135.66 245.523 135.703 245.877C135.788 246.642 135.908 247.733 136.057 249.128C136.354 251.961 136.921 256.02 137.176 261.099C137.321 263.869 137.262 266.646 136.999 269.408C136.709 272.589 135.994 275.717 134.874 278.708C133.639 282.035 131.682 285.047 129.143 287.527C127.796 288.831 126.281 289.951 124.638 290.856C122.939 291.782 121.102 292.43 119.198 292.775C115.401 293.393 111.508 292.671 108.184 290.735C105.084 288.979 102.471 286.476 100.583 283.454C98.9186 280.722 97.7216 277.732 97.0417 274.607C96.4363 271.889 96.1088 269.117 96.0642 266.333C96.0491 262.32 96.3333 258.312 96.9142 254.341C97.1196 252.925 97.2754 251.862 97.3817 251.104C97.4383 250.75 97.4879 250.474 97.5163 250.261C97.5293 250.165 97.5507 250.07 97.58 249.978C97.5894 250.075 97.5894 250.172 97.58 250.268C97.58 250.481 97.5233 250.757 97.4808 251.111C97.3887 251.876 97.2542 252.967 97.0771 254.355C96.5593 258.324 96.3226 262.324 96.3688 266.326C96.4284 269.085 96.7654 271.831 97.3746 274.522C98.0655 277.606 99.2622 280.555 100.916 283.248C102.767 286.222 105.33 288.686 108.375 290.417C111.627 292.31 115.435 293.013 119.149 292.407C121.014 292.074 122.813 291.44 124.475 290.53C126.092 289.643 127.583 288.545 128.91 287.265C131.415 284.826 133.351 281.863 134.576 278.588C135.69 275.626 136.405 272.529 136.701 269.379C136.978 266.633 137.051 263.87 136.921 261.113C136.701 256.048 136.213 251.968 135.922 249.142C135.78 247.725 135.688 246.628 135.632 245.884C135.632 245.53 135.589 245.246 135.575 245.034C135.561 244.821 135.561 244.75 135.561 244.75Z" fill="#263238"/>
<g opacity="0.2">
<path d="M98.6992 279.834C99.9742 284.155 100.52 285.274 102.907 288.724C105.111 291.993 108.337 294.439 112.08 295.679C114.755 296.603 117.623 296.828 120.409 296.332C123.196 295.836 125.81 294.636 128.003 292.846C132.331 289.226 133.861 283.638 134.612 279.848C132.727 282.384 130.723 285.989 128.35 288.079C125.977 290.169 122.839 291.996 119.708 292.541C115.458 293.25 110.394 291.975 106.76 289.666C103.126 287.356 100.93 283.22 98.6779 279.841" fill="black"/>
</g>
<g opacity="0.2">
<path d="M101.731 252.358C102.539 254.159 103.773 255.737 105.326 256.955C106.88 258.173 108.707 258.995 110.649 259.349C114.481 260.058 119.446 258.846 121.84 255.248C113.411 258.209 105.032 258.28 101.731 252.358Z" fill="black"/>
</g>
<path d="M170.999 241.91C170.818 241.941 170.634 241.941 170.453 241.91C169.974 241.844 169.5 241.739 169.037 241.598C165.88 240.662 163.173 238.607 161.422 235.818C161.155 235.401 160.918 234.966 160.714 234.515C160.579 234.189 160.515 234.012 160.544 233.998C160.572 233.984 160.926 234.664 161.62 235.677C162.534 236.983 163.643 238.141 164.907 239.112C166.181 240.07 167.595 240.826 169.1 241.35C170.255 241.712 171.006 241.846 170.999 241.91Z" fill="#263238"/>
<g opacity="0.2">
<path d="M161.195 234.458C162.067 237.419 165.353 240.181 168.279 241.152C168.851 241.365 169.462 241.454 170.071 241.414C170.375 241.393 170.671 241.305 170.938 241.157C171.205 241.009 171.436 240.804 171.615 240.557C172.231 239.615 171.7 238.276 170.793 237.61C169.829 237.022 168.753 236.638 167.634 236.484C165.375 235.96 163.335 237.1 161.465 235.202" fill="black"/>
</g>
<g opacity="0.2">
<path d="M98.5504 228.976C103.835 233.594 111.3 233.792 118.023 231.809C124.745 229.826 130.603 226.093 136.312 222.013C130.085 223.252 124.773 226.093 118.49 227.021C112.49 227.906 106.25 227.998 100.35 225.994" fill="black"/>
</g>
<path d="M199.885 299.922C199.845 299.957 199.799 299.983 199.75 300C199.615 300.073 199.475 300.137 199.332 300.192C198.781 300.414 198.202 300.557 197.611 300.617C195.42 300.798 193.234 300.212 191.427 298.959C189.075 297.465 186.936 294.95 184.648 292.159C182.194 289.096 179.989 285.842 178.054 282.427C174.542 276.214 171.854 269.571 170.057 262.664C169.348 260.015 168.938 257.847 168.675 256.339C168.562 255.63 168.47 255.028 168.399 254.603C168.364 254.402 168.34 254.198 168.328 253.994C168.397 254.187 168.446 254.387 168.477 254.589L168.817 256.31C169.122 257.805 169.596 259.965 170.305 262.593C172.171 269.452 174.881 276.052 178.373 282.242C180.301 285.641 182.489 288.885 184.918 291.947C187.177 294.737 189.288 297.252 191.569 298.74C193.331 299.991 195.468 300.603 197.625 300.475C198.4 300.394 199.16 300.208 199.885 299.922Z" fill="#263238"/>
<g opacity="0.2">
<path d="M174.413 273.785C174.413 273.785 184.868 286.931 192.497 290.154C195.082 291.252 197.93 292.145 199.693 294.326C200.134 294.826 200.461 295.415 200.65 296.054C200.84 296.693 200.888 297.365 200.791 298.024C200.762 298.18 200.714 298.332 200.65 298.477C199.552 301.275 194.275 300.886 191.859 299.115C190.804 298.343 191.427 298.838 190.577 298.201C188.133 296.359 175.05 281.208 174.413 273.785Z" fill="black"/>
</g>
<path d="M128.258 96.3475L134.93 95.0229L167.932 95.4125L184.698 99.0959L191.094 192.723L116.967 196.187L128.258 96.3475Z" fill="#E0E0E0"/>
<path d="M176.262 188.417L177.841 145.832L175.213 96.4536C185.64 99.1382 199.899 102.12 207.797 111.123C212.918 116.967 217.94 124.44 219.838 136.474C222.02 150.641 224.896 177.735 226.695 192.893" fill="#407BFF"/>
<path d="M186.745 181.433L135.497 189.755L133.684 158.107L130.85 95.54C115.975 96.1492 99.0463 108.439 93.9675 118.015C90.4258 124.66 87.4579 132.38 86.53 139.853C84.7521 154.02 81.7417 178.295 79.9425 193.46C79.3983 198.069 79.8877 202.741 81.3752 207.138C82.8626 211.534 85.3108 215.543 88.5417 218.875C95.9792 226.546 107.624 229.203 118.093 227.035L196.123 205.077L186.745 181.433Z" fill="#407BFF"/>
<path d="M181.333 180.865C181.338 180.805 181.349 180.746 181.369 180.688C181.411 180.561 181.461 180.391 181.518 180.178C181.666 179.704 181.865 179.045 182.127 178.202C182.679 176.46 183.465 173.952 184.443 170.85L192.482 145.746L192.589 145.966L184.28 142.53L183.954 142.396L184.245 142.205L186.164 140.944L192.433 136.85L192.362 137.048C189.175 125.984 186.37 116.223 184.351 109.203C183.366 105.718 182.573 102.913 182.013 100.958C181.758 100.002 181.553 99.2584 181.404 98.7272C181.343 98.4958 181.293 98.3045 181.255 98.1534C181.232 98.0895 181.218 98.0228 181.213 97.9551C181.213 97.9551 181.213 98.0118 181.284 98.1393L181.468 98.713C181.631 99.2372 181.858 99.9738 182.141 100.923L184.585 109.133L192.709 136.949L192.745 137.076L192.631 137.154L186.37 141.255L184.45 142.509V142.183L192.752 145.633L192.907 145.697L192.858 145.853C189.585 155.904 186.731 164.652 184.691 170.92C183.664 174.023 182.849 176.509 182.275 178.238C181.992 179.073 181.765 179.732 181.61 180.2C181.539 180.405 181.475 180.568 181.433 180.703C181.406 180.761 181.373 180.815 181.333 180.865Z" fill="#263238"/>
<g opacity="0.2">
<path d="M192.667 137.105C192.249 138.641 191.344 140.001 190.088 140.98C189.111 141.539 189.67 142.283 190.478 143.062C191.448 143.997 193.007 144.252 193.722 145.385C194.437 146.519 194.034 147.815 193.665 149.005C190.117 160.295 185.81 171.332 180.774 182.042L192.667 145.796L184.372 142.375L192.667 137.105Z" fill="black"/>
</g>
<path d="M131.233 181.744C131.198 181.699 131.169 181.649 131.148 181.595C131.098 181.482 131.028 181.34 130.95 181.156L130.185 179.428C129.519 177.898 128.57 175.695 127.351 172.947L117.796 150.549L117.739 150.422L117.86 150.337L124.412 145.648V145.917L120.07 142.474L118.143 140.958L117.187 140.25L116.953 140.059C116.904 140.024 116.859 139.983 116.818 139.938C116.773 139.879 116.739 139.812 116.719 139.74C116.667 139.529 116.641 139.313 116.641 139.095C116.685 137.51 116.832 135.93 117.08 134.364C117.512 131.297 118.022 128.35 118.497 125.545C119.503 119.942 120.502 114.92 121.33 110.67C122.159 106.42 122.903 103.041 123.406 100.69C123.661 99.528 123.866 98.6213 124.008 97.9768L124.171 97.2684C124.183 97.1875 124.207 97.1088 124.242 97.0347C124.238 97.1182 124.226 97.2013 124.206 97.2826C124.206 97.4597 124.128 97.6934 124.079 97.9909C123.951 98.6379 123.774 99.5445 123.548 100.711C123.08 103.091 122.414 106.505 121.593 110.713C120.771 114.92 119.808 119.971 118.816 125.588C118.327 128.386 117.824 131.332 117.399 134.392C117.155 135.94 117.011 137.501 116.967 139.067C116.965 139.249 116.987 139.43 117.031 139.605C117.031 139.69 117.236 139.818 117.385 139.946L118.334 140.696L120.254 142.219L124.589 145.655L124.78 145.811L124.582 145.952L118.022 150.627L118.079 150.408L127.578 172.833C128.733 175.603 129.653 177.792 130.291 179.357C130.595 180.101 130.836 180.682 130.999 181.107L131.169 181.56C131.196 181.62 131.217 181.681 131.233 181.744Z" fill="#263238"/>
<path d="M193.197 151.012L141.561 143.046C140.629 142.902 139.757 143.541 139.613 144.473L128.477 216.662C128.333 217.594 128.972 218.466 129.903 218.609L181.539 226.575C182.471 226.719 183.343 226.08 183.487 225.149L194.623 152.959C194.767 152.028 194.128 151.156 193.197 151.012Z" fill="#407BFF"/>
<g opacity="0.2">
<path d="M193.197 151.012L141.561 143.046C140.629 142.902 139.757 143.541 139.613 144.473L128.477 216.662C128.333 217.594 128.972 218.466 129.903 218.609L181.539 226.575C182.471 226.719 183.343 226.08 183.487 225.149L194.623 152.959C194.767 152.028 194.128 151.156 193.197 151.012Z" fill="black"/>
</g>
<path d="M191.566 152.405L142.696 144.865L131.844 215.206L180.715 222.746L191.566 152.405Z" fill="#EBEBEB"/>
<path d="M176.885 151.25C176.538 150.18 175.901 149.227 175.044 148.498C174.188 147.769 173.145 147.292 172.033 147.121L172.444 144.11C172.611 143.02 172.338 141.908 171.686 141.018C171.034 140.128 170.056 139.534 168.966 139.364C167.874 139.196 166.761 139.467 165.869 140.119C164.978 140.771 164.382 141.751 164.213 142.842L163.731 145.959L162.683 145.817C161.583 145.665 160.463 145.818 159.444 146.26C158.426 146.702 157.549 147.417 156.91 148.325L156.095 149.458L177.345 152.745L176.885 151.25ZM168.102 145.754C167.664 145.687 167.256 145.491 166.929 145.193C166.602 144.894 166.371 144.504 166.266 144.074C166.16 143.644 166.185 143.192 166.336 142.776C166.487 142.36 166.759 141.998 167.116 141.736C167.473 141.474 167.9 141.324 168.343 141.305C168.785 141.286 169.223 141.398 169.602 141.628C169.98 141.858 170.282 142.195 170.469 142.596C170.656 142.998 170.719 143.446 170.652 143.884C170.559 144.469 170.239 144.993 169.762 145.344C169.284 145.694 168.687 145.841 168.102 145.754Z" fill="#263238"/>
<path d="M159.255 157.64C157.021 157.485 154.798 157.206 152.596 156.804C150.378 156.521 148.177 156.119 146.002 155.6C148.233 155.754 150.453 156.033 152.653 156.435C154.873 156.718 157.077 157.12 159.255 157.64Z" fill="#263238"/>
<path d="M152.044 158.815C150.961 158.839 149.879 158.734 148.821 158.503C147.743 158.399 146.681 158.174 145.655 157.831C146.737 157.815 147.818 157.92 148.877 158.142C149.955 158.246 151.017 158.472 152.044 158.815Z" fill="#263238"/>
<path d="M182.212 169.851C182.212 169.95 173.924 168.753 163.745 167.188C153.567 165.622 145.329 164.255 145.329 164.156C145.329 164.057 153.609 165.247 163.795 166.82C173.981 168.392 182.226 169.745 182.212 169.851Z" fill="#263238"/>
<path d="M181.666 173.365C181.666 173.464 173.386 172.274 163.2 170.701C153.014 169.129 144.783 167.776 144.783 167.677C144.783 167.578 153.064 168.768 163.25 170.34C173.435 171.913 181.68 173.265 181.666 173.365Z" fill="#263238"/>
<path d="M181.128 176.885C181.128 176.984 172.84 175.787 162.662 174.222C152.483 172.656 144.245 171.289 144.245 171.19C144.245 171.091 152.533 172.281 162.718 173.853C172.904 175.426 181.142 176.779 181.128 176.885Z" fill="#263238"/>
<path d="M180.583 180.398C180.583 180.497 172.302 179.307 162.116 177.735C151.93 176.162 143.7 174.81 143.7 174.703C143.7 174.597 151.98 175.801 162.166 177.374C172.352 178.946 180.625 180.299 180.583 180.398Z" fill="#263238"/>
<path d="M180.037 183.911C180.037 184.018 171.757 182.821 161.571 181.248C151.385 179.676 143.154 178.323 143.154 178.224C143.154 178.124 151.435 179.314 161.62 180.887C171.806 182.459 180.058 183.812 180.037 183.911Z" fill="#263238"/>
<path d="M179.499 187.432C179.499 187.531 171.211 186.341 161.033 184.769C150.854 183.196 142.616 181.843 142.616 181.737C142.616 181.631 150.896 182.828 161.082 184.4C171.268 185.973 179.513 187.333 179.499 187.432Z" fill="#263238"/>
<path d="M160.572 187.758C160.335 187.77 160.098 187.756 159.864 187.715C159.389 187.666 158.716 187.581 157.88 187.467C156.202 187.241 153.892 186.908 151.35 186.518C148.807 186.129 146.505 185.746 144.84 185.456C144.004 185.314 143.338 185.187 142.871 185.094C142.627 185.066 142.389 185.004 142.162 184.91C142.399 184.894 142.638 184.908 142.871 184.953C143.345 185.002 144.018 185.087 144.854 185.201C146.533 185.42 148.842 185.76 151.385 186.15C153.928 186.539 156.23 186.922 157.895 187.212C158.73 187.354 159.396 187.482 159.864 187.574C160.107 187.603 160.345 187.664 160.572 187.758Z" fill="#263238"/>
<path d="M185.165 161.316C184.164 161.346 183.162 161.253 182.183 161.039C181.186 160.949 180.203 160.735 179.258 160.402C181.257 160.464 183.241 160.771 185.165 161.316Z" fill="#263238"/>
<path d="M151.002 194.126C149.385 194.061 147.775 193.874 146.186 193.566C144.578 193.381 142.987 193.073 141.426 192.646C143.043 192.71 144.653 192.897 146.243 193.205C147.85 193.392 149.441 193.7 151.002 194.126Z" fill="#263238"/>
<path d="M150.833 197.37C149.187 197.3 147.548 197.108 145.931 196.796C144.296 196.611 142.679 196.298 141.093 195.861C142.736 195.931 144.372 196.123 145.988 196.435C147.624 196.62 149.244 196.933 150.833 197.37Z" fill="#263238"/>
<path d="M178.854 197.937C177.285 197.942 175.724 197.703 174.229 197.228C175.014 197.166 175.805 197.224 176.573 197.398C177.358 197.453 178.128 197.635 178.854 197.937Z" fill="#263238"/>
<path d="M178.571 200.833C177.002 200.839 175.441 200.6 173.945 200.125C175.515 200.12 177.075 200.359 178.571 200.833Z" fill="#263238"/>
<path d="M145.846 200.033C145.086 200.096 144.322 200.041 143.579 199.87C142.821 199.813 142.077 199.634 141.376 199.339C142.133 199.272 142.896 199.327 143.636 199.502C144.397 199.556 145.143 199.736 145.846 200.033Z" fill="#263238"/>
<path d="M178.217 204.213C177.648 204.305 177.067 204.279 176.51 204.135C175.935 204.106 175.372 203.956 174.859 203.695C175.427 203.594 176.009 203.618 176.566 203.766C177.142 203.795 177.705 203.947 178.217 204.213Z" fill="#263238"/>
<path d="M139.91 206.869C140.188 206.844 140.468 206.844 140.746 206.869L143.098 206.939L151.498 207.272H151.69L151.647 207.457C151.437 208.367 150.916 209.176 150.174 209.744C149.781 210.059 149.322 210.28 148.831 210.391C148.34 210.503 147.831 210.502 147.34 210.389C146.817 210.268 146.331 210.02 145.925 209.669C145.519 209.317 145.205 208.871 145.01 208.37C144.831 207.832 144.818 207.253 144.972 206.708C145.126 206.162 145.441 205.675 145.874 205.31C146.192 205.023 146.577 204.818 146.993 204.715C147.098 204.688 147.204 204.672 147.312 204.666C147.427 204.651 147.544 204.651 147.659 204.666C147.737 204.678 147.81 204.709 147.873 204.756C147.936 204.803 147.986 204.864 148.02 204.935C148.067 205.057 148.082 205.188 148.063 205.317C147.97 206.11 147.706 206.874 147.291 207.556C146.887 208.209 146.354 208.772 145.725 209.213C145.112 209.673 144.367 209.922 143.6 209.922C143.231 209.896 142.876 209.767 142.576 209.551C142.276 209.334 142.042 209.038 141.9 208.696C141.629 208.073 141.579 207.376 141.759 206.72C142.178 205.627 142.859 204.655 143.742 203.887L143.933 203.695V203.964C144.047 204.942 143.859 205.93 143.395 206.798C143.05 207.454 142.567 208.026 141.978 208.477C141.612 208.76 141.203 208.985 140.767 209.142C140.617 209.202 140.46 209.24 140.3 209.256C140.875 209.046 141.413 208.744 141.893 208.363C142.44 207.907 142.886 207.343 143.204 206.706C143.63 205.867 143.79 204.918 143.664 203.986L143.891 204.057C143.053 204.808 142.409 205.751 142.014 206.805C141.859 207.392 141.909 208.014 142.155 208.569C142.273 208.854 142.468 209.1 142.719 209.28C142.969 209.46 143.264 209.567 143.572 209.589C144.249 209.582 144.905 209.355 145.442 208.944C146.041 208.525 146.544 207.984 146.919 207.356C147.294 206.729 147.532 206.029 147.617 205.303C147.633 205.24 147.633 205.175 147.617 205.112C147.617 205.077 147.617 205.062 147.517 205.048C147.346 205.039 147.174 205.055 147.007 205.098C146.65 205.188 146.32 205.363 146.044 205.608C145.67 205.928 145.398 206.351 145.263 206.825C145.128 207.299 145.136 207.802 145.286 208.271C145.457 208.703 145.726 209.089 146.073 209.397C146.42 209.705 146.835 209.928 147.284 210.046C147.733 210.165 148.203 210.176 148.657 210.08C149.111 209.983 149.536 209.781 149.897 209.489C150.583 208.976 151.066 208.24 151.265 207.407L151.413 207.598L143.083 207.109L140.732 206.954C140.456 206.942 140.182 206.914 139.91 206.869Z" fill="#263238"/>
<path d="M174.916 212.146C174.803 212.307 174.667 212.45 174.512 212.571C174.33 212.726 174.128 212.855 173.91 212.953C173.604 213.089 173.258 213.107 172.94 213.003C172.739 212.941 172.564 212.814 172.444 212.642C172.324 212.455 172.256 212.24 172.245 212.018C172.251 211.566 172.284 211.114 172.345 210.665C172.437 209.702 172.543 208.647 172.656 207.506L172.961 207.627L170.255 211.289L169.582 212.195L169.143 212.79L169.249 212.082C169.54 210.191 169.802 208.427 170.035 206.876L170.298 207.018C169.193 207.949 168.214 209.02 167.386 210.205C166.791 211.062 166.508 211.622 166.472 211.579C166.507 211.438 166.562 211.302 166.635 211.175C166.817 210.809 167.018 210.452 167.238 210.106C168.015 208.864 168.969 207.743 170.071 206.777L170.39 206.5L170.326 206.925C170.113 208.47 169.858 210.24 169.617 212.139L169.285 211.997L169.993 211.09C170.956 209.801 171.87 208.569 172.72 207.443L173.095 206.933L173.025 207.563C172.89 208.703 172.77 209.759 172.656 210.715C172.59 211.149 172.548 211.587 172.529 212.025C172.517 212.196 172.561 212.365 172.652 212.509C172.744 212.653 172.879 212.764 173.039 212.826C173.283 212.892 173.541 212.897 173.788 212.84C174.035 212.783 174.264 212.667 174.455 212.5C174.599 212.37 174.753 212.251 174.916 212.146Z" fill="#263238"/>
<path d="M176.163 210.219C173.85 210.391 171.531 210.44 169.214 210.368C166.898 210.419 164.581 210.348 162.272 210.155C164.582 209.979 166.899 209.927 169.214 209.999C171.532 209.948 173.852 210.022 176.163 210.219Z" fill="#263238"/>
<path d="M178.422 212.422C176.59 212.803 174.735 213.066 172.869 213.208C171.017 213.469 169.15 213.611 167.28 213.633C169.111 213.242 170.966 212.976 172.833 212.84C174.685 212.575 176.552 212.435 178.422 212.422Z" fill="#263238"/>
<g opacity="0.2">
<path d="M116.825 139.492C116.74 141.617 117.314 143.784 119.085 144.981C116.868 146.058 115.685 148.636 115.614 151.101C115.543 153.566 116.4 155.96 117.328 158.248C120.197 165.282 126.317 175.185 130.985 181.177C130.985 181.177 128.619 174.802 127.939 173.308C124.865 166.585 122.152 159.849 119.071 153.106C118.731 152.398 118.122 150.329 118.122 150.329C118.457 150.164 118.767 149.952 119.042 149.699C120.771 148.282 124.518 145.796 124.518 145.796C124.518 145.796 116.825 139.704 116.825 139.492Z" fill="black"/>
</g>
<path d="M116.719 153.942C116.818 153.942 116.641 162.123 116.315 172.203C115.99 182.282 115.65 190.456 115.55 190.449C115.451 190.442 115.621 182.275 115.947 172.189C116.273 162.102 116.613 153.935 116.719 153.942Z" fill="#263238"/>
<path d="M136.064 176.743C136.034 177.043 135.917 177.327 135.726 177.56C135.535 177.793 135.279 177.964 134.991 178.051C134.702 178.139 134.395 178.139 134.107 178.052C133.818 177.964 133.562 177.793 133.371 177.561C133.18 177.328 133.062 177.044 133.033 176.744C133.003 176.444 133.063 176.143 133.205 175.877C133.347 175.611 133.564 175.394 133.83 175.251C134.095 175.109 134.397 175.049 134.697 175.079C135.098 175.12 135.467 175.318 135.723 175.629C135.979 175.941 136.101 176.341 136.064 176.743Z" fill="#263238"/>
<path d="M121.543 176.701C121.572 176.999 121.689 177.282 121.879 177.513C122.069 177.745 122.323 177.915 122.61 178.002C122.896 178.09 123.202 178.09 123.489 178.004C123.776 177.917 124.03 177.748 124.221 177.517C124.411 177.286 124.529 177.004 124.56 176.706C124.59 176.408 124.531 176.107 124.391 175.843C124.251 175.578 124.035 175.361 123.772 175.219C123.508 175.076 123.208 175.015 122.91 175.043C122.711 175.062 122.518 175.12 122.342 175.213C122.165 175.307 122.009 175.434 121.882 175.588C121.755 175.742 121.66 175.92 121.602 176.111C121.543 176.301 121.523 176.502 121.543 176.701Z" fill="#263238"/>
<path d="M131.233 181.744L121.692 205.211L197.802 226.312C201.281 227.282 204.933 227.467 208.492 226.855C212.052 226.242 215.431 224.847 218.386 222.771C226.348 217.154 228.303 207.329 227.333 197.604L225.958 187.262L131.233 181.744Z" fill="#407BFF"/>
<path d="M211.87 207.216C211.792 207.216 211.629 205.615 210.842 203.143C210.641 202.468 210.404 201.803 210.134 201.152C209.865 200.444 209.49 199.736 209.114 198.942C208.241 197.303 207.214 195.749 206.047 194.303C204.859 192.875 203.541 191.561 202.109 190.379C201.4 189.862 200.791 189.345 200.147 188.962C199.564 188.56 198.961 188.189 198.34 187.85C196.074 186.596 194.522 186.115 194.551 186.037C194.922 186.113 195.285 186.224 195.635 186.37C196.057 186.507 196.471 186.67 196.874 186.858C197.349 187.078 197.901 187.297 198.468 187.623C199.104 187.949 199.721 188.311 200.317 188.707C200.975 189.104 201.627 189.621 202.321 190.124C203.786 191.307 205.131 192.631 206.337 194.076C207.517 195.543 208.546 197.123 209.412 198.794C209.787 199.58 210.155 200.317 210.417 201.046C210.692 201.707 210.929 202.384 211.126 203.072C211.304 203.634 211.448 204.207 211.558 204.786C211.67 205.226 211.749 205.673 211.792 206.125C211.851 206.485 211.877 206.851 211.87 207.216Z" fill="#263238"/>
<g opacity="0.2">
<path d="M119.992 191.731C114.183 192.213 109.7 192.744 103.7 193.481C99.9529 193.941 96.0642 193.679 94.8387 190.116C93.6133 186.553 94.3925 182.473 96.4042 179.279C98.4158 176.084 101.575 168.654 118.49 174.321L119.992 191.731Z" fill="black"/>
</g>
<path d="M127.826 190.704L127.868 190.549L128.031 190.081L128.669 188.296L131.113 181.701L131.148 181.609H131.24L157.13 183.954L182.176 186.334L189.762 187.092L191.824 187.319L192.355 187.389C192.418 187.391 192.48 187.403 192.539 187.425H192.355H191.817L189.748 187.269L182.148 186.617L157.094 184.351L131.219 181.893L131.346 181.808L128.796 188.367L128.088 190.124L127.897 190.577C127.861 190.662 127.833 190.711 127.826 190.704Z" fill="#263238"/>
<g opacity="0.2">
<path d="M159.141 214.908C169.95 217.805 176.524 216.126 186.341 210.757C188.352 209.578 190.283 208.267 192.121 206.833C193.521 205.689 194.766 204.367 195.826 202.902C183.182 207.74 172.678 211.402 159.644 215.043" fill="black"/>
</g>
<path d="M127.861 190.449L130.333 183.543L124.589 174.561C124.091 173.783 123.44 173.114 122.675 172.597C121.911 172.079 121.048 171.723 120.14 171.551L99.0038 167.563C98.7409 168.354 98.7774 169.215 99.1063 169.981C99.4353 170.747 100.034 171.366 100.789 171.721C103.558 173.3 116.018 176.198 116.018 176.198L96.8292 175.872C96.8292 175.872 96.2342 178.641 98.4087 179.633C100.583 180.625 114.254 181.128 114.254 181.128L96.7513 183.593C96.7513 183.593 96.6521 186.369 100.654 186.426C104.596 186.379 108.532 186.131 112.448 185.682C112.61 185.66 112.775 185.701 112.907 185.797C113.039 185.894 113.128 186.038 113.156 186.199C113.18 186.355 113.145 186.515 113.057 186.646C112.969 186.777 112.835 186.87 112.682 186.908L101.044 189.656C100.708 189.731 100.407 189.916 100.188 190.18C99.9681 190.444 99.8419 190.774 99.829 191.118C99.8161 191.461 99.9171 191.799 100.116 192.079C100.315 192.359 100.602 192.566 100.93 192.666C101.141 192.717 101.359 192.731 101.575 192.709C103.558 192.51 115.402 191.009 115.402 191.009L116.018 192.39L127.861 190.463" fill="#D7A08B"/>
<path d="M119.17 188.317C119.009 187.936 118.789 187.582 118.518 187.269C118.205 186.949 117.822 186.707 117.399 186.561C116.877 186.401 116.329 186.341 115.784 186.384C114.608 186.469 113.546 186.809 112.752 186.908C112.324 187.012 111.877 187.012 111.449 186.908C111.861 186.791 112.28 186.699 112.703 186.632C113.704 186.336 114.727 186.122 115.763 185.994C116.358 185.948 116.956 186.025 117.52 186.221C117.978 186.398 118.387 186.685 118.71 187.057C118.879 187.216 119.009 187.414 119.089 187.632C119.169 187.851 119.197 188.086 119.17 188.317Z" fill="#AA6550"/>
<path d="M121.083 183.054C121.047 183.054 121.026 182.863 120.87 182.558C120.64 182.136 120.29 181.791 119.864 181.567C118.795 180.943 116.988 181.149 115.09 181.276C113.192 181.404 111.449 181.687 110.195 181.85C109.523 181.978 108.84 182.046 108.155 182.056C108.804 181.836 109.473 181.682 110.153 181.595C111.774 181.277 113.41 181.04 115.055 180.887C115.964 180.804 116.876 180.769 117.789 180.781C118.558 180.762 119.318 180.948 119.992 181.319C120.448 181.583 120.802 181.992 120.998 182.481C121.086 182.658 121.116 182.859 121.083 183.054Z" fill="#AA6550"/>
<path d="M122.542 179.994C122.525 179.432 122.372 178.883 122.095 178.394C121.78 177.881 121.342 177.455 120.82 177.154C120.16 176.809 119.438 176.597 118.695 176.531C117.109 176.382 115.621 176.531 114.537 176.446C113.949 176.445 113.368 176.304 112.845 176.035C112.845 175.978 113.496 176.169 114.552 176.191C115.607 176.212 117.073 176.014 118.738 176.191C119.53 176.256 120.297 176.498 120.983 176.899C121.547 177.242 122.007 177.732 122.315 178.316C122.529 178.701 122.639 179.136 122.634 179.577C122.62 179.839 122.542 179.994 122.542 179.994Z" fill="#AA6550"/>
<path d="M191.158 179.973C191.159 179.588 191.195 179.204 191.264 178.825C191.356 178.117 191.533 177.026 191.781 175.723C192.27 173.116 193.134 169.553 194.048 165.622C194.856 162.274 195.473 158.883 195.897 155.465C195.982 154.806 196.017 154.211 196.067 153.687C196.116 153.163 196.145 152.716 196.159 152.341C196.155 151.956 196.189 151.572 196.258 151.193C196.304 151.576 196.318 151.963 196.3 152.348C196.3 152.716 196.3 153.177 196.3 153.701C196.3 154.225 196.258 154.827 196.18 155.486C195.836 158.929 195.253 162.344 194.438 165.707C193.517 169.645 192.617 173.187 192.065 175.78C191.788 177.069 191.569 178.124 191.434 178.847C191.373 179.229 191.28 179.606 191.158 179.973Z" fill="#263238"/>
<path d="M198.503 226.44C198.361 226.437 198.22 226.413 198.085 226.369L196.91 226.107L192.603 225.044C188.969 224.131 183.961 222.806 178.436 221.276C172.911 219.746 167.96 218.28 164.383 217.182L160.133 215.864L158.985 215.482C158.874 215.444 158.767 215.394 158.667 215.333C158.807 215.342 158.945 215.371 159.077 215.418L160.246 215.73L164.496 216.941L178.578 220.929L192.667 224.796L196.917 225.965L198.078 226.298C198.225 226.33 198.367 226.378 198.503 226.44Z" fill="#263238"/>
<path d="M125.588 20.9879C127.146 16.1783 135.129 11.8362 139.506 9.31453C146.058 5.55328 152.129 6.30411 155.869 9.65453C162.626 3.98786 171.53 -1.46631 180.065 0.764943C188.601 2.99619 195.535 11.737 193.977 20.4283C193.063 25.5495 189.515 30.1395 189.727 35.3033C189.869 38.8449 191.746 42.0466 193.269 45.2624C194.792 48.4783 195.911 52.2183 194.579 55.5049C193.34 58.5579 190.244 60.4633 188.58 63.2966C187.22 65.6199 186.908 68.3824 186.037 70.9254C182.821 80.3462 171.7 85.6304 161.883 83.9729C152.065 82.3154 143.884 74.9274 139.216 66.1158C134.548 57.3041 133.046 47.1891 132.508 37.2512" fill="#263238"/>
<path d="M132.82 27.6249L134.782 106.179C135.49 115.182 143.785 121.762 153.418 120.927C163.143 120.091 170.574 112.037 170.014 102.928C169.426 93.3724 168.987 83.2928 168.987 83.2928C168.987 83.2928 181.163 80.4595 182.679 64.2245C183.451 55.9087 182.105 42.2662 180.696 31.457C180.419 29.302 179.71 27.2252 178.61 25.3515C177.51 23.4778 176.043 21.846 174.296 20.5543C172.549 19.2626 170.558 18.3377 168.445 17.8352C166.331 17.3327 164.137 17.263 161.996 17.6303" fill="#D7A08C"/>
<path d="M177.083 43.0663C177.125 43.6024 176.954 44.1334 176.609 44.5453C176.263 44.9572 175.77 45.2171 175.235 45.2693C174.974 45.3081 174.708 45.2942 174.453 45.2285C174.198 45.1628 173.959 45.0466 173.75 44.8868C173.54 44.727 173.365 44.5267 173.234 44.298C173.104 44.0693 173.02 43.8166 172.989 43.5551C172.949 43.0186 173.12 42.4878 173.465 42.0752C173.811 41.6626 174.303 41.4007 174.838 41.3451C175.099 41.3073 175.365 41.3221 175.62 41.3887C175.875 41.4552 176.114 41.5721 176.323 41.7325C176.533 41.8929 176.708 42.0935 176.838 42.3226C176.969 42.5517 177.052 42.8046 177.083 43.0663Z" fill="#263238"/>
<path d="M179.13 40.9697C178.89 41.2531 177.253 40.1977 175.036 40.3464C172.819 40.4952 171.268 41.7064 171.013 41.4514C170.885 41.3381 171.112 40.8422 171.785 40.2756C172.703 39.5475 173.824 39.1219 174.994 39.0572C176.145 38.9814 177.29 39.2715 178.266 39.886C178.982 40.3747 179.244 40.8351 179.13 40.9697Z" fill="#263238"/>
<path d="M155.833 45.2905C155.877 45.8277 155.707 46.3605 155.361 46.774C155.016 47.1874 154.521 47.4483 153.985 47.5005C153.724 47.5382 153.458 47.5234 153.203 47.4569C152.948 47.3903 152.708 47.2734 152.499 47.1131C152.29 46.9527 152.115 46.752 151.984 46.5229C151.854 46.2939 151.77 46.041 151.739 45.7792C151.699 45.2428 151.87 44.7119 152.215 44.2993C152.561 43.8867 153.053 43.6249 153.588 43.5692C153.849 43.5314 154.115 43.5463 154.37 43.6128C154.625 43.6793 154.864 43.7962 155.073 43.9566C155.283 44.117 155.458 44.3177 155.588 44.5467C155.719 44.7758 155.802 45.0287 155.833 45.2905Z" fill="#263238"/>
<path d="M157.363 42.79C157.123 43.0734 155.486 42.018 153.269 42.1667C151.052 42.3155 149.501 43.5267 149.246 43.2717C149.118 43.1584 149.345 42.6625 150.025 42.0959C150.941 41.3692 152.059 40.9436 153.227 40.8775C154.378 40.8017 155.523 41.0918 156.499 41.7063C157.25 42.188 157.477 42.6555 157.363 42.79Z" fill="#263238"/>
<path d="M166.458 58.7065C166.458 58.5861 167.797 58.2602 170 57.8282C170.56 57.7361 171.091 57.5873 171.162 57.1907C171.172 56.6035 171.001 56.0274 170.673 55.5402C170.057 54.2015 169.405 52.8061 168.725 51.3398C166.005 45.3473 163.993 40.4102 164.234 40.304C164.475 40.1977 166.876 44.9648 169.603 50.929C170.255 52.4023 170.885 53.8119 171.48 55.179C171.885 55.8373 172.041 56.6187 171.92 57.3819C171.85 57.5867 171.735 57.773 171.583 57.9265C171.431 58.0799 171.245 58.1965 171.041 58.2673C170.735 58.3742 170.416 58.4386 170.092 58.4586C167.875 58.7348 166.458 58.834 166.458 58.7065Z" fill="#263238"/>
<path d="M168.994 83.2642C161.436 83.8684 153.859 82.3628 147.107 78.915C147.107 78.915 153.191 89.7313 169.171 87.1884L168.994 83.2642Z" fill="#AA6550"/>
<path d="M157.377 34.0634C157.193 34.6796 154.962 34.538 152.384 35.0196C149.805 35.5013 147.744 36.3442 147.362 35.8271C147.192 35.5792 147.525 34.9842 148.332 34.3467C149.411 33.5483 150.663 33.0167 151.987 32.7955C153.309 32.5518 154.671 32.6221 155.961 33.0009C156.938 33.3267 157.448 33.773 157.377 34.0634Z" fill="#263238"/>
<path d="M177.898 34.602C177.544 35.1332 175.978 34.7082 174.144 34.8003C172.309 34.8924 170.772 35.3599 170.382 34.857C170.205 34.6091 170.382 34.092 171.091 33.5678C171.967 32.9379 173.01 32.5827 174.089 32.5473C175.167 32.512 176.232 32.7982 177.147 33.3695C177.792 33.8441 178.054 34.347 177.898 34.602Z" fill="#263238"/>
<path d="M163.03 62.8784C164.765 62.8784 165.63 63.3884 167.103 64.2951C167.547 64.5289 167.911 64.8887 168.151 65.3293C168.265 65.6458 168.304 65.9841 168.266 66.3181C168.228 66.6522 168.113 66.973 167.932 67.2559C167.569 67.8992 167.031 68.4257 166.38 68.7733C165.728 69.1209 164.991 69.2752 164.255 69.218C163.522 69.1409 162.831 68.8367 162.278 68.3478C161.726 67.8589 161.34 67.2098 161.174 66.4909C161.037 65.7662 161.145 65.0164 161.481 64.3597C161.817 63.7031 162.362 63.1769 163.03 62.8643" fill="#AA6550"/>
<path d="M168.916 66.5831C168.916 66.7531 168.364 67.0081 167.393 66.9514C166.166 66.8375 164.98 66.4503 163.923 65.8181C162.856 65.2243 161.911 64.4335 161.139 63.4877C160.565 62.7793 160.388 62.156 160.537 62.071C160.827 61.8797 162.286 63.4097 164.581 64.6706C165.53 65.2184 166.529 65.676 167.563 66.0376C168.357 66.3068 168.895 66.3989 168.916 66.5831Z" fill="#263238"/>
<path d="M157.972 52.7564C158.297 52.7564 158.56 52.4932 158.56 52.1685C158.56 51.8438 158.297 51.5806 157.972 51.5806C157.648 51.5806 157.385 51.8438 157.385 52.1685C157.385 52.4932 157.648 52.7564 157.972 52.7564Z" fill="#AA6550"/>
<path d="M175.206 49.2857C175.206 49.402 175.172 49.5156 175.107 49.6123C175.043 49.709 174.951 49.7843 174.843 49.8288C174.736 49.8733 174.618 49.885 174.504 49.8623C174.39 49.8396 174.285 49.7836 174.203 49.7014C174.12 49.6192 174.064 49.5144 174.042 49.4004C174.019 49.2863 174.031 49.1681 174.075 49.0607C174.12 48.9533 174.195 48.8614 174.292 48.7968C174.388 48.7322 174.502 48.6978 174.618 48.6978C174.774 48.6978 174.924 48.7597 175.034 48.87C175.144 48.9802 175.206 49.1297 175.206 49.2857Z" fill="#AA6550"/>
<path d="M178.457 50.8158C178.467 50.8989 178.458 50.983 178.433 51.0626C178.407 51.1422 178.365 51.2155 178.309 51.2778C178.253 51.34 178.185 51.3898 178.109 51.4239C178.032 51.458 177.95 51.4756 177.866 51.4756C177.782 51.4756 177.7 51.458 177.623 51.4239C177.547 51.3898 177.479 51.34 177.423 51.2778C177.367 51.2155 177.325 51.1422 177.3 51.0626C177.274 50.983 177.265 50.8989 177.275 50.8158C177.291 50.6701 177.36 50.5354 177.469 50.4376C177.578 50.3397 177.719 50.2856 177.866 50.2856C178.013 50.2856 178.154 50.3397 178.263 50.4376C178.372 50.5354 178.442 50.6701 178.457 50.8158Z" fill="#AA6550"/>
<path d="M179.442 48.3579C179.442 48.4742 179.408 48.5879 179.343 48.6846C179.278 48.7812 179.187 48.8566 179.079 48.9011C178.972 48.9456 178.854 48.9572 178.739 48.9346C178.625 48.9119 178.521 48.8559 178.438 48.7737C178.356 48.6914 178.3 48.5867 178.278 48.4726C178.255 48.3586 178.266 48.2404 178.311 48.1329C178.355 48.0255 178.431 47.9337 178.528 47.8691C178.624 47.8045 178.738 47.77 178.854 47.77C179.01 47.77 179.16 47.832 179.27 47.9422C179.38 48.0525 179.442 48.202 179.442 48.3579Z" fill="#AA6550"/>
<path d="M155.869 54.7681C155.87 54.8861 155.836 55.0018 155.772 55.1006C155.707 55.1993 155.615 55.2767 155.506 55.3228C155.398 55.3689 155.278 55.3817 155.162 55.3596C155.046 55.3374 154.94 55.2813 154.856 55.1984C154.772 55.1155 154.714 55.0095 154.691 54.8939C154.667 54.7783 154.679 54.6583 154.723 54.5491C154.768 54.44 154.844 54.3467 154.942 54.281C155.04 54.2153 155.156 54.1802 155.274 54.1802C155.43 54.1802 155.581 54.2419 155.692 54.3519C155.803 54.462 155.867 54.6115 155.869 54.7681Z" fill="#AA6550"/>
<path d="M153.659 52.4165C153.659 52.5328 153.624 52.6465 153.56 52.7432C153.495 52.8398 153.403 52.9152 153.296 52.9597C153.188 53.0042 153.07 53.0158 152.956 52.9931C152.842 52.9705 152.737 52.9145 152.655 52.8323C152.573 52.75 152.517 52.6453 152.494 52.5312C152.472 52.4172 152.483 52.299 152.528 52.1915C152.572 52.0841 152.648 51.9923 152.744 51.9277C152.841 51.8631 152.955 51.8286 153.071 51.8286C153.227 51.8286 153.376 51.8906 153.487 52.0008C153.597 52.1111 153.659 52.2606 153.659 52.4165Z" fill="#AA6550"/>
<path d="M163.292 45.2908C163.226 44.4556 163.096 43.6267 162.903 42.8116C162.32 40.5963 161.007 38.6422 159.177 37.2653C157.927 36.3161 156.471 35.6754 154.927 35.3953C153.157 35.0715 151.333 35.2255 149.642 35.8416C148.732 36.1667 147.876 36.6302 147.107 37.2158C146.292 37.8086 145.574 38.5256 144.982 39.3408C143.716 41.0626 143.034 43.1434 143.034 45.2801C143.034 47.4168 143.716 49.4977 144.982 51.2195C146.155 52.8307 147.776 54.0621 149.642 54.7612C151.333 55.3772 153.157 55.5313 154.927 55.2074C156.471 54.9274 157.927 54.2867 159.177 53.3374C161.005 51.9616 162.318 50.0105 162.903 47.7983C163.095 46.9829 163.225 46.1542 163.292 45.3191C163.303 45.3729 163.303 45.4282 163.292 45.482V45.9708C163.292 46.2365 163.27 46.5017 163.228 46.7641C163.192 47.1227 163.128 47.4779 163.037 47.8266C162.814 48.799 162.441 49.7309 161.932 50.5891C160.716 52.6712 158.808 54.2609 156.54 55.0814C154.273 55.902 151.789 55.9014 149.522 55.0799C148.577 54.7437 147.689 54.266 146.887 53.6633C146.039 53.0524 145.295 52.3085 144.684 51.4603C143.364 49.6808 142.652 47.524 142.652 45.3085C142.652 43.0929 143.364 40.9361 144.684 39.1566C145.295 38.3084 146.039 37.5645 146.887 36.9537C147.689 36.3509 148.577 35.8733 149.522 35.537C151.269 34.91 153.153 34.7633 154.976 35.112C156.418 35.3914 157.784 35.9742 158.983 36.8217C160.182 37.6692 161.187 38.7621 161.932 40.0278C162.44 40.8866 162.813 41.8183 163.037 42.7903C163.129 43.1413 163.193 43.4989 163.228 43.8599C163.271 44.1199 163.292 44.3828 163.292 44.6462V45.1349C163.301 45.1865 163.301 45.2392 163.292 45.2908Z" fill="white"/>
<path d="M167.733 42.1955C166.945 41.9786 166.128 41.883 165.311 41.9121C164.505 42.0579 163.725 42.3204 162.995 42.6913C162.995 42.6913 163.143 42.4221 163.54 42.153C164.06 41.8171 164.652 41.6084 165.268 41.5438C165.888 41.4736 166.515 41.5563 167.096 41.7846C167.535 41.9617 167.755 42.153 167.733 42.1955Z" fill="white"/>
<path d="M161.259 15.3353C159.842 28.1349 150.322 39.6594 138.04 43.5411C142 49.2503 139.506 60.1161 139.605 69.1828C139.705 77.6119 139.697 80.0203 134.236 84.3198C129.724 85.4036 127.153 73.0432 123.767 69.5865C120.381 66.1299 117.201 61.8728 117.449 57.0703C117.569 54.8178 118.447 52.6644 118.568 50.419C118.71 47.9257 117.909 45.4607 117.47 43.0311C115.515 32.1582 121.125 20.4636 130.624 14.7757C140.122 9.08777 152.738 9.47027 162.137 15.2857" fill="#263238"/>
<path d="M134.151 67.9574C132.974 63.8226 130.95 59.9777 128.208 56.6665L128.414 57.1057C127.567 55.174 126.291 53.4604 124.684 52.0945C123.077 50.7286 121.18 49.7462 119.137 49.2218C117.094 48.6974 114.958 48.6446 112.892 49.0675C110.826 49.4904 108.882 50.3778 107.21 51.6627C105.537 52.9475 104.178 54.5961 103.237 56.4835C102.296 58.371 101.796 60.4479 101.776 62.5571C101.756 64.6662 102.216 66.7523 103.121 68.6574C104.026 70.5625 105.353 72.2367 107.001 73.5532C105.407 73.199 103.792 74.5732 103.459 76.1669C103.336 76.9777 103.378 77.8051 103.584 78.5989C103.79 79.3928 104.154 80.1366 104.656 80.7853C107.978 85.6444 115.508 86.9265 120.24 83.4415C123.994 85.9844 129.54 84.504 132.324 80.9269C135.107 77.3499 135.433 72.3065 134.151 67.9574Z" fill="#263238"/>
<path d="M118.943 49.2077C118.796 49.0687 118.661 48.917 118.54 48.7544C118.21 48.2802 117.97 47.7496 117.831 47.189C117.399 45.7227 117.605 43.4065 118.766 40.9556C119.398 39.6138 120.266 38.3972 121.33 37.3644C122.496 36.1387 123.787 35.0394 125.184 34.0848C126.729 33.0206 128.414 32.1767 130.192 31.5773C132.026 30.9469 133.974 30.4581 135.958 29.9623C137.941 29.4665 139.882 28.9777 141.695 28.3402C143.443 27.7378 145.141 26.9988 146.774 26.1302C149.535 24.66 152.102 22.8517 154.417 20.7469C155.977 19.3207 157.417 17.769 158.723 16.1073C159.191 15.5194 159.531 15.0448 159.765 14.6906C159.875 14.5236 160.001 14.3671 160.14 14.2231C160.048 14.4001 159.944 14.5706 159.828 14.7331C159.609 15.0661 159.29 15.5548 158.837 16.1498C157.566 17.857 156.144 19.4455 154.587 20.8956C152.27 23.0455 149.69 24.8924 146.908 26.3923C145.263 27.274 143.55 28.0248 141.787 28.6377C139.953 29.2823 138.005 29.7781 136.021 30.2811C134.038 30.784 132.097 31.2586 130.277 31.8748C128.52 32.4592 126.852 33.2814 125.318 34.3186C123.939 35.2593 122.657 36.3367 121.493 37.5344C120.457 38.5587 119.612 39.7606 119 41.0831C117.831 43.4702 117.583 45.7298 117.973 47.1677C118.153 47.907 118.484 48.6013 118.943 49.2077Z" fill="#455A64"/>
<path d="M160.126 14.2588C160.024 14.4008 159.913 14.5357 159.793 14.6625C159.566 14.9246 159.219 15.293 158.773 15.7675C157.488 17.0897 156.123 18.3316 154.686 19.4863C152.56 21.2336 150.194 22.6651 147.659 23.7363C146.137 24.2986 144.568 24.723 142.97 25.0042C141.32 25.3371 139.598 25.5921 137.842 25.8613C134.532 26.2569 131.264 26.9419 128.074 27.9084C125.486 28.7531 123.082 30.0825 120.99 31.8255C119.584 33.0043 118.424 34.4484 117.576 36.0755C117.355 36.5224 117.159 36.9812 116.988 37.4496C116.938 37.6174 116.869 37.779 116.783 37.9313C116.816 37.7607 116.861 37.5927 116.917 37.4284C117.059 36.9435 117.236 36.47 117.449 36.0117C118.259 34.3359 119.407 32.8456 120.82 31.6342C122.914 29.8382 125.336 28.4669 127.953 27.5967C131.156 26.5962 134.441 25.885 137.771 25.4717C139.535 25.2096 141.249 24.9475 142.885 24.6288C144.465 24.3552 146.017 23.9428 147.525 23.3963C150.034 22.3534 152.385 20.9633 154.509 19.2667C155.958 18.1399 157.346 16.9364 158.667 15.6613L159.736 14.613C159.854 14.4821 159.984 14.3634 160.126 14.2588Z" fill="#455A64"/>
<path d="M178.11 0.247773C178.11 0.325689 176.729 0.375273 174.569 0.956106C173.983 1.10859 173.406 1.29304 172.84 1.50861C172.224 1.71402 171.601 2.01861 170.928 2.31611C168.063 3.69953 165.542 5.70292 163.547 8.18111C163.108 8.76902 162.669 9.30736 162.329 9.86694C161.99 10.3658 161.68 10.8837 161.401 11.4182C160.36 13.3732 159.984 14.719 159.927 14.6907C159.975 14.3714 160.055 14.058 160.168 13.7557C160.27 13.3882 160.398 13.0284 160.551 12.679C160.73 12.1949 160.939 11.7219 161.174 11.2624C161.438 10.7095 161.739 10.1748 162.074 9.66152C162.407 9.09486 162.839 8.53527 163.278 7.93319C164.291 6.67716 165.433 5.53051 166.685 4.51194C167.958 3.52324 169.333 2.67316 170.786 1.97611C171.422 1.67706 172.075 1.41454 172.741 1.18986C173.795 0.820151 174.881 0.549808 175.985 0.382358C176.359 0.309852 176.738 0.264869 177.119 0.247773C177.448 0.209076 177.781 0.209076 178.11 0.247773Z" fill="#455A64"/>
<path d="M189.522 61.4051C189.522 61.4051 189.522 61.3555 189.628 61.2634L189.961 60.8738C190.258 60.5268 190.705 60.0238 191.208 59.3226C191.841 58.4962 192.321 57.563 192.624 56.5672C192.797 55.9477 192.847 55.3005 192.773 54.6618C192.673 53.9486 192.432 53.2625 192.065 52.643C191.3 51.3184 190.046 50.1638 188.898 48.733C186.318 45.5043 184.661 41.6367 184.103 37.5413C183.875 35.2467 183.818 32.9382 183.933 30.6351C184.047 28.3523 183.835 26.065 183.302 23.8422C182.736 21.9036 181.757 20.1108 180.431 18.5872C179.106 17.0636 177.466 15.8453 175.624 15.0163C174.097 14.3319 172.452 13.9517 170.779 13.8972C167.667 13.7715 164.6 14.6752 162.053 16.4684L161.627 16.7659C161.535 16.8297 161.486 16.8651 161.479 16.858C162.141 16.2475 162.882 15.7282 163.682 15.3138C165.856 14.1468 168.298 13.5681 170.765 13.6351C172.473 13.6771 174.157 14.05 175.723 14.733C177.618 15.5698 179.307 16.8103 180.673 18.3678C182.038 19.9253 183.047 21.7622 183.628 23.7501C184.17 26.0051 184.387 28.3259 184.273 30.6422C184.159 32.9286 184.213 35.2204 184.436 37.4988C184.975 41.5353 186.595 45.3509 189.125 48.5418C190.244 49.9584 191.505 51.1343 192.284 52.5155C192.662 53.1686 192.903 53.8916 192.992 54.6405C193.063 55.3096 193.001 55.9861 192.808 56.6309C192.482 57.6444 191.971 58.5883 191.3 59.4147C190.894 59.9444 190.459 60.4505 189.996 60.9305L189.628 61.2988C189.597 61.3385 189.561 61.3741 189.522 61.4051Z" fill="#455A64"/>
<path d="M187.878 42.7905C187.812 41.9554 187.682 41.1266 187.489 40.3113C186.906 38.096 185.594 36.142 183.763 34.7651C182.418 33.7532 180.841 33.0936 179.176 32.8462C177.511 32.5987 175.81 32.7714 174.229 33.3484C172.362 34.0475 170.742 35.2789 169.568 36.8901C168.302 38.6104 167.619 40.6902 167.619 42.8259C167.619 44.9617 168.302 47.0415 169.568 48.7618C170.157 49.5798 170.875 50.2974 171.693 50.8868C172.464 51.4676 173.319 51.9285 174.229 52.2538C175.554 52.7352 176.965 52.9348 178.371 52.8397C179.778 52.7446 181.149 52.3569 182.397 51.7015C183.645 51.0461 184.743 50.1374 185.619 49.0336C186.496 47.9297 187.133 46.655 187.489 45.2909C187.682 44.4757 187.812 43.6469 187.878 42.8118C187.889 42.8679 187.889 42.9256 187.878 42.9818C187.878 43.1093 187.878 43.2722 187.878 43.4634C187.878 43.7292 187.857 43.9945 187.815 44.2568C187.778 44.6176 187.714 44.9752 187.623 45.3263C187.399 46.2984 187.026 47.2301 186.518 48.0888C185.848 49.2304 184.966 50.2331 183.919 51.0426C182.544 52.1025 180.925 52.7984 179.21 53.0659C177.495 53.3333 175.74 53.1637 174.108 52.5726C173.162 52.24 172.273 51.7621 171.473 51.1559C170.627 50.5401 169.883 49.7942 169.27 48.9459C167.95 47.1679 167.237 45.0122 167.237 42.7976C167.237 40.583 167.95 38.4273 169.27 36.6493C169.881 35.8011 170.625 35.0572 171.473 34.4463C172.275 33.8436 173.163 33.3659 174.108 33.0297C175.855 32.4007 177.739 32.2515 179.562 32.5976C181.009 32.8801 182.377 33.4687 183.577 34.3239C184.777 35.1791 185.78 36.2811 186.518 37.5559C187.027 38.4117 187.4 39.3412 187.623 40.3113C187.714 40.6625 187.778 41.0201 187.815 41.3809C187.857 41.6432 187.878 41.9085 187.878 42.1743C187.878 42.3655 187.878 42.5284 187.878 42.663C187.885 42.7053 187.885 42.7483 187.878 42.7905Z" fill="white"/>
<path d="M134.137 84.5821C134.012 84.5199 133.895 84.4413 133.79 84.3484C133.57 84.1855 133.259 83.9375 132.848 83.64C131.703 82.7228 130.628 81.7213 129.632 80.6438C128.095 79.0537 127.044 77.0585 126.6 74.8921C126.454 73.6132 126.397 72.3256 126.43 71.0388C126.455 69.6906 126.069 68.3668 125.325 67.2421C124.492 66.1619 123.565 65.1569 122.556 64.2388C121.62 63.3324 120.848 62.2707 120.275 61.1009C119.768 60.0422 119.396 58.9236 119.17 57.7717C118.957 56.7733 118.859 55.7537 118.88 54.7329C118.88 53.7909 119.099 52.9692 119.184 52.2467C119.267 51.6292 119.281 51.0044 119.227 50.3838C119.106 49.3638 118.908 48.8184 118.943 48.8042C119.009 48.9284 119.061 49.0589 119.099 49.1938C119.217 49.5763 119.307 49.9669 119.368 50.3625C119.444 50.9954 119.444 51.6351 119.368 52.2679C119.305 52.9763 119.135 53.8263 119.113 54.74C119.124 56.8896 119.608 59.0105 120.53 60.9521C121.094 62.0836 121.849 63.1092 122.761 63.9838C123.796 64.911 124.745 65.9305 125.595 67.0296C126.006 67.6213 126.311 68.2806 126.494 68.9775C126.657 69.6482 126.745 70.3347 126.756 71.0246C126.721 72.2968 126.771 73.5699 126.905 74.8354C127.316 76.9572 128.315 78.9207 129.788 80.5021C130.761 81.5877 131.804 82.6076 132.912 83.555L133.875 84.2917C133.972 84.3797 134.059 84.477 134.137 84.5821Z" fill="#455A64"/>
<path d="M126.083 68.085C126.096 68.1814 126.096 68.279 126.083 68.3754C126.083 68.5666 126.083 68.8429 126.027 69.2041C125.907 70.2223 125.669 71.223 125.318 72.1862C124.199 75.4192 121.977 78.1547 119.042 79.9124C116.106 81.6701 112.646 82.3378 109.267 81.7983C108.256 81.6454 107.264 81.3768 106.314 80.9979C105.974 80.8704 105.726 80.7287 105.556 80.6508C105.386 80.5729 105.301 80.5162 105.308 80.502C106.602 80.9798 107.94 81.3286 109.303 81.5433C110.784 81.7345 112.285 81.7082 113.758 81.4654C117.407 80.9063 120.692 78.9409 122.91 75.99C123.818 74.8063 124.548 73.4962 125.077 72.1012C125.539 70.7974 125.876 69.4526 126.083 68.085Z" fill="#455A64"/>
<path d="M123.356 64.7559C123.327 65.0864 123.258 65.4122 123.151 65.7263C122.9 66.5947 122.565 67.4368 122.152 68.2409C120.774 70.9106 118.685 73.1483 116.117 74.7079C113.543 76.2501 110.617 77.1083 107.617 77.2013C106.715 77.2289 105.812 77.1815 104.918 77.0596C104.588 77.0298 104.263 76.9632 103.948 76.8613C105.167 76.9489 106.389 76.9749 107.61 76.9392C110.55 76.7767 113.406 75.9016 115.933 74.3892C118.445 72.858 120.512 70.6939 121.925 68.1134C122.475 67.0267 122.953 65.9051 123.356 64.7559Z" fill="#455A64"/>
<path d="M102.637 57.7005C102.832 57.5489 103.047 57.4249 103.275 57.3322C103.528 57.1956 103.791 57.0773 104.061 56.978C104.415 56.8298 104.777 56.7021 105.145 56.5955C106.099 56.3092 107.079 56.1194 108.07 56.0289C109.285 55.9228 110.508 55.9466 111.718 56.0997C112.927 56.2702 114.114 56.567 115.26 56.9851C116.191 57.3426 117.083 57.7935 117.923 58.3309C118.246 58.5338 118.556 58.7562 118.851 58.9968C119.086 59.1649 119.306 59.352 119.51 59.5564C119.699 59.7148 119.868 59.8956 120.013 60.0947C119.963 60.1514 119.22 59.3864 117.782 58.5505C116.941 58.0552 116.056 57.6379 115.14 57.3039C114.011 56.9178 112.849 56.638 111.669 56.468C110.494 56.3205 109.308 56.2849 108.127 56.3618C107.153 56.4375 106.188 56.601 105.244 56.8505C103.601 57.2755 102.708 57.7643 102.637 57.7005Z" fill="#455A64"/>
<path d="M118.943 56.3902C118.88 56.4681 114.41 52.6715 108.97 47.8902C103.53 43.109 99.1667 39.2202 99.2304 39.1423C99.2942 39.0644 103.764 42.8681 109.211 47.6423C114.658 52.4165 119 56.3194 118.943 56.3902Z" fill="#407BFF"/>
<path d="M139.35 48.6341C139.689 47.9708 140.191 47.405 140.81 46.9907C141.349 46.4762 142.013 46.1102 142.736 45.9282C142.208 46.4235 141.639 46.8737 141.036 47.2741C140.51 47.7702 139.947 48.2249 139.35 48.6341Z" fill="white"/>
<path d="M119.46 52.6218C119.425 52.5777 119.394 52.5302 119.368 52.4801C119.305 52.3597 119.227 52.2181 119.127 52.0481C118.853 51.475 118.667 50.8636 118.575 50.2347C118.313 47.8789 118.985 45.5142 120.445 43.6472C120.906 43.0211 121.436 42.4485 122.025 41.9402C122.67 41.3997 123.367 40.9251 124.107 40.5235C125.749 39.6635 127.511 39.0569 129.335 38.7243C133.167 37.9239 137.48 38.1152 141.872 37.4635C144.021 37.1793 146.107 36.5351 148.042 35.5581C149.81 34.597 151.408 33.3528 152.773 31.8747C155.091 29.3572 156.947 26.4512 158.256 23.2897C159.418 20.6051 160.147 18.3314 160.678 16.8014L161.28 15.0093L161.443 14.5489C161.46 14.4952 161.481 14.443 161.507 14.3931C161.507 14.3931 161.507 14.4497 161.507 14.556L161.38 15.0306L160.792 16.8722C160.136 19.0933 159.363 21.278 158.475 23.4172C157.186 26.6277 155.332 29.5809 153 32.1368C151.607 33.6416 149.975 34.9054 148.169 35.8768C146.208 36.8788 144.09 37.5399 141.907 37.8318C137.459 38.4977 133.167 38.2852 129.377 39.0643C125.587 39.8435 122.336 41.4231 120.629 43.8031C119.196 45.604 118.507 47.885 118.703 50.1781C118.825 51.0275 119.081 51.8523 119.46 52.6218Z" fill="#FAFAFA"/>
<path d="M123.958 80.7496C123.81 81.7294 123.524 82.6833 123.108 83.583C122.63 84.6647 122.008 85.6773 121.26 86.5934C120.267 87.8174 119.051 88.8415 117.675 89.6109C115.991 90.5237 114.109 91.0101 112.193 91.0276C109.981 91.0784 107.809 90.4424 105.974 89.2071C103.955 87.8105 102.495 85.7459 101.851 83.3776C101.507 82.1301 101.435 80.8233 101.639 79.5455C101.863 78.2303 102.368 76.9789 103.119 75.8763C104.344 74.018 106.222 72.688 108.382 72.1505V72.5046C106.191 72.1658 104.11 71.3192 102.305 70.0326C100.631 68.8519 99.2972 67.2518 98.4371 65.393C97.6802 63.7224 97.3562 61.888 97.495 60.0592C97.612 58.479 98.142 56.9573 99.0321 55.6463C99.7808 54.5824 100.746 53.6891 101.865 53.0255C102.697 52.5345 103.604 52.185 104.55 51.9913C105.142 51.8738 105.746 51.8286 106.349 51.8567L106.81 51.9063C106.861 51.8985 106.914 51.8985 106.965 51.9063C106.163 51.8648 105.358 51.9267 104.571 52.0905C103.649 52.3013 102.769 52.6626 101.965 53.1601C100.891 53.8255 99.9695 54.7087 99.2588 55.7526C98.4073 57.0342 97.9067 58.5167 97.8067 60.0521C97.6882 61.8301 98.0144 63.6097 98.7558 65.2301C99.6014 67.0305 100.903 68.5786 102.531 69.7209C104.299 70.9661 106.33 71.7877 108.467 72.1221L109.381 72.2638L108.481 72.4763C106.41 72.995 104.609 74.2746 103.438 76.0605C102.716 77.1251 102.233 78.3333 102.021 79.6021C101.827 80.8302 101.895 82.0854 102.22 83.2855C102.834 85.5842 104.241 87.5915 106.193 88.9521C107.968 90.1547 110.071 90.7805 112.214 90.7442C114.085 90.7374 115.926 90.2729 117.576 89.3913C118.93 88.6525 120.131 87.6648 121.118 86.4801C121.87 85.5853 122.503 84.5973 123.002 83.5405C123.312 82.87 123.574 82.1789 123.788 81.4721C123.852 81.2455 123.902 81.0613 123.937 80.9126L123.958 80.7496Z" fill="#263238"/>
<path d="M119.786 50.1142C119.726 50.0966 119.669 50.0703 119.616 50.0363L119.12 49.7742C118.5 49.4192 117.911 49.0141 117.357 48.563C115.299 46.8823 113.728 44.681 112.809 42.188C111.742 39.2329 111.648 36.0141 112.54 33.0017C113.432 29.9892 115.264 27.3407 117.767 25.443C119.771 23.9664 122.024 22.8627 124.419 22.1846C126.813 21.5086 129.269 21.0744 131.75 20.8884C134.13 20.6617 136.425 20.5555 138.607 20.4067C140.672 20.2768 142.729 20.0404 144.769 19.6984C146.541 19.3938 148.28 18.9193 149.961 18.2817C152.402 17.3813 154.627 15.9794 156.492 14.1663C156.983 13.6565 157.44 13.1146 157.859 12.5442L158.185 12.098C158.219 12.0435 158.259 11.9935 158.305 11.9492C157.839 12.7938 157.263 13.5727 156.591 14.2655C154.74 16.1423 152.502 17.5926 150.032 18.5155C148.339 19.1736 146.586 19.6647 144.797 19.9817C142.748 20.3268 140.681 20.5633 138.607 20.6901C134.25 21.0371 129.398 21.0726 124.546 22.5105C122.196 23.178 119.982 24.2572 118.008 25.698C115.554 27.551 113.752 30.1353 112.861 33.0784C111.97 36.0215 112.036 39.1716 113.05 42.0746C113.939 44.5273 115.452 46.7054 117.442 48.393C117.981 48.8547 118.554 49.2761 119.156 49.6538L119.623 49.9442C119.685 49.9933 119.74 50.0504 119.786 50.1142Z" fill="#263238"/>
<path d="M198.723 39.6665C198.642 39.7635 198.541 39.8425 198.428 39.8986C198.314 39.9547 198.191 39.9866 198.064 39.9924C197.696 39.9996 197.335 39.896 197.027 39.6952C196.719 39.4944 196.478 39.2055 196.336 38.8661C196.227 38.6198 196.179 38.3507 196.196 38.0819C196.213 37.813 196.295 37.5523 196.435 37.322C196.762 36.7774 197.26 36.3565 197.852 36.1249C198.574 35.8638 199.35 35.7919 200.108 35.9158C200.865 36.0398 201.579 36.3556 202.18 36.8332C202.904 37.3561 203.462 38.0766 203.788 38.9086C204.131 39.8129 204.2 40.7986 203.986 41.742C203.769 42.7645 203.215 43.6848 202.413 44.3557C201.564 45.0592 200.527 45.4977 199.431 45.6165C198.262 45.7014 197.088 45.5227 195.997 45.0936C194.906 44.6645 193.925 43.996 193.127 43.1374C192.247 42.2672 191.56 41.2224 191.108 40.0703C190.647 38.8728 190.525 37.5715 190.754 36.309C190.999 35.0746 191.384 33.8721 191.902 32.7249C192.376 31.5915 192.815 30.4724 193.184 29.3532C193.92 27.2032 194.396 24.9725 194.6 22.709C194.79 20.6669 194.666 18.6077 194.232 16.6032C193.846 14.8478 193.163 13.1711 192.213 11.6449C190.845 9.42498 188.882 7.63346 186.547 6.47405C185.908 6.18452 185.247 5.94762 184.57 5.76572L184.032 5.63113C183.97 5.61876 183.911 5.59728 183.855 5.56738H184.039L184.585 5.66655C185.28 5.82469 185.959 6.05006 186.61 6.33947C188.998 7.4737 191.011 9.26804 192.412 11.5103C193.397 13.0301 194.116 14.7069 194.537 16.4686C194.993 18.5034 195.131 20.5965 194.947 22.6736C194.748 24.9656 194.272 27.225 193.531 29.4028C193.162 30.5361 192.716 31.6695 192.242 32.7957C191.739 33.9314 191.364 35.1192 191.123 36.3374C190.911 37.5269 191.029 38.7515 191.462 39.879C191.89 40.9875 192.55 41.992 193.396 42.8257C194.154 43.6478 195.086 44.2901 196.124 44.7055C197.162 45.121 198.28 45.2992 199.396 45.227C200.435 45.1209 201.42 44.7121 202.229 44.0511C202.983 43.4305 203.507 42.575 203.717 41.6215C203.924 40.7322 203.868 39.8016 203.554 38.944C203.248 38.1575 202.728 37.4727 202.052 36.9678C201.487 36.5092 200.814 36.2032 200.097 36.0792C199.381 35.9552 198.644 36.0172 197.958 36.2595C197.403 36.4643 196.932 36.8481 196.619 37.3503C196.484 37.5582 196.402 37.7959 196.38 38.0428C196.358 38.2897 196.396 38.5383 196.492 38.767C196.62 39.0867 196.84 39.3618 197.123 39.5582C197.406 39.7546 197.741 39.8636 198.085 39.872C198.312 39.8615 198.533 39.7906 198.723 39.6665Z" fill="#263238"/>
<g opacity="0.2">
<path d="M194.204 199.976C197.646 199.006 201.216 202.101 204.708 201.301C206.833 200.805 208.434 198.907 209.398 196.916C210.361 194.926 210.878 192.73 211.898 190.761C212.918 188.792 214.618 186.986 216.814 186.681C218.825 186.412 221.213 187.354 222.707 185.973C223.862 184.91 223.706 182.941 222.785 181.673C221.864 180.405 220.405 179.661 218.995 178.967C217.449 178.123 215.806 177.471 214.101 177.026C212.379 176.588 210.555 176.8 208.98 177.621C206.033 179.336 205.438 183.224 204.581 186.525C204.058 188.847 203.075 191.041 201.691 192.978C200.285 194.92 198.203 196.264 195.854 196.746C194.95 196.779 194.063 197.006 193.255 197.412C192.511 197.922 192.22 199.197 192.992 199.672" fill="black"/>
</g>
<path d="M176.262 187.248L189.167 182.75L200.735 164.666C201.299 163.784 202.037 163.026 202.904 162.439C203.771 161.852 204.749 161.448 205.778 161.252L226.525 157.335C226.788 158.126 226.753 158.985 226.425 159.751C226.098 160.518 225.501 161.137 224.747 161.493C221.977 163.072 209.518 165.977 209.518 165.977L228.707 165.651C228.707 165.651 229.295 168.42 227.12 169.412C224.945 170.404 211.275 170.9 211.275 170.9L228.792 173.393C228.792 173.393 228.891 176.177 224.889 176.226C220.948 176.19 217.012 175.954 213.095 175.518C212.933 175.493 212.767 175.534 212.635 175.631C212.502 175.728 212.413 175.873 212.387 176.035C212.361 176.191 212.396 176.351 212.484 176.483C212.572 176.615 212.707 176.708 212.861 176.743L224.499 179.492C224.835 179.566 225.136 179.75 225.357 180.014C225.577 180.278 225.704 180.607 225.718 180.95C225.732 181.294 225.631 181.633 225.433 181.913C225.234 182.194 224.948 182.401 224.62 182.502C224.407 182.556 224.186 182.57 223.968 182.545C221.992 182.346 210.141 180.845 210.141 180.845C210.141 180.845 205.962 195.493 203.256 196.676C200.55 197.859 194.877 198.185 194.877 198.185L182.835 202.952L176.262 187.248Z" fill="#D7A08B"/>
<path d="M227.375 165.594C227.044 165.664 226.707 165.697 226.369 165.693L223.621 165.828C221.305 165.927 218.096 166.04 214.561 166.132L209.567 166.26C208.224 166.204 206.882 166.396 205.608 166.827C204.769 167.157 204.058 167.744 203.575 168.505C203.42 168.798 203.285 169.101 203.171 169.412C203.157 169.325 203.157 169.237 203.171 169.15C203.226 168.904 203.311 168.666 203.426 168.442C203.888 167.613 204.613 166.962 205.488 166.593C206.783 166.113 208.158 165.887 209.539 165.927L214.498 165.771C218.039 165.679 221.248 165.608 223.564 165.573H226.312C226.667 165.55 227.022 165.557 227.375 165.594Z" fill="#AA6550"/>
<path d="M227.665 173.442C227.355 173.454 227.044 173.433 226.738 173.379L224.23 173.06C222.105 172.784 219.187 172.351 215.964 171.884C214.356 171.657 212.819 171.367 211.43 171.246C210.213 171.1 208.979 171.322 207.889 171.884C207.162 172.288 206.535 172.849 206.054 173.527C205.714 174.009 205.58 174.314 205.551 174.299C205.562 174.218 205.586 174.139 205.622 174.066C205.708 173.849 205.813 173.641 205.934 173.442C206.39 172.708 207.017 172.096 207.761 171.657C208.886 171.03 210.178 170.767 211.459 170.906C212.875 171.013 214.413 171.296 216.028 171.516C219.25 171.997 222.169 172.458 224.273 172.805L226.766 173.237C227.072 173.276 227.373 173.345 227.665 173.442Z" fill="#AA6550"/>
<path d="M217.926 177.898C217.241 177.801 216.564 177.654 215.9 177.459C214.653 177.154 212.939 176.701 211.041 176.311C210.589 176.205 210.13 176.137 209.667 176.106C209.252 176.122 208.848 176.241 208.491 176.453C207.857 176.804 207.323 177.311 206.94 177.926C206.622 178.527 206.414 179.179 206.323 179.853C206.264 179.67 206.25 179.476 206.281 179.286C206.318 178.766 206.463 178.26 206.706 177.799C207.086 177.116 207.644 176.548 208.321 176.155C208.728 175.913 209.187 175.772 209.66 175.745C210.148 175.771 210.634 175.837 211.112 175.943C213.038 176.347 214.738 176.835 215.964 177.204C216.639 177.37 217.296 177.602 217.926 177.898Z" fill="#AA6550"/>
<path d="M80.4596 196.973L119.17 192.213L187.064 181.177L195.826 203.199C170.326 212.039 144.16 220.015 118.49 227.028C116.392 227.446 114.253 227.627 112.115 227.566C103.544 227.601 82.4075 224.159 80.4596 196.973Z" fill="#407BFF"/>
<path d="M195.826 203.2C195.76 203.073 195.701 202.943 195.649 202.81C195.528 202.534 195.372 202.151 195.16 201.655C194.742 200.621 194.133 199.134 193.361 197.235L186.922 181.227L187.085 181.319L154.098 186.83C146.306 188.169 138.833 189.04 132.062 189.94C128.669 190.386 125.453 190.832 122.457 191.356C120.955 191.597 119.51 191.833 118.122 192.065C116.791 192.278 115.474 192.566 114.176 192.929C110.267 194.16 106.974 196.835 104.968 200.409C104.418 201.37 103.965 202.383 103.615 203.433C103.495 203.795 103.417 204.078 103.367 204.262C103.343 204.359 103.309 204.454 103.268 204.545C103.334 204.162 103.426 203.783 103.544 203.412C103.867 202.345 104.301 201.314 104.84 200.338C105.692 198.787 106.787 197.383 108.085 196.18C109.821 194.593 111.879 193.399 114.12 192.681C115.427 192.309 116.753 192.008 118.093 191.781C119.51 191.526 120.927 191.264 122.428 191.016C125.432 190.52 128.647 190.053 132.033 189.6C138.812 188.686 146.278 187.808 154.055 186.462L187.057 181.029H187.177L187.22 181.142C189.855 187.829 192.022 193.34 193.538 197.193L195.266 201.641C195.458 202.144 195.599 202.534 195.713 202.81C195.826 203.086 195.826 203.2 195.826 203.2Z" fill="#263238"/>
<path d="M101.292 226.397C101.397 226.408 101.502 226.43 101.603 226.461L102.503 226.681C103.296 226.851 104.465 227.12 105.995 227.304C110.317 227.837 114.699 227.626 118.95 226.681C120.296 226.397 121.685 226.015 123.137 225.604L127.656 224.329L137.572 221.496C144.578 219.456 152.263 217.168 160.303 214.667C173.761 210.488 186.129 206.394 195.72 203.086L195.635 203.277C192.985 196.548 190.811 191.044 189.302 187.198C188.558 185.293 187.985 183.798 187.581 182.764C187.39 182.268 187.248 181.886 187.142 181.602C187.035 181.319 187.007 181.206 187.007 181.206C187.007 181.206 187.071 181.333 187.184 181.588C187.298 181.843 187.453 182.247 187.659 182.736L189.451 187.134L195.904 203.171L195.96 203.313L195.819 203.362C186.214 206.72 173.86 210.835 160.402 215.021C152.363 217.522 144.67 219.803 137.657 221.828L127.684 224.662L123.158 225.908C121.741 226.312 120.325 226.695 118.957 226.971C114.676 227.898 110.266 228.073 105.924 227.488C104.348 227.274 102.797 226.909 101.292 226.397Z" fill="#263238"/>
<path d="M116.294 192.213C115.977 192.297 115.652 192.347 115.324 192.362L112.667 192.624L103.912 193.481L95.1575 194.416L92.5012 194.692C92.1785 194.747 91.8507 194.766 91.5238 194.749C91.8388 194.656 92.161 194.59 92.4871 194.551C93.1104 194.452 94.01 194.317 95.1292 194.161C97.3604 193.849 100.449 193.453 103.87 193.12C107.291 192.787 110.401 192.518 112.646 192.369C113.772 192.291 114.686 192.242 115.317 192.213C115.642 192.185 115.969 192.185 116.294 192.213Z" fill="#263238"/>
<path d="M48.6554 263.224C46.7004 266.021 42.8896 265.094 41.1258 263.386C39.3621 261.679 38.6183 259.207 37.9383 256.849C36.3871 251.458 34.8217 245.806 35.9763 240.316C36.2585 238.65 36.9937 237.094 38.1013 235.818C38.66 235.189 39.3744 234.719 40.1727 234.454C40.971 234.189 41.825 234.139 42.6488 234.309C44.5683 234.812 45.7583 236.689 46.6225 238.481C49.1625 243.76 50.4934 249.539 50.5183 255.396C50.5183 258.116 50.2067 260.978 48.6696 263.224" fill="#04834C"/>
<path d="M41.3171 277.383C38.1154 275.733 34.3471 275.52 30.7913 276.108C28.8858 276.42 26.8883 276.994 25.5921 278.432C24.2958 279.869 24.0479 282.391 25.5354 283.624C26.4997 284.271 27.6588 284.564 28.815 284.452C31.5988 284.417 34.6871 283.928 36.9113 285.607C38.1792 286.556 39.0363 288.15 40.5379 288.617C41.2956 288.795 42.0903 288.72 42.8021 288.406C43.5138 288.092 44.104 287.554 44.4833 286.875C45.2069 285.482 45.3666 283.864 44.9296 282.356C44.7527 281.304 44.3345 280.308 43.7077 279.445C43.0809 278.582 42.2626 277.877 41.3171 277.383Z" fill="#02CA74"/>
<path d="M54.0317 267.24C51.9067 264.711 51.5029 261.035 52.4521 257.876C53.4013 254.717 55.5333 252.025 57.9913 249.829C60.8855 247.252 64.2536 245.262 67.9079 243.971C69.3218 243.394 70.8453 243.136 72.3704 243.213C73.1327 243.256 73.873 243.485 74.5263 243.88C75.1796 244.275 75.7259 244.824 76.1175 245.48C77.1658 247.47 76.16 249.893 75.0763 251.855C73.1672 255.328 70.9857 258.644 68.5525 261.772C66.5975 264.293 64.3592 266.779 61.3842 267.92C58.4092 269.06 55.3067 268.926 53.7271 266.857" fill="#02CA74"/>
<path d="M48.79 305.405C48.6843 304.99 48.6249 304.565 48.6129 304.137C48.5208 303.216 48.4075 302.054 48.2729 300.673C48.0992 298.964 47.8391 297.264 47.4938 295.58C47.0394 293.534 46.4212 291.528 45.645 289.581C44.8837 287.634 43.8512 285.805 42.5779 284.148C41.5408 282.8 40.2175 281.699 38.7033 280.925C37.6688 280.414 36.5592 280.072 35.4167 279.912C34.9912 279.894 34.5687 279.832 34.1558 279.728C34.582 279.682 35.0118 279.682 35.4379 279.728C36.6173 279.817 37.7712 280.117 38.845 280.613C40.4397 281.368 41.8385 282.48 42.9321 283.864C44.2608 285.543 45.3327 287.41 46.1125 289.404C46.8961 291.383 47.5098 293.426 47.9471 295.509C48.2872 297.21 48.5238 298.93 48.6554 300.659C48.7688 302.132 48.8113 303.322 48.8254 304.144C48.8581 304.564 48.8462 304.987 48.79 305.405Z" fill="#263238"/>
<path d="M48.5492 302.741C48.5132 302.548 48.5013 302.35 48.5138 302.154C48.5138 301.707 48.5138 301.148 48.5138 300.461C48.5138 299.001 48.5138 296.884 48.4358 294.27C48.3083 289.042 47.855 281.817 47.0192 273.884C46.1833 265.951 44.9579 258.811 43.9167 253.689C43.6617 252.4 43.4138 251.246 43.2083 250.233C43.0029 249.22 42.7904 248.349 42.6063 247.64C42.4221 246.932 42.3158 246.429 42.2096 245.997C42.154 245.807 42.1184 245.613 42.1033 245.416C42.1953 245.591 42.2644 245.776 42.3088 245.969C42.4433 246.394 42.5992 246.932 42.8046 247.584C43.01 248.235 43.2438 249.156 43.5129 250.169C43.7821 251.182 44.0583 252.329 44.3346 253.611C45.7785 260.287 46.8638 267.035 47.5858 273.827C48.4571 281.782 48.8538 289.021 48.8892 294.263C48.8892 296.884 48.8892 299.009 48.7971 300.468C48.7546 301.176 48.7192 301.714 48.6908 302.154C48.6694 302.355 48.6217 302.552 48.5492 302.741Z" fill="#263238"/>
<path d="M48.5138 288.773C48.4689 288.188 48.4689 287.601 48.5138 287.016C48.5775 285.883 48.7333 284.247 49.0521 282.242C49.4376 279.899 49.9555 277.579 50.6033 275.293C51.3769 272.485 52.3473 269.735 53.5075 267.063C55.5276 262.151 58.422 257.646 62.05 253.767C62.6773 253.104 63.3469 252.481 64.0546 251.904C64.3663 251.642 64.6354 251.38 64.9117 251.196L65.6908 250.658C66.1629 250.305 66.6601 249.988 67.1783 249.708C67.2633 249.829 65.0533 251.125 62.3192 254.051C58.8087 257.959 55.9916 262.439 53.9892 267.296C52.8369 269.944 51.862 272.665 51.0708 275.442C50.4034 277.708 49.8502 280.006 49.4133 282.327C49.0521 284.311 48.8396 285.933 48.705 287.052C48.688 287.63 48.624 288.205 48.5138 288.773Z" fill="#263238"/>
<path d="M254.703 64.175C253.994 58.5579 249.255 53.3233 243.596 53.3233C240.26 53.3233 237.079 55.0658 234.798 57.5095C233.987 58.3311 233.241 59.2144 232.567 60.1516C232.088 59.1001 231.529 58.0867 230.895 57.12C229.139 54.2866 226.369 51.942 223.104 51.2833C217.55 50.1783 211.87 54.3716 210.077 59.7408C208.285 65.11 209.78 71.1308 212.72 75.9616C215.659 80.7925 220.724 87.1179 230.053 90.2487C236.477 89.427 245.09 83.725 248.923 79.56C252.755 75.395 255.397 69.792 254.703 64.175Z" fill="#407BFF"/>
</g>
<defs>
<clipPath id="clip0_43_6">
<rect width="306" height="306" fill="white"/>
</clipPath>
</defs>
</svg>
