<svg width="40" height="36" viewBox="0 0 40 36" fill="none" xmlns="http://www.w3.org/2000/svg">
<g clip-path="url(#clip0_52_38)">
<path d="M11.1421 2.09567C11.3439 1.89392 11.5605 1.71497 11.7833 1.5448C11.0483 0.844796 10.0904 0.455322 9.06931 0.455322C6.86755 0.455322 5.08685 2.23602 5.08685 4.43778V12.736H6.84124V4.43866C6.84124 3.21059 7.84124 2.21059 9.06931 2.21059C9.62019 2.21059 10.143 2.4176 10.5535 2.78866C10.7316 2.54743 10.9237 2.31322 11.1412 2.09567H11.1421Z" fill="#407BFF"/>
<path d="M13.7105 10.3289C13.557 10.3289 13.4026 10.2886 13.264 10.207C12.9061 9.99472 12.6245 9.78244 12.3807 9.5377C10.6728 7.82893 10.6728 5.0456 12.3824 3.33595C14.0921 1.6263 16.8745 1.6263 18.5842 3.33595C18.828 3.57981 19.0412 3.86139 19.2526 4.2184C19.4552 4.56402 19.4 5.00261 19.1175 5.28507L14.3307 10.0719C14.1623 10.2403 13.9377 10.3289 13.7105 10.3289Z" fill="#407BFF"/>
<path d="M34.9123 35.307C34.0702 35.7894 33 35.5087 32.5175 34.6666L32.4561 34.5964C33.5351 34.1227 34.5263 33.4824 35.4035 32.7192L35.5526 32.9122C36.0351 33.7543 35.7544 34.8245 34.9123 35.307Z" fill="#407BFF"/>
<path d="M7.54384 34.5964L7.48244 34.6666C6.99998 35.5087 5.92981 35.7894 5.0877 35.307C4.2456 34.8245 3.96489 33.7543 4.44735 32.9122L4.59647 32.7192C5.47367 33.4824 6.4649 34.1227 7.54384 34.5964Z" fill="#407BFF"/>
<path d="M37.1052 20.6315H2.89471C2.74559 20.6315 2.59647 20.6228 2.45612 20.6052V24.1403C2.45612 29.4649 6.78068 33.7894 12.1052 33.7894H27.8947C33.2193 33.7894 37.5438 29.4649 37.5438 24.1403V20.6052C37.4035 20.6228 37.2544 20.6315 37.1052 20.6315Z" fill="#407BFF"/>
<path d="M37.1053 14.4912H2.89476C1.68361 14.4912 0.701782 15.473 0.701782 16.6842C0.701782 17.8953 1.68361 18.8772 2.89476 18.8772H37.1053C38.3164 18.8772 39.2983 17.8953 39.2983 16.6842C39.2983 15.473 38.3164 14.4912 37.1053 14.4912Z" fill="#407BFF"/>
</g>
<defs>
<clipPath id="clip0_52_38">
<rect width="40" height="35.7895" fill="white" transform="translate(0 0.105225)"/>
</clipPath>
</defs>
</svg>
