<svg width="40" height="40" viewBox="0 0 40 40" fill="none" xmlns="http://www.w3.org/2000/svg">
<g clip-path="url(#clip0_52_8)">
<path d="M18.6571 23.8658C18.6674 23.8246 18.6754 23.7855 18.6854 23.7446L8.72546 11.7179L8.32267 12.9672L7.86267 12.86L9.12799 8.93522C9.33599 8.29003 8.98153 7.59827 8.33613 7.39006C7.69053 7.18206 6.99939 7.53693 6.79097 8.18192L5.46311 12.3007L4.77906 14.4225C4.77593 14.4322 4.77411 14.442 4.77123 14.4517C4.76409 14.4759 4.75733 14.5001 4.75175 14.5246C4.74776 14.5419 4.74453 14.5591 4.74131 14.5765C4.73743 14.5976 4.73378 14.6187 4.73102 14.64C4.72826 14.6609 4.72632 14.6817 4.72466 14.7026C4.72329 14.7202 4.72208 14.7378 4.72147 14.7554C4.72063 14.7789 4.72059 14.8023 4.7211 14.8257C4.72145 14.8412 4.72198 14.8567 4.72292 14.8722C4.72437 14.8964 4.72658 14.9205 4.72947 14.9445C4.73131 14.9598 4.73339 14.9751 4.73579 14.9904C4.73943 15.0133 4.74371 15.0361 4.74864 15.0587C4.75228 15.0756 4.75625 15.0922 4.76059 15.1088C4.76591 15.1292 4.7717 15.1493 4.77806 15.1693C4.78397 15.188 4.79034 15.2065 4.79715 15.225C4.80362 15.2424 4.81043 15.2596 4.81767 15.2767C4.82614 15.2968 4.83513 15.3166 4.84468 15.3362C4.85209 15.3514 4.8598 15.3664 4.86782 15.3813C4.87865 15.4014 4.88996 15.4212 4.90195 15.4407C4.91075 15.4551 4.91992 15.4692 4.92929 15.4831C4.94167 15.5016 4.95443 15.5197 4.96788 15.5375C4.97921 15.5526 4.991 15.5672 5.00303 15.5818C5.01569 15.597 5.02852 15.6121 5.04203 15.6268C5.05721 15.6435 5.07304 15.6595 5.08915 15.6753C5.10106 15.6869 5.11292 15.6985 5.12538 15.7098C5.14464 15.7272 5.16475 15.7437 5.18521 15.7599C5.19276 15.7659 5.19949 15.7726 5.20723 15.7784C5.21001 15.7805 5.21312 15.7819 5.21592 15.7839C5.26398 15.8196 5.31491 15.852 5.36876 15.8808C5.37893 15.8862 5.38923 15.891 5.39948 15.8961C5.44719 15.9199 5.49656 15.9412 5.54827 15.959C5.55496 15.9613 5.5614 15.9644 5.56811 15.9666C5.56906 15.9669 5.56994 15.9673 5.5709 15.9676C5.59895 15.9767 5.62731 15.9808 5.65552 15.9878C5.6891 15.996 5.72229 16.0064 5.75621 16.0118C5.82029 16.0219 5.88434 16.0272 5.94776 16.0272C5.95431 16.0272 5.96063 16.0257 5.96716 16.0256C6.01672 16.0248 6.06603 16.0207 6.11505 16.0139C6.13443 16.0112 6.15344 16.0077 6.17261 16.0041C6.21349 15.9965 6.25382 15.9867 6.29378 15.9749C6.30861 15.9705 6.32361 15.967 6.33824 15.962C6.39201 15.944 6.44468 15.9226 6.49581 15.8971C6.50346 15.8933 6.51054 15.8886 6.51811 15.8846C6.56136 15.8619 6.60323 15.8364 6.64386 15.8084C6.65726 15.7992 6.67026 15.7896 6.68329 15.7799C6.71799 15.7538 6.7513 15.7256 6.78349 15.6955C6.79511 15.6847 6.8072 15.6746 6.81843 15.6633C6.85661 15.6247 6.89318 15.5839 6.92681 15.5395C7.91679 14.23 9.1669 13.6669 10.058 13.4244V22.8161L8.75329 37.1128C8.64677 38.2801 9.50694 39.3133 10.675 39.4198C11.8418 39.5263 12.875 38.666 12.9816 37.4987L13.995 26.3935H15.4547L16.4681 37.4987C16.5746 38.666 17.6078 39.5263 18.7747 39.4198C19.9427 39.3133 20.8029 38.2801 20.6964 37.1128L19.6688 25.8522C18.8952 25.5401 18.4484 24.6969 18.6571 23.8658Z" fill="#02CA74"/>
<path d="M19.1843 20.7133C19.3506 18.5448 19.033 16.9004 18.6023 15.7197L19.0337 15.4985C19.6934 17.2682 20.1059 20.0262 19.1134 23.9805C18.9484 24.6381 19.3476 25.305 20.0052 25.4701C20.1057 25.4952 20.206 25.5072 20.3051 25.5072C20.8546 25.5072 21.3549 25.1356 21.4948 24.5783C22.6682 19.9031 22.1025 16.5651 21.2212 14.3768C20.3436 12.1975 19.1531 11.1583 19.0551 11.0755C18.8738 10.9223 18.661 10.832 18.4423 10.7998C18.3527 10.78 18.2598 10.7686 18.1638 10.7686H11.2855C11.2094 10.7686 11.1352 10.776 11.0629 10.7886C11.0354 10.7898 11.0049 10.7913 10.9695 10.7935L19.1843 20.7133Z" fill="#02CA74"/>
<path d="M14.7248 10.0523C17.0413 10.0523 18.9193 8.17434 18.9193 5.8578C18.9193 3.54126 17.0413 1.66333 14.7248 1.66333C12.4082 1.66333 10.5303 3.54126 10.5303 5.8578C10.5303 8.17434 12.4082 10.0523 14.7248 10.0523Z" fill="#02CA74"/>
<path d="M33.7506 30.9109C30.529 28.6378 27.0657 28.8599 25.552 29.1078L24.5794 27.9333L23.4874 28.8377L24.4594 30.0114C23.932 31.4509 23.0635 34.811 24.6909 38.4026C26.1056 41.5253 31.1405 36.9784 31.1405 36.9784C31.1405 36.9784 32.7157 35.787 33.7265 34.3797L31.452 32.1721L34.1628 33.6857C34.6975 32.6813 34.7966 31.6486 33.7506 30.9109Z" fill="#02CA74"/>
<path d="M21.9366 24.7419C21.7964 25.2374 21.4465 25.6298 20.9971 25.8305L21.6663 26.6386L22.7584 25.7343L21.9366 24.7419Z" fill="#02CA74"/>
<path d="M23.3334 26.4299L22.2413 27.3342L22.9119 28.144L24.004 27.2397L23.3334 26.4299Z" fill="#02CA74"/>
<path d="M0.353912 0.903283L6.32032 8.10792L6.34302 8.03752C6.49402 7.57062 6.83217 7.20924 7.257 7.01599L1.44683 0L0.353912 0.903283Z" fill="#02CA74"/>
<path d="M9.40508 9.60986L8.88922 11.21L18.814 23.1944C18.9559 22.5416 19.0559 21.9263 19.123 21.3445L9.40508 9.60986Z" fill="#02CA74"/>
<path d="M34.6848 37.9271L33.4867 38.2275L33.4801 39.192L34.222 39.6504L35.707 39.3713L36.0264 38.6826L36.5279 37.8144L35.8279 37.2212L34.6848 37.9271Z" fill="#02CA74"/>
<path d="M37.2158 38.9858L36.9005 39.9578L38.1107 39.9999L38.6242 38.9666L38.1115 38.4856L37.2158 38.9858Z" fill="#02CA74"/>
<path d="M31.6701 38.9433L31.4181 39.7201L32.3854 39.7538L32.7958 38.9279L32.386 38.5435L31.6701 38.9433Z" fill="#02CA74"/>
<path d="M36.9047 32.2888C37.0231 32.3021 37.1404 32.3392 37.2467 32.4091C37.434 32.5321 37.5492 32.7221 37.5854 32.9265C37.7083 32.867 37.8184 32.7774 37.8988 32.655C38.1358 32.2942 38.0355 31.8096 37.6747 31.5726C37.39 31.3855 37.0299 31.4113 36.7735 31.6066C36.9218 31.8006 36.9705 32.0529 36.9047 32.2888Z" fill="#02CA74"/>
<path d="M37.3268 33.5718C37.5494 33.233 37.4552 32.7779 37.1164 32.5553C37.0303 32.4988 36.9366 32.4631 36.8412 32.4463C36.8301 32.4671 36.8217 32.4888 36.8085 32.5089C36.7167 32.6487 36.5873 32.7482 36.4427 32.8053C36.5285 32.7511 36.6051 32.6796 36.6645 32.5892C36.8871 32.2504 36.7929 31.7954 36.4541 31.5728C36.1153 31.3502 35.6602 31.4444 35.4376 31.7832C35.4316 31.7924 35.4283 31.8024 35.4227 31.8117C35.2228 32.1472 35.3184 32.5831 35.648 32.7996C35.7648 32.8764 35.8954 32.9129 36.0255 32.9173C35.911 33.2301 36.0199 33.5915 36.3103 33.7822C36.5588 33.9454 36.869 33.9369 37.105 33.7879C37.1908 33.7337 37.2674 33.6622 37.3268 33.5718Z" fill="#02CA74"/>
<path d="M36.4677 30.6773C36.3591 30.8426 36.405 31.0646 36.5703 31.1732C36.7356 31.2818 36.9576 31.2358 37.0662 31.0706C37.1747 30.9053 37.1288 30.6833 36.9635 30.5747C36.7982 30.4661 36.5762 30.5121 36.4677 30.6773Z" fill="#02CA74"/>
<path d="M37.6871 34.7837C37.5218 34.6751 37.2998 34.7211 37.1912 34.8863C37.0826 35.0516 37.1286 35.2736 37.2938 35.3822C37.4591 35.4908 37.6811 35.4449 37.7897 35.2796C37.8983 35.1143 37.8523 34.8923 37.6871 34.7837Z" fill="#02CA74"/>
<path d="M39.4846 32.0476C39.3194 31.939 39.0973 31.985 38.9887 32.1503C38.8802 32.3155 38.9261 32.5376 39.0914 32.6462C39.2567 32.7547 39.4787 32.7088 39.5873 32.5435C39.6959 32.3782 39.6499 32.1562 39.4846 32.0476Z" fill="#02CA74"/>
<path d="M34.5854 29.2572C34.4768 29.4225 34.5227 29.6445 34.688 29.753C34.8533 29.8617 35.0753 29.8157 35.1839 29.6504C35.2925 29.4851 35.2465 29.2631 35.0812 29.1545C34.916 29.046 34.694 29.0919 34.5854 29.2572Z" fill="#02CA74"/>
</g>
<defs>
<clipPath id="clip0_52_8">
<rect width="39.2922" height="40" fill="white" transform="translate(0.353912)"/>
</clipPath>
</defs>
</svg>
