<svg width="40" height="30" viewBox="0 0 40 30" fill="none" xmlns="http://www.w3.org/2000/svg">
<g clip-path="url(#clip0_47_543)">
<path d="M27.379 24.4968L27.1469 25.7587C26.9925 26.5989 26.5059 27.3696 25.8492 27.9243C25.1932 28.4786 24.36 28.8271 23.5087 28.8271H5.82444C4.97319 28.8271 4.13999 28.4786 3.48374 27.9246C2.82702 27.3698 2.34046 26.5994 2.18601 25.7589L1.95398 24.4971H27.379V24.4968Z" fill="#02CA74"/>
<path d="M27.1469 17.3092L27.5273 19.352H28.2152C28.2973 19.352 28.3786 19.3681 28.4544 19.3995C28.5303 19.431 28.5992 19.477 28.6572 19.535C28.7153 19.5931 28.7613 19.662 28.7927 19.7378C28.8241 19.8137 28.8403 19.895 28.8403 19.977V23.0907C28.8403 23.1728 28.8241 23.2541 28.7927 23.3299C28.7613 23.4058 28.7153 23.4747 28.6572 23.5327C28.5992 23.5908 28.5303 23.6368 28.4544 23.6682C28.3786 23.6996 28.2973 23.7158 28.2152 23.7158H0.625079C0.542991 23.7158 0.461707 23.6996 0.385867 23.6682C0.310028 23.6368 0.24112 23.5908 0.183075 23.5327C0.125031 23.4747 0.0789879 23.4058 0.0475759 23.3299C0.0161639 23.2541 -3.07762e-06 23.1728 4.39445e-10 23.0907V19.977C-3.07762e-06 19.895 0.0161639 19.8137 0.0475759 19.7378C0.0789879 19.662 0.125031 19.5931 0.183075 19.535C0.24112 19.477 0.310028 19.431 0.385867 19.3995C0.461707 19.3681 0.542991 19.352 0.625079 19.352H1.81781L2.18601 17.3115C2.33789 16.4699 2.82375 15.6992 3.48047 15.1445C4.13718 14.5897 4.97273 14.2407 5.82445 14.2407H23.5087C24.3595 14.2407 25.1913 14.589 25.8469 15.1428C26.5036 15.6976 26.9906 16.4685 27.1469 17.3092Z" fill="#02CA74"/>
<path d="M30.915 12.8672H39.375C39.4632 12.8672 39.5504 12.8859 39.6309 12.922C39.7113 12.9582 39.7833 13.0109 39.8419 13.0768C39.9005 13.1427 39.9446 13.2203 39.9711 13.3044C39.9976 13.3885 40.0061 13.4773 39.9958 13.5649L39.9386 15.4228H30.3511L30.2922 13.5115H30.2901C30.2851 13.3458 30.346 13.185 30.4595 13.0642C30.573 12.9435 30.7299 12.8728 30.8955 12.8677L30.9147 12.8674L30.915 12.8672ZM39.9002 16.6727L39.8275 19.0359H30.4624L30.3897 16.6727H39.9002ZM39.7891 20.2861L39.7064 22.9723H30.5836L30.5011 20.2861H39.7893H39.7891ZM39.6679 24.2224L39.5275 28.7843L39.5297 28.7864C39.5246 28.9487 39.4566 29.1027 39.34 29.2158C39.2235 29.3289 39.0675 29.3922 38.9051 29.3923H31.3849C31.3028 29.3923 31.2215 29.3761 31.1457 29.3447C31.0698 29.3133 31.0009 29.2672 30.9429 29.2092C30.8848 29.1511 30.8388 29.0822 30.8074 29.0064C30.776 28.9305 30.7598 28.8493 30.7598 28.7672C30.7598 28.7559 30.7601 28.7447 30.7608 28.7334L30.622 24.2224H39.6679Z" fill="#02CA74"/>
<path d="M34.5201 13.4924C34.5201 13.6582 34.586 13.8172 34.7032 13.9344C34.8204 14.0517 34.9794 14.1175 35.1452 14.1175C35.311 14.1175 35.47 14.0517 35.5872 13.9344C35.7044 13.8172 35.7703 13.6582 35.7703 13.4924V10.1128L37.8377 8.91909C37.9086 8.87807 37.9706 8.82348 38.0204 8.75846C38.0702 8.69345 38.1066 8.61926 38.1277 8.54015C38.1488 8.46104 38.1541 8.37855 38.1433 8.29739C38.1325 8.21623 38.1059 8.13799 38.0648 8.06714C38.0238 7.99629 37.9692 7.93421 37.9042 7.88445C37.8392 7.83469 37.765 7.79823 37.6859 7.77714C37.6068 7.75605 37.5243 7.75075 37.4431 7.76154C37.362 7.77233 37.2837 7.799 37.2129 7.84003L34.8736 9.19073C34.7677 9.24185 34.6784 9.32179 34.6159 9.42137C34.5535 9.52096 34.5203 9.63614 34.5204 9.7537V13.4924H34.5201Z" fill="#02CA74"/>
<path d="M14.7098 15.4892L14.6843 15.4906V15.4889L14.6667 15.4887C10.9936 15.5834 9.74039 12.7711 9.60398 12.4355L9.60047 12.4273H9.6007L9.59531 12.4135C7.91765 8.5008 9.81843 6.58034 10.173 6.26721C10.7079 5.6344 11.3571 5.36323 12.0129 5.29995C12.6408 5.23924 13.2572 5.37823 13.7681 5.56479C14.3001 5.75932 14.5748 5.91799 14.7499 6.01948C14.7523 6.02135 14.9271 5.90581 14.9405 5.89878C15.0989 5.81628 15.3098 5.70635 15.6621 5.5355C16.2607 5.24576 16.9388 5.16386 17.5891 5.30276C18.1542 5.42745 18.7064 5.72956 19.1606 6.26721C22.6894 9.3851 19.1395 15.5761 14.7101 15.4892H14.7098Z" fill="#02CA74"/>
<path d="M13.7904 3.24036C13.6821 3.11767 13.5298 3.0425 13.3666 3.03107C13.2033 3.01963 13.0421 3.07286 12.9177 3.17925C12.7934 3.28564 12.7158 3.43667 12.7019 3.59974C12.6879 3.7628 12.7386 3.92483 12.843 4.05083C13.1019 4.34891 13.3347 4.66868 13.5389 5.00661L13.5394 5.00638V5.00661L13.5384 5.00708C13.5441 5.01669 13.5501 5.02583 13.5562 5.03497L13.5731 5.06357L13.5736 5.06333L13.5743 5.0645L13.5729 5.06521C13.5794 5.07599 13.586 5.08677 13.5933 5.09708L13.6059 5.11864L13.6052 5.11911L13.6078 5.12356L13.6073 5.1238L13.6174 5.14044C13.7584 5.38262 13.8738 5.63885 13.9617 5.90497C14.0372 6.14614 14.0763 6.38216 14.0503 6.58817C14.0296 6.752 14.0748 6.91735 14.176 7.04784C14.2771 7.17834 14.426 7.2633 14.5898 7.28403C14.7537 7.30476 14.919 7.25956 15.0495 7.15838C15.18 7.0572 15.265 6.90832 15.2857 6.7445C15.337 6.3395 15.2766 5.9277 15.1533 5.53395C15.0391 5.18249 14.8884 4.84399 14.7035 4.52403C14.6983 4.51419 14.693 4.50435 14.6873 4.49474L14.6859 4.49544L14.6714 4.47036C14.6641 4.45583 14.6564 4.4413 14.648 4.427L14.647 4.42747L14.6292 4.39724C14.6231 4.38505 14.6163 4.37333 14.6093 4.36138L14.6088 4.36185C14.3688 3.96528 14.0951 3.59008 13.7908 3.24036H13.7904Z" fill="#02CA74"/>
<path d="M18.6558 1.17407C18.6569 1.18438 19.132 4.84039 15.2655 4.6618C15.1023 4.66694 14.9436 4.60802 14.8233 4.49765C14.703 4.38727 14.6306 4.2342 14.6217 4.07117L14.6231 4.06883C14.4208 0.356097 17.7136 0.586956 18.0762 0.623518C18.2218 0.633017 18.3595 0.69317 18.4655 0.79355C18.5714 0.893931 18.6389 1.02821 18.6562 1.17313L18.6558 1.17407Z" fill="#02CA74"/>
<path d="M15.7437 4.41331C15.7931 4.34789 15.8291 4.27338 15.8497 4.19404C15.8702 4.1147 15.875 4.03209 15.8637 3.95091C15.8523 3.86973 15.8251 3.79158 15.7836 3.72092C15.742 3.65026 15.687 3.58847 15.6216 3.53909C15.5561 3.4897 15.4816 3.45369 15.4023 3.4331C15.323 3.41251 15.2403 3.40775 15.1592 3.41909C15.078 3.43043 14.9998 3.45764 14.9292 3.49918C14.8585 3.54073 14.7967 3.59578 14.7473 3.6612L13.8595 4.83659C13.7598 4.96871 13.7166 5.13504 13.7395 5.29899C13.7624 5.46293 13.8495 5.61107 13.9816 5.71081C14.1138 5.81054 14.2801 5.85371 14.444 5.83081C14.608 5.80791 14.7561 5.72082 14.8559 5.5887L15.7437 4.41331Z" fill="#02CA74"/>
</g>
<defs>
<clipPath id="clip0_47_543">
<rect width="40" height="28.7844" fill="white" transform="translate(0 0.60791)"/>
</clipPath>
</defs>
</svg>
