<svg width="65" height="65" viewBox="0 0 65 65" fill="none" xmlns="http://www.w3.org/2000/svg">
<rect x="0.5" y="0.5" width="64" height="64" rx="5" fill="#407BFF" fill-opacity="0.05"/>
<g clip-path="url(#clip0_55_97)">
<path d="M21.6364 30.2275L30.7273 9.77295C32.5356 9.77295 34.2698 10.4913 35.5484 11.7699C36.8271 13.0486 37.5454 14.7828 37.5454 16.5911V25.682H50.4091C51.068 25.6746 51.7206 25.8105 52.3217 26.0803C52.9229 26.3501 53.4582 26.7473 53.8906 27.2446C54.323 27.7418 54.6421 28.3271 54.8258 28.9599C55.0095 29.5927 55.0534 30.2579 54.9545 30.9093L51.8182 51.3639C51.6538 52.4477 51.1033 53.4357 50.268 54.1457C49.4327 54.8557 48.3689 55.2399 47.2727 55.2275H21.6364M21.6364 30.2275V55.2275M21.6364 30.2275H14.8182C13.6126 30.2275 12.4565 30.7064 11.6041 31.5588C10.7516 32.4113 10.2727 33.5674 10.2727 34.7729V50.682C10.2727 51.8876 10.7516 53.0437 11.6041 53.8962C12.4565 54.7486 13.6126 55.2275 14.8182 55.2275H21.6364" stroke="#407BFF" stroke-width="4" stroke-linecap="round" stroke-linejoin="round"/>
</g>
<defs>
<clipPath id="clip0_55_97">
<rect width="50" height="51" fill="white" transform="translate(7.5 7)"/>
</clipPath>
</defs>
</svg>
