<svg width="177" height="150" viewBox="0 0 177 150" fill="none" xmlns="http://www.w3.org/2000/svg">
<g clip-path="url(#clip0_109_8814)">
<path d="M175.699 149.611C175.699 149.671 136.577 149.715 88.3312 149.715C40.0857 149.715 0.955566 149.671 0.955566 149.611C0.955566 149.551 40.0697 149.508 88.3312 149.508C136.593 149.508 175.699 149.555 175.699 149.611Z" fill="#263238"/>
<path d="M109.585 68.0975H78.6265L72.7127 76.8586L66.9424 68.0975H36.5335C36.0712 68.0975 35.6135 68.0065 35.1864 67.8296C34.7592 67.6527 34.3712 67.3934 34.0443 67.0665C33.7174 66.7396 33.4581 66.3515 33.2812 65.9244C33.1042 65.4973 33.0132 65.0395 33.0132 64.5772V4.28117C33.0127 3.81854 33.1033 3.36034 33.28 2.93277C33.4567 2.5052 33.7159 2.11665 34.0429 1.78933C34.3698 1.46202 34.7581 1.20235 35.1854 1.02519C35.6128 0.848023 36.0709 0.756836 36.5335 0.756836H109.585C110.048 0.756836 110.506 0.848023 110.933 1.02519C111.36 1.20235 111.749 1.46202 112.076 1.78933C112.402 2.11665 112.662 2.5052 112.838 2.93277C113.015 3.36034 113.106 3.81854 113.105 4.28117V64.5931C113.101 65.524 112.728 66.4154 112.069 67.0721C111.409 67.7289 110.516 68.0976 109.585 68.0975Z" fill="#FAFAFA"/>
<path d="M109.585 68.0975H109.776C109.968 68.0851 110.158 68.0571 110.346 68.0138C110.984 67.8697 111.569 67.5491 112.035 67.0887C112.5 66.6283 112.827 66.0464 112.978 65.4094C113.015 65.2585 113.042 65.1056 113.062 64.9514C113.062 64.7922 113.081 64.6289 113.062 64.4616C113.062 64.1271 113.062 63.7767 113.062 63.4143C113.062 61.9594 113.062 60.2882 113.062 58.4006C113.062 50.8342 113.042 39.9306 113.03 26.4426C113.03 19.6926 113.03 12.3054 113.03 4.37268C113.047 3.6298 112.823 2.9013 112.393 2.29567C111.962 1.69003 111.347 1.23966 110.64 1.01162C110.16 0.865442 109.656 0.808751 109.155 0.84436H89.8805H61.889H36.6491C36.4859 0.84436 36.3345 0.84436 36.1792 0.84436C36.025 0.862573 35.872 0.890504 35.7213 0.927988C35.1123 1.07447 34.5559 1.38683 34.1137 1.8304C33.6715 2.27398 33.3609 2.83141 33.2164 3.44082C33.1147 4.00422 33.0812 4.57783 33.1168 5.14923V30.636C33.1168 39.4567 33.1168 48.0028 33.1168 56.1944V63.7607C33.0937 64.2502 33.115 64.7407 33.1805 65.2262C33.2728 65.6954 33.4622 66.14 33.7366 66.5316C34.0109 66.9232 34.3641 67.2531 34.7735 67.5001C35.1803 67.7463 35.6352 67.9025 36.1075 67.9581C36.5735 68.0059 37.0713 67.978 37.5491 67.986H46.0752H66.9425H66.9863L67.0102 68.0218L72.7726 76.7829H72.6531L78.5748 68.0218L78.5947 67.9939H78.6266L101.469 68.0975L78.6465 68.1253L78.6982 68.0975C76.8664 70.8267 74.8978 73.7537 72.7925 76.8784L72.7328 76.97L72.673 76.8784L66.8987 68.1174L66.9624 68.1532H46.0951H37.5611C37.0752 68.1532 36.6013 68.1731 36.0996 68.1253C35.3503 68.0397 34.6465 67.7224 34.0861 67.2177C33.5258 66.713 33.1368 66.0461 32.9735 65.3099C32.9023 64.8128 32.8783 64.3101 32.9018 63.8085V56.2422C32.9018 48.0506 32.9018 39.5165 32.9018 30.6837V4.31294C32.8925 3.49547 33.1607 2.699 33.6627 2.05376C34.1648 1.40852 34.8708 0.952668 35.6655 0.760732C35.8255 0.721568 35.9877 0.692309 36.1513 0.673121C36.3146 0.673121 36.4819 0.673121 36.6412 0.673121H109.159C109.679 0.639376 110.201 0.700088 110.7 0.852323C111.195 1.01967 111.649 1.29126 112.03 1.64878C112.41 1.99744 112.71 2.42396 112.91 2.89923C113.104 3.37279 113.201 3.88081 113.193 4.39259C113.193 12.3253 113.193 19.7125 113.193 26.4625C113.193 39.9506 113.169 50.87 113.161 58.4205C113.161 60.3081 113.161 61.9793 113.161 63.4342C113.161 63.7966 113.161 64.147 113.161 64.4815C113.161 64.6488 113.161 64.816 113.141 64.9753C113.124 65.1324 113.096 65.2881 113.058 65.4413C112.901 66.085 112.567 66.6717 112.093 67.1344C111.619 67.5971 111.025 67.9171 110.377 68.0576C110.19 68.097 109.999 68.1196 109.808 68.1253L109.585 68.0975Z" fill="#263238"/>
<path d="M64.131 37.832C64.131 38.6284 63.5456 39.0983 62.6058 39.0983H61.901V40.066H61.1045V36.5576H62.6217C63.5456 36.5735 64.131 37.0594 64.131 37.832ZM63.3067 37.832C63.3067 37.4337 63.0598 37.2187 62.562 37.2187H61.901V38.4373H62.562C63.0598 38.4532 63.3067 38.2302 63.3067 37.832Z" fill="#263238"/>
<path d="M67.0103 38.5448V40.082H66.2776V39.7475C66.1867 39.8775 66.0627 39.9807 65.9185 40.0465C65.7742 40.1124 65.6149 40.1384 65.4572 40.1218C64.828 40.1218 64.4497 39.7714 64.4497 39.3055C64.4497 38.8395 64.7882 38.509 65.6086 38.509H66.2298C66.2298 38.1745 66.0307 37.9794 65.6086 37.9794C65.3294 37.9771 65.057 38.0651 64.832 38.2302L64.5493 37.6847C64.896 37.4631 65.3007 37.3495 65.7121 37.3581C66.5364 37.3462 67.0103 37.7285 67.0103 38.5448ZM66.2139 39.2298V38.955H65.6763C65.3099 38.955 65.1944 39.0904 65.1944 39.2696C65.1944 39.4488 65.3617 39.5962 65.6364 39.5962C65.7618 39.6081 65.8876 39.5788 65.9947 39.5127C66.1018 39.4465 66.1844 39.3472 66.2298 39.2298H66.2139Z" fill="#263238"/>
<path d="M67.4561 39.8231L67.7149 39.2616C67.9996 39.4299 68.324 39.5193 68.6547 39.5205C69.0131 39.5205 69.1485 39.4289 69.1485 39.2775C69.1485 38.8355 67.5198 39.2775 67.5198 38.2103C67.5198 37.7005 67.9817 37.3382 68.7702 37.3382C69.1292 37.3326 69.4842 37.4132 69.8056 37.5731L69.5468 38.1306C69.3041 37.9937 69.0289 37.9249 68.7503 37.9315C68.3999 37.9315 68.2485 38.039 68.2485 38.1784C68.2485 38.6404 69.8773 38.1784 69.8773 39.2576C69.8773 39.7594 69.4114 40.1138 68.603 40.1138C68.2021 40.1167 67.8072 40.0166 67.4561 39.8231Z" fill="#263238"/>
<path d="M70.1162 39.8232L70.3751 39.2617C70.6586 39.4293 70.9815 39.5186 71.3109 39.5205C71.6733 39.5205 71.8087 39.4289 71.8087 39.2776C71.8087 38.8356 70.1799 39.2776 70.1799 38.2103C70.1799 37.7006 70.6419 37.3382 71.4264 37.3382C71.7867 37.3322 72.1431 37.4128 72.4658 37.5732L72.2029 38.1307C71.9665 37.9963 71.6984 37.9275 71.4264 37.9316C71.0759 37.9316 70.9286 38.0391 70.9286 38.1785C70.9286 38.6404 72.5534 38.1785 72.5534 39.2577C72.5534 39.7594 72.0874 40.1139 71.283 40.1139C70.8753 40.1207 70.473 40.0205 70.1162 39.8232Z" fill="#263238"/>
<path d="M77.3122 37.386L76.3366 40.082H75.5839L74.9786 38.4094L74.3534 40.082H73.5928L72.6211 37.386H73.3578L73.995 39.2099L74.656 37.386H75.3171L75.9583 39.2099L76.6153 37.386H77.3122Z" fill="#263238"/>
<path d="M77.404 38.7359C77.3848 38.4396 77.4551 38.1444 77.6058 37.8885C77.7565 37.6327 77.9807 37.428 78.2491 37.3011C78.5176 37.1742 78.8179 37.1308 79.1113 37.1767C79.4047 37.2227 79.6775 37.3557 79.8943 37.5585C80.1112 37.7614 80.2621 38.0247 80.3274 38.3144C80.3927 38.604 80.3695 38.9066 80.2608 39.1829C80.152 39.4593 79.9627 39.6965 79.7175 39.8639C79.4722 40.0313 79.1823 40.1211 78.8854 40.1218C78.6955 40.1349 78.505 40.1088 78.3256 40.045C78.1463 39.9813 77.982 39.8813 77.8431 39.7513C77.7041 39.6212 77.5934 39.464 77.5178 39.2893C77.4423 39.1146 77.4035 38.9262 77.404 38.7359ZM79.5743 38.7359C79.5642 38.6014 79.5151 38.4727 79.4329 38.3657C79.3507 38.2587 79.2391 38.178 79.1117 38.1335C78.9843 38.089 78.8467 38.0827 78.7158 38.1153C78.5849 38.148 78.4663 38.2181 78.3747 38.3171C78.2831 38.4162 78.2223 38.5398 78.2 38.6729C78.1776 38.8059 78.1946 38.9426 78.2488 39.0662C78.3031 39.1897 78.3922 39.2948 78.5053 39.3684C78.6183 39.442 78.7504 39.481 78.8854 39.4806C78.9802 39.4804 79.074 39.4605 79.1608 39.4222C79.2476 39.3838 79.3255 39.3279 79.3895 39.2579C79.4535 39.1879 79.5023 39.1053 79.5327 39.0155C79.5632 38.9256 79.5746 38.8304 79.5664 38.7359H79.5743Z" fill="#263238"/>
<path d="M82.5571 37.3461V38.0669H82.3819C82.2827 38.0576 82.1826 38.0708 82.0892 38.1056C81.9957 38.1404 81.9114 38.1959 81.8425 38.2679C81.7735 38.3399 81.7217 38.4266 81.691 38.5214C81.6603 38.6163 81.6515 38.7169 81.6651 38.8156V40.0899H80.8687V37.3939H81.6173V37.7484C81.7288 37.6091 81.8729 37.4996 82.0368 37.4294C82.2008 37.3592 82.3795 37.3306 82.5571 37.3461Z" fill="#263238"/>
<path d="M85.7429 36.3664V40.0819H84.9982V39.7713C84.8939 39.8897 84.7641 39.9827 84.6185 40.0434C84.4729 40.1041 84.3154 40.1309 84.158 40.1218C83.7883 40.1218 83.4338 39.9749 83.1724 39.7135C82.911 39.4521 82.7642 39.0976 82.7642 38.7279C82.7642 38.3583 82.911 38.0038 83.1724 37.7424C83.4338 37.481 83.7883 37.3341 84.158 37.3341C84.3064 37.3283 84.4543 37.3544 84.5917 37.4107C84.7292 37.4671 84.8529 37.5523 84.9544 37.6607V36.3545L85.7429 36.3664ZM84.9783 38.7558C84.9682 38.6213 84.9191 38.4926 84.8369 38.3856C84.7547 38.2786 84.6431 38.1979 84.5157 38.1534C84.3883 38.1089 84.2507 38.1026 84.1198 38.1352C83.9889 38.1679 83.8703 38.238 83.7787 38.337C83.6871 38.4361 83.6264 38.5597 83.604 38.6928C83.5816 38.8258 83.5986 38.9625 83.6528 39.0861C83.7071 39.2096 83.7962 39.3147 83.9093 39.3883C84.0223 39.4619 84.1545 39.5009 84.2894 39.5005C84.3868 39.5017 84.4833 39.4822 84.5726 39.4431C84.6618 39.4041 84.7417 39.3465 84.8069 39.2741C84.8721 39.2018 84.9211 39.1163 84.9507 39.0235C84.9802 38.9307 84.9897 38.8327 84.9783 38.7359V38.7558Z" fill="#263238"/>
<path d="M53.4227 46.1311H48.3493C47.144 46.1311 46.167 47.1082 46.167 48.3134V57.0068C46.167 58.212 47.144 59.1891 48.3493 59.1891H53.4227C54.628 59.1891 55.605 58.212 55.605 57.0068V48.3134C55.605 47.1082 54.628 46.1311 53.4227 46.1311Z" fill="#EBEBEB"/>
<path d="M75.6957 46.1311H70.8771C69.6719 46.1311 68.6948 47.1082 68.6948 48.3134V57.0068C68.6948 58.212 69.6719 59.1891 70.8771 59.1891H75.6957C76.901 59.1891 77.878 58.212 77.878 57.0068V48.3134C77.878 47.1082 76.901 46.1311 75.6957 46.1311Z" fill="#EBEBEB"/>
<path d="M64.6566 46.1311H59.8381C58.6328 46.1311 57.6558 47.1082 57.6558 48.3134V57.0068C57.6558 58.212 58.6328 59.1891 59.8381 59.1891H64.6566C65.8619 59.1891 66.8389 58.212 66.8389 57.0068V48.3134C66.8389 47.1082 65.8619 46.1311 64.6566 46.1311Z" fill="#EBEBEB"/>
<path d="M86.9414 46.1311H81.8639C80.6587 46.1311 79.6816 47.1082 79.6816 48.3134V57.0068C79.6816 58.212 80.6587 59.1891 81.8639 59.1891H86.9414C88.1466 59.1891 89.1237 58.212 89.1237 57.0068V48.3134C89.1237 47.1082 88.1466 46.1311 86.9414 46.1311Z" fill="#EBEBEB"/>
<path d="M97.7695 46.1311H92.6921C91.4868 46.1311 90.5098 47.1082 90.5098 48.3134V57.0068C90.5098 58.212 91.4868 59.1891 92.6921 59.1891H97.7695C98.9747 59.1891 99.9518 58.212 99.9518 57.0068V48.3134C99.9518 47.1082 98.9747 46.1311 97.7695 46.1311Z" fill="#EBEBEB"/>
<path d="M52.0885 52.3156L53.0961 52.8612L52.6421 53.6218L51.6266 53.0165V54.1395H50.7585V53.0085L49.739 53.6218L49.293 52.8612L50.3045 52.3156L49.293 51.7581L49.739 50.9974L50.7585 51.6107V50.4797H51.6266V51.6107L52.6421 50.9974L53.0961 51.7581L52.0885 52.3156Z" fill="#2B67F6"/>
<path d="M63.1038 52.2559L64.1153 52.8014L63.6613 53.562L62.6418 52.9647L62.6618 54.0877H61.7896V52.9567L60.7702 53.57L60.3281 52.8094L61.3356 52.2638L60.3281 51.7063L60.7702 50.9457L61.7896 51.559V50.428H62.6618L62.6418 51.559L63.6613 50.9457L64.1153 51.7063L63.1038 52.2559Z" fill="#2B67F6"/>
<path d="M74.3892 52.2558L75.4007 52.8013L74.9467 53.562L73.9073 52.9646L73.9272 54.0876H73.0551V52.9566L72.0356 53.5699L71.6016 52.8013L72.6091 52.2558L71.6016 51.6982L72.0436 50.9376L73.0631 51.5509V50.4199H73.9352L73.9153 51.5509L74.9347 50.9376L75.3887 51.6982L74.3892 52.2558Z" fill="#2B67F6"/>
<path d="M85.2851 52.2559L86.2926 52.8014L85.8386 53.562L84.8192 52.9647L84.8391 54.0877H83.967V52.9567L82.9475 53.57L82.5015 52.8094L83.513 52.2638L82.5015 51.7063L82.9475 50.9457L83.967 51.559V50.428H84.8391L84.8192 51.559L85.8386 50.9457L86.2926 51.7063L85.2851 52.2559Z" fill="#2B67F6"/>
<path d="M53.3272 59.2728H48.4449C47.8411 59.2717 47.2623 59.0314 46.8353 58.6044C46.4084 58.1775 46.168 57.5987 46.167 56.9949V48.3294C46.168 47.7256 46.4084 47.1468 46.8353 46.7199C47.2623 46.2929 47.8411 46.0526 48.4449 46.0515H53.3272C53.9313 46.0515 54.5107 46.2915 54.9379 46.7187C55.3651 47.1459 55.605 47.7253 55.605 48.3294V56.9949C55.604 57.5987 55.3637 58.1775 54.9367 58.6044C54.5097 59.0314 53.931 59.2717 53.3272 59.2728ZM48.4449 46.1949C47.8837 46.1959 47.3458 46.4196 46.9494 46.8168C46.5529 47.214 46.3303 47.7523 46.3303 48.3135V56.9789C46.3303 57.5398 46.5531 58.0776 46.9496 58.4742C47.3462 58.8708 47.884 59.0935 48.4449 59.0935H53.3272C53.8884 59.0935 54.4266 58.8709 54.8238 58.4744C55.221 58.078 55.4447 57.5401 55.4457 56.9789V48.3294C55.4447 47.7678 55.2211 47.2296 54.8241 46.8325C54.427 46.4354 53.8887 46.2119 53.3272 46.2108L48.4449 46.1949Z" fill="#263238"/>
<path d="M64.6685 59.2728H59.7823C59.1785 59.2717 58.5997 59.0314 58.1727 58.6044C57.7458 58.1775 57.5054 57.5987 57.5044 56.9949V48.3294C57.5054 47.7256 57.7458 47.1468 58.1727 46.7199C58.5997 46.2929 59.1785 46.0526 59.7823 46.0515H64.6685C65.272 46.0526 65.8504 46.293 66.2767 46.7201C66.703 47.1472 66.9424 47.7259 66.9424 48.3294V56.9949C66.9424 57.5983 66.703 58.1771 66.2767 58.6042C65.8504 59.0312 65.272 59.2717 64.6685 59.2728ZM59.7823 46.1949C59.2211 46.1959 58.6832 46.4196 58.2868 46.8168C57.8903 47.214 57.6677 47.7523 57.6677 48.3135V56.9789C57.6677 57.5398 57.8905 58.0776 58.287 58.4742C58.6836 58.8708 59.2214 59.0935 59.7823 59.0935H64.6685C65.2294 59.0935 65.7672 58.8708 66.1638 58.4742C66.5604 58.0776 66.7831 57.5398 66.7831 56.9789V48.3294C66.7832 47.7682 66.5605 47.2299 66.164 46.8327C65.7676 46.4355 65.2297 46.2119 64.6685 46.2108L59.7823 46.1949Z" fill="#263238"/>
<path d="M75.6955 59.2728H70.8052C70.2014 59.2717 69.6226 59.0314 69.1957 58.6044C68.7687 58.1775 68.5284 57.5987 68.5273 56.9949V48.3294C68.5284 47.7256 68.7687 47.1468 69.1957 46.7199C69.6226 46.2929 70.2014 46.0526 70.8052 46.0515H75.6915C76.2949 46.0526 76.8733 46.293 77.2996 46.7201C77.726 47.1472 77.9654 47.7259 77.9654 48.3294V56.9949C77.9654 57.5976 77.7265 58.1758 77.301 58.6028C76.8756 59.0297 76.2982 59.2706 75.6955 59.2728ZM70.8052 46.1949C70.244 46.1959 69.7062 46.4196 69.3097 46.8168C68.9133 47.214 68.6906 47.7523 68.6906 48.3135V56.9789C68.6906 57.5398 68.9134 58.0776 69.31 58.4742C69.7065 58.8708 70.2444 59.0935 70.8052 59.0935H75.6915C75.9692 59.0935 76.2442 59.0389 76.5007 58.9326C76.7573 58.8263 76.9904 58.6706 77.1868 58.4742C77.3831 58.2778 77.5389 58.0447 77.6451 57.7882C77.7514 57.5316 77.8061 57.2566 77.8061 56.9789V48.3294C77.8061 47.7682 77.5834 47.2299 77.187 46.8327C76.7905 46.4355 76.2527 46.2119 75.6915 46.2108L70.8052 46.1949Z" fill="#263238"/>
<path d="M86.8459 59.2728H81.9556C81.3518 59.2717 80.773 59.0314 80.3461 58.6044C79.9191 58.1775 79.6788 57.5987 79.6777 56.9949V48.3294C79.6777 47.7253 79.9177 47.1459 80.3449 46.7187C80.7721 46.2915 81.3515 46.0515 81.9556 46.0515H86.8379C87.4417 46.0526 88.0205 46.2929 88.4474 46.7199C88.8744 47.1468 89.1147 47.7256 89.1158 48.3294V56.9949C89.1147 57.5973 88.8755 58.1749 88.4503 58.6016C88.025 59.0283 87.4483 59.2696 86.8459 59.2728ZM81.9556 46.1949C81.3941 46.1959 80.8558 46.4195 80.4587 46.8166C80.0616 47.2136 79.8381 47.7519 79.837 48.3135V56.9789C79.8381 57.5401 80.0618 58.078 80.459 58.4744C80.8562 58.8709 81.3944 59.0935 81.9556 59.0935H86.8379C87.3987 59.0935 87.9366 58.8708 88.3332 58.4742C88.7297 58.0776 88.9525 57.5398 88.9525 56.9789V48.3294C88.9525 47.7682 88.7299 47.2299 88.3334 46.8327C87.937 46.4355 87.3991 46.2119 86.8379 46.2108L81.9556 46.1949Z" fill="#263238"/>
<path d="M97.6738 59.2728H92.7915C92.1877 59.2717 91.609 59.0314 91.182 58.6044C90.7551 58.1775 90.5147 57.5987 90.5137 56.9949V48.3294C90.5137 47.7253 90.7537 47.1459 91.1808 46.7187C91.608 46.2915 92.1874 46.0515 92.7915 46.0515H97.6738C98.2777 46.0526 98.8564 46.2929 99.2834 46.7199C99.7103 47.1468 99.9507 47.7256 99.9517 48.3294V56.9949C99.9507 57.5987 99.7103 58.1775 99.2834 58.6044C98.8564 59.0314 98.2777 59.2717 97.6738 59.2728ZM92.7915 46.1949C92.23 46.1959 91.6917 46.4195 91.2946 46.8166C90.8976 47.2136 90.674 47.7519 90.673 48.3135V56.9789C90.674 57.5401 90.8977 58.078 91.2949 58.4744C91.6921 58.8709 92.2304 59.0935 92.7915 59.0935H97.6738C98.2347 59.0935 98.7725 58.8708 99.1691 58.4742C99.5657 58.0776 99.7884 57.5398 99.7884 56.9789V48.3294C99.7884 47.7682 99.5658 47.2299 99.1693 46.8327C98.7729 46.4355 98.235 46.2119 97.6738 46.2108L92.7915 46.1949Z" fill="#263238"/>
<path d="M97.849 55.8041C96.981 55.909 96.1061 55.9436 95.2326 55.9077C94.3591 55.9436 93.4841 55.909 92.6162 55.8041C93.4843 55.7017 94.3591 55.6671 95.2326 55.7006C96.1061 55.6671 96.9808 55.7017 97.849 55.8041Z" fill="#2B67F6"/>
<path d="M73.4895 32.5911C79.3157 32.5911 84.0387 27.8682 84.0387 22.042C84.0387 16.2159 79.3157 11.4929 73.4895 11.4929C67.6634 11.4929 62.9404 16.2159 62.9404 22.042C62.9404 27.8682 67.6634 32.5911 73.4895 32.5911Z" fill="#2B67F6"/>
<path d="M71.6338 20.1228H71.4585V19.1391C71.4463 18.8614 71.4905 18.5841 71.5883 18.3239C71.6862 18.0637 71.8357 17.826 72.0279 17.6251C72.2201 17.4243 72.451 17.2644 72.7066 17.1552C72.9623 17.046 73.2374 16.9897 73.5154 16.9897C73.7934 16.9897 74.0685 17.046 74.3241 17.1552C74.5798 17.2644 74.8107 17.4243 75.0029 17.6251C75.1951 17.826 75.3446 18.0637 75.4425 18.3239C75.5403 18.5841 75.5845 18.8614 75.5723 19.1391V19.9356H75.397V19.1391C75.4087 18.8847 75.3687 18.6306 75.2795 18.3921C75.1902 18.1536 75.0535 17.9357 74.8776 17.7516C74.7017 17.5674 74.4903 17.4208 74.2562 17.3207C74.0221 17.2205 73.77 17.1689 73.5154 17.1689C73.2607 17.1689 73.0087 17.2205 72.7746 17.3207C72.5405 17.4208 72.3291 17.5674 72.1532 17.7516C71.9773 17.9357 71.8406 18.1536 71.7513 18.3921C71.662 18.6306 71.6221 18.8847 71.6338 19.1391V20.1228Z" fill="white"/>
<path d="M76.1057 27.0002H70.8769C70.7628 27.0007 70.6497 26.9786 70.5441 26.9352C70.4385 26.8917 70.3426 26.8278 70.2619 26.7471C70.1812 26.6664 70.1172 26.5705 70.0738 26.4649C70.0304 26.3593 70.0083 26.2462 70.0088 26.1321V20.9033C70.0088 20.6731 70.1003 20.4522 70.2631 20.2894C70.4259 20.1266 70.6467 20.0352 70.8769 20.0352H76.1057C76.3356 20.0362 76.5558 20.128 76.7184 20.2906C76.881 20.4532 76.9728 20.6734 76.9738 20.9033V26.1321C76.9738 26.3623 76.8824 26.5831 76.7196 26.7459C76.5568 26.9087 76.3359 27.0002 76.1057 27.0002ZM70.8769 20.2104C70.6932 20.2104 70.5169 20.2834 70.387 20.4133C70.257 20.5433 70.184 20.7195 70.184 20.9033V26.1321C70.184 26.2231 70.2019 26.3132 70.2368 26.3972C70.2716 26.4813 70.3226 26.5577 70.387 26.622C70.4513 26.6864 70.5277 26.7374 70.6118 26.7722C70.6958 26.8071 70.7859 26.825 70.8769 26.825H76.1057C76.1967 26.825 76.2868 26.8071 76.3709 26.7722C76.4549 26.7374 76.5313 26.6864 76.5957 26.622C76.66 26.5577 76.7111 26.4813 76.7459 26.3972C76.7807 26.3132 76.7986 26.2231 76.7986 26.1321V20.9033C76.7986 20.7195 76.7256 20.5433 76.5957 20.4133C76.4657 20.2834 76.2895 20.2104 76.1057 20.2104H70.8769Z" fill="white"/>
<path d="M73.5173 23.6909C73.3539 23.6917 73.194 23.6439 73.0578 23.5536C72.9216 23.4634 72.8154 23.3347 72.7525 23.1839C72.6896 23.0331 72.6729 22.867 72.7046 22.7067C72.7363 22.5465 72.8149 22.3992 72.9304 22.2837C73.0459 22.1682 73.1932 22.0896 73.3535 22.0579C73.5137 22.0262 73.6798 22.0429 73.8306 22.1057C73.9814 22.1686 74.1101 22.2749 74.2004 22.4111C74.2906 22.5472 74.3384 22.7072 74.3376 22.8705C74.3366 23.0878 74.2498 23.2958 74.0962 23.4495C73.9426 23.6031 73.7345 23.6899 73.5173 23.6909ZM73.5173 22.2254C73.3897 22.2254 73.2649 22.2633 73.1589 22.3341C73.0528 22.405 72.9701 22.5058 72.9212 22.6237C72.8724 22.7415 72.8596 22.8713 72.8845 22.9964C72.9094 23.1215 72.9709 23.2365 73.0611 23.3267C73.1513 23.4169 73.2663 23.4784 73.3914 23.5033C73.5166 23.5282 73.6463 23.5154 73.7642 23.4666C73.882 23.4177 73.9828 23.3351 74.0537 23.229C74.1246 23.1229 74.1624 22.9981 74.1624 22.8705C74.1629 22.7857 74.1466 22.7016 74.1144 22.623C74.0821 22.5445 74.0346 22.4732 73.9746 22.4132C73.9146 22.3532 73.8433 22.3057 73.7648 22.2734C73.6863 22.2412 73.6021 22.2249 73.5173 22.2254Z" fill="white"/>
<path d="M73.5771 23.5635H73.4019V25.0449H73.5771V23.5635Z" fill="white"/>
<path d="M109.206 7.43794C109.593 5.6809 108.482 3.94311 106.725 3.55647C104.968 3.16984 103.23 4.28078 102.844 6.03782C102.457 7.79486 103.568 9.53267 105.325 9.9193C107.082 10.3059 108.82 9.19498 109.206 7.43794Z" fill="#E0E0E0"/>
<path d="M104.977 7.89699C104.964 7.89681 104.951 7.89389 104.938 7.88842C104.926 7.88294 104.915 7.87502 104.906 7.86513C104.896 7.85619 104.889 7.8454 104.883 7.83341C104.878 7.82143 104.875 7.8085 104.875 7.79544C104.875 7.78238 104.878 7.76946 104.883 7.75747C104.889 7.74548 104.896 7.73469 104.906 7.72575L107.016 5.61513C107.025 5.60561 107.036 5.59802 107.048 5.59283C107.06 5.58764 107.073 5.58496 107.086 5.58496C107.099 5.58496 107.112 5.58764 107.124 5.59283C107.136 5.59802 107.147 5.60561 107.156 5.61513C107.165 5.62442 107.173 5.63555 107.178 5.64787C107.183 5.66018 107.186 5.67343 107.186 5.68681C107.186 5.70019 107.183 5.71344 107.178 5.72576C107.173 5.73807 107.165 5.74921 107.156 5.75849L105.045 7.86513C105.027 7.88415 105.003 7.89558 104.977 7.89699Z" fill="white"/>
<path d="M107.084 7.89699C107.058 7.89558 107.034 7.88415 107.017 7.86513L104.906 5.75849C104.896 5.74921 104.889 5.73807 104.883 5.72576C104.878 5.71344 104.875 5.70019 104.875 5.68681C104.875 5.67343 104.878 5.66018 104.883 5.64787C104.889 5.63555 104.896 5.62442 104.906 5.61513C104.915 5.60561 104.926 5.59802 104.938 5.59283C104.95 5.58764 104.963 5.58496 104.976 5.58496C104.989 5.58496 105.002 5.58764 105.014 5.59283C105.026 5.59802 105.036 5.60561 105.045 5.61513L107.156 7.72575C107.165 7.73469 107.173 7.74548 107.178 7.75747C107.183 7.76946 107.186 7.78238 107.186 7.79544C107.186 7.8085 107.183 7.82143 107.178 7.83341C107.173 7.8454 107.165 7.85619 107.156 7.86513C107.147 7.87502 107.136 7.88294 107.123 7.88842C107.111 7.89389 107.098 7.89681 107.084 7.89699Z" fill="white"/>
<path d="M22.245 129.644C22.245 129.644 11.7238 117.534 7.75345 105.423C3.7831 93.3132 5.66673 94.703 5.66673 94.703C5.66673 94.703 11.0269 106.467 15.0968 112.149C19.1667 117.832 26.4145 126.167 26.4145 126.167L22.245 129.644Z" fill="#455A64"/>
<path d="M24.3397 96.5867C24.2687 96.4619 24.1563 96.366 24.0219 96.3156C23.8875 96.2653 23.7397 96.2636 23.6042 96.311C23.4687 96.3583 23.3542 96.4517 23.2804 96.5749C23.2067 96.698 23.1785 96.8431 23.2008 96.9849C23.8419 101.242 25.2278 111.222 25.1919 117.693C25.1242 126.103 25.1919 129.353 25.1919 129.353H29.5724C29.5724 129.353 28.776 111.966 27.8043 106.654C27.0955 102.946 25.622 98.8207 24.3397 96.5867Z" fill="#455A64"/>
<path d="M26.729 127.935C28.5645 123.778 29.7788 119.373 30.333 114.862C30.6914 111.767 30.0502 107.582 29.0945 101.999C28.7234 99.9568 28.5381 97.8855 28.541 95.8102C28.5431 95.5792 28.6219 95.3554 28.7649 95.174C28.9079 94.9926 29.1071 94.8638 29.3312 94.8078C29.5553 94.7517 29.7917 94.7717 30.0033 94.8644C30.2148 94.9572 30.3896 95.1176 30.5002 95.3204C31.0299 96.2642 32.5591 99.4859 32.9494 101.505C34.0087 107.016 35.2073 109.772 34.2914 115.005C33.3755 120.238 29.9786 128.29 29.9786 128.29L26.729 127.935Z" fill="#455A64"/>
<path d="M30.6714 128.29C30.6714 128.29 42.2201 103.464 43.0165 99.7805C43.813 96.0969 46.5409 87.6106 46.8594 88.0924C47.178 88.5743 47.6559 93.0544 45.5811 98.1796C43.5063 103.305 34.6099 129.046 34.6099 129.046H30.6714" fill="#455A64"/>
<path d="M25.4627 127.179C25.3483 127.115 25.2403 127.04 25.1401 126.956C24.9331 126.8 24.6224 126.581 24.2441 126.275C23.4755 125.669 22.3963 124.75 21.1379 123.535C17.8924 120.332 15.0808 116.717 12.7751 112.783C10.4715 108.846 8.55506 104.696 7.05252 100.39C6.47111 98.7411 6.04899 97.3911 5.77421 96.4553C5.63084 95.9854 5.53527 95.619 5.46757 95.3721C5.42541 95.2423 5.39476 95.1091 5.37598 94.9739C5.43288 95.0918 5.47951 95.2144 5.51536 95.3403C5.60297 95.6071 5.71845 95.9655 5.8658 96.4115C6.16845 97.3394 6.61845 98.6774 7.2158 100.318C8.76323 104.592 10.6946 108.718 12.9862 112.643C15.2914 116.559 18.0766 120.171 21.2773 123.396C22.5158 124.626 23.5711 125.562 24.3198 126.183C24.6901 126.502 24.9928 126.733 25.1839 126.9C25.2843 126.985 25.3775 127.078 25.4627 127.179Z" fill="#263238"/>
<path d="M26.7289 115.268C26.6689 115.029 26.6342 114.785 26.6254 114.539C26.5697 114.025 26.498 113.344 26.4104 112.548C26.2272 110.867 25.9405 108.566 25.5343 106.005C25.1281 103.444 24.6701 101.17 24.3157 99.5217C24.1444 98.7253 24.0051 98.0682 23.8935 97.5624C23.8291 97.3252 23.7865 97.0826 23.7661 96.8376C23.8605 97.0644 23.9351 97.2989 23.9891 97.5385C24.1166 97.9965 24.2878 98.6576 24.4869 99.4819C24.8851 101.127 25.367 103.416 25.7772 105.969C26.1874 108.522 26.4462 110.843 26.5736 112.532C26.6413 113.372 26.6891 114.057 26.709 114.523C26.7363 114.77 26.743 115.019 26.7289 115.268Z" fill="#263238"/>
<path d="M29.4329 95.1252C29.4896 95.2248 29.535 95.3303 29.5683 95.4398L29.9148 96.3637C30.0701 96.762 30.2453 97.2558 30.4126 97.8412C30.5798 98.4266 30.8108 99.0797 30.9741 99.8323L31.2608 100.999C31.3564 101.397 31.4241 101.835 31.5117 102.277C31.7028 103.158 31.8183 104.113 31.9577 105.117C32.2066 107.3 32.2998 109.499 32.2365 111.696C32.1428 113.893 31.8926 116.081 31.4878 118.243C31.2767 119.23 31.0896 120.178 30.8427 121.03C30.7192 121.464 30.6197 121.89 30.4962 122.289L30.1258 123.451C29.9068 124.184 29.636 124.825 29.425 125.395C29.2139 125.964 29.0267 126.446 28.8236 126.832L28.4254 127.728C28.3835 127.835 28.3301 127.936 28.2661 128.031C28.293 127.92 28.3304 127.812 28.3776 127.708C28.4732 127.477 28.5966 127.175 28.748 126.796C28.8993 126.418 29.1104 125.92 29.3055 125.343C29.5006 124.766 29.7635 124.148 29.9745 123.396C30.086 123.033 30.2015 122.651 30.325 122.253C30.4484 121.854 30.54 121.432 30.6555 120.998C30.8944 120.134 31.0537 119.194 31.2767 118.211C31.6649 116.059 31.9071 113.884 32.0015 111.7C32.0643 109.515 31.9791 107.329 31.7466 105.157C31.6112 104.157 31.5037 103.205 31.3245 102.325C31.2409 101.887 31.1772 101.457 31.0856 101.051C30.994 100.645 30.9024 100.254 30.8148 99.8841C30.6595 99.1394 30.4484 98.4823 30.2931 97.8929C30.1378 97.3036 29.9745 96.8098 29.8351 96.4036L29.5365 95.4677C29.4907 95.3573 29.456 95.2425 29.4329 95.1252Z" fill="#263238"/>
<path d="M46.736 88.5903C46.7404 88.6274 46.7404 88.6648 46.736 88.7018C46.736 88.7894 46.7041 88.893 46.6842 89.0244C46.6325 89.3071 46.5687 89.7253 46.4572 90.2589C46.2342 91.3262 45.8599 92.8633 45.2625 94.7271C44.6652 96.5908 43.9006 98.781 42.9648 101.182C42.0289 103.584 40.9497 106.204 39.9223 108.992C38.8948 111.779 38.0785 114.491 37.3258 116.956C36.5732 119.421 35.8683 121.635 35.1833 123.463C34.6591 124.912 34.0542 126.331 33.3714 127.712C33.1364 128.202 32.9214 128.569 32.786 128.824L32.6227 129.106C32.5869 129.17 32.567 129.202 32.563 129.198C32.5704 129.161 32.5839 129.126 32.6028 129.094L32.7422 128.8C32.8656 128.541 33.0648 128.166 33.2878 127.669C33.7497 126.685 34.3789 125.239 35.032 123.404C35.6851 121.568 36.386 119.362 37.1187 116.893C37.8515 114.424 38.6599 111.716 39.7033 108.928C40.7466 106.14 41.8218 103.516 42.7656 101.119C43.7094 98.7213 44.5139 96.551 45.1112 94.6952C45.7086 92.8395 46.1028 91.3182 46.3537 90.2589C46.4811 89.7293 46.5608 89.3151 46.6285 89.0324C46.6563 88.9049 46.6842 88.8014 46.7041 88.7178C46.7069 88.6737 46.7177 88.6305 46.736 88.5903Z" fill="#263238"/>
<path d="M11.1143 83.1066C10.9559 82.9522 10.7504 82.8553 10.5306 82.8311C10.3107 82.807 10.0891 82.857 9.90096 82.9733C9.71282 83.0895 9.56895 83.2654 9.49223 83.4728C9.41551 83.6803 9.41035 83.9074 9.47755 84.1181C9.87199 85.3959 10.3564 86.6441 10.9271 87.8535C12.52 91.2265 17.1793 103.337 19.3656 109.987C21.5519 116.638 24.6103 129.046 24.6103 129.046L29.2736 128.29C29.2736 128.29 25.0085 107.92 20.855 100.557C17.5059 94.6553 14.1528 86.1252 11.1143 83.1066Z" fill="#455A64"/>
<path d="M20.6284 114.149C20.7309 114.324 20.8124 114.512 20.8713 114.706C21.0067 115.073 21.1979 115.606 21.4089 116.271C21.839 117.601 22.3647 119.457 22.8904 121.524C23.416 123.591 23.862 125.47 24.1687 126.832C24.3081 127.473 24.4235 128.027 24.5191 128.445C24.5708 128.642 24.6028 128.843 24.6147 129.046C24.5315 128.861 24.4675 128.668 24.4236 128.469C24.312 128.043 24.1687 127.509 23.9974 126.876C23.639 125.474 23.1731 123.631 22.6514 121.592C22.1297 119.553 21.628 117.665 21.2417 116.327C21.0585 115.694 20.9032 115.164 20.7797 114.734C20.71 114.544 20.6593 114.348 20.6284 114.149Z" fill="#263238"/>
<path d="M26.9682 128.668C26.955 128.628 26.947 128.587 26.9443 128.545C26.9443 128.445 26.9125 128.326 26.8886 128.178C26.8408 127.856 26.797 127.382 26.6974 126.764C26.5262 125.538 26.2235 123.774 25.7218 121.619C25.1246 119.101 24.3962 116.615 23.5395 114.172C22.5797 111.409 21.381 108.422 20.0231 105.332C17.2793 99.1631 14.5395 93.6875 12.7355 89.6415C11.8275 87.6185 11.1426 85.9738 10.6567 84.8229C10.4218 84.2494 10.2585 83.7994 10.135 83.4968C10.0793 83.3574 10.0395 83.2419 10.0036 83.1503C9.98582 83.1111 9.97375 83.0695 9.96777 83.0269C9.992 83.0615 10.0121 83.099 10.0275 83.1384L10.1788 83.4769C10.3182 83.7954 10.5054 84.2335 10.7483 84.787C11.2381 85.922 11.9669 87.5746 12.8948 89.5658C14.7346 93.5839 17.5023 99.0516 20.2501 105.232C21.608 108.326 22.8067 111.321 23.7545 114.097C24.6047 116.551 25.3186 119.05 25.893 121.583C26.2803 123.293 26.5807 125.021 26.793 126.76C26.8766 127.374 26.9045 127.856 26.9403 128.178L26.9682 128.549C26.9728 128.588 26.9728 128.628 26.9682 128.668Z" fill="#263238"/>
<path d="M29.2899 128.29C29.2158 128.029 29.1625 127.763 29.1306 127.493C29.039 126.948 28.9155 126.223 28.7682 125.351C28.4496 123.543 27.9717 121.054 27.2509 118.346C26.5301 115.638 25.7655 113.237 25.1602 111.504C24.8655 110.668 24.6186 109.979 24.4315 109.457C24.3288 109.211 24.2462 108.957 24.1846 108.697C24.3175 108.928 24.4307 109.171 24.5231 109.422C24.7222 109.895 25.0049 110.584 25.3195 111.445C26.1625 113.689 26.8856 115.977 27.4859 118.298C28.0888 120.618 28.5739 122.966 28.9394 125.335C29.0709 126.243 29.1704 126.98 29.2222 127.493C29.2647 127.757 29.2873 128.023 29.2899 128.29Z" fill="#263238"/>
<path d="M38.8633 127.621H20.6602V149.798H38.8633V127.621Z" fill="#2B67F6"/>
<g opacity="0.3">
<path d="M38.8633 127.621H20.6602V149.798H38.8633V127.621Z" fill="black"/>
</g>
<path d="M33.053 127.621H16.9048V149.798H33.053V127.621Z" fill="#2B67F6"/>
<path d="M145.238 78.2801L135.669 76.8943L116.526 79.7257L111.154 81.6253L112.106 93.3731L130.512 96.762L142.929 93.0823L147.624 86.1731L145.238 78.2801Z" fill="#FFBE9D"/>
<path d="M151.272 79.4032L143.259 77.5156C143.259 77.5156 137.6 95.0378 123.626 94.2692C112.237 93.6519 112.106 80.9404 112.106 80.9404L103.898 83.5687C103.898 83.5687 100.756 104.623 104.233 119.541C105.029 123.025 106.132 127.72 106.132 127.72L105.021 149.516L165.727 149.611L151.272 79.4032Z" fill="#2B67F6"/>
<g opacity="0.3">
<path d="M127.473 145.286C130.428 145.211 133.152 145.462 136.107 145.39C139.651 145.302 143.223 145.215 146.724 145.788C149.344 146.222 151.901 147.019 154.521 147.433C158.105 147.998 161.924 147.799 165.11 146.075L164.596 143.1L152.498 140.177L127.473 145.286Z" fill="black"/>
</g>
<path d="M97.0444 88.4749C99.8321 84.8908 104.436 83.3975 104.436 83.3975L107.542 110.433L101.66 149.802L82.3936 149.711C82.3936 149.711 93.0183 93.6718 97.0444 88.4749Z" fill="#2B67F6"/>
<path d="M150.335 79.2041C150.335 79.2041 163.302 80.2435 167.953 101.505C170.056 111.114 172.732 122.372 173.484 129.943C174.038 135.43 171.055 144.024 165.584 144.729L158.702 145.653C157.353 145.847 155.98 145.797 154.648 145.505C150.303 144.506 149.869 141.523 149.073 138.337L147.082 131.997C145.983 125.968 151.602 124.829 154.704 124.913L152.39 97.3913L150.335 79.2041Z" fill="#2B67F6"/>
<path d="M102.831 98.4307C102.8 98.5265 102.78 98.6253 102.771 98.7254C102.739 98.9404 102.695 99.2271 102.64 99.5815C102.616 99.7687 102.584 99.9798 102.552 100.203C102.52 100.426 102.504 100.677 102.476 100.943C102.421 101.473 102.357 102.078 102.329 102.751C102.237 104.326 102.226 105.903 102.297 107.478C102.392 109.405 102.583 111.326 102.871 113.233C103.169 115.268 103.544 117.187 103.926 118.924C104.308 120.66 104.679 122.217 105.005 123.523C105.332 124.829 105.607 125.877 105.802 126.601C105.897 126.948 105.973 127.227 106.033 127.434C106.054 127.532 106.086 127.629 106.128 127.72C106.12 127.621 106.101 127.522 106.072 127.426C106.025 127.211 105.961 126.932 105.881 126.582C105.702 125.829 105.451 124.778 105.141 123.487C104.83 122.197 104.472 120.62 104.109 118.884C103.747 117.147 103.368 115.232 103.074 113.205C102.779 111.178 102.572 109.223 102.484 107.466C102.397 105.71 102.393 104.097 102.484 102.759C102.504 102.086 102.556 101.485 102.6 100.951C102.618 100.686 102.638 100.439 102.66 100.211C102.683 99.9877 102.707 99.7807 102.727 99.5895C102.767 99.2351 102.799 98.9484 102.819 98.7293C102.833 98.6304 102.837 98.5304 102.831 98.4307Z" fill="#263238"/>
<path d="M164.879 132.36C164.87 132.175 164.839 131.992 164.787 131.814C164.66 131.335 164.492 130.867 164.286 130.416C163.605 128.913 162.546 127.612 161.212 126.641C159.878 125.67 158.315 125.062 156.675 124.877C156.183 124.817 155.686 124.801 155.19 124.829C155.008 124.831 154.826 124.854 154.648 124.897C155.314 124.901 155.979 124.942 156.64 125.02C158.242 125.243 159.764 125.857 161.073 126.809C162.381 127.76 163.434 129.02 164.138 130.476C164.418 131.091 164.665 131.719 164.879 132.36Z" fill="#263238"/>
<path d="M161.884 121.775C161.781 121.749 161.675 121.739 161.57 121.747C161.284 121.742 160.998 121.755 160.713 121.787C159.773 121.882 158.852 122.113 157.978 122.472C157.104 122.834 156.286 123.318 155.548 123.909C155.326 124.087 155.114 124.279 154.915 124.483C154.776 124.63 154.704 124.714 154.712 124.726C154.72 124.738 155.062 124.447 155.64 124.025C157.142 122.922 158.89 122.203 160.733 121.93C161.438 121.826 161.884 121.811 161.884 121.775Z" fill="#263238"/>
<path d="M148.46 94.269C148.489 94.0806 148.5 93.8899 148.492 93.6995C148.492 93.3331 148.516 92.8075 148.56 92.1583C148.792 88.7634 149.722 85.4528 151.291 82.4336C151.59 81.8561 151.849 81.3942 152.036 81.0835C152.141 80.9253 152.23 80.7573 152.303 80.5818C152.176 80.7234 152.063 80.8767 151.965 81.0397C151.757 81.3424 151.479 81.7924 151.168 82.3659C149.515 85.3753 148.575 88.7242 148.42 92.1544C148.396 92.8074 148.396 93.349 148.42 93.7035C148.414 93.8928 148.427 94.0823 148.46 94.269Z" fill="#263238"/>
<path d="M123.626 113.555C123.635 113.632 123.654 113.707 123.682 113.778C123.73 113.922 123.79 114.141 123.897 114.404C124.188 115.165 124.549 115.897 124.976 116.59C126.39 118.902 128.441 120.755 130.884 121.928C133.326 123.101 136.056 123.543 138.743 123.2C139.554 123.1 140.354 122.925 141.133 122.679C141.407 122.595 141.615 122.504 141.754 122.452C141.827 122.428 141.898 122.397 141.965 122.36C141.965 122.34 141.658 122.444 141.109 122.599C140.327 122.818 139.527 122.97 138.719 123.053C136.062 123.366 133.371 122.917 130.959 121.759C128.548 120.602 126.514 118.783 125.096 116.514C124.662 115.833 124.284 115.118 123.965 114.376C123.77 113.85 123.642 113.547 123.626 113.555Z" fill="#263238"/>
<path d="M150.953 143.442C150.973 143.423 151.176 143.713 151.661 144.111C152.372 144.648 153.185 145.033 154.051 145.242C155.326 145.561 156.643 145.678 157.954 145.589C159.435 145.481 161.072 145.306 162.768 145.055C164.366 144.848 165.94 144.486 167.467 143.972C168.105 143.692 168.688 143.302 169.192 142.821C169.635 142.405 170.036 141.945 170.386 141.447C170.906 140.729 171.35 139.959 171.712 139.15C171.836 138.859 171.931 138.636 171.991 138.48C172.015 138.399 172.05 138.321 172.095 138.25C172.08 138.332 172.058 138.413 172.031 138.492C171.983 138.656 171.9 138.891 171.784 139.181C171.45 140.012 171.021 140.802 170.506 141.535C170.158 142.045 169.757 142.517 169.311 142.945C168.797 143.445 168.199 143.85 167.543 144.139C166.006 144.673 164.418 145.046 162.804 145.25C161.096 145.505 159.463 145.673 157.969 145.772C156.639 145.85 155.304 145.716 154.015 145.374C153.143 145.149 152.329 144.742 151.626 144.179C151.44 144.019 151.271 143.842 151.12 143.65C151.056 143.588 150.999 143.518 150.953 143.442Z" fill="#263238"/>
<path d="M148.814 101.039C148.866 101.039 150.236 106.332 151.865 112.894C153.493 119.457 154.772 124.786 154.716 124.801C154.66 124.817 153.294 119.505 151.666 112.942C150.037 106.379 148.759 101.051 148.814 101.039Z" fill="#263238"/>
<path d="M147.162 131.018C147.119 130.876 147.097 130.728 147.094 130.58C147.054 130.183 147.045 129.783 147.066 129.385C147.112 128.777 147.313 128.192 147.652 127.685C147.843 127.383 148.066 127.103 148.317 126.848C148.594 126.583 148.903 126.353 149.237 126.163C150.416 125.545 151.693 125.132 153.012 124.945C153.408 124.888 153.807 124.853 154.207 124.841C154.353 124.82 154.502 124.82 154.649 124.841C154.649 124.873 154.023 124.897 153.032 125.076C151.742 125.298 150.495 125.72 149.336 126.327C149.017 126.508 148.72 126.728 148.452 126.98C148.21 127.222 147.994 127.489 147.807 127.776C147.477 128.249 147.272 128.796 147.21 129.369C147.174 129.766 147.162 130.165 147.174 130.564C147.187 130.715 147.183 130.867 147.162 131.018Z" fill="#263238"/>
<g opacity="0.3">
<path d="M103.428 116.283C100.119 110.68 100.047 103.4 102.934 97.5664C102.01 103.782 102.209 110.114 103.524 116.259" fill="black"/>
</g>
<path d="M108.705 141.416C109.748 139.448 117.884 134.247 117.884 134.247L115.682 133.738L113.248 134.765C113.064 135.59 112.707 136.366 112.201 137.043C111.309 138.317 109.792 136.999 109.792 136.999L110.819 132.073L115.63 129.178C115.63 129.178 120.154 129.871 120.886 130.221L122.814 131.985C123.662 132.651 126.107 135.267 126.776 135.347C127.445 135.426 148.46 130.707 148.46 130.707C151.339 132.989 152.84 137.517 153.31 140.786C153.31 140.786 153.824 142.379 153.267 143.263L127.489 145.286L122.025 146.796C120.562 147.401 119.064 147.915 117.537 148.337C115.721 148.735 114.499 148.134 114.447 147.142C114.395 146.151 115.809 146.027 115.809 146.027C117.014 145.595 118.188 145.078 119.321 144.482C120.151 143.929 120.835 143.183 121.313 142.308L119.365 142.539C119.365 142.539 115.224 145.414 113.667 146.258C112.109 147.102 111.803 145.553 111.675 145.063C111.548 144.574 116.327 139.922 116.327 139.922C116.327 139.922 111.783 142.71 110.967 143.427C110.15 144.143 108.94 144.347 108.681 143.873C108.422 143.399 107.665 143.383 108.705 141.416Z" fill="#FFBE9D"/>
<path d="M131.109 141.87C131.132 141.765 131.14 141.658 131.133 141.551C131.138 141.426 131.13 141.3 131.109 141.177C131.093 141.011 131.063 140.847 131.018 140.687C130.759 139.757 130.31 138.89 129.699 138.142C129.104 137.391 128.437 136.701 127.708 136.079C127.422 135.806 127.109 135.563 126.772 135.354C127.037 135.646 127.319 135.921 127.617 136.179C128.31 136.824 128.955 137.52 129.544 138.262C130.141 138.99 130.595 139.825 130.882 140.723C131.089 141.416 131.069 141.874 131.109 141.87Z" fill="#EB996E"/>
<path d="M118.071 134.1C118.537 134.169 119.012 134.126 119.459 133.976C119.905 133.826 120.31 133.572 120.639 133.236C120.608 133.192 120.11 133.563 119.397 133.794C118.684 134.024 118.071 134.044 118.071 134.1Z" fill="#EB996E"/>
<path d="M116.717 139.492C118.119 139.052 119.481 138.493 120.787 137.82C120.076 138.007 119.383 138.258 118.716 138.568C118.025 138.819 117.356 139.128 116.717 139.492Z" fill="#EB996E"/>
<path d="M121.082 142.248C121.448 142.164 121.804 142.037 122.141 141.87C122.502 141.764 122.85 141.616 123.176 141.427C122.416 141.505 121.692 141.789 121.082 142.248Z" fill="#EB996E"/>
<path d="M117.398 139.851C117.69 140.052 117.957 140.287 118.194 140.551C118.387 140.853 118.542 141.176 118.656 141.515C118.68 141.515 118.704 141.384 118.656 141.177C118.608 140.907 118.496 140.653 118.33 140.436C118.165 140.218 117.951 140.044 117.705 139.926C117.525 139.839 117.398 139.831 117.398 139.851Z" fill="#EB996E"/>
<path d="M115.479 136.844C115.451 136.892 115.809 137.087 116.044 137.497C116.164 137.761 116.261 138.034 116.335 138.313C116.393 138.161 116.411 137.996 116.388 137.835C116.365 137.673 116.301 137.52 116.203 137.389C115.937 136.928 115.487 136.792 115.479 136.844Z" fill="#EB996E"/>
<path d="M116.124 131.468C116.148 131.468 116.219 131.388 116.279 131.209C116.341 130.974 116.341 130.727 116.279 130.492C116.222 130.256 116.104 130.039 115.937 129.863C115.805 129.731 115.698 129.684 115.682 129.704C115.848 129.965 115.982 130.246 116.08 130.54C116.136 130.846 116.151 131.158 116.124 131.468Z" fill="#EB996E"/>
<path d="M153.478 144C153.451 143.803 153.441 143.605 153.446 143.407C153.446 143.215 153.446 142.984 153.418 142.714C153.39 142.443 153.394 142.136 153.354 141.802C153.205 140.034 152.826 138.294 152.227 136.625C151.891 135.713 151.484 134.829 151.009 133.98C150.77 133.582 150.563 133.228 150.324 132.905C150.212 132.742 150.101 132.587 149.993 132.435C149.886 132.284 149.77 132.149 149.663 132.037C148.807 130.982 148.149 130.444 148.181 130.412C148.348 130.519 148.503 130.643 148.643 130.783C148.823 130.933 148.993 131.094 149.153 131.265C149.34 131.46 149.551 131.663 149.778 131.942C149.886 132.077 150.001 132.212 150.121 132.34C150.24 132.467 150.348 132.646 150.467 132.81C150.714 133.132 150.929 133.507 151.172 133.889C151.664 134.741 152.082 135.634 152.422 136.557C153.027 138.239 153.39 139.998 153.502 141.782C153.53 142.12 153.526 142.431 153.533 142.702C153.541 142.973 153.533 143.207 153.533 143.399C153.535 143.6 153.517 143.802 153.478 144Z" fill="#263238"/>
<g opacity="0.3">
<path d="M162.322 125.582C159.905 124.584 157.242 124.341 154.684 124.885C156.883 124.784 159.058 125.372 160.907 126.567C162.755 127.762 164.184 129.504 164.994 131.551C165.177 132.045 165.544 132.63 166.069 132.555C166.595 132.479 166.739 131.87 166.739 131.38C166.742 128.803 164.7 126.573 162.322 125.582Z" fill="black"/>
</g>
<path d="M102.663 96.6067C102.544 96.585 102.429 96.5461 102.321 96.4912C102.102 96.4076 101.795 96.2682 101.421 96.093C100.444 95.6053 99.5113 95.0337 98.6333 94.3846C97.7586 93.7386 96.9406 93.0192 96.1882 92.2342C95.9014 91.9315 95.6744 91.6766 95.5311 91.4974C95.3877 91.3182 95.3081 91.2107 95.32 91.1988C95.332 91.1868 95.6944 91.5572 96.2917 92.1306C97.068 92.8794 97.8913 93.5777 98.7568 94.2213C99.6247 94.8597 100.533 95.4411 101.477 95.9616C102.225 96.3718 102.687 96.5788 102.663 96.6067Z" fill="white"/>
<path d="M148.647 98.108C148.617 98.135 148.584 98.1578 148.547 98.1757L148.241 98.3589C147.974 98.5222 147.568 98.7571 147.046 99.02C145.551 99.7874 144 100.441 142.407 100.975C140.04 101.758 137.611 102.342 135.147 102.72C132.129 103.169 129.086 103.421 126.035 103.476C122.79 103.552 119.7 103.476 116.876 103.428C114.385 103.393 111.898 103.206 109.429 102.867C107.764 102.631 106.122 102.25 104.523 101.728C103.962 101.537 103.528 101.377 103.241 101.254L102.914 101.115C102.875 101.101 102.838 101.084 102.803 101.063L102.922 101.095L103.257 101.214C103.547 101.326 103.985 101.473 104.551 101.652C106.153 102.139 107.791 102.497 109.449 102.724C111.914 103.039 114.395 103.21 116.88 103.237C119.668 103.289 122.774 103.345 126.012 103.269C129.053 103.216 132.089 102.968 135.099 102.528C137.556 102.163 139.979 101.597 142.343 100.836C143.935 100.316 145.49 99.6848 146.994 98.9483C147.524 98.6855 147.934 98.4744 148.189 98.3231L148.504 98.1598C148.607 98.12 148.643 98.104 148.647 98.108Z" fill="white"/>
<path d="M102.815 112.301C102.647 112.285 102.481 112.251 102.321 112.197L100.995 111.835C99.8801 111.52 98.3429 111.07 96.6465 110.565C94.95 110.059 93.4208 109.585 92.3137 109.234L91.0075 108.812C90.8456 108.766 90.6883 108.705 90.5376 108.629C90.7056 108.645 90.8713 108.679 91.0314 108.733L92.3575 109.095C93.4725 109.41 95.0097 109.86 96.7062 110.365C98.4026 110.871 99.9318 111.341 101.039 111.692L102.345 112.118C102.508 112.162 102.665 112.223 102.815 112.301Z" fill="white"/>
<path d="M103.974 134.311C103.974 134.363 99.9915 133.224 95.0933 131.762C90.1951 130.301 86.2566 129.07 86.2725 129.015C86.2884 128.959 90.2548 130.098 95.153 131.563C100.051 133.029 103.99 134.255 103.974 134.311Z" fill="white"/>
<path d="M161.53 86.6907C161.396 86.8207 161.249 86.9368 161.092 87.0371C160.805 87.2482 160.375 87.5429 159.838 87.8933C157.025 89.7126 154.008 91.1949 150.849 92.3097C150.244 92.5208 149.75 92.6801 149.404 92.7796C149.229 92.8435 149.047 92.8888 148.862 92.915C149.028 92.8291 149.201 92.7585 149.38 92.704L150.802 92.1743C151.996 91.7163 153.633 91.0393 155.385 90.1831C157.138 89.327 158.675 88.4429 159.766 87.7739L161.056 86.9774C161.204 86.8665 161.363 86.7705 161.53 86.6907Z" fill="white"/>
<path d="M169.462 109.318C169.255 109.436 169.039 109.538 168.817 109.625C168.399 109.812 167.778 110.059 167.005 110.342C162.967 111.812 158.727 112.656 154.433 112.842C153.609 112.878 152.944 112.886 152.482 112.87C152.244 112.876 152.006 112.865 151.769 112.838C152.005 112.803 152.243 112.787 152.482 112.791C152.94 112.791 153.605 112.751 154.425 112.695C156.558 112.56 158.68 112.284 160.777 111.871C162.872 111.45 164.938 110.894 166.962 110.206C167.738 109.939 168.363 109.712 168.793 109.549C169.009 109.453 169.233 109.376 169.462 109.318Z" fill="white"/>
<path d="M158.017 145.509C158.014 145.434 158.021 145.359 158.037 145.286C158.061 145.123 158.097 144.916 158.137 144.661C158.177 144.406 158.236 144.056 158.276 143.665C158.316 143.275 158.384 142.837 158.4 142.343C158.4 142.1 158.432 141.842 158.447 141.575C158.463 141.308 158.447 141.025 158.447 140.738C158.447 140.161 158.424 139.544 158.392 138.895C158.287 137.489 158.073 136.094 157.751 134.721C157.413 133.352 156.969 132.012 156.424 130.711C156.154 130.122 155.911 129.552 155.628 129.046C155.493 128.792 155.369 128.541 155.23 128.306L154.832 127.645C154.589 127.215 154.326 126.848 154.115 126.526C153.904 126.203 153.716 125.924 153.537 125.705L153.163 125.192C153.115 125.135 153.075 125.072 153.043 125.004C153.099 125.053 153.149 125.106 153.195 125.164L153.593 125.657C153.81 125.912 154.013 126.178 154.202 126.454C154.425 126.777 154.696 127.135 154.947 127.561L155.345 128.222C155.485 128.453 155.612 128.708 155.743 128.963C156.03 129.469 156.285 130.038 156.54 130.631C157.687 133.241 158.361 136.033 158.531 138.879C158.555 139.532 158.591 140.153 158.567 140.734C158.567 141.025 158.567 141.308 158.543 141.579C158.519 141.85 158.503 142.104 158.483 142.351C158.455 142.849 158.376 143.287 158.324 143.677C158.272 144.068 158.212 144.402 158.153 144.669C158.093 144.936 158.049 145.127 158.013 145.294C158.022 145.366 158.024 145.438 158.017 145.509Z" fill="white"/>
<path d="M173.381 133.304C173.361 133.304 173.349 132.977 173.258 132.404C173.117 131.594 172.848 130.811 172.461 130.086C171.895 129.009 171.131 128.047 170.211 127.25C169.09 126.267 167.791 125.507 166.384 125.012C164.969 124.54 163.491 124.282 162 124.248C160.779 124.214 159.558 124.26 158.344 124.387C157.305 124.483 156.464 124.59 155.883 124.654L155.214 124.726C155.136 124.736 155.057 124.736 154.979 124.726C155.052 124.699 155.128 124.681 155.206 124.674L155.871 124.562C156.448 124.471 157.289 124.347 158.328 124.228C159.549 124.082 160.778 124.021 162.008 124.045C163.52 124.075 165.018 124.334 166.452 124.813C167.883 125.32 169.203 126.099 170.339 127.107C171.269 127.924 172.035 128.913 172.593 130.018C172.971 130.767 173.217 131.575 173.321 132.408C173.353 132.632 173.369 132.858 173.369 133.085C173.381 133.157 173.385 133.23 173.381 133.304Z" fill="white"/>
<path d="M130.54 121.775C130.466 121.797 130.39 121.811 130.313 121.815L129.664 121.882L127.274 122.082C125.255 122.237 122.464 122.428 119.381 122.587C116.299 122.747 113.5 122.846 111.473 122.87C110.461 122.87 109.641 122.87 109.083 122.87H108.434C108.358 122.873 108.281 122.864 108.207 122.846C108.282 122.831 108.358 122.824 108.434 122.826H109.083L111.473 122.766C113.492 122.707 116.287 122.587 119.369 122.424L127.262 121.978L129.652 121.843L130.305 121.815C130.381 121.791 130.46 121.778 130.54 121.775Z" fill="white"/>
<g opacity="0.3">
<path d="M132.853 122.603C135.362 123.34 138.827 123.519 141.284 122.603C139.372 125.323 135.681 126.307 132.475 125.423C129.269 124.539 126.318 121.333 126.071 118.016C127.624 120.106 130.344 121.859 132.853 122.603Z" fill="black"/>
</g>
<path d="M153.199 119.979C153.133 120.003 153.065 120.022 152.996 120.034L152.418 120.158C151.912 120.261 151.184 120.397 150.276 120.556C148.464 120.875 145.951 121.265 143.167 121.607C140.384 121.95 137.847 122.173 135.999 122.3C135.083 122.364 134.338 122.408 133.825 122.428L133.235 122.448C133.167 122.459 133.097 122.459 133.028 122.448C133.095 122.431 133.163 122.42 133.231 122.416L133.821 122.356L135.987 122.161C137.819 121.998 140.344 121.763 143.131 121.408C145.919 121.054 148.424 120.7 150.24 120.421L152.39 120.086L152.98 120.003C153.051 119.982 153.125 119.974 153.199 119.979Z" fill="white"/>
<g opacity="0.3">
<path d="M149.025 102.25C148.396 109.457 150.36 116.61 152.307 123.579C152.393 124.012 152.576 124.42 152.84 124.773C152.977 124.95 153.168 125.078 153.383 125.137C153.598 125.197 153.827 125.185 154.035 125.104C154.644 124.793 154.561 123.909 154.39 123.256L148.978 102.548" fill="black"/>
</g>
<path d="M48.1936 109.43L56.3772 149.611H127.421C127.797 149.611 128.158 149.462 128.424 149.196C128.69 148.93 128.839 148.569 128.839 148.193C128.839 147.817 128.69 147.457 128.424 147.191C128.158 146.925 127.797 146.776 127.421 146.776H113.117L105.531 109.406C105.46 109.058 105.272 108.745 104.998 108.519C104.724 108.292 104.381 108.167 104.025 108.163L49.7308 107.57C49.4993 107.567 49.2702 107.616 49.0602 107.713C48.8502 107.811 48.6646 107.954 48.5172 108.132C48.3697 108.31 48.2641 108.52 48.2081 108.744C48.1521 108.969 48.1472 109.203 48.1936 109.43Z" fill="#E0E0E0"/>
<path d="M48.1936 109.43C48.1831 109.39 48.1751 109.35 48.1697 109.31C48.1544 109.189 48.1544 109.065 48.1697 108.944C48.1978 108.704 48.2801 108.473 48.4105 108.27C48.5409 108.066 48.716 107.895 48.9223 107.769C49.0678 107.683 49.2266 107.621 49.3922 107.586C49.576 107.552 49.7631 107.54 49.9498 107.55H51.2281L54.4139 107.578L74.9427 107.773L89.2551 107.916L97.2754 108L101.481 108.044L103.627 108.064C103.81 108.064 103.982 108.064 104.177 108.064C104.368 108.083 104.554 108.137 104.726 108.223C105.082 108.39 105.365 108.68 105.523 109.039C105.592 109.215 105.642 109.398 105.67 109.585L105.782 110.127C105.853 110.485 105.929 110.847 106.001 111.21C106.152 111.939 106.299 112.671 106.451 113.404L107.359 117.876C107.972 120.889 108.598 123.973 109.238 127.127C110.521 133.427 111.855 139.978 113.221 146.732L113.125 146.652H127.19C127.376 146.643 127.561 146.654 127.744 146.684C128.125 146.778 128.456 147.015 128.668 147.345C128.789 147.521 128.871 147.72 128.91 147.929C128.949 148.139 128.944 148.354 128.894 148.561C128.845 148.768 128.752 148.963 128.623 149.132C128.493 149.301 128.329 149.441 128.142 149.543C127.936 149.655 127.707 149.716 127.473 149.723H108.967H89.7329H56.3772H56.3174V149.663C53.8126 137.318 51.7776 127.266 50.3679 120.305C49.671 116.825 49.1254 114.117 48.7551 112.277C48.5719 111.357 48.4325 110.656 48.3568 110.182C48.2812 109.708 48.2254 109.466 48.2254 109.466C48.2254 109.466 48.2812 109.708 48.3807 110.178L48.8188 112.265C49.1971 114.105 49.7546 116.813 50.4714 120.285L56.4847 149.635L56.409 149.571H89.7648H127.501C127.704 149.563 127.903 149.51 128.082 149.416C128.245 149.327 128.387 149.204 128.5 149.057C128.612 148.909 128.692 148.74 128.735 148.559C128.778 148.379 128.782 148.191 128.748 148.009C128.714 147.826 128.642 147.653 128.536 147.5C128.35 147.226 128.064 147.034 127.74 146.963C127.57 146.936 127.398 146.925 127.226 146.931H113.037V146.855C111.667 140.085 110.341 133.546 109.055 127.246C108.415 124.098 107.79 121.014 107.179 117.996L106.248 113.464C106.1 112.727 105.953 111.998 105.806 111.269C105.73 110.907 105.658 110.545 105.582 110.182L105.475 109.645C105.449 109.469 105.402 109.296 105.336 109.131C105.202 108.814 104.961 108.554 104.655 108.398C104.501 108.322 104.335 108.274 104.165 108.255C103.998 108.255 103.806 108.255 103.631 108.255L101.481 108.231L97.2754 108.183L89.259 108.088L74.9467 107.92L54.4179 107.669L51.2321 107.626L49.9537 107.606C49.7701 107.595 49.5858 107.604 49.4042 107.634C49.2433 107.67 49.0888 107.73 48.9462 107.813C48.7411 107.933 48.5665 108.1 48.436 108.298C48.3055 108.497 48.2225 108.724 48.1936 108.96C48.1736 109.116 48.1736 109.274 48.1936 109.43Z" fill="#263238"/>
<path d="M80.928 127.832C80.928 128.296 80.7904 128.749 80.5327 129.135C80.2749 129.521 79.9086 129.821 79.48 129.999C79.0514 130.176 78.5798 130.223 78.1248 130.132C77.6698 130.042 77.2519 129.819 76.9238 129.49C76.5958 129.162 76.3724 128.745 76.2819 128.29C76.1914 127.835 76.2378 127.363 76.4154 126.934C76.5929 126.506 76.8935 126.139 77.2793 125.882C77.665 125.624 78.1185 125.486 78.5824 125.486C79.2045 125.486 79.8011 125.733 80.241 126.173C80.6808 126.613 80.928 127.21 80.928 127.832Z" fill="white"/>
<path d="M48.2573 109.756C48.2573 109.756 48.341 109.756 48.5042 109.756H51.9848L62.1436 109.804L95.6547 110.039L100.501 110.079H101.696C101.9 110.069 102.104 110.081 102.305 110.115C102.509 110.154 102.704 110.233 102.879 110.345C103.234 110.57 103.491 110.92 103.599 111.325C103.691 111.723 103.755 112.09 103.834 112.472C104.436 115.499 105.029 118.418 105.567 121.197C106.666 126.772 107.657 131.77 108.486 135.98L110.441 145.935C110.664 147.11 110.839 148.022 110.963 148.647C111.018 148.954 111.062 149.189 111.094 149.356C111.126 149.523 111.13 149.595 111.13 149.595C111.13 149.595 111.106 149.515 111.074 149.36C111.042 149.205 110.987 148.962 110.923 148.655C110.795 148.03 110.608 147.122 110.365 145.951C109.887 143.594 109.202 140.193 108.35 135.995L105.387 121.221C104.834 118.434 104.248 115.522 103.647 112.496C103.567 112.122 103.496 111.731 103.416 111.365C103.317 111.007 103.089 110.699 102.775 110.501C102.619 110.406 102.446 110.341 102.265 110.31C102.077 110.279 101.886 110.268 101.696 110.278H100.501L95.6547 110.242L62.1396 109.947L51.9848 109.836L49.221 109.796H48.5042L48.2573 109.756Z" fill="#263238"/>
<path d="M143.135 48.7314C143.217 52.4467 142.512 56.1373 141.065 59.5602C139.618 62.9832 137.463 66.061 134.741 68.5912C133.485 64.9673 132.233 61.3434 130.985 57.7195" fill="#263238"/>
<path d="M114.846 27.1075C118.067 25.3474 121.958 25.0925 125.558 25.8133C129.158 26.5341 132.511 28.1629 135.689 30.0027C137.473 31.0341 139.249 32.1691 140.531 33.7779C142.869 36.7208 145.183 41.5553 145.406 45.3266C145.589 48.3611 144.426 55.9553 143.144 58.7111C141.969 61.2398 136.461 63.1673 133.742 63.7925L108.796 34.7615C109.247 33.1486 110.014 31.6414 111.053 30.3274C112.091 29.0135 113.38 27.919 114.846 27.1075Z" fill="#263238"/>
<path d="M110.545 31.0182L116.518 29.9509C113.249 37.7363 112.361 55.5372 110.493 63.7726C108.287 60.5868 103.169 50.8301 103.444 46.9554C103.719 43.0806 103.46 30.3611 110.545 31.0182Z" fill="#263238"/>
<path d="M138.902 43.9767C138.58 39.4289 135.633 35.7014 131.216 34.5745L117.442 31.0621C111.492 30.4209 107.518 37.7404 107.127 43.7138C106.693 50.3523 106.427 57.3532 107.203 62.3072C108.76 72.263 116.39 73.5532 116.39 73.5532C116.39 73.5532 116.39 78.2922 116.39 81.1992L120.998 100.278L135.848 79.7616L138.922 44.1041C138.934 43.9289 138.902 44.2037 138.902 43.9767Z" fill="#FFBE9D"/>
<path d="M110.118 51.2364C110.115 51.5694 110.242 51.8905 110.471 52.1315C110.701 52.3724 111.016 52.5142 111.349 52.5267C111.511 52.5397 111.675 52.52 111.83 52.4689C111.984 52.4177 112.127 52.3362 112.25 52.2289C112.373 52.1217 112.473 51.991 112.545 51.8444C112.616 51.6979 112.658 51.5386 112.667 51.3758C112.67 51.0435 112.544 50.7229 112.315 50.482C112.086 50.2412 111.772 50.099 111.44 50.0855C111.278 50.072 111.114 50.0912 110.958 50.1421C110.803 50.1929 110.659 50.2744 110.536 50.3817C110.413 50.489 110.312 50.6199 110.241 50.7667C110.169 50.9135 110.127 51.0732 110.118 51.2364Z" fill="#263238"/>
<path d="M108.637 47.6125C108.796 47.7798 109.764 47.0669 111.138 47.0709C112.511 47.0749 113.527 47.7678 113.666 47.6006C113.742 47.5249 113.579 47.2262 113.141 46.9037C112.547 46.4907 111.841 46.271 111.118 46.2745C110.403 46.272 109.707 46.495 109.127 46.9116C108.688 47.2382 108.545 47.5368 108.637 47.6125Z" fill="#263238"/>
<path d="M122.097 51.2362C122.094 51.5692 122.221 51.8903 122.45 52.1313C122.68 52.3723 122.995 52.514 123.328 52.5265C123.491 52.54 123.655 52.5207 123.81 52.4695C123.965 52.4183 124.109 52.3364 124.232 52.2287C124.355 52.1209 124.455 51.9895 124.526 51.8422C124.597 51.695 124.638 51.5349 124.646 51.3716C124.649 51.0393 124.523 50.7187 124.294 50.4779C124.065 50.237 123.751 50.0948 123.419 50.0813C123.256 50.0678 123.092 50.0872 122.936 50.1383C122.781 50.1894 122.637 50.2712 122.514 50.379C122.391 50.4867 122.29 50.6181 122.219 50.7653C122.147 50.9126 122.106 51.0727 122.097 51.2362Z" fill="#263238"/>
<path d="M121.671 47.6125C121.83 47.7797 122.802 47.0669 124.176 47.0709C125.55 47.0749 126.565 47.7678 126.705 47.6005C126.776 47.5249 126.617 47.2262 126.179 46.9036C125.588 46.4944 124.887 46.2749 124.168 46.2744C123.454 46.2733 122.758 46.4961 122.177 46.9116C121.739 47.2381 121.595 47.5368 121.671 47.6125Z" fill="#263238"/>
<path d="M117.398 58.4045C117.398 58.3288 116.55 58.1775 115.164 58.0062C114.813 57.9704 114.483 57.8987 114.423 57.6598C114.394 57.297 114.478 56.9341 114.662 56.6204C114.994 55.7735 115.342 54.8828 115.705 53.9483C117.155 50.1492 118.202 47.0231 118.051 46.9673C117.9 46.9116 116.597 49.9421 115.148 53.7372C114.797 54.6717 114.464 55.5664 114.148 56.4213C113.926 56.8445 113.86 57.3321 113.961 57.7992C114.012 57.9232 114.09 58.0341 114.19 58.1231C114.29 58.2122 114.409 58.2771 114.539 58.3129C114.731 58.3684 114.931 58.3966 115.132 58.3965C116.506 58.4762 117.37 58.4841 117.398 58.4045Z" fill="#263238"/>
<path d="M129.6 70.0049C129.6 70.0049 126.358 76.8584 116.395 75.8907V73.5491C121.04 73.6131 125.611 72.3861 129.6 70.0049Z" fill="#EB996E"/>
<path d="M122.105 42.6465C122.241 43.0209 123.61 42.8456 125.223 43.0448C126.836 43.2439 128.138 43.6859 128.353 43.3514C128.449 43.1881 128.222 42.8377 127.696 42.4753C126.999 42.0281 126.204 41.755 125.379 41.6788C124.554 41.5781 123.718 41.6736 122.937 41.9576C122.344 42.1766 122.045 42.4673 122.105 42.6465Z" fill="#263238"/>
<path d="M109.071 43.4071C109.31 43.7217 110.266 43.4071 111.397 43.3872C112.528 43.3673 113.499 43.6022 113.722 43.2757C113.818 43.1164 113.667 42.8057 113.248 42.5071C112.683 42.1528 112.025 41.974 111.359 41.9931C110.692 42.0122 110.045 42.2285 109.501 42.6146C109.095 42.9332 108.964 43.2557 109.071 43.4071Z" fill="#263238"/>
<path d="M109.831 34.6141C110.441 33.1168 112.085 32.2247 113.698 32.1371C115.311 32.0495 116.884 32.6668 118.294 33.4752C124.223 36.9039 127.274 45.1831 133.132 48.7314C134.573 49.6035 136.449 48.8031 137.676 49.9579C138.902 51.1128 139.695 52.9606 139.018 54.5017C139.857 53.4595 140.542 52.3021 141.053 51.065C141.499 49.8026 141.554 48.3411 140.885 47.1823C140.38 46.3022 139.484 45.6331 139.241 44.6495C139.022 43.7814 139.364 42.8774 139.328 41.9854C139.227 41.0789 138.914 40.2088 138.416 39.4447C136.119 35.3867 132.961 31.715 128.895 29.4292C126.24 27.8965 123.218 27.1159 120.153 27.1712C117.071 27.2403 114.116 28.4115 111.823 30.4725C110.512 31.6951 109.134 32.9575 109.831 34.6141Z" fill="#263238"/>
<path d="M137.533 51.1924C137.636 50.9057 142.833 49.034 142.901 54.5535C142.969 59.9176 137.557 58.8623 137.545 58.707C137.533 58.5517 137.533 51.1924 137.533 51.1924Z" fill="#FFBE9D"/>
<path d="M139.181 56.6603C139.205 56.6603 139.273 56.724 139.432 56.7957C139.657 56.8852 139.908 56.8852 140.133 56.7957C140.695 56.5846 141.165 55.6766 141.18 54.7129C141.191 54.2522 141.099 53.795 140.91 53.3749C140.857 53.2081 140.764 53.0565 140.64 52.9331C140.516 52.8097 140.364 52.7181 140.197 52.666C140.09 52.6382 139.977 52.6489 139.877 52.6962C139.777 52.7435 139.697 52.8245 139.651 52.9249C139.58 53.0762 139.615 53.1837 139.584 53.1917C139.552 53.1996 139.468 53.1041 139.512 52.8811C139.541 52.7494 139.614 52.6315 139.719 52.5465C139.791 52.4899 139.873 52.4481 139.961 52.4235C140.05 52.3988 140.142 52.392 140.233 52.4032C140.454 52.4443 140.66 52.5418 140.833 52.6862C141.005 52.8306 141.137 53.0171 141.216 53.2275C141.451 53.6883 141.567 54.2001 141.555 54.7169C141.531 55.8001 140.989 56.8156 140.213 57.0465C140.07 57.0899 139.919 57.1006 139.772 57.0779C139.624 57.0551 139.484 56.9995 139.361 56.9151C139.189 56.7917 139.161 56.6722 139.181 56.6603Z" fill="#EB996E"/>
<path d="M139.667 48.4366C139.554 48.3864 139.446 48.3264 139.344 48.2574C139.137 48.126 138.819 47.9508 138.444 47.684C137.387 46.9112 136.415 46.0274 135.545 45.0477C134.28 43.5817 133.098 42.0461 132.005 40.4481C130.688 38.4899 129.208 36.6462 127.581 34.9366C126.712 34.0825 125.754 33.3254 124.721 32.6787C123.754 32.089 122.719 31.6184 121.639 31.2769C119.806 30.6887 117.878 30.4523 115.956 30.58C114.66 30.659 113.38 30.9095 112.149 31.3247C111.707 31.4601 111.381 31.6074 111.154 31.695C111.041 31.7468 110.924 31.7881 110.803 31.8185C110.909 31.7549 111.02 31.699 111.134 31.6512C111.453 31.4984 111.782 31.3654 112.117 31.253C113.347 30.7954 114.636 30.5164 115.944 30.4247C117.888 30.2656 119.845 30.4819 121.707 31.0619C122.808 31.4011 123.863 31.8746 124.849 32.4716C125.896 33.1278 126.87 33.8956 127.752 34.7614C129.389 36.4879 130.874 38.3533 132.188 40.3366C133.27 41.9348 134.434 43.4754 135.677 44.9521C136.529 45.9337 137.474 46.8299 138.5 47.6282C138.866 47.903 139.173 48.0902 139.368 48.2335C139.473 48.2929 139.573 48.3608 139.667 48.4366Z" fill="#455A64"/>
<path d="M139.791 57.6081C140.055 57.5594 140.327 57.6132 140.553 57.7584C140.779 57.9037 140.941 58.1296 141.006 58.39C141.071 58.6505 141.034 58.926 140.903 59.1604C140.773 59.3948 140.557 59.5705 140.301 59.6517C140.045 59.733 139.768 59.7136 139.526 59.5976C139.284 59.4816 139.095 59.2777 138.998 59.0274C138.901 58.7771 138.903 58.4992 139.004 58.2503C139.104 58.0014 139.296 57.8002 139.54 57.6877" fill="white"/>
<path d="M139.539 57.6877C139.309 57.8734 139.141 58.1248 139.058 58.4085C139.019 58.5548 139.018 58.7082 139.055 58.8549C139.091 59.0017 139.163 59.137 139.265 59.2488C139.384 59.39 139.543 59.4927 139.721 59.544C139.899 59.5953 140.088 59.5929 140.264 59.5372C140.441 59.4815 140.597 59.3749 140.713 59.2308C140.829 59.0866 140.9 58.9114 140.917 58.7271C140.934 58.5784 140.913 58.428 140.858 58.2891C140.802 58.1502 140.713 58.0271 140.599 57.9307C140.371 57.7483 140.093 57.6399 139.802 57.62C139.802 57.62 139.882 57.5643 140.053 57.5603C140.296 57.5623 140.531 57.6449 140.722 57.7953C140.871 57.9057 140.989 58.0529 141.065 58.2225C141.14 58.3921 141.17 58.5783 141.152 58.763C141.137 58.994 141.053 59.2151 140.91 59.3973C140.767 59.5796 140.573 59.7146 140.352 59.7847C140.132 59.8549 139.895 59.8568 139.673 59.7903C139.452 59.7238 139.255 59.592 139.109 59.4121C138.989 59.2719 138.906 59.1029 138.87 58.9215C138.834 58.7402 138.845 58.5525 138.902 58.3767C138.966 58.1446 139.106 57.9409 139.301 57.7992C139.44 57.6917 139.536 57.6758 139.539 57.6877Z" fill="#263238"/>
<path d="M138.317 49.9541C138.401 51.4196 138.468 52.9647 137.791 54.2669C137.114 55.5691 135.402 56.4572 134.136 55.7284C133.096 55.1351 132.786 53.801 132.606 52.6182C132.101 49.2014 131.866 45.7488 131.328 42.3359L138.317 49.9541Z" fill="#263238"/>
<path d="M111.154 32.0656C111.154 32.0934 111.628 31.974 112.484 31.9461C113.699 31.9276 114.906 32.1481 116.036 32.5952C116.816 32.8971 117.561 33.2816 118.258 33.7421C119.058 34.2788 119.824 34.864 120.552 35.4943C122.239 36.9213 123.748 38.5473 125.044 40.3368C125.725 41.2926 126.33 42.2762 126.983 43.1881C127.604 44.0748 128.325 44.8861 129.134 45.6054C130.525 46.7841 132.045 47.8008 133.666 48.6359C135.04 49.3607 136.187 49.8704 136.979 50.2288L137.895 50.6271C138 50.6788 138.111 50.7188 138.225 50.7465C138.131 50.6782 138.03 50.6208 137.923 50.5753L137.027 50.1333C136.23 49.735 135.119 49.2094 133.769 48.4647C132.178 47.6078 130.685 46.5796 129.317 45.3983C128.528 44.6865 127.825 43.8846 127.222 43.0089C126.581 42.1089 125.98 41.1253 125.291 40.1576C123.98 38.349 122.45 36.7103 120.735 35.2793C119.992 34.6472 119.21 34.062 118.394 33.5271C117.677 33.0667 116.911 32.6861 116.112 32.3921C114.954 31.9532 113.717 31.7606 112.48 31.8266C112.146 31.8461 111.815 31.8927 111.488 31.966C111.373 31.9837 111.26 32.0172 111.154 32.0656Z" fill="#455A64"/>
<path d="M138.464 46.6408C138.609 46.7652 138.768 46.8721 138.938 46.9594L140.3 47.7558L140.754 48.0147C140.933 48.1232 141.135 48.1899 141.344 48.2098C141.47 48.2236 141.598 48.1941 141.706 48.1262C141.764 48.0858 141.811 48.0329 141.846 47.9716C141.88 47.9103 141.901 47.842 141.905 47.7717C141.893 47.5256 141.806 47.2891 141.654 47.0947L140.061 44.57L139.846 44.7651C140.898 45.5396 142.186 45.924 143.49 45.8523C143.657 45.851 143.822 45.8228 143.98 45.7686C144.068 45.7398 144.149 45.6926 144.218 45.6301C144.286 45.5677 144.341 45.4914 144.378 45.4063C144.409 45.3154 144.416 45.2185 144.4 45.124C144.384 45.0295 144.345 44.9404 144.286 44.8647C144.198 44.7426 144.096 44.6305 143.984 44.5302C143.276 43.8455 142.661 43.0702 142.156 42.2244C141.711 41.4299 141.322 40.6048 140.993 39.7554C141.018 40.0021 141.076 40.2445 141.164 40.4762C141.365 41.1207 141.632 41.7426 141.961 42.3319C142.45 43.2102 143.062 44.0146 143.777 44.7213C143.976 44.9125 144.175 45.1195 144.099 45.2987C144.024 45.4779 143.729 45.5536 143.446 45.5536C142.833 45.5845 142.219 45.5104 141.63 45.3346C141.044 45.1625 140.491 44.8932 139.994 44.5381L139.356 44.0682L139.782 44.7332L141.375 47.2381C141.5 47.3881 141.579 47.5705 141.602 47.7638C141.602 47.9151 141.467 48.0027 141.296 47.9908C140.951 47.9229 140.624 47.7876 140.332 47.5925L138.93 46.8757C138.784 46.7812 138.628 46.7025 138.464 46.6408Z" fill="#455A64"/>
<path d="M122.603 60.9291C122.503 60.521 122.263 60.1611 121.924 59.9121C121.586 59.6632 121.171 59.5411 120.751 59.5672C120.445 59.6048 120.153 59.718 119.901 59.8966C119.649 60.0753 119.446 60.3138 119.31 60.5906C119.176 60.8691 119.1 61.1716 119.086 61.4801C119.071 61.7887 119.119 62.0969 119.226 62.3866L119.258 62.5141C119.544 62.8223 119.918 63.0347 120.329 63.1223C120.74 63.21 121.169 63.1687 121.556 63.0039C121.934 62.8218 122.242 62.5196 122.432 62.1444C122.621 61.7693 122.681 61.342 122.603 60.9291Z" fill="#EB996E"/>
<path d="M118.258 62.5539C118.258 62.3469 119.648 62.4106 120.695 61.2716C121.743 60.1327 121.659 58.6433 121.854 58.6433C121.942 58.6433 122.109 58.9858 122.093 59.615C122.065 60.4281 121.75 61.2051 121.205 61.8092C120.679 62.3903 119.948 62.7444 119.166 62.7969C118.593 62.8207 118.246 62.6495 118.258 62.5539Z" fill="#263238"/>
<path d="M165.074 146.947C165.044 146.951 165.013 146.951 164.983 146.947L164.704 146.975L163.641 147.063C162.717 147.138 161.379 147.226 159.722 147.325C156.413 147.52 151.837 147.724 146.78 147.807C141.722 147.891 137.134 147.843 133.821 147.755C132.164 147.716 130.822 147.668 129.899 147.628L128.831 147.572H129.899L133.825 147.64C137.138 147.688 141.718 147.712 146.776 147.64C151.833 147.568 156.405 147.377 159.714 147.218L163.637 147.023L164.704 146.975H164.979L165.074 146.947Z" fill="white"/>
</g>
<defs>
<clipPath id="clip0_109_8814">
<rect width="176.549" height="150" fill="white" transform="translate(0.451172)"/>
</clipPath>
</defs>
</svg>
