<svg width="474" height="479" viewBox="0 0 474 479" fill="none" xmlns="http://www.w3.org/2000/svg">
<path d="M371.799 100.298H172.916C164.879 100.298 158.364 106.814 158.364 114.851V425.082C158.364 433.119 164.879 439.634 172.916 439.634H371.799C379.836 439.634 386.351 433.119 386.351 425.082V114.851C386.351 106.814 379.836 100.298 371.799 100.298Z" stroke="black" stroke-width="1.4267" stroke-linecap="round" stroke-linejoin="round"/>
<path d="M158.364 164.309H263.278" stroke="black" stroke-width="1.4267" stroke-linecap="round" stroke-linejoin="round"/>
<path d="M158.364 267.793H263.278" stroke="black" stroke-width="1.4267" stroke-linecap="round" stroke-linejoin="round"/>
<path d="M274.144 100.298V439.663" stroke="black" stroke-width="1.4267" stroke-linecap="round" stroke-linejoin="round"/>
<path d="M219.712 351.113L386.351 351.273" stroke="black" stroke-width="1.4267" stroke-linecap="round" stroke-linejoin="round"/>
<path d="M290.382 382.786H287.321C285.639 382.786 284.276 384.149 284.276 385.83V398.573C284.276 400.255 285.639 401.618 287.321 401.618H290.382C292.064 401.618 293.427 400.255 293.427 398.573V385.83C293.427 384.149 292.064 382.786 290.382 382.786Z" stroke="black" stroke-width="1.4267" stroke-linecap="round" stroke-linejoin="round"/>
<path d="M255.622 382.786H252.561C250.879 382.786 249.516 384.149 249.516 385.83V398.573C249.516 400.255 250.879 401.618 252.561 401.618H255.622C257.304 401.618 258.667 400.255 258.667 398.573V385.83C258.667 384.149 257.304 382.786 255.622 382.786Z" stroke="black" stroke-width="1.4267" stroke-linecap="round" stroke-linejoin="round"/>
<path d="M39.5682 377.313C20.0252 377.313 4.18594 392.382 4.18594 410.983V470.125H10.7174V415.169C10.7174 397.897 23.6319 383.893 39.5682 383.893C55.5044 383.893 68.419 397.897 68.419 415.169V470.125H74.9504V410.972C74.9504 392.382 59.1083 377.313 39.5682 377.313Z" fill="black"/>
<path d="M95.3037 377.313C75.7636 377.313 59.9215 392.382 59.9215 410.983V470.125H66.4529V415.169C66.4529 397.897 79.3703 383.893 95.3037 383.893C111.237 383.893 124.154 397.897 124.154 415.169V470.125H130.686V410.972C130.686 392.382 114.844 377.313 95.3037 377.313Z" fill="black"/>
<path d="M15.3856 366.002H76.6853C85.1825 366.002 92.0708 359.114 92.0708 350.616L92.0708 289.317C92.0708 280.819 85.1825 273.931 76.6853 273.931H15.3856C6.88836 273.931 0 280.819 0 289.317L0 350.616C0 359.114 6.88836 366.002 15.3856 366.002Z" fill="black"/>
<path d="M10.1495 378.177H97.5151C101.441 378.177 104.623 374.995 104.623 371.07V366.926C104.623 363.001 101.441 359.819 97.5151 359.819H10.1495C6.224 359.819 3.04172 363.001 3.04172 366.926V371.07C3.04172 374.995 6.224 378.177 10.1495 378.177Z" fill="black"/>
<path d="M266.808 470.117H277.342V319.971H266.808V470.117Z" fill="#275F7C"/>
<path d="M31.0051 470.117H39.5653L39.5653 319.971H31.0051L31.0051 470.117Z" fill="#275F7C"/>
<path d="M233.788 183.427L249.293 178.861L258.327 170.684L276.971 164.594L293.995 197.409C291.172 199.109 288.213 200.573 285.149 201.786C273.761 206.291 263.244 206.397 256.33 205.78L241.589 210.534C238.989 201.5 236.388 192.465 233.788 183.427Z" fill="#FF9E9F"/>
<path d="M281.631 174.011C280.895 174.233 276.849 175.517 275.068 179.529C274.783 180.202 273.413 183.256 274.672 185.256C276.187 187.67 281.292 188.215 286.861 185.424" stroke="black" stroke-width="1.4267" stroke-linecap="round" stroke-linejoin="round"/>
<path d="M287.093 185.587C286.356 185.807 282.31 187.093 280.53 191.102C280.23 191.779 278.875 194.829 280.133 196.829C281.648 199.243 286.753 199.791 292.323 197" stroke="black" stroke-width="1.4267" stroke-linecap="round" stroke-linejoin="round"/>
<path d="M269.099 146.926L291.803 196.861C293.587 200.781 297.721 202.742 301.037 201.232C304.353 199.723 305.603 195.323 303.811 191.402L281.106 141.468L269.099 146.926Z" fill="#FFECE5" stroke="black" stroke-width="1.4267" stroke-linecap="round" stroke-linejoin="round"/>
<path d="M279.648 170.127L290.91 163.031L303.933 192.706C304.323 194.002 304.391 195.373 304.13 196.701C303.651 198.932 302.059 200.981 299.633 201.403C297.162 201.837 294.457 200.479 292.785 197.962L279.648 170.127Z" fill="#F4E12C"/>
<path d="M269.099 146.926L291.803 196.861C293.587 200.781 297.721 202.742 301.037 201.232C304.353 199.723 305.603 195.323 303.811 191.402L281.106 141.468L269.099 146.926Z" stroke="black" stroke-width="1.4267" stroke-linecap="round" stroke-linejoin="round"/>
<path d="M249.293 178.861C250.299 175.761 251.845 172.864 253.859 170.301C256.47 167.003 258.265 166.349 267.458 160.314C275.827 154.821 278.136 152.873 279.634 153.848C281.734 155.215 280.13 160.956 280.013 161.361C277.348 170.612 266.688 174.675 263.655 175.723" fill="#FF9E9F"/>
<path d="M279.634 153.848C281.734 155.215 280.13 160.956 280.013 161.361C277.348 170.612 266.688 174.675 263.655 175.722" stroke="black" stroke-width="1.4267" stroke-linecap="round" stroke-linejoin="round"/>
<path d="M294.48 159.31C297.373 157.261 298.39 153.723 296.75 151.408C295.111 149.093 291.436 148.878 288.542 150.928C285.649 152.977 284.632 156.515 286.272 158.83C287.912 161.145 291.586 161.36 294.48 159.31Z" fill="#FF9E9F"/>
<path d="M184.196 467.894C183.463 466.336 182.488 464.903 181.308 463.648C176.68 458.866 169.609 458.421 158.681 452.032C153.984 449.29 147.861 444.899 141.617 437.717C141.069 437.078 140.299 436.67 139.463 436.575L105.057 432.72C104.585 432.667 104.107 432.715 103.655 432.86C103.204 433.006 102.788 433.245 102.435 433.563C102.083 433.881 101.802 434.27 101.611 434.705C101.42 435.14 101.323 435.61 101.327 436.084C101.413 445.238 101.461 453.008 101.675 473.324C101.695 475.145 101.675 476.614 101.644 477.462H119.367V471.638H141.72V477.45L186.136 477.422C186.3 474.133 185.632 470.857 184.196 467.894V467.894Z" fill="black"/>
<path d="M250.649 467.894C249.916 466.336 248.941 464.903 247.761 463.648C243.13 458.866 236.062 458.421 225.131 452.032C220.437 449.29 214.314 444.899 208.07 437.717C207.521 437.079 206.752 436.671 205.916 436.575L171.51 432.72C171.038 432.667 170.561 432.714 170.109 432.859C169.658 433.004 169.242 433.243 168.889 433.56C168.537 433.878 168.256 434.266 168.064 434.7C167.873 435.135 167.776 435.604 167.78 436.079C167.866 445.232 167.914 453.002 168.128 473.318C168.148 475.139 168.128 476.608 168.097 477.456H185.819V471.632H208.17V477.444L252.589 477.416C252.752 474.129 252.084 470.855 250.649 467.894V467.894Z" fill="black"/>
<path d="M222.186 391.494V433.725C214.893 436.921 207.109 438.851 199.168 439.431C183.143 440.573 170.634 435.868 164.356 432.963C141.928 441.519 117.195 441.857 94.5419 433.916V391.303L167.21 344.698L222.186 391.494Z" fill="#0EBDFF"/>
<path d="M104.577 436.858C124.442 441.6 145.275 440.243 164.356 432.963V359.818" stroke="black" stroke-width="1.4267" stroke-linecap="round" stroke-linejoin="round"/>
<path d="M158.681 452.032C162.392 454.127 166.234 455.981 170.183 457.582C173.607 458.96 176.583 459.93 179.884 462.664C181.475 463.952 182.823 465.513 183.865 467.275C186.282 471.381 186.267 475.487 186.128 477.405" stroke="white" stroke-width="1.4267" stroke-linecap="round" stroke-linejoin="round"/>
<path d="M106.107 197.055C123.045 196.869 136.895 195.531 151.136 202.071C151.593 202.279 151.967 202.459 152.212 202.576L233.6 179.814L247.296 226.99L170.306 249.686C172.508 271.16 174.71 292.636 176.911 314.113C180.147 314.207 184.57 314.803 189.751 315.973C194.032 316.94 200.686 319.021 207.157 323.963C220.511 334.164 224.021 349.643 227.131 363.34C229.636 374.473 230.501 385.912 229.699 397.295H177.99C176.008 384.695 172.516 372.38 167.589 360.615C166.476 367.269 165.064 374.311 163.278 381.664C161.951 387.14 160.518 392.353 159.029 397.295H87.8849V367.334C82.5633 365.554 72.896 361.468 64.487 352.211C49.401 335.61 49.9831 315.174 50.2199 310.649C45.5518 304.52 38.9005 294.013 36.2383 279.735C30.7084 250.085 44.2963 214.677 70.4791 202.122C73.4467 200.698 84.2011 197.294 106.107 197.055Z" fill="white"/>
<path d="M164.736 215.576C166.33 224.507 167.789 233.765 169.113 243.348C171.073 257.695 172.494 271.48 173.487 284.628" stroke="black" stroke-width="1.4267" stroke-linecap="round" stroke-linejoin="round"/>
<path d="M146.865 279.875C151.302 279.096 165.743 277.13 181.16 285.199C196.474 293.214 203.094 306.075 205 310.172H146.286L146.865 279.875Z" fill="#FF9E9F"/>
<path d="M76.1859 233.892C77.0742 239.544 77.8989 245.346 78.6598 251.298C79.2609 256.036 79.7992 260.697 80.2748 265.28L146.157 265.245C146.773 273.971 147.087 283.327 146.95 293.243C146.87 299.104 146.636 304.751 146.285 310.172" stroke="black" stroke-width="1.4267" stroke-linecap="round" stroke-linejoin="round"/>
<path d="M89.7881 200.125L76.0918 215.63L96.1598 217.245C94.5105 222.191 92.8622 227.137 91.2148 232.083C108.237 238.66 122.878 250.221 133.223 265.254" stroke="black" stroke-width="1.4267" stroke-linecap="round" stroke-linejoin="round"/>
<path d="M132.461 202.345L145.144 211.867L138.929 214.403L153.767 227.592C154.595 243.067 152.158 258.543 146.614 273.015" stroke="black" stroke-width="1.4267" stroke-linecap="round" stroke-linejoin="round"/>
<path d="M159.029 397.295C160.721 391.606 162.339 385.616 163.834 379.336C166.199 369.4 167.974 359.933 169.301 351.07" stroke="black" stroke-width="1.4267" stroke-linecap="round" stroke-linejoin="round"/>
<path d="M122.888 203.994C113.543 198.324 104.806 196.829 101.105 200.453C100.337 201.226 99.7808 202.183 99.4897 203.232V203.232C116.721 216.877 130.189 234.69 138.621 254.987C139.883 244.157 138.464 233.182 134.49 223.029C131.734 216.07 127.811 209.632 122.888 203.994V203.994Z" fill="#0EBDFF"/>
<path d="M126.446 208.491L124.694 193.859C125.831 193.733 126.95 193.475 128.027 193.088C129.438 192.572 130.763 191.845 131.956 190.931C134.13 189.174 135.114 186.757 135.822 184.474C137.936 177.652 139.309 166.398 136.772 156.051C136.048 153.092 134.949 149.991 132.178 147.899C131.521 147.405 130.808 146.991 130.053 146.666L99.9947 147.428L84.1441 167.082C81.79 172.961 83.5734 179.306 87.9477 182.303C92.3219 185.299 97.5037 183.729 98.2199 183.487C98.6422 190.067 99.0655 196.647 99.4897 203.227L107.288 209.184C108.977 209.379 110.775 209.515 112.667 209.573C117.285 209.71 121.905 209.348 126.446 208.491V208.491Z" fill="#FF9E9F"/>
<path d="M142.416 265.248C137.496 249.988 129.812 235.762 119.749 223.28C113.754 215.873 106.96 209.149 99.4897 203.232" stroke="black" stroke-width="1.4267" stroke-linecap="round" stroke-linejoin="round"/>
<path d="M89.5684 171.682L96.2825 172.629L91.6285 177.543" stroke="black" stroke-width="1.4267" stroke-linecap="round" stroke-linejoin="round"/>
<path d="M125.042 164.235C124.785 165.449 124.764 166.702 124.979 167.924C125.621 171.539 128.178 173.657 128.974 174.267C127.425 175.635 125.612 176.67 123.647 177.309" stroke="black" stroke-width="1.4267" stroke-linecap="round" stroke-linejoin="round"/>
<path d="M127.168 182.862C126.076 183.735 124.785 184.323 123.41 184.574C121.356 184.915 119.248 184.51 117.466 183.432" stroke="black" stroke-width="1.4267" stroke-linecap="round" stroke-linejoin="round"/>
<path d="M113.28 172.347C117.193 172.347 120.365 169.175 120.365 165.262C120.365 161.349 117.193 158.177 113.28 158.177C109.367 158.177 106.195 161.349 106.195 165.262C106.195 169.175 109.367 172.347 113.28 172.347Z" stroke="black" stroke-width="1.4267" stroke-linecap="round" stroke-linejoin="round"/>
<path d="M133.223 172.347C137.136 172.347 140.308 169.175 140.308 165.262C140.308 161.349 137.136 158.177 133.223 158.177C129.31 158.177 126.138 161.349 126.138 165.262C126.138 169.175 129.31 172.347 133.223 172.347Z" stroke="black" stroke-width="1.4267" stroke-linecap="round" stroke-linejoin="round"/>
<path d="M120.319 164.443C121.381 163.878 122.573 163.602 123.775 163.644C124.617 163.68 125.444 163.873 126.215 164.215" stroke="black" stroke-width="1.4267" stroke-linecap="round" stroke-linejoin="round"/>
<path d="M97.4609 165.356C97.0557 165 94.3222 162.671 90.4843 163.199C85.8361 163.841 83.833 168.067 83.7075 168.335C81.8165 164.762 80.8752 160.763 80.9739 156.722C81.2878 146.735 88.2216 140.372 90.1619 138.745C101.339 129.312 117.483 132.585 125.073 137.299C127.975 139.122 130.486 141.503 132.461 144.304C134.082 146.814 135.172 149.631 135.662 152.579C132.725 152.879 129.735 153.144 126.691 153.372C115.931 154.167 105.135 154.358 94.3536 153.943L99.8064 165.231L97.4609 165.356Z" fill="black"/>
<path d="M167.589 290.652C171.112 291.972 174.44 293.764 177.482 295.979C182.593 299.729 186.797 304.58 189.783 310.172" stroke="black" stroke-width="1.4267" stroke-linecap="round" stroke-linejoin="round"/>
<path d="M294.685 275.449L307.877 273.928L307.449 301.321C307.252 302.482 306.742 303.568 305.973 304.46C305.208 305.361 304.201 306.025 303.071 306.372C301.941 306.72 300.735 306.738 299.596 306.423C298.456 306.108 297.43 305.474 296.639 304.595C295.848 303.716 295.324 302.63 295.131 301.464L294.685 275.449Z" fill="#F16D55"/>
<path d="M294.685 253.906V300.271C294.721 301.996 295.432 303.639 296.665 304.847C297.898 306.054 299.555 306.731 301.281 306.731C303.007 306.731 304.664 306.054 305.897 304.847C307.13 303.639 307.841 301.996 307.877 300.271V253.906H294.685Z" stroke="black" stroke-width="1.4267" stroke-linecap="round" stroke-linejoin="round"/>
<path d="M316.186 265.254H279.186C276.849 265.254 274.954 267.251 274.954 269.691V310.172H280.789V274.545C280.789 272.487 282.196 270.818 283.928 270.818H311.432C313.17 270.818 314.571 272.487 314.571 274.545V310.172H320.403V269.691C320.417 267.24 318.523 265.254 316.186 265.254Z" fill="#275F7C"/>
<path d="M270.217 253.906V300.271C270.253 301.996 270.964 303.639 272.197 304.847C273.43 306.054 275.087 306.731 276.813 306.731C278.539 306.731 280.196 306.054 281.429 304.847C282.662 303.639 283.373 301.996 283.409 300.271V253.906H270.217Z" fill="#FFECE5" stroke="black" stroke-width="1.4267" stroke-linecap="round" stroke-linejoin="round"/>
<path d="M270.217 275.449L283.409 273.928L282.981 301.321C282.784 302.482 282.274 303.568 281.506 304.46C280.74 305.361 279.733 306.025 278.603 306.372C277.473 306.72 276.267 306.738 275.128 306.423C273.988 306.108 272.962 305.474 272.171 304.595C271.38 303.716 270.857 302.63 270.663 301.464L270.217 275.449Z" fill="#0EBDFF"/>
<path d="M270.217 253.906V300.271C270.253 301.996 270.964 303.639 272.197 304.847C273.43 306.054 275.087 306.731 276.813 306.731C278.539 306.731 280.196 306.054 281.429 304.847C282.662 303.639 283.373 301.996 283.409 300.271V253.906H270.217Z" stroke="black" stroke-width="1.4267" stroke-linecap="round" stroke-linejoin="round"/>
<path d="M295.327 265.254H258.324C255.988 265.254 254.093 267.251 254.093 269.691V310.172H259.925V274.545C259.925 272.487 261.335 270.818 263.064 270.818H290.568C292.306 270.818 293.707 272.487 293.707 274.545V310.172H299.542V269.691C299.556 267.24 297.662 265.254 295.327 265.254Z" fill="#275F7C"/>
<path d="M245.772 275.449L258.964 273.928L258.536 301.321C258.339 302.482 257.829 303.568 257.06 304.46C256.295 305.361 255.288 306.025 254.158 306.372C253.028 306.72 251.822 306.738 250.683 306.423C249.543 306.108 248.517 305.474 247.726 304.595C246.935 303.716 246.411 302.63 246.217 301.464L245.772 275.449Z" fill="#F4E12C"/>
<path d="M245.772 253.906V300.271C245.808 301.996 246.519 303.639 247.752 304.847C248.985 306.054 250.642 306.731 252.368 306.731C254.094 306.731 255.751 306.054 256.984 304.847C258.217 303.639 258.928 301.996 258.964 300.271V253.906H245.772Z" stroke="black" stroke-width="1.4267" stroke-linecap="round" stroke-linejoin="round"/>
<path d="M270.723 265.254H233.722C231.385 265.254 229.491 267.251 229.491 269.691V310.172H235.323V274.545C235.323 272.487 236.733 270.818 238.462 270.818H265.966C267.704 270.818 269.105 272.487 269.105 274.545V310.172H274.94V269.691C274.954 267.24 273.071 265.254 270.723 265.254Z" fill="#275F7C"/>
<path d="M331.414 478.375H341.949V319.968H331.414V478.375Z" fill="#275F7C"/>
<path d="M83.5077 478.375H92.068L92.068 319.968H83.5077L83.5077 478.375Z" fill="#275F7C"/>
<path d="M17.2317 323.012L351.714 323.012C352.721 323.012 353.537 322.196 353.537 321.189V311.995C353.537 310.988 352.721 310.172 351.714 310.172L17.2317 310.172C16.2247 310.172 15.4084 310.988 15.4084 311.995V321.189C15.4084 322.196 16.2247 323.012 17.2317 323.012Z" fill="#0EBDFF"/>
<path d="M17.2317 323.012H108.952C109.959 323.012 110.775 322.196 110.775 321.189V311.995C110.775 310.988 109.959 310.172 108.952 310.172H17.2317C16.2247 310.172 15.4084 310.988 15.4084 311.995V321.189C15.4084 322.196 16.2247 323.012 17.2317 323.012Z" fill="#275F7C"/>
<path d="M179.79 81.9312L205.4 81.7914C207.612 85.8756 209.825 89.9578 212.039 94.0382C212.794 94.6793 213.271 95.5872 213.372 96.572C213.425 97.0003 213.391 97.435 213.271 97.8496C213.151 98.2641 212.947 98.6499 212.673 98.9831C212.134 99.5798 211.384 99.9432 210.581 99.9961L174.249 99.8706C173.807 99.7618 173.397 99.5519 173.051 99.2575C172.705 98.9631 172.431 98.5922 172.253 98.174C172.074 97.7559 171.996 97.302 172.023 96.8482C172.05 96.3944 172.182 95.9531 172.408 95.5591C174.872 91.0164 177.333 86.4738 179.79 81.9312Z" fill="#F4E12C"/>
<path d="M213.312 95.499L204.358 79.9908L197.439 68.0065V58.068H198.295C198.477 58.068 198.657 58.0322 198.825 57.9624C198.993 57.8927 199.146 57.7905 199.274 57.6617C199.403 57.5329 199.505 57.38 199.574 57.2118C199.643 57.0435 199.679 56.8633 199.678 56.6813V53.2486C199.678 52.8816 199.533 52.5296 199.273 52.2701C199.014 52.0105 198.662 51.8647 198.295 51.8647H186.978C186.611 51.8647 186.258 52.0105 185.998 52.2699C185.738 52.5294 185.592 52.8813 185.591 53.2486V56.6927C185.591 57.0605 185.737 57.4132 185.997 57.6733C186.257 57.9334 186.61 58.0795 186.978 58.0795H187.834V68.0036L180.914 79.9879L171.96 95.4962C171.68 95.9827 171.532 96.5346 171.532 97.0964C171.531 97.6583 171.679 98.2102 171.96 98.6968C172.241 99.1835 172.645 99.5877 173.131 99.8688C173.617 100.15 174.169 100.298 174.731 100.298H210.541C211.103 100.299 211.655 100.151 212.142 99.8702C212.628 99.5894 213.032 99.1855 213.313 98.699C213.594 98.2125 213.742 97.6606 213.741 97.0989C213.741 96.5371 213.593 95.9854 213.312 95.499V95.499Z" stroke="black" stroke-width="1.4267" stroke-linecap="round" stroke-linejoin="round"/>
<path d="M224.052 81.9312L249.659 81.7914L256.299 94.0382C257.054 94.6784 257.532 95.5867 257.631 96.572C257.685 97.0003 257.65 97.435 257.53 97.8496C257.41 98.2641 257.206 98.6499 256.932 98.9831C256.393 99.5798 255.643 99.9432 254.84 99.9961L218.508 99.8706C218.067 99.7618 217.657 99.5519 217.31 99.2575C216.964 98.9631 216.691 98.5922 216.512 98.174C216.334 97.7559 216.255 97.302 216.282 96.8482C216.309 96.3944 216.441 95.9531 216.668 95.5591L224.052 81.9312Z" fill="#F16D55"/>
<path d="M257.571 95.499L248.62 79.9908L241.698 68.0065V58.068H242.554C242.736 58.068 242.916 58.0322 243.084 57.9624C243.252 57.8927 243.405 57.7905 243.533 57.6617C243.662 57.5329 243.764 57.38 243.833 57.2118C243.902 57.0435 243.938 56.8633 243.938 56.6813V53.2486C243.938 52.8816 243.792 52.5296 243.532 52.2701C243.273 52.0105 242.921 51.8647 242.554 51.8647H231.237C230.87 51.8647 230.517 52.0105 230.257 52.2699C229.998 52.5294 229.851 52.8813 229.85 53.2486V56.6927C229.85 57.0605 229.996 57.4132 230.257 57.6733C230.517 57.9334 230.869 58.0795 231.237 58.0795H232.093V68.0036L225.174 79.9879L216.22 95.4962C215.939 95.9827 215.791 96.5346 215.791 97.0964C215.791 97.6583 215.938 98.2102 216.219 98.6968C216.5 99.1835 216.904 99.5877 217.39 99.8688C217.877 100.15 218.428 100.298 218.99 100.298H254.809C255.37 100.297 255.921 100.148 256.406 99.867C256.892 99.5856 257.294 99.1815 257.574 98.6953C257.854 98.209 258.001 97.6578 258.001 97.0967C258 96.5357 257.852 95.9847 257.571 95.499V95.499Z" stroke="black" stroke-width="1.4267" stroke-linecap="round" stroke-linejoin="round"/>
<path d="M312.839 35.823H298.814V56.1592H312.839V35.823Z" fill="#FFECE5" stroke="black" stroke-width="1.4267" stroke-linecap="round" stroke-linejoin="round"/>
<path d="M311.021 1H300.632V35.997H311.021V1Z" fill="#FFECE5" stroke="black" stroke-width="1.4267" stroke-linecap="round" stroke-linejoin="round"/>
<path d="M336.776 85.1754H312.399C318.998 84.1557 324.969 80.6833 329.119 75.4524C333.269 70.2214 335.293 63.6171 334.785 56.9592C334.277 50.3013 331.275 44.0803 326.38 39.5392C321.485 34.9982 315.056 32.4716 308.379 32.4645V39.7407C313.439 39.8023 318.27 41.8555 321.826 45.4552C325.382 49.0549 327.377 53.9111 327.377 58.9712C327.377 64.0312 325.382 68.8874 321.826 72.4872C318.27 76.0869 313.439 78.1401 308.379 78.2017V85.1754H279.985C279.146 85.1754 278.342 85.5085 277.749 86.1014C277.156 86.6943 276.823 87.4985 276.823 88.337V96.8259C276.823 97.6644 277.156 98.4685 277.749 99.0615C278.342 99.6544 279.146 99.9875 279.985 99.9875H336.767C337.182 99.9875 337.593 99.9057 337.977 99.7467C338.36 99.5878 338.709 99.3549 339.002 99.0613C339.295 98.7677 339.528 98.4191 339.687 98.0355C339.845 97.652 339.927 97.2409 339.926 96.8259V88.3456C339.928 87.9305 339.847 87.5192 339.69 87.1352C339.532 86.7513 339.301 86.4021 339.008 86.1077C338.716 85.8132 338.368 85.5794 337.985 85.4194C337.602 85.2595 337.191 85.1766 336.776 85.1754V85.1754Z" fill="#FFECE5" stroke="black" stroke-width="1.4267" stroke-linecap="round" stroke-linejoin="round"/>
<path d="M305.825 43.707C310.176 43.707 313.703 40.1772 313.703 35.823C313.703 31.4689 310.176 27.9391 305.825 27.9391C301.474 27.9391 297.947 31.4689 297.947 35.823C297.947 40.1772 301.474 43.707 305.825 43.707Z" fill="#FFECE5" stroke="black" stroke-width="1.4267" stroke-linecap="round" stroke-linejoin="round"/>
<path d="M305.825 91.4073C310.176 91.4073 313.703 87.8776 313.703 83.5234C313.703 79.1692 310.176 75.6394 305.825 75.6394C301.474 75.6394 297.947 79.1692 297.947 83.5234C297.947 87.8776 301.474 91.4073 305.825 91.4073Z" fill="#FFECE5" stroke="black" stroke-width="1.4267" stroke-linecap="round" stroke-linejoin="round"/>
<path d="M329.514 61.4636H291.056C290.583 61.4636 290.2 61.8469 290.2 62.3196V63.4667C290.2 63.9395 290.583 64.3227 291.056 64.3227H329.514C329.987 64.3227 330.37 63.9395 330.37 63.4667V62.3196C330.37 61.8469 329.987 61.4636 329.514 61.4636Z" fill="#FFECE5" stroke="black" stroke-width="1.4267" stroke-linecap="round" stroke-linejoin="round"/>
<path d="M447.953 421.472C434.419 421.472 423.448 429.604 423.448 439.634H472.458C472.458 429.604 461.487 421.472 447.953 421.472Z" fill="#FFECE5" stroke="black" stroke-width="1.4267" stroke-linecap="round" stroke-linejoin="round"/>
<path d="M450.541 234.163H445.365V421.472H450.541V234.163Z" fill="#FFECE5" stroke="black" stroke-width="1.4267" stroke-linecap="round" stroke-linejoin="round"/>
<path d="M403.9 186.866L400.24 190.526L446.88 237.167L450.54 233.506L403.9 186.866Z" fill="#FFECE5" stroke="black" stroke-width="1.4267" stroke-linecap="round" stroke-linejoin="round"/>
<path d="M387.578 222.567L393.587 200.139L394.615 196.301L418.178 172.741C418.644 172.274 418.905 171.642 418.905 170.983C418.905 170.324 418.644 169.692 418.178 169.225L403.526 154.573C403.295 154.342 403.021 154.159 402.72 154.033C402.418 153.908 402.095 153.844 401.768 153.844C401.441 153.844 401.118 153.908 400.817 154.033C400.515 154.159 400.241 154.342 400.01 154.573L376.447 178.134L372.609 179.164L350.181 185.173C349.548 185.339 348.97 185.669 348.505 186.131C348.041 186.592 347.707 187.169 347.537 187.801C347.368 188.434 347.369 189.1 347.54 189.731C347.711 190.363 348.047 190.939 348.512 191.399L364.931 207.818L381.349 224.236C381.811 224.698 382.387 225.03 383.018 225.199C383.649 225.368 384.314 225.368 384.945 225.199C385.577 225.03 386.152 224.698 386.614 224.236C387.076 223.774 387.409 223.198 387.578 222.567V222.567Z" fill="#FFECE5" stroke="black" stroke-width="1.4267" stroke-linecap="round" stroke-linejoin="round"/>
<path d="M402.484 193.462C405.084 193.462 407.192 191.354 407.192 188.754C407.192 186.154 405.084 184.046 402.484 184.046C399.884 184.046 397.776 186.154 397.776 188.754C397.776 191.354 399.884 193.462 402.484 193.462Z" fill="#FFECE5" stroke="black" stroke-width="1.4267" stroke-linecap="round" stroke-linejoin="round"/>
<path d="M447.953 239.856C450.553 239.856 452.661 237.748 452.661 235.147C452.661 232.547 450.553 230.439 447.953 230.439C445.353 230.439 443.245 232.547 443.245 235.147C443.245 237.748 445.353 239.856 447.953 239.856Z" fill="#FFECE5" stroke="black" stroke-width="1.4267" stroke-linecap="round" stroke-linejoin="round"/>
<path d="M376.447 178.134L391.228 192.914Z" fill="#FFECE5"/>
<path d="M376.447 178.134L391.228 192.914" stroke="black" stroke-width="1.4267" stroke-linecap="round" stroke-linejoin="round"/>
<path d="M179.987 110.868H168.539C167.209 110.868 166.131 111.946 166.131 113.276V161.849C166.131 163.179 167.209 164.258 168.539 164.258H179.987C181.317 164.258 182.395 163.179 182.395 161.849V113.276C182.395 111.946 181.317 110.868 179.987 110.868Z" stroke="black" stroke-width="1.4267" stroke-linecap="round" stroke-linejoin="round"/>
<path d="M174.263 123.245C176.124 123.245 177.633 121.737 177.633 119.876C177.633 118.014 176.124 116.506 174.263 116.506C172.402 116.506 170.893 118.014 170.893 119.876C170.893 121.737 172.402 123.245 174.263 123.245Z" stroke="black" stroke-width="1.4267" stroke-linecap="round" stroke-linejoin="round"/>
<path d="M196.252 110.868H184.804C183.474 110.868 182.395 111.946 182.395 113.276V161.849C182.395 163.179 183.474 164.258 184.804 164.258H196.252C197.582 164.258 198.66 163.179 198.66 161.849V113.276C198.66 111.946 197.582 110.868 196.252 110.868Z" stroke="black" stroke-width="1.4267" stroke-linecap="round" stroke-linejoin="round"/>
<path d="M190.528 123.245C192.389 123.245 193.897 121.737 193.897 119.876C193.897 118.014 192.389 116.506 190.528 116.506C188.666 116.506 187.158 118.014 187.158 119.876C187.158 121.737 188.666 123.245 190.528 123.245Z" stroke="black" stroke-width="1.4267" stroke-linecap="round" stroke-linejoin="round"/>
<path d="M214.436 109.919L203.102 111.865C201.786 112.091 200.902 113.342 201.128 114.658L209.385 162.746C209.611 164.063 210.862 164.947 212.179 164.721L223.512 162.775C224.829 162.549 225.713 161.298 225.487 159.981L217.229 111.894C217.003 110.577 215.753 109.693 214.436 109.919Z" stroke="black" stroke-width="1.43311" stroke-linecap="round" stroke-linejoin="round"/>
<path d="M208.983 122.88C210.845 122.88 212.353 121.372 212.353 119.51C212.353 117.649 210.845 116.141 208.983 116.141C207.122 116.141 205.614 117.649 205.614 119.51C205.614 121.372 207.122 122.88 208.983 122.88Z" stroke="black" stroke-width="1.4267" stroke-linecap="round" stroke-linejoin="round"/>
</svg>
