<svg width="238" height="156" viewBox="0 0 238 156" fill="none" xmlns="http://www.w3.org/2000/svg">
<path d="M160.175 155.137C202.745 155.137 237.255 120.627 237.255 78.0578C237.255 35.4882 202.745 0.97876 160.175 0.97876C117.606 0.97876 83.0964 35.4882 83.0964 78.0578C83.0964 120.627 117.606 155.137 160.175 155.137Z" stroke="black" stroke-width="1.4267" stroke-linecap="round" stroke-linejoin="round"/>
<path d="M20.2043 102.66C22.3069 105.428 24.9627 107.728 28.0027 109.414C35.5756 113.583 43.0658 112.456 45.5055 111.982C47.6589 102.851 49.8141 93.7201 51.9713 84.5892L37.8955 71.1782C31.9984 81.6711 26.1014 92.165 20.2043 102.66Z" fill="#FF9E9F"/>
<path d="M52.2251 79.9582L92.8063 92.0081C95.9614 87.0877 99.8663 82.6908 104.38 78.9766C137.853 51.5839 192.598 74.1515 198.542 76.6939C203.184 78.661 207.363 81.5767 210.812 85.2541C211.756 86.2699 214.878 89.7397 218.168 97.1442C221.509 104.743 223.515 112.861 224.097 121.141C221.679 124.512 219.02 127.702 216.139 130.686C211.477 135.554 206.239 139.834 200.539 143.432C193.538 147.71 185.896 150.835 177.903 152.689C153.792 158.304 134.098 150.472 129.204 148.377C122.734 145.601 116.669 141.964 111.174 137.563C106.228 136.802 101.141 135.884 95.9136 134.809C77.4387 130.93 59.403 125.194 42.0813 117.689L52.2251 79.9582Z" fill="white"/>
<path d="M226.474 117.392C219.5 129.151 209.522 138.843 197.565 145.473C185.608 152.103 172.103 155.432 158.435 155.12C133.453 154.535 116.49 141.88 111.174 137.563" stroke="black" stroke-width="1.4267" stroke-linecap="round" stroke-linejoin="round"/>
<path d="M197.877 98.7278L187.246 150.215" stroke="black" stroke-width="1.4267" stroke-linecap="round" stroke-linejoin="round"/>
<path d="M117.411 90.8667C115.332 106.431 113.253 121.996 111.174 137.563" stroke="black" stroke-width="1.4267" stroke-linecap="round" stroke-linejoin="round"/>
<path d="M163.351 14.6323C158.691 18.7227 154.723 23.5408 151.603 28.8994C150.651 27.0725 150.271 25.0017 150.511 22.9557C150.666 21.7207 151.053 20.5261 151.652 19.4346L163.351 14.6323Z" fill="black"/>
<path d="M152.317 105.99C150.512 96.1911 148.705 86.3944 146.896 76.5996L169.246 82.3064L152.317 105.99Z" fill="#0EBDFF"/>
<path d="M151.747 57.4819C150.128 63.8526 148.511 70.2252 146.896 76.5997C153.565 80.6126 161.212 82.7087 168.995 82.6575L175.239 72.6991C175.906 67.2453 176.572 61.7924 177.236 56.3405C179.275 56.6681 181.362 56.5047 183.325 55.864C183.796 55.7071 189.54 53.6868 191.503 47.6833C191.9 46.4706 193.597 41.2831 190.268 37.2227C187.194 33.4733 182.278 33.6702 181.707 33.7016L161.733 15.0603C158.129 17.5906 155.113 20.8674 152.888 24.6677C150.46 28.8622 149.872 33.6131 148.702 43.1178C148.146 47.6547 147.966 51.4384 150.034 55.1021C150.517 55.9549 151.091 56.7529 151.747 57.4819V57.4819Z" fill="#FF9E9F"/>
<path d="M152.411 32.1807C154.337 31.5314 156.431 31.5859 158.321 32.3345C160.21 33.0831 161.773 34.4775 162.732 36.2697C160.969 39.1723 158.697 41.7337 156.026 43.8312L159.022 46.8758" stroke="black" stroke-width="1.4267" stroke-linecap="round" stroke-linejoin="round"/>
<path d="M167.377 36.7148C167.757 36.5778 170.516 35.6219 173.21 37.2227C174.63 38.089 175.689 39.44 176.192 41.0263" stroke="black" stroke-width="1.4267" stroke-linecap="round" stroke-linejoin="round"/>
<path d="M154.506 50.4739C155.044 51.4756 155.802 52.3427 156.723 53.0106C159.416 54.9395 162.507 54.3488 163.129 54.2147" stroke="black" stroke-width="1.4267" stroke-linecap="round" stroke-linejoin="round"/>
<path d="M186.147 42.801L181.199 45.3377L185.131 49.0157" stroke="black" stroke-width="1.4267" stroke-linecap="round" stroke-linejoin="round"/>
<path d="M160.615 15.8934C161.67 19.0094 164.535 26.0059 171.626 31.5158C174.941 34.083 178.719 35.9876 182.754 37.1256C185.335 36.4525 188.062 36.6122 190.547 37.5822C191.686 35.3468 192.306 32.8829 192.359 30.3745C192.49 21.0467 184.15 15.0888 182.563 14.013C181.727 13.4424 172.074 7.13063 161.448 11.445C156.026 13.6421 152.95 17.5484 151.652 19.4345L158.689 16.5811L160.615 15.8934Z" fill="black"/>
<path d="M176.126 71.2723C172.337 77.2226 168.372 83.2376 164.233 89.3173C154.976 102.902 145.637 115.569 136.369 127.39L129.322 148.6" stroke="black" stroke-width="1.4267" stroke-linecap="round" stroke-linejoin="round"/>
<path d="M136.37 127.39L174.765 101.613L172.385 88.584L181.613 93.8143L182.914 71.1782" stroke="black" stroke-width="1.4267" stroke-linecap="round" stroke-linejoin="round"/>
<path d="M141.292 65.6996L133.77 86.7748L144.707 86.2042L134.911 94.2907L145.911 114.952" stroke="black" stroke-width="1.4267" stroke-linecap="round" stroke-linejoin="round"/>
<path d="M34.2547 58.2408H16.8518C12.5701 58.2408 9.09912 61.7119 9.09912 65.9936V97.5693C9.09912 101.851 12.5701 105.322 16.8518 105.322H34.2547C38.5364 105.322 42.0075 101.851 42.0075 97.5693V65.9936C42.0075 61.7119 38.5364 58.2408 34.2547 58.2408Z" fill="#F4E12C"/>
<path d="M34.8481 51.2129H16.2611C15.2084 51.2129 14.355 52.0663 14.355 53.119V56.6201C14.355 57.6728 15.2084 58.5262 16.2611 58.5262H34.8481C35.9008 58.5262 36.7542 57.6728 36.7542 56.6201V53.119C36.7542 52.0663 35.9008 51.2129 34.8481 51.2129Z" fill="#DD3354"/>
<path d="M8.50561 70.2595L30.1002 70.1938L30.2257 95.3666L8.28589 95.495C8.35817 87.0832 8.43142 78.6713 8.50561 70.2595Z" fill="#DD3354"/>
<path d="M35.1052 62.267C33.61 62.267 32.3146 64.9463 31.8723 66.7069C30.1603 73.498 37.659 80.4318 39.0372 81.6701C38.0638 83.8496 37.5249 86.1981 37.4507 88.5839C37.2766 94.8158 40.4211 99.2871 41.5739 100.774L50.3881 83.3194C49.7423 80.7084 48.6244 78.2376 47.0895 76.029C44.2732 72.0342 42.2387 72.174 39.1627 67.7855C36.86 64.504 36.4691 62.2613 35.1052 62.267Z" fill="#FF9E9F"/>
<path d="M13.0584 72.7706C13.5923 70.3338 11.4258 67.7887 8.21935 67.0861C5.01285 66.3834 1.98059 67.7893 1.4466 70.2261C0.912615 72.6629 3.07911 75.2079 6.28561 75.9106C9.49211 76.6132 12.5244 75.2074 13.0584 72.7706Z" fill="#FF9E9F"/>
<path d="M6.699 86.4411C9.98158 86.4411 12.6426 84.4188 12.6426 81.9242C12.6426 79.4295 9.98158 77.4072 6.699 77.4072C3.41642 77.4072 0.755371 79.4295 0.755371 81.9242C0.755371 84.4188 3.41642 86.4411 6.699 86.4411Z" fill="#FF9E9F"/>
<path d="M9.85258 97.5027C13.0039 96.5507 14.972 93.8376 14.2486 91.4428C13.5251 89.0479 10.384 87.8782 7.23276 88.8302C4.08148 89.7821 2.11332 92.4952 2.83677 94.8901C3.56021 97.2849 6.7013 98.4546 9.85258 97.5027Z" fill="#FF9E9F"/>
</svg>
