<svg width="143" height="253" viewBox="0 0 143 253" fill="none" xmlns="http://www.w3.org/2000/svg">
<path d="M131.983 251.629H129.672C128.58 251.629 127.532 251.196 126.757 250.427C125.982 249.657 125.543 248.613 125.534 247.52C125.523 245.597 125.511 243.675 125.497 241.754C125.489 240.662 125.05 239.617 124.276 238.847C123.501 238.077 122.455 237.644 121.363 237.642L22.1811 237.556C21.0911 237.556 20.0449 237.985 19.2697 238.751C18.4944 239.517 18.0528 240.558 18.0408 241.648C18.0179 243.611 17.9961 245.573 17.9752 247.535C17.9639 248.624 17.5234 249.665 16.7493 250.432C15.9752 251.198 14.93 251.629 13.8406 251.629H11.5578C10.4605 251.629 9.40816 251.193 8.63224 250.418C7.85632 249.642 7.42041 248.589 7.42041 247.492V127.078C7.42041 125.981 7.85632 124.929 8.63224 124.153C9.40816 123.377 10.4605 122.941 11.5578 122.941H131.972C133.069 122.941 134.121 123.377 134.897 124.153C135.673 124.929 136.109 125.981 136.109 127.078V247.492C136.109 248.587 135.675 249.638 134.901 250.414C134.128 251.189 133.078 251.626 131.983 251.629V251.629Z" stroke="black" stroke-width="1.4267" stroke-linecap="round" stroke-linejoin="round"/>
<path d="M116.292 134.925H26.4067C23.4913 134.925 21.1279 137.288 21.1279 140.204V218.958C21.1279 221.873 23.4913 224.237 26.4067 224.237H116.292C119.207 224.237 121.571 221.873 121.571 218.958V140.204C121.571 137.288 119.207 134.925 116.292 134.925Z" stroke="black" stroke-width="1.4267" stroke-linecap="round" stroke-linejoin="round"/>
<path d="M138.118 112.098H4.99477C2.78852 112.098 1 113.886 1 116.093V122.656C1 124.862 2.78852 126.65 4.99477 126.65H138.118C140.324 126.65 142.112 124.862 142.112 122.656V116.093C142.112 113.886 140.324 112.098 138.118 112.098Z" fill="#FFECE5" stroke="black" stroke-width="1.4267" stroke-linecap="round" stroke-linejoin="round"/>
<path d="M65.3528 32.134L72.4606 28.5872C73.1354 28.2599 73.7385 27.8018 74.2349 27.2397C74.7314 26.6775 75.1113 26.0223 75.3527 25.3122C75.594 24.6021 75.692 23.8512 75.641 23.1029C75.5899 22.3546 75.3908 21.6239 75.0553 20.9532C74.7197 20.2824 74.2543 19.685 73.6861 19.1954C73.1179 18.7059 72.4582 18.334 71.7452 18.1013C71.0322 17.8687 70.2801 17.7799 69.5325 17.8401C68.7849 17.9002 68.0567 18.1082 67.3901 18.4519V18.4377L60.2566 21.9987C58.5155 21.1669 56.5579 20.9 54.6576 21.2353C52.7573 21.5707 51.0093 22.4915 49.6581 23.8691C48.3069 25.2466 47.4199 27.0121 47.1213 28.9185C46.8227 30.8249 47.1273 32.7769 47.9926 34.5017C48.8579 36.2264 50.2406 37.6377 51.9473 38.538C53.654 39.4383 55.5995 39.7828 57.5116 39.5232C59.4237 39.2636 61.2069 38.4129 62.6117 37.0901C64.0166 35.7673 64.973 34.0385 65.3471 32.1454L65.3528 32.134Z" fill="#FFECE5" stroke="black" stroke-width="1.4267" stroke-linecap="round" stroke-linejoin="round"/>
<path d="M75.8906 112.098H128.699C128.699 101.789 118.426 93.3054 105.226 92.1982V36.4056C105.222 30.3258 102.837 24.4895 98.581 20.1477C94.3251 15.8059 88.5376 13.3042 82.4591 13.1789C78.9103 7.81278 73.5721 3.88053 67.3951 2.08245C61.2181 0.284371 54.6033 0.737213 48.729 3.36032L70.9085 52.9468C76.9914 50.2251 81.8613 45.362 84.5915 39.283C87.3216 33.2039 87.7215 26.3333 85.7148 19.9785C93.6074 22.1129 99.5225 30.8614 99.5225 41.3391V92.184C86.2399 93.2369 75.8906 101.749 75.8906 112.098Z" fill="#FFECE5" stroke="black" stroke-width="1.4267" stroke-linecap="round" stroke-linejoin="round"/>
<path d="M99.5195 92.184H105.226Z" fill="#FFECE5"/>
<path d="M99.5195 92.184H105.226" stroke="black" stroke-width="1.4267" stroke-linecap="round" stroke-linejoin="round"/>
<path d="M99.5195 88.1178H105.226Z" fill="#FFECE5"/>
<path d="M99.5195 88.1178H105.226" stroke="black" stroke-width="1.4267" stroke-linecap="round" stroke-linejoin="round"/>
<path d="M99.5195 84.049L105.226 84.0661Z" fill="#FFECE5"/>
<path d="M99.5195 84.049L105.226 84.0661" stroke="black" stroke-width="1.4267" stroke-linecap="round" stroke-linejoin="round"/>
<path d="M99.5195 79.9685H105.226Z" fill="#FFECE5"/>
<path d="M99.5195 79.9685H105.226" stroke="black" stroke-width="1.4267" stroke-linecap="round" stroke-linejoin="round"/>
<path d="M99.5195 75.9023H105.226Z" fill="#FFECE5"/>
<path d="M99.5195 75.9023H105.226" stroke="black" stroke-width="1.4267" stroke-linecap="round" stroke-linejoin="round"/>
<path d="M99.5195 71.8335L105.226 71.8506Z" fill="#FFECE5"/>
<path d="M99.5195 71.8335L105.226 71.8506" stroke="black" stroke-width="1.4267" stroke-linecap="round" stroke-linejoin="round"/>
<path d="M99.5195 67.7759L105.226 67.7902Z" fill="#FFECE5"/>
<path d="M99.5195 67.7759L105.226 67.7902" stroke="black" stroke-width="1.4267" stroke-linecap="round" stroke-linejoin="round"/>
<path d="M99.5195 63.7097L105.226 63.724Z" fill="#FFECE5"/>
<path d="M99.5195 63.7097L105.226 63.724" stroke="black" stroke-width="1.4267" stroke-linecap="round" stroke-linejoin="round"/>
<path d="M99.5195 59.6409L105.226 59.658Z" fill="#FFECE5"/>
<path d="M99.5195 59.6409L105.226 59.658" stroke="black" stroke-width="1.4267" stroke-linecap="round" stroke-linejoin="round"/>
<path d="M99.5195 55.5833L105.226 55.5975Z" fill="#FFECE5"/>
<path d="M99.5195 55.5833L105.226 55.5975" stroke="black" stroke-width="1.4267" stroke-linecap="round" stroke-linejoin="round"/>
<path d="M99.5195 51.5172L105.226 51.5315Z" fill="#FFECE5"/>
<path d="M99.5195 51.5172L105.226 51.5315" stroke="black" stroke-width="1.4267" stroke-linecap="round" stroke-linejoin="round"/>
<path d="M99.5195 47.4482L105.226 47.4654Z" fill="#FFECE5"/>
<path d="M99.5195 47.4482L105.226 47.4654" stroke="black" stroke-width="1.4267" stroke-linecap="round" stroke-linejoin="round"/>
<path d="M99.5195 43.3594L105.226 43.3765Z" fill="#FFECE5"/>
<path d="M99.5195 43.3594L105.226 43.3765" stroke="black" stroke-width="1.4267" stroke-linecap="round" stroke-linejoin="round"/>
<path d="M99.5195 39.2932L105.226 39.3075Z" fill="#FFECE5"/>
<path d="M99.5195 39.2932L105.226 39.3075" stroke="black" stroke-width="1.4267" stroke-linecap="round" stroke-linejoin="round"/>
<path d="M99.3486 35.6636L104.993 34.8076Z" fill="#FFECE5"/>
<path d="M99.3486 35.6636L104.993 34.8076" stroke="black" stroke-width="1.4267" stroke-linecap="round" stroke-linejoin="round"/>
<path d="M98.4438 31.9258L103.945 30.4049Z" fill="#FFECE5"/>
<path d="M98.4438 31.9258L103.945 30.4049" stroke="black" stroke-width="1.4267" stroke-linecap="round" stroke-linejoin="round"/>
<path d="M97.0054 28.6329L102.03 25.925Z" fill="#FFECE5"/>
<path d="M97.0054 28.6329L102.03 25.925" stroke="black" stroke-width="1.4267" stroke-linecap="round" stroke-linejoin="round"/>
<path d="M95.0142 25.5655L99.3485 21.8561Z" fill="#FFECE5"/>
<path d="M95.0142 25.5655L99.3485 21.8561" stroke="black" stroke-width="1.4267" stroke-linecap="round" stroke-linejoin="round"/>
<path d="M92.2632 22.7378L95.9013 18.3379Z" fill="#FFECE5"/>
<path d="M92.2632 22.7378L95.9013 18.3379" stroke="black" stroke-width="1.4267" stroke-linecap="round" stroke-linejoin="round"/>
<path d="M89.0361 20.8174L91.8553 15.8553Z" fill="#FFECE5"/>
<path d="M89.0361 20.8174L91.8553 15.8553" stroke="black" stroke-width="1.4267" stroke-linecap="round" stroke-linejoin="round"/>
<path d="M86.2312 19.8273C86.3358 17.925 86.4433 16.0228 86.5536 14.1205Z" fill="#FFECE5"/>
<path d="M86.2312 19.8273C86.3358 17.925 86.4433 16.0228 86.5536 14.1205" stroke="black" stroke-width="1.4267" stroke-linecap="round" stroke-linejoin="round"/>
<path d="M85.6006 19.6561C84.6704 17.6473 83.7392 15.6366 82.8071 13.624Z" fill="#FFECE5"/>
<path d="M85.6006 19.6561C84.6704 17.6473 83.7392 15.6366 82.8071 13.624" stroke="black" stroke-width="1.4267" stroke-linecap="round" stroke-linejoin="round"/>
</svg>
