<svg width="129" height="90" viewBox="0 0 129 90" fill="none" xmlns="http://www.w3.org/2000/svg">
<path d="M20.4057 57.8113C22.8388 57.8113 24.8113 55.8388 24.8113 53.4056C24.8113 50.9725 22.8388 49 20.4057 49C17.9725 49 16 50.9725 16 53.4056C16 55.8388 17.9725 57.8113 20.4057 57.8113Z" fill="white"/>
<path d="M128.262 75.7936H1V88.3486H128.262V75.7936Z" stroke="black" stroke-width="1.4267" stroke-linecap="round" stroke-linejoin="round"/>
<path d="M32.2618 45.7386H9.81409L18.2459 75.7936" fill="#DD3354"/>
<path d="M32.2618 45.7386H9.81409L18.2459 75.7936" stroke="black" stroke-width="1.4267" stroke-linecap="round" stroke-linejoin="round"/>
<path d="M32.2618 45.7386H54.7067L46.2749 75.7936" fill="#DD3354"/>
<path d="M32.2618 45.7386H54.7067L46.2749 75.7936" stroke="black" stroke-width="1.4267" stroke-linecap="round" stroke-linejoin="round"/>
<path d="M32.2618 45.7386H54.7067L46.2749 75.7936" fill="#DD3354"/>
<path d="M32.2618 45.7386H54.7067L46.2749 75.7936" stroke="black" stroke-width="1.4267" stroke-linecap="round" stroke-linejoin="round"/>
<path d="M21 46H55L46.5 75.5H18.5" fill="#DD3354"/>
<path d="M21 46H55L46.5 75.5H18.5" stroke="black" stroke-width="1.4267" stroke-linecap="round" stroke-linejoin="round"/>
<circle cx="21.5" cy="55.5" r="2.5" fill="white"/>
<path d="M18.8195 45.5932C15.8919 42.4973 9.7828 35.2867 8.41888 24.4324C8.23626 22.9714 6.17323 5.15191 14.5052 1.60512C21.0024 -1.15983 30.898 5.98796 34.8614 14.1601C37.6121 19.8355 37.1783 25.3397 36.7617 28.0476C38.0058 26.7636 40.6909 24.3667 44.7513 23.4822C49.0314 22.5463 55.9709 23.0428 58.2593 27.4769C60.1454 31.135 57.8712 35.5378 56.9895 37.2413C54.0134 43.0023 48.5178 45.0197 46.8343 45.6018" fill="#099672"/>
<path d="M18.8195 45.5932C15.8919 42.4973 9.7828 35.2867 8.41888 24.4324C8.23626 22.9714 6.17323 5.15191 14.5052 1.60512C21.0024 -1.15983 30.898 5.98796 34.8614 14.1601C37.6121 19.8355 37.1783 25.3397 36.7617 28.0476C38.0058 26.7636 40.6909 24.3667 44.7513 23.4822C49.0314 22.5463 55.9709 23.0428 58.2593 27.4769C60.1454 31.135 57.8712 35.5378 56.9895 37.2413C54.0134 43.0023 48.5178 45.0197 46.8343 45.6018" stroke="black" stroke-width="1.4267" stroke-linecap="round" stroke-linejoin="round"/>
</svg>
