<svg width="224" height="256" viewBox="0 0 224 256" fill="none" xmlns="http://www.w3.org/2000/svg">
<path d="M125.788 118.712C139.253 105.917 129.024 79.3117 125.157 69.2592C113.048 37.7633 85.7805 21.7214 73.351 15.501L64.5996 27.5624C65.2464 22.3558 65.8922 17.1493 66.5371 11.9428C39.6067 -2.12447 14.9961 -2.58101 5.30019 8.9125C-0.820365 16.1687 0.335246 26.6036 1.17985 34.2679C4.52119 64.514 26.7464 84.6961 36.4594 92.4773L62.7107 68.4146L46.4691 99.1971L69.1251 112.006L78.7097 93.9154L74.247 114.32C93.7557 127.663 115.43 128.553 125.788 118.712Z" fill="#099672"/>
<path d="M215.946 12.2133C226.886 20.4882 223.02 41.9401 221.562 50.0466C216.996 75.4419 199.967 90.739 192.075 96.8767L184.51 88.6417C185.596 92.5452 186.683 96.4448 187.769 100.341C170.745 114.088 153.668 117.176 145.513 109.472C140.377 104.621 139.891 96.5086 139.543 90.5706C138.168 67.1014 151.168 49.1963 156.978 42.1797L178.196 57.6252L163.121 35.9394L177.325 23.664L186.211 36.4073L180.607 21.3242C192.554 8.95183 207.534 5.85589 215.946 12.2133Z" fill="#099672"/>
<path d="M206.565 44.0237C185.088 59.5431 167.508 79.8373 155.21 103.308C142.912 126.778 136.232 152.783 135.695 179.275H126.068C126.808 170.225 126.667 161.125 125.648 152.102C122.327 122.775 110.525 102.213 105.554 93.7214C82.2564 54.0362 45.8898 35.0411 31.4944 28.4041" stroke="black" stroke-width="1.62929" stroke-linecap="round" stroke-linejoin="round"/>
<path d="M166.711 179.294H92C94.8781 204.37 97.7591 229.446 100.643 254.522H156.672C160.017 229.446 163.363 204.37 166.711 179.294Z" fill="#FFECE5" stroke="black" stroke-width="1.62929" stroke-linecap="round" stroke-linejoin="round"/>
</svg>
