<svg width="151" height="150" viewBox="0 0 151 150" fill="none" xmlns="http://www.w3.org/2000/svg">
<g clip-path="url(#clip0_150_373)">
<path d="M32.5877 46.7742C32.8371 44.9649 30.2828 43.4749 28.3637 43.3219C27.4491 43.2454 26.4979 43.3851 25.6298 43.0858C23.7506 42.4206 23.0023 40.0026 21.1664 39.2277C19.7961 38.6523 18.2196 39.1645 16.8925 39.833C15.5655 40.5015 14.2318 41.343 12.765 41.4394C11.4746 41.5226 10.071 41.0436 8.94354 41.6756C8.10207 42.1445 7.65972 43.1157 6.88478 43.6877C6.10984 44.2598 5.13533 44.3529 4.19409 44.4161C3.25285 44.4793 2.27502 44.476 1.41693 44.8685C0.558838 45.2609 -0.149589 46.1689 0.0300121 47.0935L32.5877 46.7742Z" fill="#EBEBEB"/>
<path d="M48.9017 6.69986C49.0879 5.33622 47.1655 4.21538 45.7187 4.09897C45.0303 4.04243 44.3152 4.14886 43.66 3.91937C42.2464 3.42713 41.681 1.59121 40.3008 1.01915C39.2697 0.583448 38.0824 0.969258 37.0813 1.4748C36.0801 1.98034 35.0857 2.60895 33.9748 2.68212C33.0036 2.74531 31.946 2.38278 31.0946 2.85839C30.4626 3.21427 30.13 3.94265 29.5447 4.37502C28.9593 4.8074 28.2143 4.88389 27.5192 4.9238C26.8083 4.90404 26.1 5.01683 25.4305 5.2564C24.7852 5.55241 24.2498 6.23755 24.3861 6.91937L48.9017 6.69986Z" fill="#F5F5F5"/>
<path d="M104.152 16.5812C104.445 14.4659 101.461 12.7297 99.2197 12.5468C98.152 12.4637 97.0412 12.6266 96.0301 12.2741C93.835 11.5091 92.9602 8.67541 90.8217 7.77075C89.2186 7.10557 87.3793 7.69758 85.8327 8.47918C84.2862 9.26078 82.7496 10.2419 81.0168 10.3517C79.5101 10.4481 77.8704 9.88938 76.5534 10.6277C75.5556 11.1765 75.0567 12.3073 74.1487 12.9759C73.2407 13.6444 72.1066 13.7674 71.009 13.8273C69.9115 13.8872 68.7707 13.8971 67.7696 14.3561C66.7684 14.8151 65.9403 15.8728 66.1465 16.957L104.152 16.5812Z" fill="#F5F5F5"/>
<path d="M128.974 93.9028C121.989 92.0801 115.906 87.4937 112.517 81.517C110.839 78.5519 109.817 75.2615 109.519 71.8678C109.222 68.474 109.655 65.0559 110.791 61.844C112.587 56.8385 116.052 52.4349 117.536 47.3429C119.222 41.5624 118.218 35.4294 117.177 29.5158C116.136 23.6023 115.075 17.4926 116.658 11.6855C118.241 5.87838 123.21 0.443786 129.612 0.0247173C135.549 -0.357766 141.03 3.74977 143.508 8.8052C145.986 13.8606 145.999 19.6511 145.42 25.1821C144.842 30.7132 143.714 36.2376 144.07 41.7852C144.785 53.0136 151.52 63.5868 150.722 74.8119C150.31 80.6555 147.888 84.3972 143.738 88.7808C140.172 92.5724 134.235 95.0768 128.974 93.9028Z" fill="#F5F5F5"/>
<path d="M131.072 149.559C131.012 149.559 130.959 124.681 130.959 94.0158C130.959 63.3506 131.012 38.4526 131.072 38.4526C131.132 38.4526 131.192 63.3041 131.192 93.9992C131.192 124.694 131.135 149.559 131.072 149.559Z" fill="#E0E0E0"/>
<path d="M130.753 74.4992C130.385 74.2289 130.041 73.9273 129.725 73.5979C129.113 73.0192 128.285 72.201 127.397 71.2698C126.509 70.3385 125.714 69.5103 125.135 68.905C124.805 68.5978 124.5 68.2641 124.224 67.9072C124.589 68.1815 124.931 68.484 125.249 68.8119C125.86 69.3906 126.692 70.2088 127.577 71.14C128.461 72.0713 129.256 72.8995 129.838 73.5048C130.168 73.8122 130.474 74.1447 130.753 74.4992Z" fill="#E0E0E0"/>
<path d="M131.421 51.2242C132.223 51.032 132.989 50.7132 133.69 50.2796C134.419 49.8026 135.039 49.1784 135.512 48.447C136.086 47.5795 136.429 46.5803 136.51 45.5435V45.4437L136.64 45.5535C135.589 45.7416 134.628 46.2698 133.906 47.0568C133.315 47.6733 132.802 48.3603 132.379 49.1022C132.014 49.7308 131.757 50.2563 131.584 50.6222C131.503 50.8169 131.409 51.0058 131.302 51.1876C131.348 50.9824 131.416 50.7828 131.505 50.5923C131.719 50.0593 131.964 49.5396 132.24 49.0357C132.649 48.269 133.158 47.5599 133.753 46.9271C134.502 46.0974 135.506 45.5405 136.607 45.3439L136.75 45.324V45.4537V45.5568C136.669 46.5377 136.361 47.4863 135.85 48.327C135.338 49.1678 134.637 49.8774 133.803 50.3994C133.283 50.7273 132.713 50.9699 132.117 51.1178C131.953 51.1576 131.788 51.1887 131.621 51.2109C131.556 51.2249 131.488 51.2294 131.421 51.2242Z" fill="#E0E0E0"/>
<path d="M131.421 51.2242C131.375 51.1843 132.07 50.3195 132.978 49.2885C133.886 48.2574 134.661 47.4492 134.707 47.4858C134.754 47.5224 134.059 48.3871 133.151 49.4215C132.243 50.4559 131.468 51.2608 131.421 51.2242Z" fill="#E0E0E0"/>
<path d="M99.8547 116.037L92.0986 149.709L95.378 149.699L103.151 116.356L99.8547 116.037Z" fill="#E0E0E0"/>
<path d="M114 116.037L121.783 149.709H124.899L117.369 116.037H114Z" fill="#E0E0E0"/>
<path d="M94.6196 90.7463L99.0365 113.928H104.052L99.3358 90.7463H94.6196Z" fill="#E0E0E0"/>
<path d="M17.7141 116.037L11.3882 149.709H14.6077L21.2163 116.037H17.7141Z" fill="#E0E0E0"/>
<path d="M31.0146 116.037L38.2452 149.526H41.4282L34.447 116.037H31.0146Z" fill="#E0E0E0"/>
<path d="M12.479 90.7463L16.8959 113.928H21.9147L17.1952 90.7463H12.479Z" fill="#E0E0E0"/>
<path d="M2.54443 88.6411L3.44909 92.8551H104.202L103.028 88.6411H2.54443Z" fill="#EBEBEB"/>
<path d="M4.47021 96.8262L5.53452 101.04H105.609L104.697 96.8262H4.47021Z" fill="#EBEBEB"/>
<path d="M6.45898 105.301L7.45012 109.515H107.212L106.271 105.301H6.45898Z" fill="#EBEBEB"/>
<path d="M121.663 113.928H14.0854V118.142H121.663V113.928Z" fill="#EBEBEB"/>
<path d="M145.605 149.448C145.605 149.498 113.011 149.534 72.8435 149.534C32.6761 149.534 0.0751953 149.498 0.0751953 149.448C0.0751953 149.398 32.6495 149.361 72.8435 149.361C113.037 149.361 145.605 149.401 145.605 149.448Z" fill="#263238"/>
<path d="M26.3633 12.2195C26.297 12.2136 26.2302 12.2136 26.1638 12.2195L25.5784 12.2361C25.4487 12.2361 25.3024 12.2361 25.146 12.2561L24.6272 12.3293L24.0252 12.4157L23.36 12.582C22.1994 12.8752 21.0948 13.3573 20.0906 14.0089C18.602 14.9515 17.3493 16.223 16.4291 17.7256C15.5088 19.2282 14.9455 20.9218 14.7824 22.6763C14.7362 23.2016 14.7251 23.7293 14.7492 24.2561C14.7691 24.5222 14.7492 24.7949 14.8024 25.0643C14.8556 25.3337 14.8822 25.6064 14.9254 25.8792C15.1312 26.9993 15.501 28.0831 16.023 29.0953C16.5786 30.1564 17.2868 31.1301 18.125 31.9856C19.0152 32.8629 20.0363 33.5966 21.1516 34.1608C22.3047 34.7531 23.5534 35.137 24.8401 35.2949C25.1704 35.3449 25.5038 35.3727 25.8378 35.378C26.1702 35.3965 26.5033 35.3965 26.8356 35.378C27.5067 35.3513 28.1742 35.2679 28.8312 35.1286C30.2452 34.8241 31.5905 34.2603 32.799 33.4656H32.6793L36.7203 35.0887L36.9598 35.1851L36.89 34.9357C36.4842 33.4523 36.0851 32.0122 35.7026 30.612L35.6826 30.7184C36.7789 29.2654 37.5173 27.5744 37.8378 25.7827C37.9925 24.9496 38.0461 24.1009 37.9975 23.255C37.9877 22.8481 37.9488 22.4424 37.8811 22.041L37.7913 21.449C37.7547 21.2528 37.6948 21.0665 37.6483 20.8769C36.9719 18.2216 35.3748 15.8927 33.1416 14.3049C32.3161 13.7118 31.413 13.2351 30.4576 12.888L29.8523 12.6718L29.2702 12.5488L28.7447 12.4191C28.5751 12.3858 28.4121 12.3692 28.2625 12.3459C27.9565 12.3093 27.6871 12.2561 27.4509 12.2428L26.8589 12.2228H26.4964C26.4555 12.219 26.4143 12.219 26.3733 12.2228C26.4142 12.2279 26.4555 12.2279 26.4964 12.2228L26.8556 12.2528L27.4476 12.2927C27.6804 12.2927 27.9465 12.3692 28.2492 12.4124C30.4413 12.795 32.4752 13.8057 34.1041 15.3219C35.733 16.838 36.8868 18.7943 37.4254 20.9534C37.4687 21.1397 37.5285 21.3259 37.5618 21.5155C37.5951 21.7051 37.6217 21.9013 37.6483 22.0976C37.7156 22.491 37.7512 22.8891 37.7547 23.2882C37.8007 24.1188 37.7459 24.952 37.5917 25.7694C37.2714 27.5234 36.5434 29.1776 35.4665 30.5987L35.4299 30.6452V30.7051C35.809 32.102 36.2015 33.5432 36.6072 35.0288L36.7802 34.8792L32.7558 33.2594L32.6926 33.2328L32.6361 33.2694C30.9002 34.4129 28.8859 35.0625 26.809 35.1486C26.4852 35.1602 26.1609 35.1536 25.8378 35.1286C25.5149 35.1238 25.1927 35.0971 24.8733 35.0488C23.6134 34.8907 22.3915 34.5101 21.2647 33.9246C20.1719 33.3763 19.1701 32.6628 18.2946 31.8093C17.4746 30.9717 16.7791 30.0208 16.2292 28.9856C15.7163 27.9941 15.351 26.933 15.1449 25.8359C15.1017 25.5698 15.0618 25.3038 15.0219 25.0377C14.982 24.7716 14.9853 24.5089 14.9653 24.2461C14.9408 23.7295 14.9497 23.2117 14.9919 22.6962C15.1465 20.9695 15.6922 19.3006 16.5877 17.8161C17.4832 16.3316 18.705 15.0706 20.1605 14.1286C21.1473 13.475 22.2334 12.9853 23.3766 12.6785L24.0418 12.4989L24.6405 12.4024L25.1527 12.316C25.309 12.2993 25.452 12.296 25.5818 12.286L26.1638 12.2428C26.231 12.243 26.298 12.2352 26.3633 12.2195Z" fill="#263238"/>
<path d="M24.5508 22.7728H25.1927L26.5463 20.8005L26.5197 19.5233C26.5197 19.5233 27.5175 19.4435 27.4244 21.1164C27.3313 22.7894 27.461 22.3637 27.461 22.3637C27.461 22.3637 29.5597 22.3271 29.7359 22.5067C29.9122 22.6863 29.9654 24.7184 30.012 25.8493C30.0314 26.1217 29.9591 26.3928 29.8066 26.6194C29.6541 26.846 29.4302 27.0151 29.1705 27.0998C29.0968 27.1204 29.0208 27.1316 28.9444 27.1331C28.4222 27.1331 25.7381 26.7739 25.7381 26.7739L24.6339 26.7971L24.5508 22.7728Z" fill="#006BFF"/>
<path d="M22.7148 22.4602L23.1971 26.8238L24.2913 26.8039L24.2049 22.5167L22.7148 22.4602Z" fill="#006BFF"/>
<path d="M23.7957 134.701C24.1341 134.863 24.4366 135.092 24.6851 135.374C24.9336 135.656 25.1231 135.984 25.2424 136.34C25.4749 137.055 25.5398 137.814 25.432 138.559C25.2691 139.999 24.4509 141.452 23.5728 142.603C22.3589 141.542 22.0795 139.696 21.9963 138.752C21.8666 137.258 22.5385 134.478 23.7957 134.701Z" fill="#006BFF"/>
<path d="M24.9797 144.961C24.8976 144.55 24.9254 144.124 25.0603 143.727C25.1952 143.33 25.4324 142.976 25.748 142.699C26.068 142.429 26.4388 142.225 26.8386 142.1C27.2384 141.975 27.6592 141.931 28.0762 141.971C28.2701 141.968 28.4622 142.008 28.6392 142.087C28.8161 142.167 28.9736 142.284 29.1006 142.43C29.1921 142.586 29.2403 142.764 29.2403 142.946C29.2403 143.127 29.1921 143.305 29.1006 143.461C28.9159 143.774 28.6521 144.034 28.3356 144.213C27.2846 144.878 26.1472 145.317 24.9598 144.961" fill="#006BFF"/>
<path d="M23.4268 149.375C23.4333 149.275 23.4478 149.176 23.47 149.079C23.5066 148.873 23.5565 148.603 23.6163 148.281C23.7511 147.39 24.0297 146.527 24.4412 145.726C24.8687 144.926 25.5011 144.253 26.2738 143.777C26.509 143.637 26.7602 143.525 27.0221 143.445C27.0919 143.422 27.163 143.405 27.235 143.391C27.2613 143.386 27.2884 143.386 27.3148 143.391C26.9673 143.511 26.633 143.666 26.317 143.854C25.5693 144.336 24.9569 145.001 24.5376 145.786C24.1305 146.579 23.8457 147.429 23.6928 148.307C23.6197 148.64 23.5598 148.912 23.5132 149.099C23.4931 149.193 23.4641 149.286 23.4268 149.375Z" fill="#263238"/>
<path d="M23.47 136.846C23.4766 136.889 23.4766 136.933 23.47 136.976C23.47 137.072 23.47 137.195 23.4932 137.348C23.4932 137.681 23.5265 138.136 23.5465 138.712C23.583 139.866 23.613 141.462 23.6063 143.222C23.5997 144.981 23.5564 146.578 23.5066 147.732C23.4833 148.307 23.46 148.776 23.44 149.095C23.44 149.248 23.44 149.371 23.4168 149.468C23.4214 149.511 23.4214 149.554 23.4168 149.598C23.4119 149.555 23.4119 149.511 23.4168 149.468C23.4168 149.371 23.4168 149.248 23.4168 149.095C23.4168 148.763 23.4367 148.297 23.45 147.728C23.4766 146.574 23.5099 144.981 23.5165 143.222C23.5232 141.462 23.5165 139.869 23.4899 138.715C23.4899 138.146 23.4733 137.684 23.4666 137.348V136.976C23.4642 136.932 23.4653 136.889 23.47 136.846Z" fill="#263238"/>
<path d="M22.8844 145.839C22.7382 144.966 22.3858 144.14 21.8565 143.431C21.3273 142.721 20.6364 142.148 19.8412 141.758C19.4388 141.565 18.9099 141.426 18.574 141.738C18.2381 142.051 18.3179 142.583 18.4809 143.002C18.8368 143.871 19.4421 144.616 20.2205 145.141C20.9988 145.667 21.9153 145.95 22.8545 145.956" fill="#006BFF"/>
<path d="M20.0373 143.125C20.1272 143.153 20.2141 143.19 20.2967 143.235C20.3766 143.275 20.4763 143.325 20.5861 143.391C20.7134 143.462 20.8367 143.54 20.9553 143.624C21.1036 143.727 21.2458 143.838 21.381 143.957C21.5376 144.078 21.6874 144.208 21.83 144.346C22.1566 144.679 22.4445 145.049 22.6881 145.447C22.9247 145.848 23.1133 146.275 23.2502 146.721C23.31 146.915 23.3578 147.113 23.3932 147.313C23.4274 147.486 23.4518 147.662 23.4664 147.838C23.4806 147.983 23.4872 148.128 23.4863 148.274C23.4938 148.385 23.4938 148.496 23.4863 148.606C23.4844 148.7 23.4744 148.794 23.4564 148.886C23.4331 148.886 23.473 148.487 23.4032 147.848C23.3835 147.675 23.3547 147.503 23.3167 147.333C23.2785 147.137 23.2296 146.944 23.1703 146.754C23.0275 146.318 22.8391 145.899 22.6083 145.503C22.3696 145.111 22.0886 144.746 21.7701 144.416C21.6299 144.273 21.4811 144.138 21.3244 144.013C21.1939 143.895 21.0573 143.784 20.9154 143.681C20.3932 143.312 20.0273 143.145 20.0373 143.125Z" fill="#263238"/>
<path d="M92.6163 137.148L92.8525 149.079L78.0088 149.448C78.062 148.028 85.6585 144.991 85.6585 144.991L85.1928 137.341L92.6163 137.148Z" fill="#006BFF"/>
<g opacity="0.6">
<path d="M90.2414 144.233C90.3821 144.272 90.5037 144.361 90.5838 144.484C90.6639 144.606 90.697 144.753 90.6771 144.898C90.6436 145.042 90.5559 145.168 90.4321 145.25C90.3083 145.332 90.1579 145.363 90.0119 145.337C89.859 145.295 89.7273 145.197 89.6425 145.063C89.5576 144.929 89.5257 144.768 89.5529 144.612C89.6045 144.464 89.7113 144.342 89.8508 144.272C89.9903 144.201 90.1517 144.187 90.3013 144.233" fill="white"/>
</g>
<g opacity="0.6">
<path d="M92.8523 149.079L92.7824 147.878L78.5773 148.67C78.5773 148.67 77.9121 148.975 78.0086 149.438L92.8523 149.079Z" fill="white"/>
</g>
<path d="M85.4258 144.921C85.4258 144.995 85.7949 145.018 86.1575 145.254C86.52 145.49 86.7162 145.779 86.7827 145.749C86.8493 145.72 86.7295 145.304 86.2872 145.038C85.8448 144.772 85.4091 144.855 85.4258 144.921Z" fill="#263238"/>
<path d="M83.8857 145.603C83.8857 145.673 84.1884 145.789 84.4412 146.089C84.694 146.388 84.7738 146.714 84.8469 146.707C84.9201 146.701 84.9567 146.292 84.6308 145.926C84.3048 145.56 83.8857 145.533 83.8857 145.603Z" fill="#263238"/>
<path d="M83.0476 147.489C83.1141 147.489 83.2072 147.14 83.011 146.747C82.8148 146.355 82.4722 146.205 82.4423 146.265C82.4123 146.325 82.6285 146.534 82.7749 146.857C82.9212 147.18 82.9777 147.482 83.0476 147.489Z" fill="#263238"/>
<path d="M85.5155 143.169C85.5454 143.235 85.8747 143.125 86.2871 143.142C86.6995 143.159 87.0188 143.282 87.0554 143.219C87.092 143.155 86.7793 142.906 86.2937 142.886C85.8082 142.866 85.4789 143.112 85.5155 143.169Z" fill="#263238"/>
<path d="M85.8115 141.399C86.0563 141.458 86.3126 141.45 86.5532 141.376C86.9798 141.29 87.3855 141.122 87.7472 140.88C87.83 140.833 87.9043 140.773 87.9667 140.701C88.0133 140.648 88.0409 140.582 88.0451 140.512C88.0494 140.442 88.0299 140.373 87.99 140.315C87.9515 140.263 87.9012 140.222 87.8433 140.194C87.7854 140.167 87.7216 140.153 87.6574 140.155C87.5636 140.157 87.4705 140.173 87.3814 140.202C87.2233 140.244 87.0696 140.3 86.9224 140.371C86.6779 140.493 86.4536 140.651 86.2572 140.84C85.9246 141.173 85.8115 141.439 85.8348 141.452C85.8581 141.466 86.031 141.246 86.3769 140.973C86.5799 140.814 86.8037 140.683 87.0421 140.584C87.1788 140.525 87.3201 140.477 87.4645 140.441C87.6208 140.395 87.7572 140.391 87.7971 140.461C87.837 140.531 87.7971 140.498 87.7971 140.544C87.7489 140.596 87.6941 140.64 87.6341 140.677C87.5096 140.762 87.3808 140.839 87.2483 140.91C87.0212 141.031 86.7828 141.129 86.5366 141.203C86.2902 141.25 86.0478 141.315 85.8115 141.399Z" fill="#263238"/>
<path d="M85.9209 141.499C86.0569 141.284 86.1188 141.031 86.0972 140.777C86.108 140.335 85.9926 139.899 85.7646 139.52C85.7227 139.423 85.6561 139.338 85.5716 139.275C85.487 139.211 85.3873 139.171 85.2823 139.157C85.2164 139.16 85.1527 139.182 85.0986 139.22C85.0444 139.257 85.002 139.31 84.9764 139.37C84.941 139.459 84.9176 139.552 84.9065 139.646C84.8814 139.812 84.8814 139.98 84.9065 140.145C84.9525 140.423 85.0668 140.685 85.2391 140.907C85.5384 141.283 85.8444 141.363 85.8477 141.339C85.8511 141.316 85.6149 141.166 85.3854 140.804C85.2532 140.594 85.1671 140.358 85.1327 140.112C85.1127 139.969 85.1127 139.823 85.1327 139.68C85.1526 139.523 85.2092 139.394 85.2657 139.41C85.3222 139.427 85.4686 139.52 85.5318 139.646C85.6098 139.773 85.6755 139.907 85.728 140.046C85.8169 140.282 85.8718 140.529 85.891 140.781C85.9509 141.216 85.881 141.489 85.9209 141.499Z" fill="#263238"/>
<path d="M104.716 136.912L104.952 148.843L90.1118 149.215C90.1617 147.795 97.7615 144.755 97.7615 144.755L97.2959 137.105L104.716 136.912Z" fill="#006BFF"/>
<g opacity="0.6">
<path d="M102.341 144.013C102.48 144.055 102.6 144.145 102.679 144.267C102.758 144.389 102.792 144.534 102.774 144.678C102.739 144.822 102.652 144.948 102.528 145.03C102.404 145.111 102.254 145.143 102.109 145.117C101.956 145.076 101.824 144.979 101.739 144.845C101.654 144.712 101.622 144.552 101.65 144.396C101.7 144.247 101.806 144.124 101.946 144.053C102.086 143.982 102.248 143.969 102.398 144.017" fill="white"/>
</g>
<g opacity="0.6">
<path d="M104.952 148.843L104.882 147.642L90.6772 148.447C90.6772 148.447 90.012 148.749 90.1118 149.215L104.952 148.843Z" fill="white"/>
</g>
<path d="M97.5254 144.679C97.5254 144.752 97.8945 144.775 98.2571 145.011C98.6196 145.247 98.8158 145.533 98.8823 145.503C98.9489 145.473 98.8291 145.058 98.3868 144.795C97.9444 144.532 97.5087 144.619 97.5254 144.679Z" fill="#263238"/>
<path d="M95.9854 145.37C95.9854 145.44 96.288 145.556 96.5408 145.856C96.7936 146.155 96.8734 146.478 96.9466 146.474C97.0197 146.471 97.0563 146.059 96.7337 145.69C96.4111 145.32 95.9854 145.3 95.9854 145.37Z" fill="#263238"/>
<path d="M95.1472 147.253C95.2137 147.269 95.3068 146.904 95.1106 146.511C94.9144 146.119 94.5718 145.969 94.5419 146.029C94.5119 146.089 94.7281 146.298 94.8745 146.624C95.0208 146.95 95.0773 147.249 95.1472 147.253Z" fill="#263238"/>
<path d="M97.6151 142.932C97.645 142.999 97.9743 142.893 98.3867 142.909C98.7991 142.926 99.1184 143.049 99.155 142.986C99.1916 142.922 98.8789 142.653 98.3933 142.653C97.9077 142.653 97.5751 142.879 97.6151 142.932Z" fill="#263238"/>
<path d="M97.9243 141.163C98.1687 141.225 98.4253 141.218 98.666 141.143C98.9327 141.088 99.1918 141.001 99.4376 140.884C99.5832 140.814 99.7243 140.735 99.86 140.647C99.9421 140.598 100.016 140.536 100.08 140.464C100.126 140.412 100.154 140.346 100.158 140.276C100.162 140.206 100.143 140.136 100.103 140.079C100.064 140.028 100.013 139.988 99.9554 139.96C99.8976 139.933 99.8341 139.92 99.7702 139.922C99.6767 139.925 99.5839 139.939 99.4942 139.966C99.336 140.009 99.1823 140.066 99.0352 140.139C98.7909 140.259 98.5666 140.416 98.37 140.604C98.0374 140.937 97.9243 141.206 97.9476 141.219C97.9709 141.233 98.1438 141.01 98.4897 140.737C98.6935 140.579 98.9172 140.448 99.1549 140.348C99.2921 140.29 99.4333 140.243 99.5773 140.205C99.7336 140.162 99.87 140.155 99.9099 140.225C99.9498 140.295 99.9099 140.262 99.9099 140.308C99.8617 140.36 99.8069 140.404 99.7469 140.441C99.6231 140.527 99.4943 140.604 99.3611 140.674C99.1334 140.794 98.8951 140.893 98.6494 140.97C98.4034 141.017 98.1611 141.081 97.9243 141.163Z" fill="#263238"/>
<path d="M98.0208 141.266C98.1562 141.051 98.218 140.798 98.1971 140.544C98.2062 140.101 98.091 139.665 97.8645 139.284C97.822 139.187 97.7553 139.103 97.6709 139.039C97.5864 138.976 97.487 138.935 97.3822 138.921C97.3154 138.923 97.2505 138.944 97.1959 138.982C97.1413 139.021 97.0996 139.075 97.0763 139.138C97.0406 139.225 97.0171 139.317 97.0064 139.41C96.9829 139.577 96.9829 139.746 97.0064 139.913C97.0531 140.189 97.1673 140.449 97.339 140.671C97.6383 141.05 97.9443 141.126 97.951 141.103C97.9576 141.08 97.7182 140.934 97.4853 140.568C97.3526 140.358 97.2664 140.122 97.2326 139.876C97.2126 139.734 97.2126 139.589 97.2326 139.447C97.2525 139.287 97.3091 139.158 97.3689 139.174C97.4288 139.191 97.5685 139.287 97.635 139.41C97.71 139.538 97.7745 139.671 97.8279 139.809C97.9165 140.047 97.9714 140.295 97.9909 140.548C98.0508 140.983 97.9809 141.256 98.0208 141.266Z" fill="#263238"/>
<path d="M78.1617 78.5156C78.0186 78.5156 78.8269 93.4824 79.4521 97.1708C80.4133 102.971 83.6129 142.656 83.6129 142.656H93.3379L93.5375 87.4458L95.3036 108.699L95.9688 142.77L105.474 142.517L106.472 106.374C106.173 103.676 106.981 78.8682 106.981 78.8682L78.1617 78.5156Z" fill="#263238"/>
<path d="M82.5619 22.663C81.4144 22.1308 80.696 20.9568 80.2736 19.7661C79.8512 18.5754 79.6583 17.2949 79.1894 16.1342C78.8568 15.2594 79.2226 13.8659 78.4377 13.3437C77.4566 12.6951 77.4665 10.9656 77.8457 10.1042C78.2581 9.16631 79.379 8.46786 79.4555 8.17185C79.655 7.39025 78.9765 6.54546 79.2293 5.7805C79.8213 3.98116 81.2881 4.2173 81.2881 4.2173C81.9532 3.4091 82.8579 2.33815 84.3246 1.95899C85.9111 1.5499 88.2559 1.24391 89.6694 2.0754C91.083 2.90688 92.124 3.46564 92.5796 5.04214" fill="#263238"/>
<path d="M95.6395 26.541L92.3136 32.2549L87.7171 36.8447L85.0198 33.1396V29.4046V26.2749C85.0198 26.2749 80.8657 25.7028 80.7426 21.5587C80.6828 19.5631 80.8956 15.4257 81.1351 11.6906C81.2577 9.753 82.1052 7.93255 83.5091 6.5915C84.913 5.25045 86.7704 4.48711 88.7116 4.45337H89.1107C93.4344 4.63297 95.6894 8.39794 95.3901 12.7084L95.6628 26.5476" fill="#E8AF96"/>
<path d="M82.3257 14.7571C82.3282 14.9114 82.3901 15.0586 82.4986 15.1683C82.607 15.278 82.7536 15.3416 82.9077 15.3458C82.9832 15.3503 83.0589 15.3397 83.1303 15.3146C83.2016 15.2895 83.2672 15.2504 83.3233 15.1996C83.3794 15.1488 83.4247 15.0873 83.4567 15.0188C83.4887 14.9502 83.5068 14.876 83.5097 14.8004C83.5072 14.6462 83.4453 14.4989 83.3369 14.3892C83.2284 14.2795 83.0818 14.216 82.9277 14.2117C82.8522 14.2072 82.7765 14.2178 82.7052 14.243C82.6338 14.2681 82.5682 14.3072 82.5121 14.358C82.456 14.4088 82.4107 14.4702 82.3787 14.5388C82.3467 14.6073 82.3286 14.6816 82.3257 14.7571Z" fill="#263238"/>
<path d="M81.9701 13.4833C82.0466 13.5598 82.4889 13.2205 83.1242 13.2105C83.7594 13.2006 84.235 13.5132 84.3015 13.4334C84.3681 13.3535 84.2583 13.2604 84.0521 13.1008C83.7736 12.9128 83.4434 12.8163 83.1075 12.8247C82.775 12.8352 82.4545 12.9517 82.1929 13.1573C82 13.3037 81.9335 13.45 81.9701 13.4833Z" fill="#263238"/>
<path d="M88.3091 14.6143C88.3099 14.7685 88.3708 14.9162 88.4789 15.0262C88.587 15.1361 88.7337 15.1996 88.8878 15.203C88.9633 15.2075 89.039 15.1969 89.1103 15.1718C89.1817 15.1466 89.2473 15.1075 89.3034 15.0567C89.3594 15.0059 89.4048 14.9445 89.4368 14.8759C89.4688 14.8074 89.4868 14.7332 89.4898 14.6576C89.4881 14.5031 89.4264 14.3553 89.3178 14.2455C89.2092 14.1356 89.0622 14.0723 88.9077 14.0689C88.8324 14.0644 88.7569 14.075 88.6857 14.1002C88.6146 14.1253 88.5492 14.1645 88.4934 14.2153C88.4376 14.2662 88.3925 14.3277 88.3609 14.3962C88.3292 14.4647 88.3116 14.5389 88.3091 14.6143Z" fill="#263238"/>
<path d="M88.3159 13.1974C88.3824 13.2806 88.858 12.9912 89.4933 13.0511C90.1285 13.111 90.5609 13.4702 90.6374 13.3837C90.7139 13.2972 90.6141 13.2041 90.4245 13.0511C90.1686 12.8341 89.851 12.7026 89.5166 12.6753C89.186 12.6438 88.854 12.7183 88.5687 12.8881C88.3625 13.0245 88.2826 13.1575 88.3159 13.1974Z" fill="#263238"/>
<path d="M86.0674 18.4757C85.7298 18.3765 85.3813 18.3195 85.0297 18.3061C84.8667 18.3061 84.7138 18.2629 84.6971 18.1531C84.6819 17.9849 84.7166 17.816 84.7969 17.6675C84.9432 17.2717 85.0962 16.856 85.2592 16.4236C85.8945 14.6476 86.3534 13.1908 86.2836 13.1642C86.2138 13.1376 85.635 14.5578 84.9965 16.3338L84.5574 17.5844C84.4589 17.7832 84.4318 18.0099 84.4809 18.2263C84.5059 18.2831 84.5434 18.3336 84.5907 18.3739C84.6379 18.4142 84.6936 18.4433 84.7537 18.4591C84.8439 18.4819 84.9367 18.4931 85.0297 18.4923C85.3749 18.5304 85.7236 18.5249 86.0674 18.4757Z" fill="#263238"/>
<path d="M87.9502 18.8847C87.8471 18.8847 87.857 19.5732 87.285 20.0721C86.7129 20.571 85.9546 20.5111 85.9546 20.6075C85.9546 20.6508 86.1209 20.7373 86.4302 20.7406C86.8357 20.7404 87.2281 20.5967 87.5377 20.3348C87.8345 20.0824 88.0217 19.7247 88.0599 19.337C88.0799 19.051 87.9967 18.8781 87.9502 18.8847Z" fill="#263238"/>
<path d="M88.3559 11.0988C88.4091 11.2751 89.0477 11.2351 89.7894 11.3748C90.5311 11.5145 91.1198 11.7606 91.2262 11.611C91.2761 11.5411 91.183 11.3715 90.9502 11.1853C90.6411 10.956 90.282 10.8032 89.9025 10.7396C89.5243 10.6667 89.1341 10.6861 88.765 10.7961C88.4723 10.8892 88.336 11.0156 88.3559 11.0988Z" fill="#263238"/>
<path d="M82.2394 11.8537C82.3525 11.9967 82.7915 11.8537 83.317 11.8237C83.8425 11.7938 84.2948 11.9036 84.3946 11.7506C84.4379 11.6774 84.3647 11.5311 84.1685 11.398C83.9035 11.2381 83.5969 11.1606 83.2877 11.1754C82.9786 11.1902 82.6808 11.2966 82.4323 11.4812C82.2461 11.6408 82.1895 11.7838 82.2394 11.8537Z" fill="#263238"/>
<path d="M92.2704 4.74606C92.2721 5.20679 92.1722 5.66224 91.9779 6.08001C91.7837 6.49778 91.4997 6.86762 91.1463 7.16324C90.7929 7.45885 90.3788 7.67296 89.9332 7.79037C89.4877 7.90777 89.0218 7.92558 88.5686 7.84251C87.8668 7.71613 87.0985 7.36025 86.4932 7.73608C85.8879 8.11191 85.828 9.08974 85.2626 9.58198C84.4544 10.2838 83.1673 9.62522 82.1395 9.91458C81.348 10.1507 80.8524 10.9124 80.3269 11.5443C79.8014 12.1762 78.9965 12.7882 78.2183 12.5421C78.2416 11.8274 78.3465 11.1177 78.5309 10.4268C78.7219 9.73012 79.1471 9.12054 79.7349 8.70061C80.0773 8.52159 80.4104 8.3251 80.7327 8.11191C81.3979 7.57976 81.5442 6.65515 81.95 5.91347C82.2176 5.43676 82.5949 5.03065 83.0506 4.72874C83.5064 4.42683 84.0275 4.23781 84.5708 4.17732C85.4755 4.0842 86.4034 4.3536 87.2848 4.13409C87.9333 3.96779 88.5021 3.5454 89.1606 3.42234C90.4444 3.17622 91.6351 4.08752 92.5664 5.01546" fill="#263238"/>
<path d="M88.1663 6.57212C88.7417 6.40582 89.9191 6.03331 90.2251 5.53442C90.8902 4.45017 92.0776 3.71181 93.2849 3.77833C93.9093 3.82674 94.5013 4.0762 94.972 4.48934C95.4427 4.90248 95.7668 5.45704 95.8958 6.0699C96.6456 6.09718 97.3743 6.32592 98.0052 6.73208C98.6361 7.13824 99.1459 7.70683 99.4812 8.3781C99.8258 9.08255 99.994 9.8602 99.9714 10.6441C99.9489 11.428 99.7361 12.1947 99.3514 12.8781C99.1025 13.2008 98.941 13.5823 98.8825 13.9856C98.8825 14.4978 99.255 14.9003 99.5211 15.316C100.246 16.4668 100.186 18.0499 99.6308 19.3072C99.0754 20.5644 98.673 21.0001 97.8747 21.2528C96.3082 21.7417 97.8747 24.8914 95.2605 24.8914L94.735 15.5788C94.6593 15.6213 94.5774 15.6516 94.4922 15.6686C92.949 16.0178 92.7461 13.0078 93.092 12.1464C92.5105 11.6711 91.9909 11.1247 91.5455 10.52C91.1197 9.89141 90.7439 8.19185 90.8337 7.4036C90.2783 7.42356 87.9135 6.65194 88.1663 6.57212Z" fill="#263238"/>
<path d="M94.5185 15.6318C94.5883 15.5986 97.3522 14.7405 97.309 17.5742C97.2657 20.4079 94.4287 19.7826 94.4254 19.7028C94.4221 19.623 94.5185 15.6318 94.5185 15.6318Z" fill="#E8AF96"/>
<path d="M95.3068 18.6252C95.3068 18.6252 95.3567 18.6618 95.4398 18.7017C95.5581 18.7503 95.6907 18.7503 95.809 18.7017C96.1117 18.5953 96.3711 18.123 96.391 17.6141C96.4011 17.3716 96.358 17.1298 96.2646 16.9057C96.2387 16.8169 96.192 16.7357 96.1284 16.6686C96.0647 16.6015 95.986 16.5505 95.8988 16.5199C95.8421 16.5042 95.7817 16.5085 95.7277 16.5321C95.6738 16.5558 95.6297 16.5972 95.6028 16.6496C95.5662 16.7294 95.5828 16.786 95.5662 16.7893C95.5496 16.7926 95.5063 16.7427 95.5296 16.6263C95.5482 16.5565 95.5891 16.4946 95.646 16.45C95.7243 16.392 95.8222 16.3669 95.9188 16.3802C96.035 16.405 96.1429 16.4594 96.232 16.538C96.3212 16.6167 96.3885 16.7169 96.4276 16.8292C96.5451 17.0759 96.5999 17.3478 96.5873 17.6208C96.5607 18.1928 96.2547 18.7217 95.8489 18.8347C95.7728 18.8558 95.6931 18.8595 95.6154 18.8457C95.5377 18.8319 95.464 18.8009 95.3999 18.7549C95.3134 18.705 95.2968 18.6418 95.3068 18.6252Z" fill="#CC967F"/>
<path d="M99.2215 20.1485C99.0486 20.3363 98.9187 20.5595 98.8408 20.8026C98.763 21.0456 98.739 21.3028 98.7707 21.5561C98.8024 21.8093 98.8889 22.0527 99.0242 22.2691C99.1595 22.4855 99.3403 22.6699 99.5541 22.8093C99.4378 22.914 99.3016 22.9942 99.1536 23.045C99.0056 23.0959 98.8488 23.1164 98.6927 23.1053C98.583 23.4612 99.0852 23.7073 99.1883 24.0665C99.2119 24.1765 99.2059 24.2909 99.1708 24.3978C99.1358 24.5048 99.0729 24.6005 98.9887 24.6751C98.8204 24.826 98.622 24.9393 98.4067 25.0077C97.777 25.2335 97.1162 25.3603 96.4477 25.3836C96.2547 25.4104 96.0581 25.3946 95.8719 25.3371C95.6857 25.2796 95.5144 25.182 95.3701 25.051C95.1896 24.7793 95.1053 24.4549 95.1306 24.1297L95.0608 21.7117C95.029 21.4746 95.0733 21.2336 95.1872 21.0233C95.3691 20.8192 95.618 20.6871 95.8889 20.6508L99.3246 19.7727" fill="#263238"/>
<path d="M107.935 75.4025C107.493 72.8083 104.836 60.2828 104.836 60.2828L106.479 30.3493C105.72 29.8404 95.6327 26.1819 95.6327 26.1819C95.6327 26.1819 94.0795 30.7916 89.1438 31.8027C84.2081 32.8138 84.993 29.1187 84.993 29.1187C84.993 29.1187 75.3478 34.2706 74.7857 34.6497C74.2236 35.0289 71.8223 44.7074 71.8223 44.7074L70.0063 50.9701L77.6327 52.7429C77.6327 52.7429 77.8223 67.673 77.6327 68.7473C77.4432 69.8216 77.0607 78.4923 77.0607 78.4923L106.994 78.8715C106.994 78.8715 108.378 77.9967 107.935 75.4025Z" fill="#006BFF"/>
<path d="M106.479 30.3591C106.479 30.3591 108.325 32.1684 108.943 33.9578C109.562 35.7472 111.474 47.4811 111.474 47.4811C111.474 47.4811 100.978 48.9645 100.978 48.7782C100.978 48.5919 101.902 42.0465 102.211 40.011C102.521 37.9755 106.479 30.3591 106.479 30.3591Z" fill="#006BFF"/>
<path d="M77.6596 57.7251C77.6419 57.6726 77.633 57.6175 77.633 57.5621C77.633 57.4324 77.6064 57.2728 77.5864 57.0832C77.5565 56.6708 77.5233 56.0854 77.5 55.3271C77.4501 53.8404 77.4335 51.7916 77.4501 49.5233C77.4667 47.255 77.5066 45.1996 77.5499 43.7229C77.5731 43.0011 77.5964 42.3925 77.6097 41.9668C77.6097 41.7739 77.6297 41.6175 77.6363 41.4878C77.6363 41.4316 77.6442 41.3756 77.6596 41.3215C77.6675 41.3767 77.6675 41.4327 77.6596 41.4878C77.6596 41.6175 77.6596 41.7772 77.6596 41.9668C77.6596 42.4091 77.6596 43.0045 77.6596 43.7262C77.6596 45.2328 77.6297 47.2716 77.6097 49.5266C77.5898 51.7816 77.5931 53.8504 77.6097 55.3237C77.6097 56.0654 77.6297 56.6541 77.643 57.0798C77.643 57.2727 77.643 57.4124 77.643 57.5588C77.6558 57.6132 77.6614 57.6692 77.6596 57.7251Z" fill="#263238"/>
<path d="M101.925 38.2051C101.943 38.3342 101.943 38.4651 101.925 38.5942C101.925 38.8836 101.925 39.2361 101.909 39.6552C101.909 40.5931 101.889 41.8104 101.876 43.1607C101.862 44.5111 101.839 45.7683 101.792 46.6663C101.769 47.1153 101.746 47.4778 101.719 47.7273C101.713 47.8574 101.694 47.9866 101.663 48.1131C101.646 47.9839 101.646 47.8531 101.663 47.7239C101.663 47.4346 101.663 47.082 101.663 46.663C101.663 45.725 101.683 44.5077 101.696 43.1574C101.709 41.8071 101.736 40.5499 101.779 39.6519C101.802 39.2029 101.829 38.8403 101.852 38.5909C101.864 38.4602 101.888 38.331 101.925 38.2051Z" fill="#263238"/>
<path d="M106.163 30.5986C104.716 31.1064 103.453 32.0325 102.534 33.2594C102.611 33.0476 102.723 32.8507 102.867 32.6773C103.197 32.2384 103.592 31.8516 104.038 31.5299C104.481 31.2053 104.969 30.9476 105.488 30.7649C105.701 30.6691 105.93 30.6128 106.163 30.5986Z" fill="#263238"/>
<path d="M77.1042 38.0021C77.061 38.0288 76.6219 37.2704 75.9734 36.4157C75.3248 35.5609 74.7228 34.9223 74.7594 34.8857C75.7625 35.7338 76.5588 36.7997 77.0876 38.0021H77.1042Z" fill="#263238"/>
<path d="M95.4732 56.7704C95.4429 56.8249 95.4073 56.8761 95.3667 56.9234C95.2803 57.0332 95.1738 57.1729 95.0342 57.3392C94.7514 57.7017 94.3257 58.2139 93.7869 58.8325C92.3792 60.4479 90.8859 61.9867 89.3135 63.4423C87.7406 64.8964 86.092 66.2664 84.3745 67.5465C83.7093 68.0354 83.1705 68.4212 82.788 68.674L82.3457 68.9667C82.2965 69.0042 82.2429 69.0355 82.186 69.0598C82.2283 69.0152 82.2752 68.975 82.3257 68.9401L82.7481 68.6075C83.1206 68.3347 83.6494 67.9423 84.3013 67.4334C85.5984 66.4356 87.3579 65.0021 89.1971 63.3026C91.0364 61.603 92.5962 59.96 93.6971 58.7394C94.2459 58.1308 94.6949 57.6319 94.9843 57.2826L95.3168 56.8868C95.4233 56.8104 95.4565 56.7671 95.4732 56.7704Z" fill="#263238"/>
<path d="M108.119 95.1221L112.086 82.9724C112.679 81.1564 113.327 79.254 114.747 77.9835C115.575 77.2385 116.836 76.7529 117.8 77.3183C118.116 77.5308 118.375 77.8168 118.556 78.1517C118.737 78.4865 118.834 78.8602 118.838 79.2407C118.843 80.0013 118.718 80.7571 118.469 81.4757C116.873 87.0068 114.93 92.428 112.911 97.8194L113.118 97.4469" fill="#006BFF"/>
<path d="M113.417 92.3414C113.417 92.3947 112.788 92.2583 112.086 91.9556C111.385 91.653 110.849 91.3137 110.879 91.2638C110.909 91.2139 111.468 91.47 112.166 91.7627C112.865 92.0554 113.44 92.2849 113.417 92.3414Z" fill="#263238"/>
<path d="M114.747 89.4081C114.724 89.4613 114.082 89.1986 113.267 88.8793C112.452 88.56 111.81 88.2972 111.827 88.2407C111.844 88.1841 112.532 88.3604 113.344 88.6864C114.155 89.0123 114.747 89.3549 114.747 89.4081Z" fill="#263238"/>
<path d="M115.965 86.9834C115.931 87.0333 115.299 86.6275 114.451 86.265C113.603 85.9025 112.881 85.7162 112.895 85.653C112.908 85.5899 113.67 85.6963 114.534 86.0721C115.399 86.4479 115.998 86.9402 115.965 86.9834Z" fill="#263238"/>
<path d="M116.743 83.9268C116.703 83.9734 116.157 83.5244 115.392 83.1352C114.627 82.7461 113.952 82.5565 113.966 82.4967C113.979 82.4368 114.697 82.5399 115.489 82.949C116.28 83.3581 116.779 83.8902 116.743 83.9268Z" fill="#263238"/>
<path d="M108.039 84.7317H106.854V87.0765H108.039V84.7317Z" fill="#263238"/>
<path d="M106.715 91.653V86.7605H108.158V90.8414C108.158 90.8414 109.678 90.8847 109.868 91.5532C110.284 93.0232 110.101 96.3292 110.101 96.3292L106.715 91.653Z" fill="#455A64"/>
<path d="M119.204 104.654C118.795 102.196 118.166 99.7649 118.046 97.2771C117.966 95.5709 118.129 93.8514 117.917 92.1551C117.66 90.113 116.872 88.1806 116.091 86.2782C115.585 85.0443 115.033 83.7505 113.979 82.929C113.34 82.45 112.568 82.1815 111.77 82.1607C110.32 81.5653 106.342 81.3957 105.085 84.0631C104.42 85.48 104.34 87.0931 103.958 88.6163C103.445 90.6651 103.815 91.3403 103.143 93.3425C101.716 97.623 99.5507 102.935 100.183 107.405C100.306 108.273 101.752 109.703 102.245 110.428C102.953 111.476 104.24 111.944 105.491 112.211C109.023 112.95 112.698 112.556 115.994 111.086C117.172 110.558 118.346 109.839 118.941 108.695C119.573 107.478 119.43 106.011 119.204 104.654ZM115.432 90.8514C114.767 91.4101 113.796 91.1374 112.934 91.0942C111.9 91.041 110.889 91.3769 109.868 91.5531C108.847 91.7294 107.706 91.7228 106.874 91.0908C106.267 90.5739 105.885 89.8399 105.81 89.0454C105.739 88.2594 105.782 87.4673 105.94 86.6939C106.01 86.09 106.164 85.4988 106.399 84.9378C106.637 84.3709 107.082 83.9155 107.643 83.664C108.308 83.3314 110.709 83.1119 111.634 82.9722C112.456 83.3847 113.171 83.9824 113.723 84.7183C114.462 85.7425 115.06 86.8611 115.502 88.0443C115.718 88.4973 115.859 88.9826 115.918 89.4811C115.948 89.7315 115.92 89.9855 115.836 90.2232C115.752 90.461 115.613 90.676 115.432 90.8514Z" fill="#FAFAFA"/>
<path d="M115.432 90.8515C115.595 90.6867 115.719 90.4879 115.795 90.2695C115.882 90.0084 115.913 89.7318 115.885 89.458C115.839 89.0889 115.74 88.7282 115.592 88.387C115.225 87.454 114.793 86.5482 114.298 85.6764C113.678 84.5554 112.742 83.6408 111.608 83.0455H111.654L109.708 83.3016C109.376 83.3482 109.043 83.4014 108.691 83.4646C108.349 83.5185 108.014 83.61 107.693 83.7373C107.165 83.9738 106.744 84.3983 106.512 84.928C106.304 85.4019 106.162 85.9022 106.09 86.4147C106.007 86.9236 105.923 87.4125 105.89 87.918C105.849 88.4006 105.876 88.8864 105.97 89.3615C106.065 89.8121 106.257 90.2366 106.532 90.6054C106.801 90.95 107.16 91.2135 107.57 91.367C107.962 91.5056 108.375 91.5743 108.79 91.5699C109.544 91.5402 110.292 91.4287 111.022 91.2373C111.636 91.0887 112.266 91.0183 112.898 91.0278C113.453 91.0611 113.922 91.1475 114.308 91.1475C114.605 91.1622 114.9 91.1087 115.173 90.9912C115.356 90.9014 115.436 90.8282 115.442 90.8349C115.369 90.9111 115.283 90.9751 115.19 91.0245C114.915 91.1564 114.613 91.2214 114.308 91.2141C113.916 91.2141 113.44 91.1475 112.895 91.1243C112.272 91.1257 111.652 91.2039 111.049 91.3571C110.309 91.5509 109.551 91.6625 108.787 91.6897C108.355 91.6985 107.924 91.6286 107.517 91.4835C107.079 91.3256 106.696 91.0478 106.409 90.6819C105.839 89.8677 105.594 88.8703 105.721 87.8848C105.754 87.3792 105.837 86.887 105.92 86.3615C105.996 85.8343 106.142 85.3196 106.356 84.8316C106.606 84.2596 107.062 83.8026 107.633 83.5511C107.97 83.4177 108.322 83.3228 108.681 83.2684C109.013 83.2052 109.366 83.152 109.705 83.1054L111.647 82.856H111.674H111.697C112.857 83.4676 113.808 84.4099 114.431 85.5633C114.924 86.444 115.349 87.3613 115.702 88.3072C115.848 88.6586 115.942 89.0295 115.981 89.4081C116.004 89.6915 115.964 89.9765 115.865 90.2429C115.802 90.4087 115.708 90.561 115.589 90.6919C115.546 90.7533 115.493 90.8072 115.432 90.8515Z" fill="#263238"/>
<path d="M119.204 104.654C119.204 104.654 119.27 104.937 119.34 105.486C119.387 105.824 119.413 106.165 119.42 106.507C119.433 106.974 119.385 107.442 119.277 107.897C119.138 108.472 118.863 109.004 118.475 109.45C118.009 109.971 117.454 110.405 116.836 110.731C115.333 111.519 113.717 112.07 112.046 112.364C110.02 112.732 107.943 112.732 105.917 112.364C105.359 112.273 104.81 112.134 104.277 111.948C103.718 111.761 103.198 111.473 102.744 111.097C102.516 110.901 102.315 110.678 102.145 110.431C101.975 110.192 101.782 109.962 101.589 109.73C101.184 109.266 100.809 108.777 100.465 108.266C100.282 107.999 100.158 107.697 100.099 107.378C100.069 107.062 100.023 106.746 100.013 106.427C99.9809 105.782 99.992 105.135 100.046 104.491C100.168 103.167 100.399 101.856 100.738 100.57C101.071 99.2595 101.486 97.9458 101.932 96.6254C102.158 95.9602 102.388 95.295 102.617 94.6298C102.847 93.9646 103.093 93.2995 103.282 92.6077C103.443 91.9105 103.541 91.2003 103.575 90.4857C103.636 89.7738 103.757 89.0684 103.938 88.3771C104.254 87.0134 104.363 85.6032 104.895 84.3161C104.959 84.1556 105.035 83.9999 105.122 83.8504C105.202 83.6965 105.296 83.5506 105.404 83.4148C105.611 83.1395 105.858 82.8963 106.136 82.693C106.688 82.3026 107.314 82.0297 107.975 81.8915C108.616 81.751 109.273 81.6973 109.928 81.7318C110.57 81.7546 111.205 81.8769 111.81 82.0944H111.86V82.1509L111.783 82.0711C112.72 82.0926 113.616 82.4544 114.305 83.0888C114.928 83.7128 115.421 84.4544 115.755 85.2706C116.411 86.7476 116.985 88.2599 117.474 89.8006C117.69 90.5113 117.851 91.2373 117.956 91.9724C118.045 92.6595 118.088 93.3517 118.086 94.0445C118.086 95.3748 118.04 96.5988 118.123 97.703C118.198 98.6888 118.323 99.6702 118.499 100.643C118.645 101.495 118.785 102.223 118.894 102.815C119.004 103.407 119.084 103.859 119.137 104.169C119.16 104.318 119.177 104.435 119.19 104.518C119.204 104.601 119.19 104.638 119.19 104.638C119.19 104.638 119.19 104.598 119.164 104.521C119.137 104.445 119.124 104.322 119.097 104.172C119.034 103.859 118.948 103.407 118.831 102.822C118.715 102.236 118.565 101.508 118.409 100.656C118.227 99.6815 118.095 98.6979 118.013 97.7097C117.923 96.5988 117.973 95.3815 117.96 94.0511C117.955 93.3636 117.908 92.6771 117.817 91.9957C117.711 91.2672 117.55 90.5478 117.334 89.8438C116.837 88.3103 116.258 86.8048 115.598 85.3338C115.27 84.5367 114.786 83.8131 114.175 83.2052C113.514 82.5986 112.654 82.2534 111.757 82.234H111.68V82.1509L111.73 82.2241C111.141 82.0199 110.524 81.9077 109.901 81.8915C109.261 81.859 108.619 81.9115 107.992 82.0478C107.352 82.1815 106.748 82.4465 106.216 82.8261C105.951 83.0188 105.715 83.2496 105.517 83.5112C105.416 83.641 105.327 83.7802 105.251 83.9269C105.168 84.0724 105.094 84.2235 105.032 84.3793C104.516 85.6298 104.403 87.04 104.087 88.4103C103.907 89.0937 103.787 89.7915 103.728 90.4957C103.693 91.2192 103.594 91.9382 103.432 92.6442C103.246 93.346 102.996 94.0112 102.767 94.683C102.537 95.3549 102.311 96.0134 102.082 96.6786C101.636 98.009 101.224 99.3061 100.891 100.613C100.552 101.889 100.319 103.19 100.196 104.505C100.142 105.141 100.13 105.779 100.159 106.417C100.159 106.733 100.219 107.046 100.246 107.355C100.295 107.651 100.409 107.932 100.578 108.18C100.916 108.686 101.286 109.17 101.686 109.63C101.879 109.866 102.072 110.095 102.248 110.342C102.408 110.588 102.6 110.812 102.82 111.007C103.26 111.37 103.763 111.65 104.303 111.832C104.83 112.014 105.371 112.153 105.92 112.247C107.928 112.62 109.988 112.629 112 112.274C113.661 111.989 115.269 111.449 116.766 110.674C117.377 110.357 117.927 109.935 118.392 109.427C118.773 108.991 119.046 108.472 119.187 107.91C119.362 107.125 119.395 106.315 119.283 105.519C119.25 105.25 119.224 105.043 119.207 104.897C119.19 104.751 119.204 104.654 119.204 104.654Z" fill="#263238"/>
<path d="M115.432 90.8514C115.59 90.684 115.711 90.4859 115.788 90.2693C115.875 90.0082 115.906 89.7316 115.878 89.4578C115.832 89.0893 115.732 88.7296 115.582 88.3902C115.215 87.4577 114.782 86.5529 114.285 85.6829C113.666 84.5633 112.731 83.6506 111.598 83.0587H111.654L109.708 83.3148C109.376 83.3647 109.043 83.4146 108.694 83.4778C108.353 83.5319 108.018 83.6222 107.696 83.7472C107.173 83.984 106.756 84.4057 106.525 84.9312C106.318 85.404 106.177 85.9032 106.106 86.4146C106.02 86.9201 105.94 87.4123 105.904 87.9179C105.783 88.8531 106.01 89.8 106.542 90.5786C106.809 90.9215 107.166 91.1831 107.573 91.3336C107.963 91.4719 108.374 91.5417 108.787 91.5398C109.54 91.5081 110.287 91.3966 111.015 91.2072C111.63 91.057 112.262 90.9866 112.895 90.9977C113.453 91.031 113.919 91.1208 114.305 91.1208C114.6 91.1367 114.895 91.0843 115.166 90.9678C115.349 90.8813 115.429 90.8081 115.439 90.8148C115.367 90.8937 115.281 90.9591 115.186 91.0077C114.912 91.1426 114.61 91.2088 114.305 91.2006C113.912 91.2006 113.437 91.1341 112.891 91.1141C112.27 91.1168 111.651 91.1961 111.049 91.3503C110.309 91.5511 109.549 91.6694 108.784 91.7028C108.35 91.7086 107.919 91.6389 107.51 91.4966C107.069 91.3376 106.682 91.0575 106.392 90.6884C105.821 89.8698 105.575 88.8682 105.701 87.878C105.734 87.3724 105.817 86.8802 105.9 86.3547C105.973 85.8243 106.121 85.3069 106.339 84.8181C106.591 84.2432 107.049 83.7838 107.623 83.531C107.961 83.3948 108.314 83.2988 108.674 83.2449C109.007 83.1784 109.362 83.1285 109.698 83.082L111.644 82.8325H111.674H111.701C112.862 83.4467 113.816 84.391 114.441 85.5465C114.932 86.429 115.356 87.3474 115.708 88.2937C115.856 88.6457 115.949 89.018 115.984 89.3979C116.006 89.6827 115.965 89.9687 115.865 90.2361C115.802 90.4019 115.708 90.5542 115.589 90.6851C115.547 90.7496 115.494 90.8059 115.432 90.8514Z" fill="#263238"/>
<path d="M116.51 101.268C116.482 101.048 116.4 100.837 116.271 100.657C116.141 100.476 115.968 100.331 115.768 100.234C115.149 99.9645 114.438 100.337 113.989 100.849C113.54 101.361 113.297 102.007 112.894 102.542C112.541 103.005 112.085 103.38 111.562 103.638C111.039 103.895 110.464 104.028 109.881 104.025C108.464 104.025 107.051 103.191 105.697 103.61C105.235 103.753 104.772 104.115 104.769 104.608C104.799 104.939 104.952 105.248 105.198 105.472C105.874 106.195 106.763 106.682 107.736 106.863C109.419 106.806 111.074 106.419 112.608 105.725C114.384 104.967 115.691 104.029 116.303 102.572C116.491 102.165 116.563 101.714 116.51 101.268Z" fill="#E0E0E0"/>
<path d="M116.277 103.264C116.197 103.38 116.102 103.485 115.994 103.577C115.717 103.845 115.425 104.097 115.12 104.332C113.081 105.895 110.615 106.8 108.049 106.926C107.663 106.951 107.277 106.951 106.891 106.926C106.75 106.926 106.609 106.908 106.472 106.873C106.472 106.833 107.074 106.873 108.039 106.789C110.557 106.583 112.971 105.696 115.023 104.222C115.815 103.65 116.254 103.234 116.277 103.264Z" fill="#263238"/>
<path d="M115.788 95.7539C115.792 95.9315 115.775 96.1089 115.738 96.2827C115.692 96.6153 115.619 97.1076 115.499 97.7062C115.361 98.4115 115.167 99.1045 114.917 99.7783C114.612 100.611 114.169 101.387 113.606 102.073C113.037 102.764 112.304 103.301 111.474 103.636C110.794 103.893 110.068 104.007 109.343 103.969C108.856 103.951 108.373 103.867 107.909 103.72C107.746 103.666 107.623 103.616 107.54 103.58C107.457 103.543 107.417 103.52 107.42 103.513C108.048 103.692 108.694 103.795 109.346 103.819C110.05 103.832 110.75 103.704 111.405 103.443C112.2 103.113 112.901 102.59 113.447 101.924C114.631 100.507 115.073 98.8271 115.352 97.663C115.492 97.071 115.589 96.5887 115.658 96.2528C115.685 96.0826 115.728 95.9155 115.788 95.7539Z" fill="#263238"/>
<path d="M105.039 101.574C104.828 101.437 104.649 101.257 104.513 101.046C104.147 100.564 103.879 100.015 103.725 99.4291C103.568 98.843 103.525 98.2321 103.599 97.6298C103.614 97.3797 103.679 97.1353 103.791 96.9114C103.861 96.9114 103.555 98.0422 103.925 99.3726C104.294 100.703 105.102 101.534 105.039 101.574Z" fill="#263238"/>
<path d="M105.551 91.5898C105.41 91.1758 105.308 90.7493 105.248 90.316C105.041 89.2741 104.977 88.209 105.055 87.1497C105.143 86.0781 105.518 85.0498 106.14 84.173C106.33 83.9103 106.554 83.6733 106.805 83.4679C106.891 83.3841 106.991 83.3165 107.101 83.2683C106.799 83.5815 106.519 83.9149 106.263 84.2661C105.697 85.141 105.354 86.1414 105.265 87.1796C105.189 88.2222 105.232 89.27 105.395 90.3027C105.474 90.728 105.526 91.1579 105.551 91.5898Z" fill="#263238"/>
<path d="M102.833 48.6385L105.444 60.3724L106.226 78.7915L111.913 78.3691L112.738 59.5975L110.889 47.5642L102.833 48.6385Z" fill="#E8AF96"/>
<path d="M106.782 85.5365C106.726 85.5629 106.664 85.5765 106.602 85.5764C106.54 85.5762 106.479 85.5622 106.423 85.5355C106.367 85.5087 106.318 85.4699 106.278 85.4218C106.239 85.3736 106.211 85.3174 106.196 85.2571C105.98 84.4522 105.422 82.2638 105.435 81.4522C105.455 80.4312 106.04 76.4966 106.04 76.4966L111.97 76.5365L113.46 81.9478C113.46 81.9478 113.071 84.1695 112.682 84.2992C112.434 84.3622 112.183 84.4111 111.93 84.4456L111.767 85.1274C111.435 86.1684 110.201 85.8824 110.201 85.8824C110.146 86.0833 110.046 86.2689 109.908 86.4251C109.77 86.5813 109.598 86.704 109.406 86.7837C109.228 86.847 109.036 86.8584 108.851 86.8166C108.667 86.7748 108.498 86.6815 108.365 86.5476C108.365 86.5476 107.553 87.0232 107.198 86.6274C106.842 86.2316 106.941 85.3802 106.941 85.3802C106.908 85.4491 106.851 85.5044 106.782 85.5365Z" fill="#E8AF96"/>
<path d="M107.004 85.8659C107.014 85.8053 107.014 85.7436 107.004 85.683C107.006 85.5175 106.998 85.352 106.981 85.1874C106.948 84.7717 106.861 84.1896 106.765 83.571C106.676 83.0371 106.619 82.4985 106.595 81.9579C106.595 81.5455 106.645 81.2927 106.628 81.2927C106.601 81.3472 106.582 81.4055 106.572 81.4657C106.537 81.6287 106.519 81.7946 106.515 81.9612C106.517 82.5075 106.565 83.0527 106.658 83.5909C106.755 84.2195 106.851 84.7883 106.904 85.2007C106.957 85.6131 106.987 85.8659 107.004 85.8659Z" fill="#A56349"/>
<path d="M108.381 86.5943C108.436 86.4563 108.468 86.3102 108.474 86.1619C108.515 85.8086 108.525 85.4526 108.504 85.0976C108.481 84.6819 108.441 84.306 108.404 84.0399C108.396 83.892 108.369 83.7456 108.325 83.6042C108.321 84.104 108.343 84.6035 108.391 85.1009C108.411 85.4521 108.411 85.8041 108.391 86.1553C108.375 86.301 108.372 86.4479 108.381 86.5943Z" fill="#A56349"/>
<path d="M110.264 85.9323C110.354 85.5164 110.384 85.0897 110.353 84.6652C110.358 84.2394 110.297 83.8154 110.174 83.408C110.144 83.408 110.22 83.9734 110.24 84.6685C110.26 85.3636 110.23 85.929 110.264 85.9323Z" fill="#A56349"/>
<path d="M111.817 85.1674C111.955 84.5223 111.941 83.854 111.777 83.2151C111.766 83.5412 111.774 83.8677 111.8 84.1929C111.814 84.7284 111.787 85.1641 111.817 85.1674Z" fill="#A56349"/>
<path d="M110.091 82.5965C110.091 82.5965 110.124 82.5267 110.091 82.4136C110.063 82.266 109.985 82.1324 109.871 82.0344C109.754 81.9386 109.607 81.8858 109.456 81.8848C109.343 81.8848 109.276 81.918 109.279 81.9313C109.465 81.9505 109.643 82.0144 109.798 82.1176C109.934 82.2502 110.035 82.4149 110.091 82.5965Z" fill="#A56349"/>
<path d="M111.774 82.031C111.804 82.031 111.774 81.8081 111.544 81.6651C111.486 81.616 111.416 81.5835 111.341 81.5712C111.266 81.5589 111.189 81.5672 111.119 81.5953C111.119 81.6285 111.305 81.6352 111.485 81.7582C111.664 81.8813 111.754 82.041 111.774 82.031Z" fill="#A56349"/>
<path d="M108.125 82.3203C108.155 82.3203 108.165 82.1607 108.022 82.0509C107.879 81.9412 107.726 81.9844 107.736 82.0143C107.746 82.0443 107.852 82.0543 107.955 82.1374C108.058 82.2205 108.095 82.3237 108.125 82.3203Z" fill="#A56349"/>
<path d="M106.1 76.5366C106.099 76.5521 106.099 76.5677 106.1 76.5832L106.076 76.7295C106.053 76.8626 106.023 77.0621 105.987 77.2916C105.91 77.7805 105.804 78.4956 105.684 79.3936C105.627 79.8459 105.564 80.3382 105.511 80.877C105.475 81.1559 105.463 81.4374 105.474 81.7184C105.499 82.0175 105.539 82.315 105.594 82.6098C105.704 83.2151 105.85 83.8504 106.013 84.5089C106.056 84.6719 106.096 84.8415 106.14 85.0078C106.163 85.0909 106.186 85.1741 106.206 85.2606C106.226 85.3552 106.27 85.4432 106.333 85.5167C106.4 85.5938 106.492 85.6457 106.593 85.6638C106.694 85.6819 106.798 85.6652 106.888 85.6164C106.914 85.5968 106.933 85.5686 106.941 85.5366C106.95 85.5127 106.958 85.4883 106.964 85.4634C106.964 85.4169 106.984 85.3736 106.991 85.3271C107.003 85.2333 107.01 85.1389 107.011 85.0444C107.011 85.0303 107.005 85.0167 106.995 85.0068C106.985 84.9968 106.972 84.9912 106.958 84.9912C106.944 84.9912 106.93 84.9968 106.92 85.0068C106.91 85.0167 106.905 85.0303 106.905 85.0444C106.899 85.2842 106.907 85.5241 106.931 85.7628C106.95 86.01 107.005 86.2532 107.094 86.4845C107.143 86.6102 107.229 86.718 107.34 86.7938C107.458 86.8606 107.594 86.8896 107.729 86.877C107.989 86.8489 108.239 86.7662 108.464 86.6342H108.395C108.489 86.7319 108.602 86.8099 108.727 86.8637C108.889 86.9278 109.065 86.9522 109.238 86.9348C109.412 86.9175 109.579 86.8588 109.725 86.7639C110.007 86.5666 110.212 86.2773 110.304 85.9457L110.237 85.9856C110.57 86.057 110.917 86.0305 111.235 85.9091C111.388 85.8448 111.524 85.7472 111.635 85.6235C111.745 85.4999 111.827 85.3532 111.874 85.194C111.927 84.9612 111.98 84.7351 112.033 84.5089L111.993 84.5488C112.14 84.5289 112.286 84.5023 112.429 84.4756L112.642 84.4324L112.752 84.4025C112.792 84.3843 112.828 84.3583 112.858 84.326C112.951 84.2108 113.023 84.0802 113.071 83.9402C113.124 83.8071 113.167 83.6741 113.207 83.5411C113.35 83.0362 113.466 82.5245 113.556 82.0078V81.9878L112.452 78.0532C112.319 77.5909 112.216 77.2251 112.143 76.969C112.106 76.8493 112.076 76.7528 112.056 76.683C112.05 76.6505 112.039 76.6192 112.023 76.5898C112.028 76.6224 112.034 76.6546 112.043 76.6863C112.063 76.7595 112.086 76.8526 112.116 76.9756C112.183 77.2351 112.283 77.6009 112.406 78.0699C112.662 79.0178 113.028 80.3714 113.47 82.0144V81.9945C113.379 82.5068 113.261 83.0142 113.117 83.5145C113.078 83.6442 113.034 83.7739 112.981 83.9036C112.937 84.031 112.872 84.1502 112.788 84.2561C112.77 84.2776 112.747 84.2947 112.722 84.306L112.622 84.3326L112.412 84.3759C112.269 84.4025 112.126 84.4258 111.98 84.4457C111.97 84.4481 111.961 84.453 111.953 84.46C111.946 84.467 111.94 84.4758 111.937 84.4856C111.884 84.7118 111.83 84.9379 111.774 85.1508C111.735 85.2986 111.662 85.4355 111.562 85.5508C111.462 85.6661 111.336 85.7569 111.195 85.816C110.9 85.9265 110.579 85.9507 110.27 85.8858C110.256 85.8842 110.242 85.8872 110.23 85.8944C110.218 85.9016 110.209 85.9127 110.204 85.9258C110.119 86.2302 109.931 86.4958 109.672 86.6774C109.538 86.7635 109.387 86.8166 109.229 86.8322C109.071 86.8478 108.911 86.8255 108.764 86.7672C108.651 86.7214 108.548 86.6536 108.461 86.5677C108.451 86.5604 108.439 86.5564 108.426 86.5564C108.414 86.5564 108.401 86.5604 108.391 86.5677C108.182 86.6916 107.948 86.7698 107.706 86.7972C107.591 86.8095 107.475 86.7863 107.374 86.7306C107.283 86.6652 107.212 86.5752 107.171 86.4712C107.087 86.249 107.034 86.0162 107.014 85.7794C106.992 85.5462 106.983 85.3119 106.988 85.0776H106.881C106.88 85.1655 106.873 85.2533 106.861 85.3404C106.861 85.3836 106.861 85.4302 106.838 85.4701C106.815 85.51 106.801 85.5532 106.811 85.5666C106.739 85.5942 106.661 85.6022 106.585 85.5898C106.508 85.5725 106.439 85.5319 106.386 85.4734C106.333 85.4145 106.297 85.3419 106.283 85.2639C106.263 85.1774 106.239 85.0943 106.216 85.0111C106.173 84.8448 106.13 84.6785 106.09 84.5122C105.923 83.847 105.757 83.2251 105.661 82.6231C105.604 82.3317 105.563 82.0375 105.538 81.7417C105.526 81.4653 105.536 81.1884 105.568 80.9136C105.617 80.3781 105.674 79.8825 105.731 79.4335C105.844 78.5422 105.933 77.8271 105.997 77.3249C106.03 77.0854 106.053 76.8958 106.07 76.7628C106.07 76.7029 106.07 76.653 106.07 76.6164C106.07 76.5799 106.1 76.5366 106.1 76.5366Z" fill="#A56349"/>
<path d="M84.9932 26.2751C86.9075 26.2787 88.7796 25.7125 90.3712 24.6487C90.3712 24.6487 89.1439 27.642 84.9998 27.3493L84.9932 26.2751Z" fill="#CC967F"/>
<path opacity="0.3" d="M101.673 48.795L102.834 48.6387L104.952 58.1608L104.836 60.2828L105.591 63.8582L105.844 69.8183C105.844 69.8183 102.987 60.8582 102.834 58.7196C102.667 56.4247 101.673 48.7817 101.673 48.7817" fill="black"/>
<path d="M49.7681 142.457C49.7681 142.457 50.1439 144.818 50.1306 145.231L51.7936 146.667L56.0375 145.72L56.3867 142.247L49.7681 142.457Z" fill="#F4C3AE"/>
<path d="M56.1239 145.197V145.577C56.1239 145.577 62.5397 148.064 62.6228 149.275L49.9443 149.361L50.0873 145.141C51.0302 145.584 52.0577 145.819 53.0995 145.828C54.1413 145.838 55.1729 145.623 56.1239 145.197Z" fill="#006BFF"/>
<g opacity="0.6">
<path d="M49.9512 149.361L49.9844 148.347L62.1241 148.633C62.1241 148.633 62.6895 148.876 62.6297 149.275L49.9512 149.361Z" fill="white"/>
</g>
<path d="M56.1771 145.61C56.1771 145.673 55.8645 145.703 55.5618 145.903C55.2592 146.102 55.0995 146.368 55.0397 146.342C54.9798 146.315 55.0729 145.959 55.4454 145.723C55.8179 145.487 56.1904 145.553 56.1771 145.61Z" fill="#263238"/>
<path d="M57.5109 146.152C57.5109 146.212 57.2581 146.318 57.0486 146.581C56.839 146.844 56.7825 147.123 56.716 147.12C56.6495 147.116 56.6129 146.767 56.8789 146.455C57.145 146.142 57.5076 146.092 57.5109 146.152Z" fill="#263238"/>
<path d="M58.2758 147.738C58.2193 147.738 58.1328 147.442 58.2758 147.103C58.4188 146.764 58.7215 146.624 58.7481 146.677C58.7747 146.731 58.5951 146.91 58.4721 147.193C58.349 147.476 58.339 147.732 58.2758 147.738Z" fill="#263238"/>
<path d="M63.5742 142.457C63.5742 142.457 63.95 144.818 63.9367 145.231L65.5997 146.667L69.8469 145.72L70.1995 142.247L63.5742 142.457Z" fill="#F4C3AE"/>
<path d="M69.9334 145.197V145.577C69.9334 145.577 76.3492 148.064 76.4323 149.275L63.7505 149.361L63.8935 145.141C64.837 145.584 65.8649 145.819 66.9073 145.828C67.9496 145.838 68.9818 145.623 69.9334 145.197Z" fill="#006BFF"/>
<g opacity="0.6">
<path d="M63.7568 149.361L63.7934 148.347L75.9331 148.633C75.9331 148.633 76.4985 148.876 76.4387 149.275L63.7568 149.361Z" fill="white"/>
</g>
<path d="M69.9832 145.61C69.9832 145.673 69.6739 145.703 69.3679 145.903C69.0619 146.102 68.9056 146.368 68.849 146.342C68.7925 146.315 68.8823 145.959 69.2515 145.723C69.6206 145.487 69.9965 145.553 69.9832 145.61Z" fill="#263238"/>
<path d="M71.317 146.152C71.317 146.212 71.0643 146.318 70.8547 146.581C70.6452 146.844 70.5886 147.123 70.5221 147.12C70.4556 147.116 70.419 146.767 70.6851 146.455C70.9512 146.142 71.317 146.092 71.317 146.152Z" fill="#263238"/>
<path d="M72.082 147.738C72.0288 147.738 71.939 147.442 72.082 147.103C72.225 146.764 72.5277 146.624 72.5543 146.677C72.5809 146.731 72.4013 146.91 72.2782 147.193C72.1552 147.476 72.1452 147.732 72.082 147.738Z" fill="#263238"/>
<path d="M74.2404 83.2517H46.369L43.4888 96.449L49.246 143.371H58.1595L60.1983 102.043L62.3435 143.371H71.899L75.9134 96.9679L74.2404 83.2517Z" fill="#263238"/>
<path d="M52.9344 142.716C52.8845 142.716 52.7648 134.444 52.6616 124.247C52.5585 114.05 52.5153 105.765 52.5519 105.765C52.5885 105.765 52.7215 114.03 52.8213 124.234C52.9211 134.438 52.9809 142.713 52.9344 142.716Z" fill="#455A64"/>
<path d="M67.2058 142.557C67.2029 142.522 67.2029 142.488 67.2058 142.453C67.2058 142.377 67.2225 142.277 67.2358 142.151C67.2657 141.875 67.3056 141.486 67.3622 140.99C67.4752 139.992 67.6282 138.526 67.8012 136.723C67.9741 134.92 68.1338 132.772 68.3101 130.38C68.4863 127.989 68.5928 125.361 68.6726 122.601C68.7524 119.84 68.7624 117.203 68.7458 114.808C68.7291 112.414 68.6626 110.258 68.5894 108.449C68.5163 106.64 68.4464 105.173 68.3865 104.162C68.3633 103.666 68.3433 103.277 68.3267 102.998C68.3267 102.871 68.3267 102.772 68.3267 102.695C68.3244 102.661 68.3244 102.626 68.3267 102.592C68.3374 102.625 68.343 102.66 68.3433 102.695L68.3732 102.994C68.3932 103.274 68.4265 103.66 68.4664 104.159C68.5462 105.156 68.636 106.633 68.7225 108.442C68.8089 110.252 68.8788 112.41 68.9154 114.808C68.952 117.206 68.9154 119.84 68.8555 122.604C68.7956 125.368 68.6393 128.002 68.4797 130.394C68.32 132.785 68.1238 134.934 67.9342 136.736C67.7446 138.539 67.575 139.996 67.4387 141C67.3688 141.492 67.3189 141.878 67.279 142.154C67.279 142.281 67.2457 142.38 67.2358 142.457C67.2293 142.491 67.2193 142.524 67.2058 142.557Z" fill="#455A64"/>
<path d="M59.1605 40.9092L48.5175 41.4846L47.6494 45.4957C47.6494 45.4957 50.5862 47.8537 50.8789 47.9502C51.1716 48.0467 57.8634 48.9812 57.8634 48.9812C57.8634 48.9812 65.0641 45.6254 64.9676 45.6553C64.8711 45.6852 59.1605 40.9092 59.1605 40.9092Z" fill="#CC937F"/>
<path d="M49.8913 22.3337C49.286 21.7051 48.2616 21.8249 47.4035 22.0011C46.898 22.0735 46.4059 22.2204 45.9434 22.4368C45.713 22.548 45.5095 22.7079 45.347 22.9054C45.1845 23.103 45.0668 23.3335 45.0022 23.581C44.8525 24.3426 45.3946 25.0976 45.2982 25.8692C45.2475 26.1378 45.1391 26.3923 44.9807 26.6151C44.8222 26.8378 44.6173 27.0236 44.3802 27.1597C43.9041 27.4297 43.3909 27.628 42.8569 27.7484C43.119 28.0793 43.4472 28.352 43.8206 28.549C44.194 28.746 44.6043 28.863 45.0254 28.8925C44.9756 29.1685 44.623 29.2484 44.3603 29.2849C44.0975 29.3215 43.7283 29.4779 43.7682 29.7572C43.8069 29.8963 43.8974 30.0153 44.021 30.0898C45.496 31.1943 47.3132 31.7431 49.1529 31.6397C50.011 31.5898 50.919 31.3603 51.4811 30.7184C52.0432 30.0765 52.1463 29.265 52.1463 28.4634C52.1304 27.3616 51.8798 26.2759 51.4113 25.2785C50.9427 24.2812 50.2669 23.3952 49.429 22.6796" fill="#E0E0E0"/>
<path d="M49.4223 22.7328C49.2899 22.1844 49.2851 21.613 49.4082 21.0624C49.5314 20.5118 49.7791 19.9968 50.1325 19.5571C50.4859 19.1173 50.9354 18.7644 51.4466 18.5256C51.9577 18.2868 52.5168 18.1685 53.0808 18.1796C53.4744 18.235 53.8751 18.2089 54.2582 18.1031C54.5761 17.9235 54.8607 17.6907 55.0997 17.4147C55.878 16.7096 56.9622 16.4734 57.9966 16.3104C59.47 16.0776 61.0132 15.9446 62.4201 16.4335C63.827 16.9224 65.0609 18.1863 65.0808 19.6763C65.0808 20.3415 64.8713 20.9668 64.8347 21.6187C64.7981 22.2705 65.0143 23.0189 65.6063 23.2816C65.9888 23.4612 66.4877 23.428 66.7605 23.7506C66.8602 23.8991 66.9112 24.0749 66.9064 24.2537C66.9016 24.4325 66.8413 24.6054 66.7338 24.7484C66.5037 25.0286 66.2155 25.2556 65.8891 25.4136C66.1597 25.4866 66.3989 25.6466 66.5696 25.869C66.7403 26.0914 66.8331 26.3638 66.8336 26.6442C66.8234 26.9243 66.7513 27.1987 66.6225 27.4477C66.4937 27.6967 66.3114 27.9141 66.0886 28.0843C65.6402 28.4203 65.1237 28.6542 64.5753 28.7694C62.0044 29.4113 59.2738 28.7495 56.8558 27.6685C54.1884 26.4702 51.7722 24.7774 49.735 22.6796L49.9412 22.4435" fill="#E0E0E0"/>
<path d="M48.7637 23.97C48.8468 23.7339 49.5419 22.1407 49.7914 22.1574C49.9677 22.1574 49.5552 23.6474 49.6484 23.8004C50.5497 25.2472 50.8357 27.0099 50.7493 28.7128C50.6466 30.3661 50.3587 32.0028 49.8912 33.5919" fill="#E0E0E0"/>
<path d="M49.8914 33.592C49.2936 32.0553 48.8307 30.4695 48.5078 28.8525L49.8914 33.592Z" fill="#E0E0E0"/>
<path d="M54.7739 47.0721C53.5453 47.0814 52.3618 46.6094 51.4767 45.7573C50.5916 44.9051 50.0751 43.7404 50.0378 42.5123L49.5788 27.1464C49.3227 23.0189 51.5112 19.4302 55.642 19.2905H56.0245C57.8801 19.337 59.6502 20.0803 60.9827 21.3727C62.3151 22.6651 63.1121 24.4117 63.2152 26.265C63.418 29.8437 63.5943 33.7983 63.5245 35.7107C63.3781 39.6752 59.4003 40.1974 59.4003 40.1974C59.4003 40.1974 59.4003 41.1154 59.4269 42.2794C59.4384 42.9005 59.3267 43.5177 59.0985 44.0955C58.8702 44.6732 58.5298 45.2001 58.097 45.6456C57.6641 46.0911 57.1473 46.4466 56.5764 46.6914C56.0055 46.9363 55.3917 47.0656 54.7706 47.0721H54.7739Z" fill="#CC937F"/>
<path d="M59.387 40.3702C57.5546 40.3178 55.7758 39.7406 54.2617 38.7073C54.2617 38.7073 55.4491 41.6208 59.4136 41.368L59.387 40.3702Z" fill="#CC937F"/>
<path d="M56.6062 33.9645C56.6933 33.8701 56.8004 33.7966 56.9197 33.7493C57.039 33.702 57.1675 33.6822 57.2955 33.6914C57.4235 33.7005 57.5478 33.7384 57.6592 33.8021C57.7706 33.8659 57.8662 33.9539 57.9389 34.0597C58.0116 34.1654 58.0596 34.2862 58.0793 34.413C58.0989 34.5398 58.0898 34.6695 58.0525 34.7923C58.0152 34.9151 57.9508 35.0279 57.8639 35.1224C57.7771 35.2169 57.67 35.2906 57.5508 35.3381C57.3296 35.4194 57.0879 35.4264 56.8623 35.3581C56.6886 35.3167 56.5325 35.2212 56.4167 35.0853C56.3462 34.9788 56.3035 34.8564 56.2924 34.7292C56.2814 34.6019 56.3024 34.474 56.3535 34.3569C56.4303 34.1601 56.5591 33.9877 56.726 33.8581" fill="#CC937F"/>
<path d="M62.1972 29.0522C62.1955 29.1999 62.1361 29.341 62.0317 29.4454C61.9272 29.5498 61.7861 29.6092 61.6385 29.611C61.5662 29.615 61.4938 29.6045 61.4256 29.5801C61.3575 29.5557 61.2949 29.5179 61.2416 29.4689C61.1882 29.42 61.1453 29.3608 61.1152 29.2949C61.0851 29.2291 61.0685 29.1579 61.0664 29.0855C61.069 28.9381 61.1287 28.7975 61.2329 28.6932C61.3371 28.589 61.4778 28.5293 61.6252 28.5267C61.6975 28.5227 61.7698 28.5332 61.838 28.5576C61.9062 28.582 61.9688 28.6198 62.0221 28.6688C62.0754 28.7177 62.1184 28.7769 62.1484 28.8428C62.1785 28.9086 62.1951 28.9798 62.1972 29.0522Z" fill="#263238"/>
<path d="M62.3202 28.3236C62.247 28.3935 61.8246 28.0675 61.216 28.0542C60.6073 28.0409 60.1517 28.3336 60.0885 28.2604C60.0253 28.1873 60.1317 28.0941 60.3313 27.9578C60.5992 27.7812 60.9152 27.6917 61.2359 27.7017C61.5526 27.7081 61.859 27.8153 62.1107 28.0077C62.2936 28.154 62.3535 28.2904 62.3202 28.3236Z" fill="#263238"/>
<path d="M56.4931 29.0522C56.4905 29.2002 56.4304 29.3413 56.3254 29.4456C56.2205 29.55 56.079 29.6093 55.931 29.611C55.859 29.6145 55.787 29.6037 55.7192 29.5791C55.6514 29.5545 55.5893 29.5166 55.5363 29.4677C55.4833 29.4188 55.4407 29.3597 55.4108 29.2941C55.3809 29.2285 55.3644 29.1576 55.3623 29.0855C55.364 28.9378 55.4235 28.7967 55.5279 28.6923C55.6323 28.5879 55.7734 28.5284 55.9211 28.5267C55.9934 28.5227 56.0657 28.5332 56.1339 28.5576C56.2021 28.582 56.2647 28.6198 56.318 28.6688C56.3713 28.7177 56.4143 28.7769 56.4444 28.8428C56.4744 28.9086 56.491 28.9798 56.4931 29.0522Z" fill="#263238"/>
<path d="M56.4534 28.327C56.3836 28.4002 55.9612 28.0709 55.3526 28.0576C54.7439 28.0443 54.2883 28.3403 54.2251 28.2638C54.1619 28.1873 54.265 28.0975 54.4645 27.9611C54.7327 27.7849 55.0485 27.6955 55.3692 27.705C55.6865 27.7137 55.9933 27.8206 56.2472 28.011C56.4302 28.1607 56.49 28.2937 56.4534 28.327Z" fill="#263238"/>
<path d="M58.4123 32.9035C58.7366 32.8082 59.0721 32.7556 59.41 32.7472C59.5664 32.7472 59.716 32.7073 59.7426 32.6008C59.7606 32.4408 59.728 32.2791 59.6495 32.1385L59.2038 30.9312C58.6052 29.2317 58.1761 27.8314 58.2426 27.8082C58.3092 27.7849 58.8546 29.1385 59.45 30.8481C59.5963 31.2671 59.7327 31.6696 59.8624 32.0521C59.9577 32.2413 59.9813 32.4587 59.9289 32.664C59.9053 32.718 59.8696 32.7658 59.8246 32.8039C59.7797 32.8419 59.7266 32.8692 59.6695 32.8835C59.5828 32.9069 59.4931 32.917 59.4034 32.9135C59.0738 32.9504 58.741 32.9471 58.4123 32.9035Z" fill="#263238"/>
<path d="M56.6098 33.2793C56.7096 33.2793 56.6929 33.9445 57.2484 34.4201C57.8038 34.8958 58.5089 34.8492 58.5122 34.9423C58.5122 34.9822 58.3526 35.0654 58.0566 35.0687C57.6682 35.0633 57.294 34.9221 56.9989 34.6696C56.7168 34.4277 56.5402 34.0852 56.5067 33.715C56.4867 33.439 56.5632 33.276 56.6098 33.2793Z" fill="#263238"/>
<path d="M56.5433 25.9423C56.4767 26.1053 55.8781 26.0121 55.1563 26.082C54.4346 26.1518 53.8559 26.3314 53.7628 26.1818C53.7229 26.1086 53.826 25.9556 54.0654 25.8026C54.3792 25.6091 54.7353 25.4949 55.1031 25.47C55.4694 25.434 55.839 25.4865 56.1807 25.623C56.4235 25.7361 56.5433 25.8691 56.5433 25.9423Z" fill="#E0E0E0"/>
<path d="M62.1209 26.6075C62.0111 26.7439 61.5954 26.6075 61.0898 26.5709C60.5843 26.5344 60.1553 26.6408 60.0621 26.4944C60.0189 26.4246 60.0887 26.2882 60.2816 26.1619C60.5347 26.0094 60.8282 25.9375 61.1231 25.9556C61.4203 25.9679 61.7063 26.0725 61.9413 26.255C62.1142 26.3814 62.1708 26.5244 62.1209 26.6075Z" fill="#E0E0E0"/>
<path d="M49.8082 30.2662C49.7417 30.2362 47.1042 29.3948 47.1241 32.1087C47.1441 34.8227 49.8647 34.2407 49.868 34.1608C49.8714 34.081 49.8082 30.2662 49.8082 30.2662Z" fill="#CC937F"/>
<path d="M49.0331 33.133C49.0331 33.133 48.9866 33.1662 48.9067 33.2028C48.7938 33.249 48.6672 33.249 48.5542 33.2028C48.2648 33.103 48.0187 32.6474 48.0021 32.1585C47.9964 31.9299 48.0407 31.7029 48.1318 31.4933C48.1559 31.408 48.2008 31.33 48.2622 31.2662C48.3237 31.2024 48.4 31.1547 48.4844 31.1274C48.5383 31.1118 48.5961 31.1159 48.6473 31.1391C48.6986 31.1623 48.7398 31.2029 48.7637 31.2538C48.8003 31.3303 48.7837 31.3835 48.797 31.3869C48.8103 31.3902 48.8569 31.3436 48.8336 31.2305C48.8155 31.164 48.7771 31.1047 48.7238 31.0609C48.6872 31.032 48.6448 31.0111 48.5995 30.9997C48.5543 30.9882 48.5071 30.9864 48.4611 30.9944C48.35 31.0178 48.2468 31.0691 48.1612 31.1437C48.0757 31.2182 48.0106 31.3133 47.9722 31.4201C47.8586 31.655 47.8049 31.9144 47.8158 32.1751C47.8358 32.7239 48.1185 33.2328 48.5143 33.3425C48.5869 33.363 48.6633 33.3668 48.7376 33.3536C48.8119 33.3403 48.8823 33.3104 48.9433 33.266C49.0265 33.1995 49.0431 33.1396 49.0331 33.133Z" fill="#A47361"/>
<path d="M61.4586 22.031C61.8943 21.7815 60.4608 20.3248 59.3799 19.8525C57.7369 19.1407 55.2391 18.7283 53.7424 19.1873C51.9398 19.7328 50.4531 20.6574 49.5717 22.3203C48.7229 24.0121 48.3406 25.8995 48.4642 27.7882C48.4874 28.3603 47.3999 28.6895 47.7158 29.1718C48.0983 29.7572 48.0085 29.4811 48.6637 30.2926C48.8466 30.5221 49.1327 30.7815 49.3289 31.0011C49.8411 31.5897 51.1216 31.7062 51.3976 31.1906C51.9683 30.2263 52.281 29.1313 52.3056 28.011C52.3289 27.1796 52.3455 25.919 52.126 25.1175C52.0435 24.8199 52.0065 24.5115 52.0163 24.2028C52.0172 23.6961 52.1651 23.2005 52.442 22.776C52.5156 22.686 52.5968 22.6026 52.6848 22.5266C53.0085 22.25 53.3989 22.063 53.8173 21.9843C54.2357 21.9055 54.6674 21.9377 55.0695 22.0776C56.616 22.5897 57.8633 23.4345 59.6327 22.6762C59.9361 22.5111 60.196 22.2763 60.391 21.9911C60.5395 21.8596 60.732 21.7887 60.9304 21.7924C61.1287 21.7961 61.3184 21.8741 61.4619 22.011L61.4586 22.031Z" fill="#E0E0E0"/>
<path d="M52.4453 22.6363C52.8831 22.3923 53.3656 22.2392 53.8639 22.186C54.3622 22.1329 54.8662 22.1808 55.3455 22.327C56.1537 22.5765 56.8522 23.0953 57.6305 23.4279C58.5049 23.7898 59.4589 23.916 60.3973 23.7941C61.3357 23.6721 62.2257 23.3062 62.9786 22.7328C63.1979 22.5908 63.3849 22.4043 63.5276 22.1855C63.6702 21.9666 63.7653 21.7202 63.8067 21.4623C63.8083 21.2442 63.7611 21.0285 63.6684 20.8311C63.5757 20.6337 63.44 20.4596 63.2713 20.3215C62.9319 20.0495 62.5435 19.8452 62.1271 19.7195C60.2184 19.1029 58.1906 18.9479 56.2103 19.2672C54.6172 19.4933 52.9908 19.9889 51.8433 21.1097C51.6856 21.2513 51.5598 21.4247 51.4741 21.6186C51.4309 21.7187 51.4143 21.8283 51.426 21.9367C51.4376 22.0451 51.4771 22.1486 51.5407 22.2372C51.6086 22.3217 51.707 22.376 51.8147 22.3885C51.9224 22.4009 52.0306 22.3705 52.116 22.3037" fill="#E0E0E0"/>
<path d="M63.0421 28.8891C63.0421 28.9356 62.8958 28.9922 62.7095 29.052C62.5232 29.1119 62.3769 29.1618 62.347 29.1219C62.317 29.082 62.4501 28.9589 62.653 28.8891C62.8558 28.8192 63.0388 28.8425 63.0421 28.8891Z" fill="#CC937F"/>
<path d="M63.2749 29.3183C63.2749 29.3649 63.072 29.3749 62.8392 29.3782C62.6064 29.3815 62.4101 29.3782 62.4035 29.3183C62.3968 29.2584 62.5897 29.2019 62.8392 29.2019C63.0886 29.2019 63.2815 29.2684 63.2749 29.3183Z" fill="#CC937F"/>
<path d="M53.826 29.0688C53.826 29.1187 53.5566 29.1287 53.2306 29.1287C52.9047 29.1287 52.6386 29.1287 52.6353 29.0688C52.632 29.0089 52.8947 28.9524 53.2306 28.9557C53.5665 28.959 53.8326 29.0222 53.826 29.0688Z" fill="#CC937F"/>
<path d="M53.7925 29.6175C53.7925 29.6674 53.553 29.6607 53.2736 29.6607C52.9943 29.6607 52.7681 29.6607 52.7581 29.6208C52.7481 29.5809 52.9776 29.4878 53.2736 29.4878C53.5697 29.4878 53.8025 29.5743 53.7925 29.6175Z" fill="#CC937F"/>
<path d="M56.2968 30.5056C56.2968 30.5056 56.2203 30.6286 56.0241 30.7384C55.7652 30.8765 55.4714 30.9355 55.1793 30.908C54.8856 30.877 54.6071 30.7615 54.3777 30.5754C54.2081 30.4291 54.1416 30.306 54.1582 30.2927C54.4667 30.5146 54.8215 30.6636 55.1959 30.7284C55.5748 30.7358 55.9506 30.6597 56.2968 30.5056Z" fill="#CC937F"/>
<path d="M56.5731 30.3726C56.593 30.4158 56.3037 30.5655 55.9079 30.5655C55.7899 30.58 55.6703 30.5707 55.5561 30.5381C55.4418 30.5056 55.3352 30.4504 55.2427 30.3759C55.2427 30.3294 55.5487 30.3959 55.9079 30.3759C56.2671 30.356 56.5431 30.326 56.5731 30.3726Z" fill="#CC937F"/>
<path d="M62.4633 29.9933C62.1692 30.18 61.8349 30.2943 61.488 30.3266C61.1411 30.359 60.7914 30.3086 60.4678 30.1795C60.4678 30.1297 60.9201 30.2061 61.4656 30.1529C62.011 30.0997 62.4434 29.9334 62.4633 29.9933Z" fill="#CC937F"/>
<path d="M62.1673 30.2029C61.9433 30.4524 61.6428 30.6205 61.3129 30.6807C60.983 30.7409 60.6424 30.6898 60.3447 30.5355C60.6575 30.5502 60.9708 30.5435 61.2826 30.5155C61.5841 30.4307 61.8796 30.3263 62.1673 30.2029Z" fill="#CC937F"/>
<path d="M60.9035 25.3702C60.6832 25.4585 60.4514 25.5145 60.2151 25.5365C59.6526 25.6197 59.0836 25.6497 58.5155 25.6263C57.9474 25.6041 57.3827 25.5272 56.8293 25.3968C56.597 25.3606 56.3723 25.2864 56.1641 25.1773C56.1641 25.1241 57.2151 25.4068 58.5288 25.4533C59.8426 25.4999 60.8936 25.317 60.9035 25.3702Z" fill="#CC937F"/>
<path d="M61.3158 24.8946C59.8635 25.1739 58.3713 25.1739 56.9189 24.8946C56.9189 24.8447 57.9167 24.9378 59.1174 24.9378C60.3181 24.9378 61.3092 24.8447 61.3158 24.8946Z" fill="#CC937F"/>
<path d="M58.2229 26.8603C58.173 26.8603 58.1597 26.7339 58.153 26.5976C58.1464 26.4612 58.153 26.3415 58.2029 26.3282C58.2528 26.3149 58.3227 26.4313 58.326 26.5909C58.3293 26.7506 58.2661 26.8736 58.2229 26.8603Z" fill="#CC937F"/>
<path d="M59.0573 26.9701C59.0407 27.0133 58.8478 26.9701 58.7679 26.7439C58.6881 26.5178 58.7846 26.3581 58.8278 26.3814C58.871 26.4047 58.8677 26.5344 58.9276 26.6807C58.9875 26.8271 59.0806 26.9402 59.0573 26.9701Z" fill="#CC937F"/>
<path d="M56.52 33.1065C56.52 33.1564 56.3271 33.1864 56.1574 33.3294C55.9878 33.4724 55.9113 33.662 55.8648 33.6354C55.8182 33.6088 55.8182 33.3793 56.0477 33.193C56.2772 33.0068 56.5433 33.06 56.52 33.1065Z" fill="#CC937F"/>
<path d="M55.8082 33.0566C55.8082 33.1032 55.6951 33.1298 55.6186 33.2229C55.5421 33.3161 55.5221 33.4158 55.4756 33.4325C55.429 33.4491 55.4224 33.4092 55.4124 33.3427C55.4071 33.3006 55.4112 33.2579 55.4244 33.2176C55.4377 33.1774 55.4597 33.1406 55.4889 33.1098C55.516 33.0769 55.55 33.0504 55.5885 33.032C55.627 33.0136 55.6691 33.0038 55.7117 33.0034C55.7782 33.0034 55.8115 33.0334 55.8082 33.0566Z" fill="#CC937F"/>
<path d="M53.2337 43.673C53.2337 43.673 53.1538 43.673 53.0474 43.5799C52.9061 43.4498 52.8144 43.2746 52.788 43.0843C52.7452 42.8098 52.7565 42.5297 52.8213 42.2595C52.9043 41.9569 52.9043 41.6375 52.8213 41.3349C52.7647 41.1885 52.655 41.0522 52.5884 40.8792C52.5334 40.7118 52.5334 40.5311 52.5884 40.3637C52.6259 40.239 52.6259 40.106 52.5884 39.9812C52.5439 39.871 52.487 39.7661 52.4188 39.6686C52.3594 39.5911 52.3189 39.5009 52.3004 39.4051C52.282 39.3093 52.286 39.2105 52.3124 39.1165C52.3689 38.9768 52.462 38.9602 52.462 38.9701C52.462 38.9801 52.4022 39.02 52.3756 39.1331C52.366 39.2172 52.3741 39.3023 52.3993 39.383C52.4245 39.4638 52.4663 39.5384 52.5219 39.6021C52.6029 39.7042 52.671 39.8159 52.7248 39.9347C52.7713 40.0864 52.7713 40.2486 52.7248 40.4003C52.6797 40.5363 52.6797 40.6833 52.7248 40.8194C52.778 40.9591 52.8844 41.0921 52.9576 41.2717C53.0559 41.6038 53.0559 41.9573 52.9576 42.2894C52.8898 42.5418 52.8662 42.804 52.8878 43.0644C52.903 43.2355 52.9677 43.3984 53.074 43.5333C53.1771 43.6265 53.2403 43.6597 53.2337 43.673Z" fill="#CC937F"/>
<path d="M54.9568 44.0023C54.9568 44.0023 54.8703 44.0023 54.7506 43.9325C54.5934 43.8077 54.4775 43.6385 54.418 43.4469C54.2042 42.8538 54.0547 42.2394 53.9723 41.6143C53.9553 41.433 53.9498 41.2508 53.9557 41.0688C53.9669 40.9083 53.9669 40.7471 53.9557 40.5866C53.9557 40.2872 53.6564 40.1841 53.4668 40.0112C53.3736 39.9333 53.3111 39.8249 53.2905 39.7052C53.2852 39.6582 53.2908 39.6106 53.307 39.5662C53.3232 39.5218 53.3494 39.4817 53.3836 39.4491C53.5067 39.3393 53.6098 39.4059 53.5965 39.4125C53.5832 39.4192 53.51 39.4125 53.4335 39.4957C53.4119 39.5223 53.3962 39.5534 53.3876 39.5867C53.379 39.62 53.3776 39.6547 53.3836 39.6886C53.412 39.7805 53.4691 39.861 53.5466 39.918C53.6331 39.9912 53.7495 40.0478 53.8792 40.1376C53.9471 40.1887 54.0039 40.2531 54.0462 40.3269C54.0885 40.4006 54.1154 40.4822 54.1253 40.5666C54.1387 40.736 54.1387 40.9061 54.1253 41.0755C54.1222 41.2498 54.1289 41.4241 54.1453 41.5977C54.2294 42.2097 54.3595 42.8145 54.5344 43.407C54.5754 43.5833 54.6613 43.746 54.7839 43.8792C54.8803 43.969 54.9601 43.989 54.9568 44.0023Z" fill="#CC937F"/>
<path d="M55.7183 17.6741C55.7657 17.6412 55.8171 17.6144 55.8713 17.5943C55.9755 17.5433 56.1285 17.4801 56.3302 17.4047C56.9029 17.2001 57.4981 17.065 58.103 17.0023C59.003 16.9042 59.9131 16.9616 60.7936 17.1719C61.3196 17.2863 61.826 17.4768 62.297 17.7373C62.8214 18.0074 63.248 18.4349 63.5171 18.9598C63.7861 19.4848 63.884 20.0807 63.797 20.6642C63.7323 21.2045 63.5433 21.7224 63.2449 22.1775C62.9714 22.5814 62.614 22.9218 62.1972 23.1752C61.8381 23.403 61.4452 23.5725 61.0331 23.6775C60.4423 23.8334 59.8275 23.8774 59.2205 23.8072C59.0561 23.7885 58.8929 23.7607 58.7316 23.724C58.6741 23.7152 58.6181 23.6984 58.5653 23.6741C58.5653 23.6741 58.8014 23.7107 59.2305 23.7406C59.8284 23.7812 60.4288 23.7205 61.0065 23.561C61.4025 23.4503 61.7794 23.2799 62.124 23.0555C62.5221 22.8039 62.8622 22.4706 63.1218 22.0777C63.4015 21.6406 63.5788 21.1461 63.6407 20.6309C63.7194 20.0807 63.6254 19.5196 63.3716 19.0251C63.1178 18.5307 62.7167 18.1272 62.2238 17.8704C61.7667 17.617 61.2763 17.4289 60.767 17.3116C59.903 17.0976 59.0092 17.0301 58.1229 17.112C57.5251 17.1597 56.9342 17.2712 56.3602 17.4446C55.9444 17.5976 55.7249 17.6908 55.7183 17.6741Z" fill="white"/>
<path d="M64.9644 19.4302C65.032 19.6458 65.04 19.8756 64.9877 20.0954C64.8855 20.6318 64.6421 21.1312 64.2826 21.5421C63.9298 21.9473 63.521 22.3 63.0686 22.5898C62.8952 22.728 62.7025 22.8401 62.4966 22.9224C62.6461 22.7606 62.8147 22.6177 62.9988 22.4967C63.4168 22.1811 63.8033 21.8258 64.1529 21.4357C64.4888 21.0409 64.73 20.5744 64.858 20.0721C64.9611 19.6863 64.9345 19.4335 64.9644 19.4302Z" fill="white"/>
<path d="M54.8803 19.9092C54.1301 20.1497 53.4137 20.485 52.7484 20.907C52.2229 21.2861 51.7506 21.6786 51.6009 22.0644C51.5204 22.2764 51.4975 22.5059 51.5344 22.7296C51.5344 22.7296 51.4812 22.6797 51.4513 22.5566C51.411 22.3797 51.4226 22.195 51.4845 22.0245C51.6342 21.5755 52.1098 21.1564 52.6486 20.7673C53.1287 20.4419 53.6575 20.1949 54.2151 20.0356C54.4275 19.9539 54.6528 19.9111 54.8803 19.9092Z" fill="white"/>
<path d="M52.2691 19.3604C52.2691 19.3803 52.1261 19.5067 51.88 19.7096C51.5532 19.9609 51.2701 20.2643 51.0418 20.6076C50.8232 20.9496 50.7228 21.3538 50.7558 21.7584C50.7867 21.9267 50.8267 22.0932 50.8755 22.2572C50.8755 22.2572 50.7059 22.1142 50.6361 21.7783C50.5617 21.3398 50.653 20.8894 50.8922 20.5145C51.133 20.158 51.4443 19.8546 51.8068 19.6231C51.9427 19.5067 52.0996 19.4175 52.2691 19.3604Z" fill="white"/>
<path d="M46.8613 24.2528C46.919 24.0505 47.0239 23.8647 47.1673 23.7107C47.4836 23.3106 47.8977 22.9988 48.3695 22.8054C48.8414 22.612 49.3552 22.5435 49.8613 22.6065C50.072 22.6144 50.2776 22.6737 50.46 22.7794C50.46 22.806 50.2239 22.7462 49.8514 22.7295C49.3676 22.7011 48.8837 22.7817 48.4352 22.9653C47.9868 23.149 47.5853 23.431 47.2604 23.7905C47.0077 24.0632 46.8979 24.2794 46.8613 24.2528Z" fill="white"/>
<path d="M48.8404 25.6595C48.752 25.516 48.7091 25.349 48.7173 25.1806C48.6981 24.7732 48.8167 24.3712 49.0538 24.0394C49.2909 23.7075 49.6328 23.4652 50.0244 23.3513C50.1807 23.2883 50.3528 23.2755 50.5167 23.3148C50.3688 23.3738 50.2178 23.4249 50.0644 23.4677C49.7142 23.6007 49.4111 23.8343 49.1933 24.1391C48.9755 24.4438 48.8527 24.8062 48.8404 25.1806C48.8487 25.3401 48.8487 25.5 48.8404 25.6595Z" fill="white"/>
<path d="M66.0351 25.5C65.8426 25.563 65.6361 25.57 65.4397 25.52C64.9544 25.4447 64.5071 25.2123 64.1665 24.8585C63.8259 24.5046 63.6107 24.0489 63.5539 23.561C63.5128 23.3637 63.5266 23.159 63.5938 22.969C63.6238 22.969 63.5938 23.1952 63.6737 23.5411C63.759 23.9913 63.9737 24.4069 64.2915 24.7371C64.6093 25.0673 65.0164 25.2977 65.463 25.4003C65.8089 25.4834 66.0318 25.4734 66.0351 25.5Z" fill="white"/>
<path d="M65.9886 26.7173C65.4877 26.8439 64.9607 26.822 64.472 26.6541C63.9639 26.5426 63.5007 26.282 63.1416 25.9058C63.5838 26.13 64.0405 26.3244 64.5086 26.4878C64.9968 26.594 65.4911 26.6707 65.9886 26.7173Z" fill="white"/>
<path d="M61.6318 40.8759C62.0542 40.8759 66.5409 40.2772 69.2815 42.0832C72.0221 43.8892 79.3924 57.8715 79.3924 57.8715C79.3924 57.8715 81.6407 65.3116 78.4811 66.785C75.3214 68.2584 66.97 72.7517 66.97 72.7517L64.9345 65.3815L70.6917 62.7207V55.6132L61.6318 40.8759Z" fill="#455A64"/>
<path d="M70.6914 56.2251L73.7879 56.3947C74.6263 56.4411 75.4444 56.6703 76.185 57.0661C76.9255 57.462 77.5706 58.0149 78.075 58.6863L80.0706 61.367C80.0706 61.367 81.1382 62.7539 80.8256 63.3626C80.5695 63.8615 80.0639 63.8216 79.575 63.3825C79.0861 62.9435 77.5262 60.6519 77.5262 60.6519C77.5262 60.6519 80.3998 64.3304 79.7446 65.0089C79.0894 65.6874 78.3544 64.7961 78.3544 64.7961C78.3544 64.7961 78.7934 66.2129 77.9154 66.0666C77.0373 65.9202 75.983 64.6031 75.983 64.6031C75.983 64.6031 76.1127 65.4313 75.3178 65.3349C74.5229 65.2384 72.2446 61.7229 72.0484 61.7229C71.8522 61.7229 70.8311 61.6264 70.8311 61.6264L70.6914 56.2251Z" fill="#E8AF96"/>
<path d="M76.3457 59.4844C76.78 59.8705 77.1755 60.2983 77.5264 60.7615C77.9205 61.1882 78.2714 61.6527 78.5741 62.1485C78.1398 61.7623 77.7443 61.3345 77.3934 60.8713C77.0001 60.444 76.6493 59.9795 76.3457 59.4844Z" fill="#A56349"/>
<path d="M75.4346 60.9944C75.6112 61.1696 75.7694 61.3624 75.9069 61.5698C76.1829 61.939 76.572 62.4445 76.9978 62.9966C77.4235 63.5487 77.8293 64.0409 78.1186 64.4002C78.2898 64.5818 78.4393 64.7827 78.5643 64.9988C78.3649 64.8476 78.1841 64.6735 78.0255 64.48C77.7128 64.1474 77.2938 63.6585 76.8614 63.103C76.429 62.5476 76.0599 62.0288 75.8071 61.6429C75.6554 61.4437 75.5302 61.2257 75.4346 60.9944Z" fill="#A56349"/>
<path d="M74.3833 62.561C74.7652 62.815 75.0912 63.1444 75.3412 63.5289C75.6406 63.8783 75.8668 64.2844 76.0064 64.7229C75.9631 64.7462 75.6571 64.224 75.2115 63.632C74.9175 63.2893 74.6411 62.9318 74.3833 62.561Z" fill="#A56349"/>
<path d="M68.7059 48.1664C68.676 48.1664 68.7259 47.7939 68.7059 47.1986C68.6749 46.4267 68.5223 45.6645 68.2536 44.9403C67.98 44.2181 67.5926 43.5444 67.1061 42.9447C66.7303 42.4857 66.4409 42.2396 66.4709 42.2163C66.5008 42.193 66.554 42.2596 66.6837 42.366C66.8678 42.5192 67.0401 42.686 67.1993 42.8649C67.7244 43.4569 68.137 44.14 68.4166 44.8804C68.6973 45.6241 68.8372 46.4136 68.829 47.2086C68.8266 47.447 68.8066 47.6849 68.7691 47.9203C68.7618 48.0053 68.7405 48.0885 68.7059 48.1664Z" fill="#263238"/>
<path d="M49.2461 45.7384C49.2461 45.7384 53.3004 48.0665 56.3769 47.4013C58.3383 46.912 60.1453 45.9376 61.6319 44.5676L67.0731 57.0233L63.8503 81.9678L54.1286 83.235L50.9057 59.571L49.2461 45.7384Z" fill="#FAFAFA"/>
<path d="M48.9431 41.3416L46.8311 42.0832L42.9265 67.5533C42.9265 67.5533 39.9132 78.1597 40.1759 82.7429C40.4387 87.326 42.9065 101.521 42.9065 101.521L60.7203 99.6453L59.9819 71.7739C59.9819 71.7739 61.2657 63.7518 57.4608 58.8959C53.6559 54.04 48.9431 41.3416 48.9431 41.3416Z" fill="#455A64"/>
<path d="M59.1606 40.7793C59.4068 41.1318 63.3014 55.9323 62.8824 59.0487C62.4633 62.1651 60.195 68.6939 60.195 68.6939V99.552L75.9134 98.1152C75.9134 98.1152 77.2006 86.8503 75.9134 81.4556C74.6263 76.0609 72.7504 69.6718 72.7504 69.6718L71.5099 50.8369L63.6008 40.7793H59.1606Z" fill="#455A64"/>
<path d="M76.6784 91.224C76.6467 91.2124 76.6165 91.1967 76.5886 91.1775L76.3359 91.0245C76.1097 90.8881 75.7838 90.6919 75.3381 90.4591C74.8093 90.1767 74.2372 89.9845 73.6452 89.8903C73.2774 89.8406 72.9038 89.8553 72.541 89.9336C72.1375 90.0375 71.7519 90.2012 71.3969 90.4191C71.021 90.6453 70.6485 90.9214 70.2594 91.2107L69.0421 92.1087C68.2006 92.724 67.3093 93.3925 66.3514 94.081C65.8665 94.4563 65.2943 94.7023 64.6884 94.7961C64.0449 94.8137 63.4071 94.6708 62.8326 94.3803C61.6651 93.8515 60.4578 93.326 59.1973 92.8305C58.5654 92.5843 57.9434 92.3382 57.3215 92.1353C56.7173 91.9205 56.0801 91.8136 55.439 91.8194C54.8232 91.8544 54.2277 92.0518 53.7128 92.3914C53.2154 92.7188 52.7548 93.0991 52.3392 93.5256C51.5044 94.3371 50.7427 95.1886 49.7982 95.6974C49.6842 95.7622 49.5652 95.8178 49.4423 95.8637C49.3256 95.9206 49.2029 95.9641 49.0765 95.9934C48.8364 96.073 48.5871 96.121 48.3348 96.1364C47.8662 96.164 47.3961 96.135 46.9345 96.05C45.5506 95.7874 44.2082 95.3399 42.9434 94.7196C42.4911 94.5134 42.1452 94.3404 41.9124 94.224L41.6463 94.091C41.5864 94.0577 41.5565 94.0411 41.5598 94.0378L41.6563 94.0744L41.9257 94.1941L42.97 94.6597C44.2411 95.2515 45.5822 95.6795 46.9612 95.9336C47.4143 96.0138 47.8756 96.0383 48.3348 96.0067C48.5772 95.99 48.8164 95.9419 49.0465 95.8637C49.1615 95.8334 49.273 95.7911 49.3791 95.7373C49.4933 95.69 49.6044 95.6356 49.7117 95.5744C50.623 95.0821 51.3747 94.244 52.2095 93.4158C52.6318 92.9785 53.1001 92.5882 53.6064 92.2517C54.1446 91.898 54.7661 91.6915 55.409 91.6531C56.0721 91.649 56.7307 91.7616 57.3547 91.9857C57.9867 92.1952 58.6086 92.4413 59.2405 92.6841C60.5011 93.1797 61.7184 93.7118 62.8791 94.2407C63.427 94.5213 64.0364 94.6608 64.6518 94.6464C65.2341 94.5648 65.7859 94.3359 66.2549 93.9812L68.9523 92.0256L70.1729 91.1376C70.5451 90.8553 70.9314 90.5922 71.3303 90.3493C71.6958 90.1253 72.0942 89.9603 72.511 89.8604C72.8863 89.7819 73.2726 89.7706 73.6518 89.8271C74.2536 89.9281 74.8331 90.133 75.3647 90.4325C75.7009 90.6136 76.0272 90.8123 76.3425 91.0278L76.5886 91.1941C76.6518 91.2007 76.6818 91.2207 76.6784 91.224Z" fill="#FAFAFA"/>
<path d="M55.5019 67.5466C55.5884 67.5167 58.299 66.0333 58.9841 65.9469C59.6693 65.8604 64.9974 65.6143 64.9974 65.6143L66.4209 70.7728C66.4209 70.7728 61.9808 72.9247 61.2957 73.101C60.6105 73.2772 57.7003 74.3282 57.2147 74.3282C56.7292 74.3282 55.3589 73.8692 55.3589 73.5566C55.3525 73.474 55.3675 73.3911 55.4024 73.3159C55.4374 73.2408 55.4911 73.1759 55.5584 73.1276C56.1792 73.15 56.8008 73.1122 57.4143 73.0145C57.7356 72.9001 58.0499 72.7668 58.3555 72.6154C58.3555 72.6154 53.4764 73.3571 53.1338 73.2406C52.7912 73.1242 52.5351 72.4125 52.5351 72.4125C52.5351 72.4125 51.9631 72.0134 51.9065 71.6442C51.85 71.275 52.0496 71.1021 52.3622 70.959C52.6748 70.816 54.7868 69.8748 55.4154 69.7018C56.044 69.5289 57.7003 69.2462 57.7003 69.2462C57.7003 69.2462 52.6748 69.7883 52.3788 69.6453C52.0828 69.5023 51.7136 68.9602 52.2358 68.6475C52.8597 68.247 53.5435 67.9483 54.2613 67.7628C54.8167 67.6597 55.5019 67.5466 55.5019 67.5466Z" fill="#CC937F"/>
<path d="M59.0741 70.6165C58.7744 70.7768 58.459 70.9061 58.1329 71.0023C57.5409 71.2118 56.7127 71.4712 55.7815 71.7074C54.8502 71.9435 53.9988 72.1031 53.3801 72.1996C53.0461 72.2672 52.7065 72.3039 52.3657 72.3094C52.6918 72.207 53.0254 72.1303 53.3635 72.0799C53.9755 71.9535 54.8203 71.7706 55.7482 71.5377C56.6761 71.3049 57.501 71.0655 58.103 70.8725C58.4201 70.7637 58.7446 70.6781 59.0741 70.6165Z" fill="#997163"/>
<path d="M58.605 66.7749C58.1167 66.973 57.6081 67.1169 57.0884 67.2039C56.5817 67.3469 56.0608 67.4339 55.5352 67.4634C56.0235 67.2652 56.5321 67.1214 57.0518 67.0343C57.5586 66.8918 58.0794 66.8048 58.605 66.7749Z" fill="#997163"/>
<path d="M65.104 67.6629C65.0372 67.6777 64.9694 67.6866 64.9011 67.6896C64.7224 67.7318 64.551 67.8002 64.3922 67.8924C64.1448 68.0502 63.8605 68.1407 63.5674 68.1552C63.2348 68.1352 62.9022 67.949 62.6361 68.1751C62.5031 68.3012 62.3571 68.4127 62.2004 68.5077C62.0321 68.5776 61.8466 68.595 61.6683 68.5576C61.3357 68.4911 61.0895 68.3647 60.8601 68.3514C60.685 68.3314 60.5092 68.3816 60.3711 68.4911C60.278 68.5743 60.2581 68.6507 60.2448 68.6441C60.2315 68.6374 60.2448 68.5576 60.3213 68.4445C60.3909 68.3709 60.4758 68.3134 60.5701 68.2761C60.6643 68.2387 60.7655 68.2224 60.8667 68.2284C61.1449 68.2677 61.4204 68.3243 61.6915 68.398C61.8382 68.4263 61.9899 68.4101 62.1272 68.3514C62.272 68.2586 62.4088 68.1541 62.5363 68.0388C62.6161 67.9752 62.7094 67.9308 62.8091 67.9091C62.9048 67.8924 63.0027 67.8924 63.0984 67.9091C63.278 67.9357 63.431 67.9889 63.5774 67.9989C63.8445 67.9894 64.1056 67.9164 64.339 67.786C64.512 67.6971 64.7007 67.6429 64.8944 67.6264C65.0341 67.6197 65.1073 67.653 65.104 67.6629Z" fill="#997163"/>
<path d="M65.1575 68.7207C65.016 68.9075 64.8156 69.0411 64.5888 69.0999C64.3488 69.184 64.0924 69.2102 63.8404 69.1764C63.7072 69.1477 63.5708 69.1365 63.4347 69.1431C63.37 69.1544 63.3088 69.1803 63.2558 69.2189C63.2027 69.2576 63.1592 69.3079 63.1287 69.3659C63.0362 69.5142 62.8933 69.624 62.7262 69.6753C62.5739 69.7082 62.4163 69.7082 62.2639 69.6753C62.033 69.6165 61.7968 69.5809 61.5588 69.5688C61.4063 69.5736 61.2608 69.6339 61.1497 69.7384C61.0766 69.8183 61.0599 69.8815 61.0433 69.8781C61.0267 69.8748 61.0267 69.805 61.0965 69.6985C61.1502 69.6273 61.2182 69.568 61.296 69.5245C61.3739 69.481 61.46 69.4541 61.5488 69.4458C61.7971 69.4388 62.0452 69.4634 62.2872 69.5189C62.418 69.5497 62.5551 69.5401 62.6804 69.4914C62.8057 69.4427 62.9132 69.3572 62.989 69.2462C63.0384 69.1759 63.0965 69.1122 63.1619 69.0566C63.2358 69.0015 63.3231 68.9671 63.4147 68.9568C63.5656 68.9511 63.7166 68.9656 63.8637 69.0001C64.094 69.039 64.33 69.0277 64.5555 68.9668C64.7619 68.8995 64.9631 68.8172 65.1575 68.7207Z" fill="#997163"/>
<path d="M50.247 70.9356C50.1263 70.9568 50.0033 70.9623 49.8812 70.9523C49.7368 70.9529 49.5925 70.9462 49.4488 70.9323C49.2825 70.9157 49.0896 70.9057 48.8801 70.8691C48.3884 70.7922 47.9028 70.6811 47.4266 70.5365C46.8441 70.3566 46.2732 70.1411 45.7171 69.8913C44.7152 69.4288 43.753 68.8849 42.8401 68.2649C42.4876 68.0288 42.2115 67.8325 42.022 67.6895C41.9182 67.6229 41.8233 67.5436 41.7393 67.4534C41.8578 67.4979 41.9697 67.5583 42.0719 67.633L42.9067 68.1818C43.8328 68.768 44.796 69.2935 45.7903 69.7549C46.3388 70.0068 46.9006 70.2288 47.4732 70.4201C47.9408 70.568 48.4174 70.6857 48.9 70.7727C49.7248 70.8957 50.2503 70.9024 50.247 70.9356Z" fill="#263238"/>
<path d="M53.6794 75.3525C53.4915 75.3303 53.3057 75.2925 53.124 75.2395C52.9066 75.194 52.6922 75.1351 52.4821 75.0632C52.2326 74.9867 51.9466 74.9069 51.6439 74.7871C50.9241 74.523 50.2211 74.2153 49.5386 73.8658C48.7074 73.4303 47.9012 72.9483 47.124 72.4224C45.7207 71.4524 44.4002 70.3678 43.1761 69.1796C42.7071 68.7273 42.338 68.3481 42.0918 68.0787C41.9577 67.9456 41.8342 67.8022 41.7227 67.6497C41.8722 67.7647 42.0124 67.8915 42.1417 68.0288C42.4011 68.2849 42.7836 68.6508 43.2626 69.0898C44.5031 70.2461 45.8259 71.311 47.2204 72.276C47.9923 72.7978 48.7905 73.2796 49.6118 73.7195C50.285 74.0747 50.9779 74.3911 51.6872 74.6674C51.9865 74.7938 52.2659 74.8836 52.5087 74.9701C52.7515 75.0565 52.9643 75.1231 53.1406 75.1729C53.3243 75.2197 53.5044 75.2797 53.6794 75.3525Z" fill="#263238"/>
<path d="M72.2417 61.949C71.9091 62.1484 71.5623 62.3229 71.204 62.4712C70.5388 62.7738 69.6441 63.1796 68.6363 63.6086C67.6286 64.0377 66.7106 64.4135 66.0388 64.6663C65.7062 64.7927 65.4268 64.8924 65.2372 64.9556C65.1412 64.998 65.039 65.0249 64.9346 65.0354C65.2758 64.851 65.6292 64.6899 65.9922 64.5532L68.5698 63.449L71.1541 62.3581C71.5057 62.1943 71.8693 62.0576 72.2417 61.949Z" fill="#263238"/>
<path d="M65.563 47.9934C65.563 47.9934 65.6096 48.03 65.6827 48.1098L65.9954 48.4657C66.2681 48.7684 66.6606 49.2007 67.1927 49.7162C67.7249 50.2318 68.3402 50.8338 69.0153 51.5322C69.7594 52.2834 70.4155 53.117 70.971 54.0167C71.5138 54.9358 71.8698 55.953 72.0186 57.01C72.145 57.9779 72.1849 58.8493 72.2182 59.581C72.2515 60.3127 72.2581 60.9114 72.2614 61.3171C72.2614 61.5067 72.2614 61.6497 72.2614 61.7894C72.2652 61.8454 72.2596 61.9016 72.2448 61.9557C72.2318 61.9012 72.2251 61.8454 72.2249 61.7894C72.2249 61.663 72.2149 61.5067 72.1949 61.3205C72.1716 60.8848 72.1384 60.2994 72.0985 59.5876C72.0586 58.8759 71.9987 57.9879 71.8623 57.0333C71.7084 56.002 71.356 55.0103 70.8246 54.1131C70.2772 53.2239 69.6324 52.3984 68.9022 51.6519C68.237 50.9468 67.6118 50.3415 67.1062 49.8094C66.6007 49.2772 66.2049 48.8315 65.9455 48.5156L65.6594 48.1398C65.621 48.0954 65.5885 48.0462 65.563 47.9934Z" fill="#263238"/>
<path d="M78.1619 66.9246C78.0034 67.033 77.8378 67.1308 77.6663 67.2172L76.2827 67.9689C75.112 68.5942 73.4889 69.449 71.6929 70.3802C69.847 71.3414 68.1774 72.1962 66.9934 72.7915L66.9268 72.8281L66.9069 72.7549C66.7539 72.1596 66.6275 71.6674 66.5344 71.2948C66.4815 71.1197 66.4426 70.9407 66.418 70.7594C66.4926 70.9269 66.5526 71.1005 66.5976 71.2782C66.704 71.6474 66.8503 72.133 67.0233 72.725L66.9368 72.6851C68.1075 72.0598 69.7672 71.1851 71.6131 70.2272C73.459 69.2693 75.0421 68.4578 76.2262 67.8591L77.633 67.1574C77.8023 67.0647 77.9792 66.9868 78.1619 66.9246Z" fill="#263238"/>
<path d="M60.6375 73.3203C60.6456 73.4099 60.6456 73.5001 60.6375 73.5897C60.6375 73.7793 60.6042 74.0354 60.5776 74.3547C60.5144 75.0199 60.4679 75.9811 60.408 77.1718C60.3016 79.5498 60.2716 82.8259 60.3282 86.4844C60.3847 90.1429 60.4978 93.4123 60.5942 95.797C60.6408 96.9744 60.6807 97.9356 60.7073 98.6174C60.7073 98.95 60.7273 99.1961 60.7339 99.3857C60.7427 99.4753 60.7427 99.5655 60.7339 99.6551C60.7154 99.5675 60.7043 99.4785 60.7007 99.389C60.7007 99.1961 60.6641 98.9434 60.6408 98.6241C60.5942 97.9589 60.5344 96.9944 60.4712 95.8037C60.3448 93.4223 60.2084 90.1296 60.1552 86.491C60.102 82.8525 60.1552 79.5565 60.2849 77.1784C60.3614 75.9877 60.4246 75.0232 60.5111 74.3613C60.5477 74.0287 60.5776 73.7893 60.6009 73.5997C60.6046 73.5056 60.6168 73.4121 60.6375 73.3203Z" fill="#263238"/>
<path d="M46.8313 42.0833C46.8313 42.0833 40.9544 44.591 39.1417 48.5655C37.3291 52.54 33.6107 65.1586 33.5242 67.4901C33.4378 69.8216 37.7582 77.0821 37.7582 77.0821L44.5863 72.7584L43.2892 69.5622L45.3613 55.8227L46.8313 42.0833Z" fill="#455A64"/>
<path d="M44.0276 148.756C43.9186 148.756 43.8106 148.734 43.7099 148.693C43.6092 148.651 43.5178 148.59 43.4408 148.512C43.3639 148.435 43.303 148.343 43.2615 148.242C43.2201 148.142 43.199 148.034 43.1995 147.925C43.1995 147.259 43.3026 80.8436 43.2726 79.7693C43.2094 77.4811 41.8159 76.4434 41.756 76.3868C41.5842 76.256 41.47 76.0634 41.4376 75.8499C41.4052 75.6364 41.4572 75.4187 41.5825 75.2428C41.7079 75.0669 41.8967 74.9467 42.1091 74.9076C42.3215 74.8684 42.5408 74.9135 42.7205 75.0332C42.807 75.0964 44.8491 76.5731 44.9356 79.7228C44.9655 80.8203 44.8657 145.187 44.8624 147.925C44.8615 148.145 44.7732 148.357 44.6167 148.513C44.4603 148.669 44.2484 148.756 44.0276 148.756Z" fill="#263238"/>
<path d="M39.3082 84.7084C39.088 84.7066 38.8774 84.6179 38.7222 84.4615C38.5671 84.3052 38.4801 84.0938 38.4801 83.8736C38.4801 81.4057 38.4801 77.6574 38.4801 77.4379C38.4724 77.3297 38.4862 77.221 38.5208 77.1182C38.5553 77.0154 38.6099 76.9204 38.6813 76.8388C38.7527 76.7571 38.8396 76.6905 38.9369 76.6426C39.0343 76.5947 39.1401 76.5666 39.2484 76.5598C39.4701 76.5479 39.6877 76.6234 39.8544 76.7702C40.0211 76.917 40.1235 77.1233 40.1397 77.3447C40.1397 77.3813 40.1397 77.4977 40.1397 83.8769C40.1397 84.0974 40.0521 84.3089 39.8962 84.4648C39.7403 84.6208 39.5288 84.7084 39.3082 84.7084Z" fill="#263238"/>
<path d="M40.5788 72.8946L38.969 74.3048C38.5666 74.6574 38.061 77.7771 38.061 77.7771C38.061 77.7771 39.8238 79.6629 40.5788 79.7394C41.0682 79.7662 41.5507 79.6137 41.9358 79.3104C41.9358 79.3104 42.6908 79.7394 43.1464 79.3636C43.6021 78.9878 42.5145 76.5432 42.5145 76.5432C42.5145 76.5432 42.1087 75.3625 43.2562 75.4357L43.7484 76.3204L44.9823 78.4323C44.9823 78.4323 45.7373 78.3292 45.8637 77.9534C45.9901 77.5776 45.5311 76.3204 45.5311 76.3204C45.6726 76.103 45.766 75.8579 45.805 75.6015C45.844 75.3451 45.8277 75.0833 45.7573 74.8337C45.4812 74.102 45.0289 72.7683 43.6952 72.4689C42.3615 72.1696 40.5788 72.8946 40.5788 72.8946Z" fill="#CC937F"/>
<path d="M41.8758 79.0078C41.8525 79.0244 41.6497 78.7584 41.2772 78.3692C40.79 77.8679 40.249 77.4217 39.6641 77.0388C39.4887 76.9178 39.3395 76.7629 39.225 76.5832C39.1257 76.4016 39.0894 76.1922 39.1219 75.9878C39.1838 75.6614 39.3333 75.3579 39.5543 75.1098C39.7306 74.8969 39.8869 74.7373 39.9667 74.6176C40.0466 74.4978 40.1064 74.4313 40.1164 74.438C40.0109 74.7133 39.854 74.9662 39.6541 75.183C39.461 75.4213 39.3327 75.7054 39.2816 76.0078C39.2565 76.1762 39.2881 76.3482 39.3714 76.4967C39.4751 76.656 39.6097 76.7928 39.7672 76.8992C40.3608 77.2921 40.8989 77.7631 41.367 78.2994C41.572 78.5079 41.7437 78.7469 41.8758 79.0078Z" fill="#AA7968"/>
<path d="M44.1075 75.0466C44.1441 75.0798 43.9445 75.3293 43.8614 75.6918C43.7782 76.0543 43.8281 76.357 43.7816 76.3803C43.735 76.4036 43.5887 76.0676 43.6918 75.6519C43.7949 75.2362 44.0776 75.01 44.1075 75.0466Z" fill="#AA7968"/>
<path d="M35.1143 66.286C35.2714 66.2732 35.4294 66.2732 35.5865 66.286C35.7395 66.286 35.9191 66.286 36.142 66.286L36.8737 66.3791C37.1464 66.4157 37.4324 66.5021 37.7484 66.572C37.9047 66.6119 38.0577 66.6751 38.2207 66.7316C38.3899 66.7837 38.5555 66.847 38.7162 66.9212C39.4384 67.2409 40.1105 67.6632 40.7118 68.1751C41.3075 68.6862 41.8552 69.2506 42.3482 69.8613C42.8072 70.4168 43.193 70.9356 43.5222 71.3647C43.8515 71.7937 44.1209 72.1463 44.3105 72.3625C44.4166 72.4804 44.5123 72.6072 44.5965 72.7416C44.4746 72.6424 44.3632 72.5309 44.2639 72.409C44.0577 72.1828 43.7717 71.8469 43.4324 71.4112C43.0932 70.9755 42.6908 70.48 42.2284 69.9345C41.7353 69.3354 41.1924 68.7791 40.6054 68.2715C40.0192 67.7692 39.3653 67.3516 38.663 67.031C38.5073 66.9573 38.3474 66.8929 38.1841 66.8381C38.0245 66.7815 37.8748 66.715 37.7218 66.6718C37.4125 66.5986 37.1331 66.5088 36.867 66.4622L36.1453 66.3458C35.9324 66.3225 35.7495 66.3159 35.5965 66.3026C35.4356 66.3145 35.2739 66.3089 35.1143 66.286Z" fill="#263238"/>
<path d="M44.1072 54.5088C44.0953 54.7054 44.0697 54.901 44.0307 55.0942C43.9709 55.4667 43.8777 56.0055 43.758 56.6707C43.4986 58.0276 43.1527 59.8503 42.7602 61.8624C42.3678 63.8746 42.0718 65.7305 41.8789 67.0709C41.7857 67.7161 41.7092 68.2516 41.6527 68.654C41.6347 68.8501 41.6025 69.0446 41.5562 69.2361C41.5505 69.0393 41.5605 68.8425 41.5862 68.6474C41.6161 68.2682 41.676 67.7261 41.7558 67.0542C41.9188 65.7239 42.2081 63.8613 42.5906 61.8292C42.9731 59.797 43.3589 57.9744 43.6316 56.6474L43.9642 55.0809C43.9961 54.8866 44.044 54.6952 44.1072 54.5088Z" fill="#263238"/>
<path d="M45.7272 149.362H42.6074L43.1861 146.88H45.032L45.7272 149.362Z" fill="#455A64"/>
</g>
<defs>
<clipPath id="clip0_150_373">
<rect width="150.998" height="150" fill="white" transform="translate(0.00195312)"/>
</clipPath>
</defs>
</svg>
